<svg xmlns="http://www.w3.org/2000/svg" width="24" height="24" fill="none" viewBox="0 0 24 24"><g filter="url(#filter0_d_337_9425)"><path fill="#fff" fill-opacity=".8" d="M16.7996 1.60299C15.7096 1.5685 14.6403 1.90624 13.7678 2.56059C12.8953 3.21494 12.2717 4.14689 11.9996 5.20299C11.7275 4.14689 11.1039 3.21494 10.2314 2.56059C9.35894 1.90624 8.28965 1.5685 7.19961 1.60299C4.42841 1.51499 3.57561 4.47499 4.50841 6.39979H2.39961C2.18744 6.39979 1.98395 6.48407 1.83392 6.6341C1.68389 6.78413 1.59961 6.98762 1.59961 7.19979V8.79979C1.59961 9.01196 1.68389 9.21544 1.83392 9.36547C1.98395 9.5155 2.18744 9.59979 2.39961 9.59979H21.5996C21.8118 9.59979 22.0153 9.5155 22.1653 9.36547C22.3153 9.21544 22.3996 9.01196 22.3996 8.79979V7.19979C22.3996 6.98762 22.3153 6.78413 22.1653 6.6341C22.0153 6.48407 21.8118 6.39979 21.5996 6.39979H19.51C20.4796 4.50379 19.6668 1.60139 16.8636 1.60139H16.7996V1.60299ZM17.0924 6.39979H13.5996C13.6005 5.55165 13.938 4.73854 14.538 4.13911C15.138 3.53969 15.9515 3.20299 16.7996 3.20299C18.6796 3.20299 19.0124 6.19819 17.0924 6.39979ZM10.3996 6.39979H6.86681C5.21081 6.21259 5.11321 3.36939 6.93081 3.20299C7.02022 3.1948 7.1102 3.1948 7.19961 3.20299C8.04775 3.20299 8.8612 3.53969 9.46122 4.13911C10.0612 4.73854 10.3988 5.55165 10.3996 6.39979ZM3.19961 11.2014V18.4014C3.19961 19.0379 3.45247 19.6484 3.90255 20.0984C4.35264 20.5485 4.96309 20.8014 5.59961 20.8014H11.0465V11.2014H3.19961ZM13.0155 11.2014V20.8014H18.3996C19.0361 20.8014 19.6466 20.5485 20.0967 20.0984C20.5468 19.6484 20.7996 19.0379 20.7996 18.4014V11.2014H13.0155Z" shape-rendering="crispEdges"/></g><defs><filter id="filter0_d_337_9425" width="28.801" height="27.201" x="-2.4" y="-1.399" color-interpolation-filters="sRGB" filterUnits="userSpaceOnUse"><feFlood flood-opacity="0" result="BackgroundImageFix"/><feColorMatrix in="SourceAlpha" result="hardAlpha" type="matrix" values="0 0 0 0 0 0 0 0 0 0 0 0 0 0 0 0 0 0 127 0"/><feOffset dy="1"/><feGaussianBlur stdDeviation="2"/><feComposite in2="hardAlpha" operator="out"/><feColorMatrix type="matrix" values="0 0 0 0 0.404167 0 0 0 0 0.404167 0 0 0 0 0.404167 0 0 0 0.15 0"/><feBlend in2="BackgroundImageFix" mode="normal" result="effect1_dropShadow_337_9425"/><feBlend in="SourceGraphic" in2="effect1_dropShadow_337_9425" mode="normal" result="shape"/></filter></defs></svg>