<svg xmlns="http://www.w3.org/2000/svg" width="144" height="144" viewBox="0 0 144 144" fill="none">
<rect width="144" height="144" rx="32" fill="url(#paint0_linear_2863_46373)"/>
<g opacity="0.5">
<g filter="url(#filter0_d_2863_46373)">
<path d="M52.9347 15.354L43.8137 7.87345C43.1489 7.33319 43.1139 6.4189 43.7204 5.82669C44.3269 5.23448 45.3533 5.20331 46.0181 5.74357L55.1392 13.2241C55.804 13.7644 55.839 14.6787 55.2325 15.2709C54.6259 15.8527 53.5995 15.8943 52.9347 15.354Z" fill="#F0D1DA"/>
</g>
<g filter="url(#filter1_d_2863_46373)">
<path d="M91.5768 21.1739L95.3325 14.9817C95.5774 14.5869 96.1256 14.4414 96.5689 14.6492C97.0121 14.8674 97.1754 15.3557 96.9421 15.7505L93.1864 21.9427C92.9415 22.3375 92.3933 22.483 91.95 22.2752C91.5068 22.0674 91.3435 21.5687 91.5768 21.1739Z" fill="#97C7E8"/>
</g>
<g filter="url(#filter2_d_2863_46373)">
<rect width="1.62478" height="7.22986" rx="0.81239" transform="matrix(0.992688 0.120713 0.120713 -0.992688 130 32.1777)" fill="#FFCB00"/>
</g>
<g filter="url(#filter3_d_2863_46373)">
<rect width="1.62478" height="7.22986" rx="0.81239" transform="matrix(0.852174 0.523259 0.523259 -0.852174 13 24.1602)" fill="#FFCB00"/>
</g>
<g filter="url(#filter4_d_2863_46373)">
<rect width="1.62478" height="7.22986" rx="0.81239" transform="matrix(-0.796158 -0.605089 -0.605089 0.796158 48.668 45.9824)" fill="#FFCB00"/>
</g>
<g filter="url(#filter5_d_2863_46373)">
<rect width="1.62478" height="7.22986" rx="0.81239" transform="matrix(-0.696027 0.718015 0.718015 0.696027 97.1309 42)" fill="#FFCB00"/>
</g>
<g filter="url(#filter6_d_2863_46373)">
<path d="M90.9168 136.206L88.6191 131.894C88.2808 131.27 88.5841 130.522 89.2839 130.221C89.9838 129.92 90.8235 130.19 91.1618 130.813L93.4595 135.125C93.7978 135.748 93.4945 136.496 92.7947 136.798C92.0832 137.099 91.2434 136.829 90.9168 136.206Z" fill="#FF8B98"/>
</g>
<g filter="url(#filter7_d_2863_46373)">
<path d="M54.5768 114.174L58.3325 107.982C58.5774 107.587 59.1256 107.441 59.5689 107.649C60.0121 107.867 60.1754 108.356 59.9421 108.75L56.1864 114.943C55.9415 115.338 55.3933 115.483 54.95 115.275C54.5068 115.067 54.3435 114.569 54.5768 114.174Z" fill="#97C7E8"/>
</g>
<g filter="url(#filter8_d_2863_46373)">
<rect width="1.62478" height="7.22986" rx="0.81239" transform="matrix(-0.992688 -0.120713 -0.120713 0.992688 21.4863 118.196)" fill="#FFCB00"/>
</g>
<g filter="url(#filter9_d_2863_46373)">
<rect width="1.62478" height="7.22986" rx="0.81239" transform="matrix(-0.852174 -0.523259 -0.523259 0.852174 121.267 119.367)" fill="#FFCB00"/>
</g>
<g filter="url(#filter10_d_2863_46373)">
<rect width="1.62478" height="7.22986" rx="0.81239" transform="matrix(0.796158 0.605089 0.605089 -0.796158 112 100.758)" fill="#FF8B98"/>
</g>
<g filter="url(#filter11_d_2863_46373)">
<path d="M11.5641 75.4924L13.8619 79.8041C14.2001 80.4275 13.8969 81.1756 13.197 81.4769C12.4972 81.7782 11.6574 81.508 11.3192 80.8847L9.02144 76.573C8.68319 75.9496 8.98644 75.2015 9.68627 74.9002C10.3861 74.6093 11.2259 74.869 11.5641 75.4924Z" fill="#97C7E8"/>
</g>
</g>
<path opacity="0.4" d="M27.1969 93.2734C29.5828 93.2734 31.919 92.6272 33.9818 91.6331C36.6907 90.2662 38.8778 88.4768 40.7915 86.24C42.6803 84.0032 43.8981 81.2943 44.42 78.6847L44.4449 78.1876C44.4449 77.2681 43.9229 76.4728 43.0282 76.1746C42.8046 76.1 42.5809 76.0751 42.3572 76.0751C41.3382 76.0751 40.3193 76.7213 39.9216 77.7403L39.8719 77.79C39.0766 79.654 37.9582 81.2197 36.5913 82.5121C35.2244 83.7796 33.435 84.8482 31.8196 85.395C30.8752 85.6932 29.9556 85.8424 29.1354 85.8424C26.9981 85.8424 25.3578 84.9228 24.7116 83.3571C24.3388 82.6363 24.1649 81.6173 24.1649 80.4244C24.1649 79.9025 24.2146 79.3557 24.2643 78.7593C24.4631 76.9947 24.9104 75.0065 25.4572 73.1425C26.6004 69.2406 28.5638 65.3635 30.8752 62.2321C32.0184 60.6663 33.3356 59.3491 34.6279 58.529C35.9452 57.6591 37.0138 57.3857 38.2813 57.2615C39.7725 57.3112 40.5678 57.4603 41.3382 58.0568C41.9844 58.6284 42.4318 59.2248 42.4318 60.4426L42.4069 61.2379C42.0838 64.2451 39.0269 67.7743 35.4232 67.7743C34.6777 67.7743 33.9072 67.476 33.4599 67.1032C33.1368 66.8298 32.9628 66.5565 32.9628 66.1837V66.0346C32.9877 65.8854 33.0125 65.7115 33.0871 65.5126C33.4102 64.7671 34.106 63.9966 34.8765 63.4498C35.3984 63.0522 35.9949 62.9031 36.3677 62.9031C36.5416 62.9031 36.6659 62.9279 36.7156 63.0025C36.815 63.1516 36.9393 63.2759 37.0884 63.3504C37.2872 63.4498 37.486 63.4996 37.6849 63.4996C38.1571 63.4996 38.6541 63.2262 38.9524 62.7788C39.0518 62.58 39.1263 62.3812 39.1512 62.1823V61.9835C39.1512 61.4616 38.8778 61.1385 38.331 60.89C37.7346 60.5669 37.1381 60.4426 36.5913 60.4426C35.4729 60.4426 34.454 60.9645 33.6835 61.4368C32.4657 62.2321 31.4468 63.251 30.726 64.6428C30.4278 65.0901 30.2538 65.6369 30.2041 66.2334L30.1793 66.7056C30.1793 67.6748 30.5024 68.6441 31.1237 69.2654C32.1924 70.3838 33.4102 71.0051 34.8516 71.2785C35.3487 71.3531 35.8457 71.3779 36.3428 71.3779C41.5619 71.3779 46.8307 67.6251 49.0178 62.2569C49.4155 61.2379 49.7137 60.1693 49.8131 59.026C49.8628 58.6532 49.8877 58.3053 49.8877 57.9325L49.8628 57.3112C49.7634 55.5715 49.0924 53.7572 48.1977 52.44C46.2591 49.557 42.5809 48.1156 39.5488 48.0659L38.8529 48.041C35.7712 48.041 32.4906 49.2091 30.0302 50.8991C27.3212 52.6885 25.2335 54.8756 23.5932 57.1372C20.1635 61.6853 18.1256 66.5565 16.7587 71.5768C16.2616 73.3662 15.864 75.2053 15.6651 77.0693C15.5906 77.8148 15.5409 78.5853 15.5409 79.3557L15.516 80.2504C15.516 82.6612 15.9137 85.5193 17.3303 87.93C18.9706 90.6141 21.8784 92.5775 24.985 93.0746C25.7306 93.1988 26.4762 93.2734 27.1969 93.2734ZM63.3331 93.2485C64.1284 93.2485 64.8243 93.0746 65.4456 92.8509C66.7877 92.3538 67.7321 91.6828 68.6019 91.0118C70.2422 89.6946 71.5346 88.3276 72.7027 86.9359C75.1134 84.1275 77.1513 81.2943 79.0899 78.3368C79.2141 78.1379 79.2887 77.9391 79.3384 77.7651L79.3633 77.4669C79.3633 77.0693 79.2141 76.7213 78.9159 76.4728C78.6922 76.3237 78.4437 76.2491 78.1703 76.2491C77.6733 76.2491 77.1265 76.4976 76.7537 76.9201L76.7288 76.9698C74.5418 79.5048 72.1808 82.0398 69.77 84.2269C68.5274 85.2956 67.2847 86.3146 66.1166 87.0104L66.0172 87.0601C66.1415 86.5879 66.2658 86.1157 66.4646 85.5938C66.9368 84.2269 67.5333 82.7854 68.1794 81.344C69.4221 78.5604 71.0127 75.4787 72.5535 72.6454L72.8021 72.1235C72.9263 71.8501 73.0009 71.5768 73.0506 71.3282C73.1252 71.03 73.15 70.7318 73.15 70.4584C73.15 68.8429 72.131 67.5009 70.4908 67.1778C70.2422 67.1281 69.9688 67.1032 69.6955 67.1032C68.8753 67.1032 68.0055 67.3518 67.235 67.7991C65.9178 67.4263 64.6006 67.2275 63.2337 67.2275C61.991 67.2275 60.6987 67.3766 59.2821 67.7246C56.0512 68.5198 52.6463 70.856 50.683 73.5153C48.6202 76.1994 47.5515 78.9084 46.8307 81.4185C46.6319 82.189 46.4331 82.9346 46.2591 83.705C46.0355 84.8234 45.8615 85.9418 45.8615 87.1596C45.8615 87.93 45.936 88.7501 46.0852 89.5951C46.2343 90.3656 46.5574 91.2603 47.3527 92.0556C47.9988 92.7515 49.1669 93.1988 50.2107 93.1988L50.6084 93.174C52.9694 92.9006 54.3612 91.8071 55.6287 90.8875C57.3187 89.5206 58.6359 88.0046 59.7791 86.4637C59.7046 86.9856 59.6052 87.4578 59.5555 88.0294V88.1288C59.5555 88.5016 59.5057 88.8744 59.5057 89.2969C59.5057 90.0176 59.63 90.8378 60.3507 91.981C60.5744 92.3787 61.4194 92.9503 61.7922 93C62.3887 93.2237 62.6869 93.2485 63.3331 93.2485ZM52.0002 87.6318V87.2341C52.0002 86.8613 52.0747 86.3643 52.1741 85.8175C52.3978 84.724 52.8452 83.4068 53.3174 82.2138C54.0132 80.3001 54.9825 78.5107 56.1257 77.3178C57.2441 76.1248 58.3128 75.429 59.6797 75.1556C60.1768 75.0313 60.7732 74.9816 61.3697 74.9816C61.9413 74.9816 62.5378 75.0313 63.0597 75.1059C62.9852 75.255 62.9355 75.4041 62.9106 75.5532C61.4194 78.0634 59.804 80.4741 57.9649 82.6612C56.4737 84.4009 54.7588 86.0412 53.1434 87.0601C52.7457 87.3335 52.3232 87.5324 52.0002 87.6318ZM74.6909 92.9006C76.2815 92.9006 78.1952 91.5585 78.568 89.794C79.4627 86.6625 80.5313 83.4813 81.6497 80.325C81.9231 80.2753 82.1468 80.2007 82.4202 80.1013C82.6687 81.2943 82.9421 82.4623 83.29 83.6304C83.961 85.7926 84.7066 87.93 86.1233 89.9431C86.844 90.9372 87.7387 91.981 89.3293 92.6024C89.9258 92.7763 90.5968 92.8757 91.3175 92.8757C92.2619 92.8757 93.2809 92.6769 94.275 92.2296C95.965 91.4343 97.1083 90.1171 97.8538 88.9241C98.6491 87.6815 99.0965 86.5134 99.4693 85.2459L99.4941 85.1962L99.519 84.9974C99.519 84.7488 99.3947 84.5251 99.1213 84.4257C99.0468 84.376 98.9474 84.376 98.848 84.376C98.4503 84.376 98.2018 84.5997 97.9533 84.9476C96.6609 87.1099 94.8218 88.775 93.4797 88.775C92.9578 88.775 92.4856 88.5513 91.9886 88.2034C91.6655 87.9549 91.243 87.3832 90.9199 86.6376C89.8015 83.8541 89.4536 79.9771 89.4536 76.3485V75.2301C89.6027 75.1307 89.7518 75.0313 89.9009 74.9568C92.1874 73.5898 94.623 72.2726 96.9591 71.1046L97.3568 70.8809C98.5 70.185 99.2705 69.0666 99.519 67.9482C99.5687 67.6997 99.5936 67.4263 99.5936 67.1778C99.5936 66.7304 99.4941 66.2582 99.2953 65.8606C98.7983 64.8665 97.8041 64.3446 96.6858 64.3446C95.965 64.3446 95.1946 64.5434 94.4987 64.9907C91.914 66.5813 89.553 68.1471 87.1174 69.8868C86.4463 70.359 85.7753 70.9057 85.1043 71.4028C87.2168 66.2831 89.4536 61.1634 91.7649 56.1431C91.8643 55.9691 91.8146 56.0685 91.8891 55.8697C91.9886 55.5963 92.088 55.2981 92.1377 55.0247C92.2122 54.7265 92.2371 54.4282 92.2371 54.1548C92.2371 52.5643 91.243 51.2719 89.6275 50.924C89.3541 50.8743 89.0808 50.8245 88.7825 50.8245C86.8191 50.8245 84.7563 52.2163 83.961 54.2294C81.5255 60.0947 79.3633 65.8606 77.3253 71.7507C75.3122 77.616 73.4234 83.531 72.0813 89.62L72.0565 89.6697C72.0068 89.8934 71.9819 90.1171 71.9819 90.3159C71.9819 91.8568 73.0506 92.9006 74.6909 92.9006ZM108.367 92.3787C109.535 92.3787 110.703 92.2047 111.796 91.9313C116.096 90.6887 119.327 87.8803 121.837 84.6991C123.03 83.034 124.148 81.2943 124.819 79.1569C125.167 77.9888 125.59 76.6965 125.59 75.1804C125.59 74.0123 125.341 72.7448 124.62 71.3282C124.049 70.2844 123.179 69.34 122.135 68.5696C123.278 67.7246 124.297 66.7553 125.217 65.6866C127.006 63.5741 128.597 61.064 128.845 57.5348V57.1123C128.845 55.472 128.324 53.5335 127.056 52.1169C125.739 50.576 124.049 49.7559 122.558 49.3334C121.34 48.9854 120.072 48.8115 118.78 48.8115C117.04 48.8115 115.276 49.1345 113.685 49.8056C110.927 51.0234 108.64 52.9868 107.174 55.472C106.453 56.7147 105.832 58.0319 105.583 59.5976C105.509 60.0201 105.459 60.4426 105.459 60.9148C105.459 61.3125 105.509 61.735 105.583 62.1575C105.757 63.0522 106.254 64.1954 107.223 64.9162C108.093 65.5623 109.212 65.8854 110.28 65.8854C111.051 65.8854 111.772 65.7363 112.393 65.3884C113.884 64.6179 114.704 63.5493 115.4 62.2818C115.499 62.1326 115.524 61.9338 115.524 61.7598C115.524 61.4865 115.425 61.1882 115.226 60.9894C115.002 60.7657 114.729 60.6415 114.431 60.6415C114.033 60.6415 113.859 60.8154 113.536 61.064C112.865 61.7101 111.921 62.3315 111.225 62.4557L110.902 62.4806C110.405 62.4806 110.082 62.2321 109.783 61.8841C109.883 61.8841 109.808 61.387 110.106 60.6166C110.38 59.8959 110.827 59.0757 111.424 58.355C113.238 56.1431 115.748 54.9253 118.258 54.9253C119.103 54.9253 119.948 55.0744 120.768 55.3478C121.539 55.5715 122.011 55.9194 122.21 56.1679C122.433 56.4165 122.483 56.7147 122.508 57.3112V57.3609C122.508 58.6035 121.638 60.3929 120.545 61.8841C118.184 64.9659 114.63 67.476 110.703 68.0228L110.603 68.0476C109.659 68.1719 108.913 68.9175 108.839 69.8868V70.0607C108.839 71.1294 109.634 71.9993 110.703 72.0987L111.846 72.1484C112.741 72.1484 113.635 72.0738 114.505 71.9247C115.425 71.9744 116.369 72.1484 116.991 72.4715C117.935 72.9685 118.333 73.5401 118.755 74.4597V74.4846C118.755 74.6834 118.656 75.8018 118.233 76.8704C117.786 78.0634 117.065 79.3806 116.22 80.5735C114.505 82.9097 112.269 85.0471 109.883 86.0412C108.938 86.4388 107.944 86.6376 106.95 86.6376C105.732 86.6376 104.49 86.3394 103.197 85.6684C103.57 85.4944 103.918 85.3204 104.291 85.1962C104.738 85.0222 105.335 84.8731 105.583 84.8482C105.782 84.8482 105.956 84.8234 106.13 84.7737C107.025 84.5003 107.596 83.6553 107.596 82.7854C107.596 82.5866 107.571 82.3878 107.522 82.189C107.248 81.2943 106.453 80.7226 105.558 80.7226C105.235 80.7226 105.086 80.7723 104.763 80.8718C103.843 81.1451 103.321 81.4434 102.675 81.7913C102.054 82.1393 101.507 82.5369 100.96 82.9594C99.8918 83.8044 98.9474 84.7737 98.1521 85.8424C97.9533 86.0909 97.8539 86.3891 97.8539 86.6874C97.8539 87.0353 97.9781 87.3584 98.2266 87.6318C98.4752 87.9051 98.7983 88.0046 99.1214 88.0046L99.4693 87.9797C99.5439 88.104 99.5936 88.2034 99.693 88.3028C100.439 88.9987 101.159 89.7691 102.029 90.3904C102.998 90.8875 103.918 91.5834 105.036 91.8319C106.105 92.2047 107.223 92.3787 108.367 92.3787Z" fill="white"/>
<path d="M32.6208 91.8866C34.8606 91.8866 37.0537 91.28 38.9902 90.3468C41.5333 89.0636 43.5865 87.3837 45.383 85.2839C47.1562 83.1841 48.2994 80.6409 48.7894 78.1912L48.8127 77.7245C48.8127 76.8613 48.3227 76.1147 47.4828 75.8347C47.2728 75.7647 47.0629 75.7414 46.8529 75.7414C45.8963 75.7414 44.9397 76.348 44.5664 77.3046L44.5197 77.3512C43.7731 79.1011 42.7232 80.571 41.44 81.7842C40.1568 82.9741 38.4769 83.9773 36.9604 84.4906C36.0738 84.7706 35.2105 84.9106 34.4406 84.9106C32.4341 84.9106 30.8942 84.0473 30.2876 82.5774C29.9376 81.9008 29.7743 80.9443 29.7743 79.8243C29.7743 79.3344 29.821 78.8211 29.8677 78.2611C30.0543 76.6046 30.4743 74.7381 30.9876 72.9883C32.0608 69.3252 33.904 65.6856 36.0738 62.7458C37.147 61.2759 38.3836 60.0394 39.5968 59.2694C40.8334 58.4528 41.8366 58.1962 43.0265 58.0795C44.4264 58.1262 45.173 58.2662 45.8963 58.8261C46.5029 59.3628 46.9229 59.9227 46.9229 61.066L46.8995 61.8126C46.5962 64.6356 43.7265 67.9487 40.3434 67.9487C39.6435 67.9487 38.9202 67.6687 38.5002 67.3188C38.1969 67.0621 38.0336 66.8055 38.0336 66.4555V66.3155C38.057 66.1755 38.0803 66.0122 38.1503 65.8255C38.4536 65.1256 39.1069 64.4023 39.8301 63.889C40.3201 63.5157 40.88 63.3758 41.23 63.3758C41.3933 63.3758 41.51 63.3991 41.5567 63.4691C41.65 63.6091 41.7666 63.7257 41.9066 63.7957C42.0933 63.889 42.2799 63.9357 42.4666 63.9357C42.9099 63.9357 43.3765 63.6791 43.6565 63.2591C43.7498 63.0724 43.8198 62.8858 43.8431 62.6991V62.5125C43.8431 62.0225 43.5865 61.7192 43.0732 61.4859C42.5132 61.1826 41.9533 61.066 41.44 61.066C40.3901 61.066 39.4335 61.5559 38.7102 61.9992C37.567 62.7458 36.6104 63.7024 35.9338 65.0089C35.6538 65.4289 35.4905 65.9422 35.4438 66.5022L35.4205 66.9454C35.4205 67.8554 35.7238 68.7653 36.3071 69.3486C37.3104 70.3985 38.4536 70.9818 39.8068 71.2384C40.2734 71.3084 40.7401 71.3317 41.2067 71.3317C46.1063 71.3317 51.0525 67.8087 53.1057 62.7691C53.479 61.8126 53.7589 60.8093 53.8523 59.7361C53.8989 59.3861 53.9223 59.0595 53.9223 58.7095L53.8989 58.1262C53.8056 56.493 53.1757 54.7898 52.3357 53.5533C50.5159 50.8468 47.0629 49.4936 44.2164 49.4469L43.5632 49.4236C40.6701 49.4236 37.5903 50.5202 35.2805 52.1067C32.7374 53.7866 30.7776 55.8397 29.2377 57.9629C26.018 62.2325 24.1048 66.8055 22.8216 71.5184C22.355 73.1982 21.9817 74.9248 21.795 76.6746C21.725 77.3746 21.6784 78.0978 21.6784 78.8211L21.655 79.661C21.655 81.9242 22.0283 84.6073 23.3582 86.8704C24.8981 89.3902 27.6278 91.2334 30.5443 91.7C31.2442 91.8167 31.9441 91.8866 32.6208 91.8866ZM66.5445 91.8633C67.2911 91.8633 67.9444 91.7 68.5277 91.49C69.7876 91.0234 70.6742 90.3934 71.4908 89.7635C73.0306 88.5269 74.2439 87.2437 75.3404 85.9372C77.6036 83.3007 79.5167 80.6409 81.3366 77.8645C81.4532 77.6779 81.5232 77.4912 81.5699 77.3279L81.5932 77.0479C81.5932 76.6746 81.4532 76.348 81.1733 76.1147C80.9633 75.9747 80.73 75.9047 80.4733 75.9047C80.0067 75.9047 79.4934 76.138 79.1434 76.5346L79.1201 76.5813C77.067 78.9611 74.8505 81.3409 72.5873 83.394C71.4208 84.3973 70.2542 85.3539 69.1576 86.0072L69.0643 86.0538C69.181 85.6105 69.2976 85.1672 69.4843 84.6773C69.9276 83.394 70.4875 82.0408 71.0941 80.6876C72.2607 78.0745 73.7539 75.1814 75.2004 72.5216L75.4338 72.0317C75.5504 71.775 75.6204 71.5184 75.6671 71.2851C75.7371 71.0051 75.7604 70.7251 75.7604 70.4685C75.7604 68.9519 74.8038 67.6921 73.2639 67.3887C73.0306 67.3421 72.774 67.3188 72.5173 67.3188C71.7474 67.3188 70.9308 67.5521 70.2075 67.972C68.971 67.6221 67.7344 67.4354 66.4512 67.4354C65.2846 67.4354 64.0714 67.5754 62.7415 67.902C59.7084 68.6486 56.512 70.8418 54.6689 73.3382C52.7324 75.858 51.7291 78.4011 51.0525 80.7576C50.8659 81.4809 50.6792 82.1808 50.5159 82.9041C50.3059 83.954 50.1426 85.0039 50.1426 86.1471C50.1426 86.8704 50.2126 87.6403 50.3526 88.4336C50.4926 89.1569 50.7959 89.9968 51.5425 90.7434C52.1491 91.3967 53.2457 91.8167 54.2256 91.8167L54.5989 91.7933C56.8154 91.5367 58.1219 90.5101 59.3118 89.6468C60.8983 88.3636 62.1349 86.9404 63.2081 85.4939C63.1381 85.9838 63.0448 86.4271 62.9982 86.9637V87.0571C62.9982 87.407 62.9515 87.757 62.9515 88.1536C62.9515 88.8302 63.0681 89.6002 63.7448 90.6734C63.9547 91.0467 64.748 91.5833 65.098 91.63C65.6579 91.84 65.9379 91.8633 66.5445 91.8633ZM55.9054 86.5904V86.2171C55.9054 85.8672 55.9754 85.4005 56.0687 84.8872C56.2787 83.8607 56.6987 82.6241 57.142 81.5042C57.7953 79.7077 58.7052 78.0278 59.7784 76.9079C60.8283 75.788 61.8316 75.1347 63.1148 74.8781C63.5814 74.7614 64.1414 74.7148 64.7013 74.7148C65.238 74.7148 65.7979 74.7614 66.2879 74.8314C66.2179 74.9714 66.1712 75.1114 66.1479 75.2514C64.748 77.6079 63.2315 79.871 61.505 81.9242C60.1051 83.5574 58.4952 85.0972 56.9787 86.0538C56.6054 86.3105 56.2087 86.4971 55.9054 86.5904ZM77.2069 91.5367C78.7001 91.5367 80.4967 90.2768 80.8466 88.6203C81.6866 85.6805 82.6898 82.6941 83.7397 79.731C83.9964 79.6844 84.2063 79.6144 84.463 79.521C84.6963 80.6409 84.9529 81.7375 85.2796 82.8341C85.9095 84.8639 86.6095 86.8704 87.9394 88.7603C88.616 89.6935 89.4559 90.6734 90.9491 91.2567C91.5091 91.42 92.139 91.5133 92.8156 91.5133C93.7022 91.5133 94.6588 91.3267 95.592 90.9067C97.1786 90.1601 98.2518 88.9236 98.9517 87.8037C99.6984 86.6371 100.118 85.5405 100.468 84.3506L100.492 84.304L100.515 84.1173C100.515 83.884 100.398 83.674 100.142 83.5807C100.072 83.534 99.9783 83.534 99.885 83.534C99.5117 83.534 99.2784 83.744 99.0451 84.0707C97.8318 86.1005 96.1053 87.6637 94.8454 87.6637C94.3555 87.6637 93.9122 87.4537 93.4456 87.1271C93.1422 86.8937 92.7456 86.3571 92.4423 85.6572C91.3924 83.0441 91.0658 79.4044 91.0658 75.998V74.9481C91.2057 74.8548 91.3457 74.7614 91.4857 74.6915C93.6322 73.4082 95.9187 72.1717 98.1118 71.0751L98.4851 70.8651C99.5584 70.2118 100.282 69.1619 100.515 68.112C100.562 67.8787 100.585 67.6221 100.585 67.3887C100.585 66.9688 100.492 66.5255 100.305 66.1522C99.8383 65.2189 98.9051 64.729 97.8552 64.729C97.1786 64.729 96.4553 64.9156 95.802 65.3356C93.3756 66.8288 91.1591 68.2987 88.8726 69.9319C88.2427 70.3752 87.6127 70.8884 86.9828 71.3551C88.9659 66.5488 91.0658 61.7426 93.2356 57.0296C93.3289 56.8663 93.2822 56.9596 93.3522 56.773C93.4456 56.5163 93.5389 56.2364 93.5855 55.9797C93.6555 55.6997 93.6789 55.4198 93.6789 55.1631C93.6789 53.6699 92.7456 52.4567 91.2291 52.13C90.9724 52.0834 90.7158 52.0367 90.4358 52.0367C88.5926 52.0367 86.6561 53.3433 85.9095 55.2331C83.6231 60.7393 81.5932 66.1522 79.6801 71.6817C77.7902 77.1879 76.017 82.7408 74.7571 88.4569L74.7338 88.5036C74.6872 88.7136 74.6638 88.9236 74.6638 89.1102C74.6638 90.5568 75.6671 91.5367 77.2069 91.5367ZM108.821 91.0467C109.917 91.0467 111.014 90.8834 112.041 90.6268C116.077 89.4602 119.11 86.8237 121.466 83.8373C122.586 82.2741 123.636 80.6409 124.266 78.6344C124.593 77.5379 124.99 76.3246 124.99 74.9014C124.99 73.8049 124.756 72.615 124.08 71.2851C123.543 70.3052 122.726 69.4186 121.746 68.6953C122.82 67.902 123.776 66.9921 124.64 65.9889C126.319 64.0057 127.813 61.6492 128.046 58.3362V57.9396C128.046 56.3997 127.556 54.5798 126.366 53.25C125.13 51.8034 123.543 51.0335 122.143 50.6368C121 50.3102 119.81 50.1469 118.597 50.1469C116.964 50.1469 115.307 50.4502 113.814 51.0801C111.224 52.2234 109.078 54.0665 107.701 56.3997C107.024 57.5663 106.441 58.8028 106.208 60.2727C106.138 60.6693 106.091 61.066 106.091 61.5092C106.091 61.8825 106.138 62.2792 106.208 62.6758C106.371 63.5157 106.838 64.589 107.748 65.2656C108.564 65.8722 109.614 66.1755 110.617 66.1755C111.341 66.1755 112.017 66.0355 112.601 65.7089C114 64.9856 114.77 63.9824 115.424 62.7925C115.517 62.6525 115.54 62.4658 115.54 62.3025C115.54 62.0459 115.447 61.7659 115.26 61.5792C115.05 61.3693 114.794 61.2526 114.514 61.2526C114.14 61.2526 113.977 61.4159 113.674 61.6492C113.044 62.2558 112.157 62.8391 111.504 62.9558L111.201 62.9791C110.734 62.9791 110.431 62.7458 110.151 62.4192C110.244 62.4192 110.174 61.9525 110.454 61.2293C110.711 60.5527 111.131 59.7827 111.691 59.1061C113.394 57.0296 115.75 55.8864 118.107 55.8864C118.9 55.8864 119.693 56.0264 120.463 56.283C121.187 56.493 121.63 56.8196 121.816 57.053C122.026 57.2863 122.073 57.5663 122.096 58.1262V58.1729C122.096 59.3394 121.28 61.0193 120.253 62.4192C118.037 65.3123 114.7 67.6687 111.014 68.182L110.921 68.2053C110.034 68.322 109.334 69.0219 109.264 69.9319V70.0952C109.264 71.0984 110.011 71.915 111.014 72.0083L112.087 72.055C112.927 72.055 113.767 71.985 114.584 71.845C115.447 71.8917 116.334 72.055 116.917 72.3583C117.803 72.8249 118.177 73.3616 118.573 74.2248V74.2482C118.573 74.4348 118.48 75.4847 118.083 76.488C117.663 77.6079 116.987 78.8444 116.194 79.9643C114.584 82.1575 112.484 84.164 110.244 85.0972C109.358 85.4705 108.424 85.6572 107.491 85.6572C106.348 85.6572 105.181 85.3772 103.968 84.7473C104.318 84.5839 104.645 84.4206 104.995 84.304C105.415 84.1406 105.974 84.0007 106.208 83.9773C106.394 83.9773 106.558 83.954 106.721 83.9073C107.561 83.6507 108.098 82.8574 108.098 82.0408C108.098 81.8542 108.074 81.6675 108.028 81.4809C107.771 80.6409 107.024 80.1043 106.184 80.1043C105.881 80.1043 105.741 80.151 105.438 80.2443C104.575 80.501 104.085 80.7809 103.478 81.1076C102.895 81.4342 102.381 81.8075 101.868 82.2041C100.865 82.9974 99.9783 83.9073 99.2317 84.9106C99.0451 85.1439 98.9518 85.4239 98.9518 85.7038C98.9518 86.0305 99.0684 86.3338 99.3017 86.5904C99.535 86.8471 99.8383 86.9404 100.142 86.9404L100.468 86.9171C100.538 87.0337 100.585 87.1271 100.678 87.2204C101.378 87.8737 102.055 88.5969 102.871 89.1802C103.781 89.6468 104.645 90.3001 105.695 90.5334C106.698 90.8834 107.748 91.0467 108.821 91.0467Z" fill="white"/>
<path d="M50 12.0005C56.9963 4.3056 42.0747 0.616359 25.0747 6.61594C4.39067 13.9157 6.03073 31.4013 6.03073 45.1152C6.03073 46.844 6.03931 52.9182 6.03001 54.8405C5.98976 63.1658 11.9474 72.5015 16.0762 60.1152C18.0762 54.1152 18.5762 34.1152 25.5762 26.1152C32.5762 18.1152 45 17.4998 50 12.0005Z" fill="white" fill-opacity="0.2" stroke="white" stroke-opacity="0.4" stroke-width="0.2"/>
<defs>
<filter id="filter0_d_2863_46373" x="42.678" y="4.7483" width="14.8191" height="12.8194" filterUnits="userSpaceOnUse" color-interpolation-filters="sRGB">
<feFlood flood-opacity="0" result="BackgroundImageFix"/>
<feColorMatrix in="SourceAlpha" type="matrix" values="0 0 0 0 0 0 0 0 0 0 0 0 0 0 0 0 0 0 127 0" result="hardAlpha"/>
<feOffset dx="0.61108" dy="0.61108"/>
<feGaussianBlur stdDeviation="0.61108"/>
<feComposite in2="hardAlpha" operator="out"/>
<feColorMatrix type="matrix" values="0 0 0 0 0.795833 0 0 0 0 0.0530555 0 0 0 0 0.261311 0 0 0 1 0"/>
<feBlend mode="normal" in2="BackgroundImageFix" result="effect1_dropShadow_2863_46373"/>
<feBlend mode="normal" in="SourceGraphic" in2="effect1_dropShadow_2863_46373" result="shape"/>
</filter>
<filter id="filter1_d_2863_46373" x="90.8596" y="13.9436" width="8.02183" height="10.2594" filterUnits="userSpaceOnUse" color-interpolation-filters="sRGB">
<feFlood flood-opacity="0" result="BackgroundImageFix"/>
<feColorMatrix in="SourceAlpha" type="matrix" values="0 0 0 0 0 0 0 0 0 0 0 0 0 0 0 0 0 0 127 0" result="hardAlpha"/>
<feOffset dx="0.61108" dy="0.61108"/>
<feGaussianBlur stdDeviation="0.61108"/>
<feComposite in2="hardAlpha" operator="out"/>
<feColorMatrix type="matrix" values="0 0 0 0 0.795833 0 0 0 0 0.0530555 0 0 0 0 0.261311 0 0 0 1 0"/>
<feBlend mode="normal" in2="BackgroundImageFix" result="effect1_dropShadow_2863_46373"/>
<feBlend mode="normal" in="SourceGraphic" in2="effect1_dropShadow_2863_46373" result="shape"/>
</filter>
<filter id="filter2_d_2863_46373" x="129.481" y="24.4817" width="4.74583" height="9.63341" filterUnits="userSpaceOnUse" color-interpolation-filters="sRGB">
<feFlood flood-opacity="0" result="BackgroundImageFix"/>
<feColorMatrix in="SourceAlpha" type="matrix" values="0 0 0 0 0 0 0 0 0 0 0 0 0 0 0 0 0 0 127 0" result="hardAlpha"/>
<feOffset dx="0.61108" dy="0.61108"/>
<feGaussianBlur stdDeviation="0.61108"/>
<feComposite in2="hardAlpha" operator="out"/>
<feColorMatrix type="matrix" values="0 0 0 0 0.795833 0 0 0 0 0.0530555 0 0 0 0 0.261311 0 0 0 1 0"/>
<feBlend mode="normal" in2="BackgroundImageFix" result="effect1_dropShadow_2863_46373"/>
<feBlend mode="normal" in="SourceGraphic" in2="effect1_dropShadow_2863_46373" result="shape"/>
</filter>
<filter id="filter3_d_2863_46373" x="12.6939" y="17.6929" width="7.00218" height="8.84581" filterUnits="userSpaceOnUse" color-interpolation-filters="sRGB">
<feFlood flood-opacity="0" result="BackgroundImageFix"/>
<feColorMatrix in="SourceAlpha" type="matrix" values="0 0 0 0 0 0 0 0 0 0 0 0 0 0 0 0 0 0 127 0" result="hardAlpha"/>
<feOffset dx="0.61108" dy="0.61108"/>
<feGaussianBlur stdDeviation="0.61108"/>
<feComposite in2="hardAlpha" operator="out"/>
<feColorMatrix type="matrix" values="0 0 0 0 0.795833 0 0 0 0 0.0530555 0 0 0 0 0.261311 0 0 0 1 0"/>
<feBlend mode="normal" in2="BackgroundImageFix" result="effect1_dropShadow_2863_46373"/>
<feBlend mode="normal" in="SourceGraphic" in2="effect1_dropShadow_2863_46373" result="shape"/>
</filter>
<filter id="filter4_d_2863_46373" x="42.7145" y="44.7141" width="7.4608" height="8.53172" filterUnits="userSpaceOnUse" color-interpolation-filters="sRGB">
<feFlood flood-opacity="0" result="BackgroundImageFix"/>
<feColorMatrix in="SourceAlpha" type="matrix" values="0 0 0 0 0 0 0 0 0 0 0 0 0 0 0 0 0 0 127 0" result="hardAlpha"/>
<feOffset dx="0.61108" dy="0.61108"/>
<feGaussianBlur stdDeviation="0.61108"/>
<feComposite in2="hardAlpha" operator="out"/>
<feColorMatrix type="matrix" values="0 0 0 0 0.795833 0 0 0 0 0.0530555 0 0 0 0 0.261311 0 0 0 1 0"/>
<feBlend mode="normal" in2="BackgroundImageFix" result="effect1_dropShadow_2863_46373"/>
<feBlend mode="normal" in="SourceGraphic" in2="effect1_dropShadow_2863_46373" result="shape"/>
</filter>
<filter id="filter5_d_2863_46373" x="95.7252" y="41.7252" width="8.09361" height="7.97044" filterUnits="userSpaceOnUse" color-interpolation-filters="sRGB">
<feFlood flood-opacity="0" result="BackgroundImageFix"/>
<feColorMatrix in="SourceAlpha" type="matrix" values="0 0 0 0 0 0 0 0 0 0 0 0 0 0 0 0 0 0 127 0" result="hardAlpha"/>
<feOffset dx="0.61108" dy="0.61108"/>
<feGaussianBlur stdDeviation="0.61108"/>
<feComposite in2="hardAlpha" operator="out"/>
<feColorMatrix type="matrix" values="0 0 0 0 0.795833 0 0 0 0 0.0530555 0 0 0 0 0.261311 0 0 0 1 0"/>
<feBlend mode="normal" in2="BackgroundImageFix" result="effect1_dropShadow_2863_46373"/>
<feBlend mode="normal" in="SourceGraphic" in2="effect1_dropShadow_2863_46373" result="shape"/>
</filter>
<filter id="filter6_d_2863_46373" x="87.8694" y="129.487" width="7.56199" height="9.26793" filterUnits="userSpaceOnUse" color-interpolation-filters="sRGB">
<feFlood flood-opacity="0" result="BackgroundImageFix"/>
<feColorMatrix in="SourceAlpha" type="matrix" values="0 0 0 0 0 0 0 0 0 0 0 0 0 0 0 0 0 0 127 0" result="hardAlpha"/>
<feOffset dx="0.61108" dy="0.61108"/>
<feGaussianBlur stdDeviation="0.61108"/>
<feComposite in2="hardAlpha" operator="out"/>
<feColorMatrix type="matrix" values="0 0 0 0 0.795833 0 0 0 0 0.0530555 0 0 0 0 0.261311 0 0 0 1 0"/>
<feBlend mode="normal" in2="BackgroundImageFix" result="effect1_dropShadow_2863_46373"/>
<feBlend mode="normal" in="SourceGraphic" in2="effect1_dropShadow_2863_46373" result="shape"/>
</filter>
<filter id="filter7_d_2863_46373" x="53.8596" y="106.944" width="8.02183" height="10.2594" filterUnits="userSpaceOnUse" color-interpolation-filters="sRGB">
<feFlood flood-opacity="0" result="BackgroundImageFix"/>
<feColorMatrix in="SourceAlpha" type="matrix" values="0 0 0 0 0 0 0 0 0 0 0 0 0 0 0 0 0 0 127 0" result="hardAlpha"/>
<feOffset dx="0.61108" dy="0.61108"/>
<feGaussianBlur stdDeviation="0.61108"/>
<feComposite in2="hardAlpha" operator="out"/>
<feColorMatrix type="matrix" values="0 0 0 0 0.795833 0 0 0 0 0.0530555 0 0 0 0 0.261311 0 0 0 1 0"/>
<feBlend mode="normal" in2="BackgroundImageFix" result="effect1_dropShadow_2863_46373"/>
<feBlend mode="normal" in="SourceGraphic" in2="effect1_dropShadow_2863_46373" result="shape"/>
</filter>
<filter id="filter8_d_2863_46373" x="18.4817" y="117.481" width="4.74583" height="9.63341" filterUnits="userSpaceOnUse" color-interpolation-filters="sRGB">
<feFlood flood-opacity="0" result="BackgroundImageFix"/>
<feColorMatrix in="SourceAlpha" type="matrix" values="0 0 0 0 0 0 0 0 0 0 0 0 0 0 0 0 0 0 127 0" result="hardAlpha"/>
<feOffset dx="0.61108" dy="0.61108"/>
<feGaussianBlur stdDeviation="0.61108"/>
<feComposite in2="hardAlpha" operator="out"/>
<feColorMatrix type="matrix" values="0 0 0 0 0.795833 0 0 0 0 0.0530555 0 0 0 0 0.261311 0 0 0 1 0"/>
<feBlend mode="normal" in2="BackgroundImageFix" result="effect1_dropShadow_2863_46373"/>
<feBlend mode="normal" in="SourceGraphic" in2="effect1_dropShadow_2863_46373" result="shape"/>
</filter>
<filter id="filter9_d_2863_46373" x="115.794" y="118.211" width="7.00218" height="8.84581" filterUnits="userSpaceOnUse" color-interpolation-filters="sRGB">
<feFlood flood-opacity="0" result="BackgroundImageFix"/>
<feColorMatrix in="SourceAlpha" type="matrix" values="0 0 0 0 0 0 0 0 0 0 0 0 0 0 0 0 0 0 127 0" result="hardAlpha"/>
<feOffset dx="0.61108" dy="0.61108"/>
<feGaussianBlur stdDeviation="0.61108"/>
<feComposite in2="hardAlpha" operator="out"/>
<feColorMatrix type="matrix" values="0 0 0 0 0.795833 0 0 0 0 0.0530555 0 0 0 0 0.261311 0 0 0 1 0"/>
<feBlend mode="normal" in2="BackgroundImageFix" result="effect1_dropShadow_2863_46373"/>
<feBlend mode="normal" in="SourceGraphic" in2="effect1_dropShadow_2863_46373" result="shape"/>
</filter>
<filter id="filter10_d_2863_46373" x="111.715" y="94.7166" width="7.4608" height="8.53172" filterUnits="userSpaceOnUse" color-interpolation-filters="sRGB">
<feFlood flood-opacity="0" result="BackgroundImageFix"/>
<feColorMatrix in="SourceAlpha" type="matrix" values="0 0 0 0 0 0 0 0 0 0 0 0 0 0 0 0 0 0 127 0" result="hardAlpha"/>
<feOffset dx="0.61108" dy="0.61108"/>
<feGaussianBlur stdDeviation="0.61108"/>
<feComposite in2="hardAlpha" operator="out"/>
<feColorMatrix type="matrix" values="0 0 0 0 0.795833 0 0 0 0 0.0530555 0 0 0 0 0.261311 0 0 0 1 0"/>
<feBlend mode="normal" in2="BackgroundImageFix" result="effect1_dropShadow_2863_46373"/>
<feBlend mode="normal" in="SourceGraphic" in2="effect1_dropShadow_2863_46373" result="shape"/>
</filter>
<filter id="filter11_d_2863_46373" x="8.27173" y="74.1702" width="7.56199" height="9.26341" filterUnits="userSpaceOnUse" color-interpolation-filters="sRGB">
<feFlood flood-opacity="0" result="BackgroundImageFix"/>
<feColorMatrix in="SourceAlpha" type="matrix" values="0 0 0 0 0 0 0 0 0 0 0 0 0 0 0 0 0 0 127 0" result="hardAlpha"/>
<feOffset dx="0.61108" dy="0.61108"/>
<feGaussianBlur stdDeviation="0.61108"/>
<feComposite in2="hardAlpha" operator="out"/>
<feColorMatrix type="matrix" values="0 0 0 0 0.795833 0 0 0 0 0.0530555 0 0 0 0 0.261311 0 0 0 1 0"/>
<feBlend mode="normal" in2="BackgroundImageFix" result="effect1_dropShadow_2863_46373"/>
<feBlend mode="normal" in="SourceGraphic" in2="effect1_dropShadow_2863_46373" result="shape"/>
</filter>
<linearGradient id="paint0_linear_2863_46373" x1="7.85145" y1="9.77365e-05" x2="153.209" y2="56.544" gradientUnits="userSpaceOnUse">
<stop stop-color="#CE2791"/>
<stop offset="1" stop-color="#FF7070"/>
</linearGradient>
</defs>
</svg>