<svg xmlns="http://www.w3.org/2000/svg" width="19" height="24" viewBox="0 0 19 24" fill="none">
<path d="M9.46714 15.1143C9.92609 15.1143 10.321 14.7451 10.321 14.3145V3.78369L10.257 2.24561L10.9721 2.97363L12.5944 4.63477C12.7438 4.79883 12.9573 4.88086 13.1707 4.88086C13.6083 4.88086 13.9499 4.57324 13.9499 4.15283C13.9499 3.9375 13.8538 3.77344 13.6937 3.61963L10.0862 0.276855C9.87272 0.0717773 9.69128 0 9.46714 0C9.25367 0 9.07223 0.0717773 8.84809 0.276855L5.24055 3.61963C5.08045 3.77344 4.99506 3.9375 4.99506 4.15283C4.99506 4.57324 5.31526 4.88086 5.76353 4.88086C5.96633 4.88086 6.20114 4.79883 6.35056 4.63477L7.96222 2.97363L8.68799 2.24561L8.62395 3.78369V14.3145C8.62395 14.7451 9.00819 15.1143 9.46714 15.1143ZM3.35139 23.1431H15.5936C17.8243 23.1431 18.945 22.0767 18.945 19.9644V9.73096C18.945 7.61865 17.8243 6.55225 15.5936 6.55225H12.6157V8.20312H15.5615C16.6182 8.20312 17.2266 8.75684 17.2266 9.82324V19.8721C17.2266 20.9385 16.6182 21.4922 15.5615 21.4922H3.37273C2.30541 21.4922 1.71839 20.9385 1.71839 19.8721V9.82324C1.71839 8.75684 2.30541 8.20312 3.37273 8.20312H6.32921V6.55225H3.35139C1.12069 6.55225 0 7.61865 0 9.73096V19.9644C0 22.0767 1.12069 23.1431 3.35139 23.1431Z" fill="#5C2448"/>
</svg>