<svg width="24" height="24" viewBox="0 0 24 24" fill="none" xmlns="http://www.w3.org/2000/svg">
<path d="M12.0064 0.181824C7.07148 0.181824 5.62821 0.186915 5.34766 0.210187C4.33494 0.294369 3.70476 0.453824 3.01821 0.795642C2.48912 1.05837 2.07185 1.36291 1.66003 1.78982C0.910028 2.56837 0.455482 3.52619 0.290937 4.66473C0.210937 5.21746 0.187664 5.33019 0.182937 8.15346C0.181119 9.09455 0.182937 10.3331 0.182937 11.9944C0.182937 16.9253 0.188392 18.3671 0.212028 18.6471C0.293846 19.6326 0.448392 20.2526 0.775664 20.9307C1.40112 22.2289 2.59566 23.2035 4.00294 23.5671C4.49021 23.6926 5.02839 23.7616 5.7193 23.7944C6.01203 23.8071 8.99566 23.8162 11.9811 23.8162C14.9666 23.8162 17.952 23.8126 18.2375 23.798C19.0375 23.7604 19.502 23.698 20.0157 23.5653C21.432 23.1998 22.6048 22.2398 23.2429 20.9235C23.5638 20.2616 23.7266 19.618 23.8002 18.684C23.8162 18.4804 23.8229 15.2336 23.8229 11.9913C23.8229 8.74837 23.8157 5.50764 23.7997 5.30401C23.7251 4.35491 23.5624 3.71673 23.2311 3.04219C22.9593 2.49001 22.6575 2.07764 22.2193 1.65601C21.4373 0.909096 20.4809 0.454551 19.3413 0.290187C18.7891 0.210369 18.6791 0.186733 15.8537 0.181824H12.0064Z" fill="url(#paint0_radial_2293_39175)"/>
<path d="M12.0064 0.181824C7.07148 0.181824 5.62821 0.186915 5.34766 0.210187C4.33494 0.294369 3.70476 0.453824 3.01821 0.795642C2.48912 1.05837 2.07185 1.36291 1.66003 1.78982C0.910028 2.56837 0.455482 3.52619 0.290937 4.66473C0.210937 5.21746 0.187664 5.33019 0.182937 8.15346C0.181119 9.09455 0.182937 10.3331 0.182937 11.9944C0.182937 16.9253 0.188392 18.3671 0.212028 18.6471C0.293846 19.6326 0.448392 20.2526 0.775664 20.9307C1.40112 22.2289 2.59566 23.2035 4.00294 23.5671C4.49021 23.6926 5.02839 23.7616 5.7193 23.7944C6.01203 23.8071 8.99566 23.8162 11.9811 23.8162C14.9666 23.8162 17.952 23.8126 18.2375 23.798C19.0375 23.7604 19.502 23.698 20.0157 23.5653C21.432 23.1998 22.6048 22.2398 23.2429 20.9235C23.5638 20.2616 23.7266 19.618 23.8002 18.684C23.8162 18.4804 23.8229 15.2336 23.8229 11.9913C23.8229 8.74837 23.8157 5.50764 23.7997 5.30401C23.7251 4.35491 23.5624 3.71673 23.2311 3.04219C22.9593 2.49001 22.6575 2.07764 22.2193 1.65601C21.4373 0.909096 20.4809 0.454551 19.3413 0.290187C18.7891 0.210369 18.6791 0.186733 15.8537 0.181824H12.0064Z" fill="url(#paint1_radial_2293_39175)"/>
<path d="M12.0009 3.27271C9.63077 3.27271 9.33331 3.28307 8.4024 3.32543C7.47331 3.36798 6.83913 3.51507 6.28422 3.73089C5.71022 3.9538 5.22331 4.25198 4.73822 4.73725C4.25277 5.22234 3.95459 5.70925 3.73095 6.28307C3.51459 6.83816 3.36731 7.47252 3.32549 8.40125C3.28386 9.33216 3.27295 9.6298 3.27295 12C3.27295 14.3702 3.28349 14.6667 3.32568 15.5976C3.3684 16.5267 3.51549 17.1609 3.73113 17.7158C3.95422 18.2898 4.2524 18.7767 4.73768 19.2618C5.22259 19.7473 5.70949 20.0462 6.28313 20.2691C6.8384 20.4849 7.47277 20.632 8.40168 20.6745C9.33259 20.7169 9.62986 20.7273 11.9999 20.7273C14.3702 20.7273 14.6668 20.7169 15.5977 20.6745C16.5268 20.632 17.1617 20.4849 17.7169 20.2691C18.2908 20.0462 18.7769 19.7473 19.2619 19.2618C19.7473 18.7767 20.0455 18.2898 20.2691 17.716C20.4837 17.1609 20.6309 16.5265 20.6746 15.5978C20.7164 14.6669 20.7273 14.3702 20.7273 12C20.7273 9.6298 20.7164 9.33234 20.6746 8.40143C20.6309 7.47234 20.4837 6.83816 20.2691 6.28325C20.0455 5.70925 19.7473 5.22234 19.2619 4.73725C18.7764 4.2518 18.2909 3.95361 17.7164 3.73089C17.16 3.51507 16.5255 3.36798 15.5964 3.32543C14.6655 3.28307 14.3691 3.27271 11.9982 3.27271H12.0009ZM11.218 4.84543C11.4504 4.84507 11.7097 4.84543 12.0009 4.84543C14.3311 4.84543 14.6073 4.8538 15.5275 4.89561C16.3784 4.93452 16.8402 5.07671 17.1479 5.19616C17.5551 5.35434 17.8455 5.54343 18.1508 5.84889C18.4562 6.15434 18.6453 6.44525 18.8039 6.85252C18.9233 7.1598 19.0657 7.62161 19.1044 8.47252C19.1462 9.39252 19.1553 9.66889 19.1553 11.998C19.1553 14.3271 19.1462 14.6034 19.1044 15.5234C19.0655 16.3743 18.9233 16.8362 18.8039 17.1434C18.6457 17.5507 18.4562 17.8407 18.1508 18.146C17.8453 18.4514 17.5553 18.6405 17.1479 18.7987C16.8406 18.9187 16.3784 19.0605 15.5275 19.0994C14.6075 19.1413 14.3311 19.1503 12.0009 19.1503C9.67058 19.1503 9.3944 19.1413 8.4744 19.0994C7.62349 19.0602 7.16168 18.918 6.85386 18.7985C6.44659 18.6403 6.15568 18.4513 5.85022 18.1458C5.54477 17.8403 5.35568 17.5502 5.19713 17.1427C5.07768 16.8354 4.93531 16.3736 4.89659 15.5227C4.85477 14.6027 4.8464 14.3263 4.8464 11.9958C4.8464 9.66525 4.85477 9.39034 4.89659 8.47034C4.93549 7.61943 5.07768 7.15761 5.19713 6.84998C5.35531 6.44271 5.54477 6.1518 5.85022 5.84634C6.15568 5.54089 6.44659 5.3518 6.85386 5.19325C7.16149 5.07325 7.62349 4.93143 8.4744 4.89234C9.27949 4.85598 9.59149 4.84507 11.218 4.84325V4.84543ZM16.6595 6.29452C16.0813 6.29452 15.6122 6.76307 15.6122 7.34143C15.6122 7.91961 16.0813 8.38871 16.6595 8.38871C17.2377 8.38871 17.7068 7.91961 17.7068 7.34143C17.7068 6.76325 17.2377 6.29416 16.6595 6.29416V6.29452ZM12.0009 7.51816C9.52586 7.51816 7.51913 9.52489 7.51913 12C7.51913 14.4751 9.52586 16.4809 12.0009 16.4809C14.476 16.4809 16.482 14.4751 16.482 12C16.482 9.52489 14.4759 7.51816 12.0008 7.51816H12.0009ZM12.0009 9.09089C13.6075 9.09089 14.91 10.3933 14.91 12C14.91 13.6065 13.6075 14.9091 12.0009 14.9091C10.3942 14.9091 9.09186 13.6065 9.09186 12C9.09186 10.3933 10.3942 9.09089 12.0009 9.09089V9.09089Z" fill="white"/>
<defs>
<radialGradient id="paint0_radial_2293_39175" cx="0" cy="0" r="1" gradientUnits="userSpaceOnUse" gradientTransform="translate(6.46175 25.6365) rotate(-90) scale(23.4234 21.7915)">
<stop stop-color="#FFDD55"/>
<stop offset="0.1" stop-color="#FFDD55"/>
<stop offset="0.5" stop-color="#FF543E"/>
<stop offset="1" stop-color="#C837AB"/>
</radialGradient>
<radialGradient id="paint1_radial_2293_39175" cx="0" cy="0" r="1" gradientUnits="userSpaceOnUse" gradientTransform="translate(-3.77783 1.8844) rotate(78.6776) scale(10.4705 43.1706)">
<stop stop-color="#3771C8"/>
<stop offset="0.128" stop-color="#3771C8"/>
<stop offset="1" stop-color="#6600FF" stop-opacity="0"/>
</radialGradient>
</defs>
</svg>
