<svg xmlns="http://www.w3.org/2000/svg" width="24" height="25" fill="none" viewBox="0 0 24 25"><path fill="#0A66C2" d="M20.4491 21.0494H16.8931V15.4804C16.8931 14.1524 16.8694 12.4429 15.0436 12.4429C13.1915 12.4429 12.9081 13.8898 12.9081 15.3838V21.0491H9.35213V9.59694H12.7658V11.162H12.8137C13.1553 10.5778 13.649 10.0973 14.2421 9.77152C14.8353 9.44574 15.5057 9.28694 16.1819 9.31203C19.7861 9.31203 20.4506 11.6828 20.4506 14.767L20.4491 21.0494ZM5.33963 8.0316C4.19991 8.03178 3.27581 7.10797 3.27562 5.96825C3.27544 4.82854 4.19916 3.90444 5.33887 3.90425C6.47859 3.90397 7.40269 4.82779 7.40287 5.9675C7.40297 6.51482 7.18566 7.03976 6.79872 7.42685C6.41179 7.81394 5.88694 8.03147 5.33963 8.0316ZM7.11769 21.0495H3.55791V9.59694H7.11759V21.0494L7.11769 21.0495ZM22.2219 0.601722H1.77103C0.804469 0.590847 0.0118125 1.36513 0 2.33169V22.8679C0.0114375 23.8349 0.804 24.61 1.77094 24.5998H22.2219C23.1909 24.6118 23.9866 23.8368 24 22.8679V2.3301C23.9862 1.36166 23.1905 0.587472 22.2219 0.600129"/></svg>