<svg xmlns="http://www.w3.org/2000/svg" width="24" height="24" fill="none" viewBox="0 0 24 24"><path fill="#FF004F" d="M16.7006 8.64166C18.2463 9.74607 20.14 10.3959 22.1852 10.3959V6.46237C21.7981 6.46246 21.4121 6.42207 21.0334 6.34188V9.43813C18.9883 9.43813 17.0949 8.78839 15.5488 7.68406V15.7113C15.5488 19.727 12.2918 22.9821 8.27432 22.9821C6.77531 22.9821 5.38199 22.5291 4.22461 21.7523C5.5456 23.1023 7.38781 23.9398 9.42582 23.9398C13.4436 23.9398 16.7007 20.6847 16.7007 16.6688V8.64166H16.7006ZM18.1215 4.67322C17.3315 3.81062 16.8128 2.69586 16.7006 1.46342V0.95752H15.6091C15.8838 2.52389 16.821 3.8621 18.1214 4.67322H18.1215ZM6.76563 18.6708C6.32427 18.0925 6.08569 17.3849 6.08676 16.6573C6.08676 14.8207 7.5765 13.3316 9.41448 13.3316C9.75696 13.3314 10.0974 13.384 10.4239 13.4874V9.46593C10.0424 9.41371 9.65738 9.39145 9.27255 9.39964V12.5297C8.94593 12.4262 8.60529 12.3737 8.26265 12.374C6.42475 12.374 4.93509 13.863 4.93509 15.6998C4.93509 16.9986 5.67967 18.1231 6.76563 18.6708Z"/><path fill="#000" d="M15.5498 7.68398C17.096 8.78831 18.9893 9.43804 21.0344 9.43804V6.3418C19.8928 6.09873 18.8822 5.50254 18.1224 4.67322C16.8219 3.86202 15.8848 2.52381 15.6101 0.95752H12.743V16.6687C12.7365 18.5003 11.2493 19.9833 9.41532 19.9833C8.33466 19.9833 7.3745 19.4685 6.76647 18.6708C5.68068 18.1231 4.93601 16.9985 4.93601 15.6999C4.93601 13.8632 6.42567 12.3741 8.26357 12.3741C8.61571 12.3741 8.9551 12.4289 9.27348 12.5298V9.39973C5.32655 9.48125 2.15234 12.7045 2.15234 16.6687C2.15234 18.6477 2.94277 20.4416 4.2257 21.7524C5.38308 22.5291 6.77632 22.9822 8.27541 22.9822C12.2929 22.9822 15.5499 19.7269 15.5499 15.7113V7.68406H15.5498V7.68398Z"/><path fill="#00F2EA" d="M21.0338 6.34179V5.50477C20.0044 5.50633 18.9953 5.21819 18.1218 4.6733C18.895 5.51927 19.913 6.10265 21.0338 6.34196V6.34179ZM15.6094 0.957517C15.5832 0.807857 15.5631 0.657195 15.5491 0.505903V0H11.5905V15.7113C11.5842 17.5428 10.097 19.0258 8.2629 19.0258C7.74295 19.0266 7.2301 18.905 6.76579 18.671C7.37382 19.4686 8.33399 19.9833 9.41465 19.9833C11.2486 19.9833 12.7359 18.5004 12.7424 16.6688V0.9576H15.6094V0.957517ZM9.27305 9.39972V8.5085C8.94226 8.46328 8.60877 8.44066 8.2749 8.4408C4.25697 8.4408 1 11.696 1 15.7113C1 18.2287 2.28003 20.4473 4.22519 21.7524C2.94226 20.4416 2.15183 18.6476 2.15183 16.6687C2.15183 12.7046 5.32596 9.48132 9.27305 9.39981V9.39972Z"/></svg>