<svg xmlns="http://www.w3.org/2000/svg" width="24" height="22" fill="none" viewBox="0 0 24 22"><path fill="#32B8E8" d="M23.9884 5.44325C23.8816 7.784 22.2498 10.9892 19.0938 15.0573C15.8307 19.3067 13.07 21.4313 10.8116 21.4313C9.41306 21.4313 8.22872 20.1376 7.26197 17.5495C6.61584 15.177 5.97056 12.8048 5.32472 10.4324C4.60631 7.84569 3.83616 6.55063 3.01275 6.55063C2.83322 6.55063 2.20491 6.92919 1.12922 7.68322L0 6.22569C1.1755 5.19156 2.34304 4.1484 3.5025 3.09632C5.08219 1.7285 6.26813 1.00925 7.05844 0.936504C8.92641 0.756785 10.076 2.036 10.5075 4.77444C10.9738 7.72888 11.2964 9.56657 11.4778 10.2858C12.0161 12.7369 12.6084 13.9609 13.2558 13.9609C13.7581 13.9609 14.5127 13.1661 15.5187 11.5763C16.5239 9.986 17.0622 8.77616 17.135 7.94507C17.2779 6.57275 16.7393 5.88491 15.5187 5.88491C14.9442 5.88491 14.3518 6.01738 13.7425 6.27922C14.9219 2.40829 17.1755 0.528317 20.5019 0.635567C22.9679 0.708035 24.1305 2.3106 23.9885 5.44325"/></svg>