<svg xmlns="http://www.w3.org/2000/svg" width="41" height="41" viewBox="0 0 41 41" fill="none">
<g clip-path="url(#clip0_2450_42293)">
<path d="M39.4496 11.5532C39.2202 10.7053 38.7726 9.93235 38.1515 9.31124C37.5304 8.69012 36.7575 8.24254 35.9096 8.01307C32.8055 7.1665 20.3127 7.1665 20.3127 7.1665C20.3127 7.1665 7.81929 7.19213 4.71523 8.03869C3.86733 8.26818 3.09436 8.71578 2.47326 9.33693C1.85217 9.95807 1.40463 10.7311 1.17523 11.579C0.236319 17.0943 -0.1279 25.4984 1.20101 30.7931C1.43044 31.6409 1.87799 32.4139 2.49908 33.0351C3.12017 33.6562 3.89313 34.1038 4.74101 34.3332C7.84507 35.1798 20.3382 35.1798 20.3382 35.1798C20.3382 35.1798 32.8312 35.1798 35.9351 34.3332C36.783 34.1038 37.556 33.6562 38.1771 33.0351C38.7982 32.414 39.2458 31.641 39.4752 30.7931C40.4655 25.2699 40.7707 16.8712 39.4496 11.5534V11.5532Z" fill="#FF0000"/>
<path d="M16.3359 27.176L26.6997 21.1732L16.3359 15.1704V27.176Z" fill="white"/>
</g>
<defs>
<clipPath id="clip0_2450_42293">
<rect width="40" height="40" fill="white" transform="translate(0.333008 0.5)"/>
</clipPath>
</defs>
</svg>