<svg xmlns="http://www.w3.org/2000/svg" width="21" height="19" fill="none" viewBox="0 0 21 19"><path fill="url(#paint0_linear_736_24101)" d="M10.8849 0.532004C10.5389 -0.121996 9.46294 -0.121996 9.11694 0.532004L0.116935 17.532C0.0359187 17.6844 -0.00424573 17.8551 0.00035519 18.0276C0.00495611 18.2001 0.0541655 18.3685 0.143189 18.5164C0.232212 18.6642 0.358012 18.7864 0.508333 18.8712C0.658653 18.956 0.828366 19.0003 1.00094 19H19.0009C19.1734 19.0004 19.343 18.956 19.4932 18.8713C19.6434 18.7866 19.7691 18.6644 19.8581 18.5167C19.947 18.3689 19.9961 18.2006 20.0007 18.0282C20.0052 17.8559 19.965 17.6852 19.8839 17.533L10.8849 0.532004ZM11.0009 16H9.00094V14H11.0009V16ZM9.00094 12V7H11.0009L11.0019 12H9.00094Z"/><defs><linearGradient id="paint0_linear_736_24101" x1="17.901" x2="1.988" y1="15.493" y2="3.792" gradientUnits="userSpaceOnUse"><stop stop-color="#EF3F19"/><stop offset="1" stop-color="#EC1A1A"/></linearGradient></defs></svg>