<svg xmlns="http://www.w3.org/2000/svg" width="24" height="24" fill="none" viewBox="0 0 24 24"><path fill="#000" d="M9.60078 2.3999C8.96426 2.3999 8.35381 2.65276 7.90372 3.10285C7.45364 3.55293 7.20078 4.16338 7.20078 4.7999V16.7999C7.20078 17.4364 7.45364 18.0469 7.90372 18.497C8.35381 18.947 8.96426 19.1999 9.60078 19.1999H16.8008C17.4373 19.1999 18.0478 18.947 18.4978 18.497C18.9479 18.0469 19.2008 17.4364 19.2008 16.7999V4.7999C19.2008 4.16338 18.9479 3.55293 18.4978 3.10285C18.0478 2.65276 17.4373 2.3999 16.8008 2.3999H9.60078ZM8.40078 4.7999C8.40078 4.48164 8.52721 4.17642 8.75225 3.95137C8.9773 3.72633 9.28252 3.5999 9.60078 3.5999H16.8008C17.119 3.5999 17.4243 3.72633 17.6493 3.95137C17.8744 4.17642 18.0008 4.48164 18.0008 4.7999V16.7999C18.0008 17.1182 17.8744 17.4234 17.6493 17.6484C17.4243 17.8735 17.119 17.9999 16.8008 17.9999H9.60078C9.28252 17.9999 8.9773 17.8735 8.75225 17.6484C8.52721 17.4234 8.40078 17.1182 8.40078 16.7999V4.7999ZM4.80078 7.1999C4.80079 6.77863 4.91169 6.36477 5.12234 5.99994C5.33298 5.6351 5.63594 5.33214 6.00078 5.1215V17.3999C6.00078 18.1956 6.31685 18.9586 6.87946 19.5212C7.44207 20.0838 8.20513 20.3999 9.00078 20.3999H16.4792C16.2685 20.7647 15.9656 21.0677 15.6007 21.2783C15.2359 21.489 14.8221 21.5999 14.4008 21.5999H9.00078C7.88687 21.5999 6.81859 21.1574 6.03093 20.3698C5.24328 19.5821 4.80078 18.5138 4.80078 17.3999V7.1999Z"/></svg>