<svg xmlns="http://www.w3.org/2000/svg" width="24" height="24" fill="none" viewBox="0 0 24 24"><path stroke="#000" stroke-linecap="round" stroke-linejoin="round" d="M6.87265 17.129C5.02764 15.819 3.56764 14.115 2.74264 13.039C2.51195 12.742 2.38672 12.3766 2.38672 12.0005C2.38672 11.6244 2.51195 11.259 2.74264 10.962C4.23564 9.013 7.81765 5 11.9996 5C13.8756 5 15.6296 5.807 17.1296 6.874M14.1296 9.887C13.8519 9.60467 13.5211 9.38011 13.1562 9.22629C12.7912 9.07246 12.3995 8.99241 12.0034 8.99075C11.6074 8.98909 11.215 9.06586 10.8488 9.21662C10.4826 9.36738 10.1499 9.58916 9.8698 9.86915C9.58974 10.1492 9.36789 10.4818 9.21704 10.848C9.06619 11.2142 8.98933 11.6066 8.9909 12.0026C8.99246 12.3986 9.07242 12.7904 9.22616 13.1554C9.3799 13.5203 9.60438 13.8512 9.88665 14.129M3.99964 20L19.9996 4M9.99964 18.704C10.6488 18.8972 11.3223 18.9969 11.9996 19C16.1816 19 19.7636 14.987 21.2566 13.038C21.4873 12.7407 21.6124 12.3751 21.6122 11.9988C21.612 11.6226 21.4866 11.2571 21.2556 10.96C20.7309 10.2755 20.168 9.62112 19.5696 9"/></svg>