<svg xmlns="http://www.w3.org/2000/svg" width="24" height="24" fill="none" viewBox="0 0 24 24"><g filter="url(#filter0_d_337_9423)"><path fill="#fff" fill-opacity=".8" d="M2.57227 4.92843C2.57227 4.30328 2.82061 3.70373 3.26266 3.26168C3.70471 2.81963 4.30426 2.57129 4.92941 2.57129H16.5008C17.126 2.57129 17.7255 2.81963 18.1676 3.26168C18.6096 3.70373 18.858 4.30328 18.858 4.92843V6.00672C19.6716 6.06108 20.4342 6.42265 20.9912 7.01818C21.5482 7.61372 21.8581 8.39871 21.858 9.21415V18.2141C21.858 19.0666 21.5193 19.8842 20.9165 20.487C20.3137 21.0898 19.4962 21.4284 18.6437 21.4284H5.78998C4.9375 21.4284 4.11993 21.0898 3.51714 20.487C2.91434 19.8842 2.5757 19.0666 2.5757 18.2141V9.21415H2.57227V5.14272H2.5817C2.57534 5.07147 2.5722 4.99997 2.57227 4.92843ZM17.5723 4.92843C17.5723 4.337 17.0923 3.857 16.5008 3.857H4.92941C4.64525 3.857 4.37273 3.96989 4.1718 4.17082C3.97086 4.37175 3.85798 4.64427 3.85798 4.92843C3.85798 5.21259 3.97086 5.48511 4.1718 5.68605C4.37273 5.88698 4.64525 5.99986 4.92941 5.99986H17.5723V4.92843ZM16.0723 13.7141C15.9018 13.7141 15.7383 13.7819 15.6177 13.9024C15.4971 14.023 15.4294 14.1865 15.4294 14.357C15.4294 14.5275 15.4971 14.691 15.6177 14.8116C15.7383 14.9321 15.9018 14.9999 16.0723 14.9999H18.2151C18.3856 14.9999 18.5491 14.9321 18.6697 14.8116C18.7903 14.691 18.858 14.5275 18.858 14.357C18.858 14.1865 18.7903 14.023 18.6697 13.9024C18.5491 13.7819 18.3856 13.7141 18.2151 13.7141H16.0723Z" shape-rendering="crispEdges"/></g><defs><filter id="filter0_d_337_9423" width="27.285" height="26.857" x="-1.428" y="-.429" color-interpolation-filters="sRGB" filterUnits="userSpaceOnUse"><feFlood flood-opacity="0" result="BackgroundImageFix"/><feColorMatrix in="SourceAlpha" result="hardAlpha" type="matrix" values="0 0 0 0 0 0 0 0 0 0 0 0 0 0 0 0 0 0 127 0"/><feOffset dy="1"/><feGaussianBlur stdDeviation="2"/><feComposite in2="hardAlpha" operator="out"/><feColorMatrix type="matrix" values="0 0 0 0 0.404167 0 0 0 0 0.404167 0 0 0 0 0.404167 0 0 0 0.15 0"/><feBlend in2="BackgroundImageFix" mode="normal" result="effect1_dropShadow_337_9423"/><feBlend in="SourceGraphic" in2="effect1_dropShadow_337_9423" mode="normal" result="shape"/></filter></defs></svg>