<svg width="24" height="24" viewBox="0 0 24 24" fill="none" xmlns="http://www.w3.org/2000/svg">
<g clip-path="url(#clip0_2294_39184)">
<path fill-rule="evenodd" clip-rule="evenodd" d="M0 12C0 5.373 5.373 0 12 0C18.627 0 24 5.372 24 12C24 18.627 18.627 24 12 24C5.372 24 0 18.627 0 12ZM22.743 11.997C22.743 6.061 17.93 1.249 11.988 1.256C6.045 1.262 1.246 6.07 1.246 11.997C1.246 17.933 6.059 22.745 11.995 22.745C17.93 22.746 22.743 17.933 22.743 11.997Z" fill="black"/>
<path fill-rule="evenodd" clip-rule="evenodd" d="M11.668 5.823C10.4834 5.82226 9.34635 6.28908 8.504 7.122C8.08684 7.52681 7.75529 8.01134 7.52905 8.54679C7.30281 9.08225 7.18649 9.65771 7.187 10.239V11.218L6.631 12.221V13.665C6.63207 14.3106 6.76222 14.9494 7.01381 15.544C7.2654 16.1385 7.63335 16.6767 8.096 17.127C9.03819 18.0515 10.306 18.5687 11.626 18.567H12.522C13.838 18.567 15.102 18.05 16.042 17.127C16.5054 16.6772 16.8739 16.1391 17.1259 15.5445C17.3779 14.9499 17.5081 14.3108 17.509 13.665V12.22L16.959 11.217V10.237C16.9583 9.65577 16.8411 9.08057 16.6144 8.54538C16.3877 8.01019 16.056 7.52586 15.639 7.121C14.7962 6.28759 13.6583 5.82074 12.473 5.822L11.668 5.823ZM12.473 7.793H11.668L11.667 7.792C11.0108 7.79439 10.3818 8.05481 9.916 8.517C9.451 8.969 9.188 9.59 9.186 10.239V11.249H14.956L14.953 10.239C14.951 9.59 14.688 8.969 14.223 8.517C13.7574 8.05514 13.1288 7.79507 12.473 7.793ZM12.162 12.989H12.132V12.99C10.597 12.967 10.182 15.094 11.612 15.65V16.797C11.6127 16.8836 11.635 16.9687 11.6769 17.0445C11.7188 17.1202 11.779 17.1844 11.852 17.231H12.363C12.4345 17.1854 12.4933 17.1224 12.5339 17.0479C12.5744 16.9734 12.5955 16.8898 12.595 16.805V15.649H12.681C14.112 15.093 13.696 12.966 12.162 12.989Z" fill="#459AD4"/>
</g>
<defs>
<clipPath id="clip0_2294_39184">
<rect width="24" height="24" fill="white"/>
</clipPath>
</defs>
</svg>
