<svg width="74" height="64" viewBox="0 0 74 64" fill="none" xmlns="http://www.w3.org/2000/svg">
<path d="M29.5059 27.7996H35.7359V29.1996L32.2919 37.5996H30.5979L33.9859 29.3396H29.5059V27.7996ZM43.1237 36.3956C42.4517 37.3196 41.5091 37.7816 40.2957 37.7816C39.0824 37.7816 38.1351 37.3196 37.4537 36.3956C36.7817 35.4716 36.4457 34.2396 36.4457 32.6996C36.4457 31.1596 36.7817 29.9276 37.4537 29.0036C38.1351 28.0796 39.0824 27.6176 40.2957 27.6176C41.5091 27.6176 42.4517 28.0796 43.1237 29.0036C43.8051 29.9276 44.1457 31.1596 44.1457 32.6996C44.1457 34.2396 43.8051 35.4716 43.1237 36.3956ZM40.2957 36.2136C41.0237 36.2136 41.5791 35.9103 41.9617 35.3036C42.3444 34.6969 42.5357 33.8289 42.5357 32.6996C42.5357 31.5703 42.3444 30.7023 41.9617 30.0956C41.5791 29.4889 41.0237 29.1856 40.2957 29.1856C39.5771 29.1856 39.0217 29.4889 38.6297 30.0956C38.2471 30.7023 38.0557 31.5703 38.0557 32.6996C38.0557 33.8289 38.2471 34.6969 38.6297 35.3036C39.0217 35.9103 39.5771 36.2136 40.2957 36.2136Z" fill="#5C2448"/>
<mask id="path-3-inside-1_2484_45975" fill="white">
<path d="M55 32.5996C55 42.5407 46.9411 50.5996 37 50.5996C27.0589 50.5996 19 42.5407 19 32.5996C19 22.6585 27.0589 14.5996 37 14.5996C46.9411 14.5996 55 22.6585 55 32.5996ZM20.98 32.5996C20.98 41.4472 28.1524 48.6196 37 48.6196C45.8476 48.6196 53.02 41.4472 53.02 32.5996C53.02 23.752 45.8476 16.5796 37 16.5796C28.1524 16.5796 20.98 23.752 20.98 32.5996Z"/>
</mask>
<path d="M55 32.5996C55 42.5407 46.9411 50.5996 37 50.5996C27.0589 50.5996 19 42.5407 19 32.5996C19 22.6585 27.0589 14.5996 37 14.5996C46.9411 14.5996 55 22.6585 55 32.5996ZM20.98 32.5996C20.98 41.4472 28.1524 48.6196 37 48.6196C45.8476 48.6196 53.02 41.4472 53.02 32.5996C53.02 23.752 45.8476 16.5796 37 16.5796C28.1524 16.5796 20.98 23.752 20.98 32.5996Z" stroke="url(#paint0_linear_2484_45975)" stroke-opacity="0.23" stroke-width="4" mask="url(#path-3-inside-1_2484_45975)"/>
<mask id="path-4-inside-2_2484_45975" fill="white">
<path d="M37 15.5896C37 15.0428 37.4436 14.5968 37.9895 14.6268C40.9637 14.7906 43.8564 15.6903 46.405 17.2521C49.2354 18.9866 51.531 21.47 53.0381 24.4278C54.5452 27.3856 55.205 30.7025 54.9445 34.0119C54.6841 37.3212 53.5135 40.4941 51.5623 43.1797C49.6111 45.8654 46.9552 47.9591 43.8883 49.2294C40.8214 50.4998 37.4629 50.8973 34.1842 50.378C30.9054 49.8587 27.8342 48.4428 25.3099 46.2869C23.0371 44.3457 21.2874 41.8726 20.2126 39.0946C20.0154 38.5847 20.3025 38.0249 20.8225 37.856C21.3425 37.687 21.8982 37.973 22.0989 38.4816C23.0586 40.9128 24.6007 43.0773 26.5958 44.7813C28.8424 46.7001 31.5758 47.9602 34.4939 48.4224C37.412 48.8846 40.401 48.5308 43.1306 47.4002C45.8601 46.2695 48.2239 44.4061 49.9605 42.0159C51.697 39.6257 52.7388 36.8019 52.9706 33.8565C53.2024 30.9112 52.6152 27.9591 51.2739 25.3267C49.9326 22.6943 47.8895 20.484 45.3704 18.9403C43.1333 17.5694 40.5982 16.7716 37.9894 16.6102C37.4437 16.5764 37 16.1364 37 15.5896Z"/>
</mask>
<path d="M37 15.5896C37 15.0428 37.4436 14.5968 37.9895 14.6268C40.9637 14.7906 43.8564 15.6903 46.405 17.2521C49.2354 18.9866 51.531 21.47 53.0381 24.4278C54.5452 27.3856 55.205 30.7025 54.9445 34.0119C54.6841 37.3212 53.5135 40.4941 51.5623 43.1797C49.6111 45.8654 46.9552 47.9591 43.8883 49.2294C40.8214 50.4998 37.4629 50.8973 34.1842 50.378C30.9054 49.8587 27.8342 48.4428 25.3099 46.2869C23.0371 44.3457 21.2874 41.8726 20.2126 39.0946C20.0154 38.5847 20.3025 38.0249 20.8225 37.856C21.3425 37.687 21.8982 37.973 22.0989 38.4816C23.0586 40.9128 24.6007 43.0773 26.5958 44.7813C28.8424 46.7001 31.5758 47.9602 34.4939 48.4224C37.412 48.8846 40.401 48.5308 43.1306 47.4002C45.8601 46.2695 48.2239 44.4061 49.9605 42.0159C51.697 39.6257 52.7388 36.8019 52.9706 33.8565C53.2024 30.9112 52.6152 27.9591 51.2739 25.3267C49.9326 22.6943 47.8895 20.484 45.3704 18.9403C43.1333 17.5694 40.5982 16.7716 37.9894 16.6102C37.4437 16.5764 37 16.1364 37 15.5896Z" stroke="url(#paint1_linear_2484_45975)" stroke-width="4" mask="url(#path-4-inside-2_2484_45975)"/>
<path d="M18.8443 31.3496H16.583C16.583 32.5759 17.5768 33.5696 18.803 33.5696H21.0643C21.068 32.3471 20.0705 31.3496 18.8443 31.3496Z" fill="url(#paint2_linear_2484_45975)"/>
<g filter="url(#filter0_f_2484_45975)">
<path d="M18.8023 33.3821C17.7428 33.3821 16.8729 32.5719 16.7783 31.5371H18.8435C19.9033 31.5371 20.7759 32.3508 20.868 33.3821H18.8023Z" fill="url(#paint3_linear_2484_45975)"/>
</g>
<g filter="url(#filter1_f_2484_45975)">
<path d="M17.6094 31.5371H18.8439C19.9037 31.5371 20.7763 32.3508 20.8684 33.3821C20.0154 31.9086 19.6811 31.9651 17.6094 31.5371Z" fill="url(#paint4_linear_2484_45975)"/>
</g>
<path d="M21.7838 33.3669C21.2812 33.5807 20.7113 33.5807 20.2088 33.3669C18.6338 32.7032 16.8188 33.4644 16.1888 35.0582C15.6037 36.5394 15.6037 38.1857 16.1888 39.6669C16.8413 41.3132 18.63 42.2019 20.3362 41.7257C20.7675 41.6057 21.225 41.6057 21.6563 41.7257C23.3625 42.2057 25.155 41.3169 25.8038 39.6669C26.3888 38.1857 26.3888 36.5394 25.8038 35.0582C25.1775 33.4644 23.3625 32.7032 21.7838 33.3669Z" fill="url(#paint5_radial_2484_45975)"/>
<path d="M21.7838 33.3669C21.2812 33.5807 20.7113 33.5807 20.2088 33.3669C18.6338 32.7032 16.8188 33.4644 16.1888 35.0582C15.6037 36.5394 15.6037 38.1857 16.1888 39.6669C16.8413 41.3132 18.63 42.2019 20.3362 41.7257C20.7675 41.6057 21.225 41.6057 21.6563 41.7257C23.3625 42.2057 25.155 41.3169 25.8038 39.6669C26.3888 38.1857 26.3888 36.5394 25.8038 35.0582C25.1775 33.4644 23.3625 32.7032 21.7838 33.3669Z" fill="url(#paint6_radial_2484_45975)"/>
<path d="M21.7838 33.3669C21.2812 33.5807 20.7113 33.5807 20.2088 33.3669C18.6338 32.7032 16.8188 33.4644 16.1888 35.0582C15.6037 36.5394 15.6037 38.1857 16.1888 39.6669C16.8413 41.3132 18.63 42.2019 20.3362 41.7257C20.7675 41.6057 21.225 41.6057 21.6563 41.7257C23.3625 42.2057 25.155 41.3169 25.8038 39.6669C26.3888 38.1857 26.3888 36.5394 25.8038 35.0582C25.1775 33.4644 23.3625 32.7032 21.7838 33.3669Z" fill="url(#paint7_linear_2484_45975)"/>
<path d="M21.7838 33.3669C21.2812 33.5807 20.7113 33.5807 20.2088 33.3669C18.6338 32.7032 16.8188 33.4644 16.1888 35.0582C15.6037 36.5394 15.6037 38.1857 16.1888 39.6669C16.8413 41.3132 18.63 42.2019 20.3362 41.7257C20.7675 41.6057 21.225 41.6057 21.6563 41.7257C23.3625 42.2057 25.155 41.3169 25.8038 39.6669C26.3888 38.1857 26.3888 36.5394 25.8038 35.0582C25.1775 33.4644 23.3625 32.7032 21.7838 33.3669Z" fill="url(#paint8_radial_2484_45975)"/>
<path d="M21.7838 33.3669C21.2812 33.5807 20.7113 33.5807 20.2088 33.3669C18.6338 32.7032 16.8188 33.4644 16.1888 35.0582C15.6037 36.5394 15.6037 38.1857 16.1888 39.6669C16.8413 41.3132 18.63 42.2019 20.3362 41.7257C20.7675 41.6057 21.225 41.6057 21.6563 41.7257C23.3625 42.2057 25.155 41.3169 25.8038 39.6669C26.3888 38.1857 26.3888 36.5394 25.8038 35.0582C25.1775 33.4644 23.3625 32.7032 21.7838 33.3669Z" fill="url(#paint9_radial_2484_45975)"/>
<defs>
<filter id="filter0_f_2484_45975" x="16.5908" y="31.3496" width="4.46484" height="2.2207" filterUnits="userSpaceOnUse" color-interpolation-filters="sRGB">
<feFlood flood-opacity="0" result="BackgroundImageFix"/>
<feBlend mode="normal" in="SourceGraphic" in2="BackgroundImageFix" result="shape"/>
<feGaussianBlur stdDeviation="0.09375" result="effect1_foregroundBlur_2484_45975"/>
</filter>
<filter id="filter1_f_2484_45975" x="17.3281" y="31.2559" width="3.82129" height="2.4082" filterUnits="userSpaceOnUse" color-interpolation-filters="sRGB">
<feFlood flood-opacity="0" result="BackgroundImageFix"/>
<feBlend mode="normal" in="SourceGraphic" in2="BackgroundImageFix" result="shape"/>
<feGaussianBlur stdDeviation="0.140625" result="effect1_foregroundBlur_2484_45975"/>
</filter>
<linearGradient id="paint0_linear_2484_45975" x1="55" y1="32.5996" x2="20.9708" y2="42.6541" gradientUnits="userSpaceOnUse">
<stop stop-color="#6FDF2B"/>
<stop offset="1" stop-color="#2BDF89"/>
</linearGradient>
<linearGradient id="paint1_linear_2484_45975" x1="48" y1="18.0996" x2="18" y2="32.5996" gradientUnits="userSpaceOnUse">
<stop stop-color="#6FDF2B"/>
<stop offset="1" stop-color="#2BDF89"/>
</linearGradient>
<linearGradient id="paint2_linear_2484_45975" x1="16.583" y1="31.3496" x2="21.0643" y2="33.5696" gradientUnits="userSpaceOnUse">
<stop stop-color="#77B725"/>
<stop offset="1" stop-color="#A3DA32"/>
</linearGradient>
<linearGradient id="paint3_linear_2484_45975" x1="16.5823" y1="31.3496" x2="21.0636" y2="33.5696" gradientUnits="userSpaceOnUse">
<stop stop-color="#8FCD20"/>
<stop offset="1" stop-color="#AEE137"/>
</linearGradient>
<linearGradient id="paint4_linear_2484_45975" x1="17.6094" y1="31.5371" x2="21.0236" y2="33.2247" gradientUnits="userSpaceOnUse">
<stop offset="0.260417" stop-color="#CDFF7A" stop-opacity="0"/>
<stop offset="0.739583" stop-color="#CDFF7A" stop-opacity="0.8"/>
<stop offset="1" stop-color="#CDFF7A" stop-opacity="0"/>
</linearGradient>
<radialGradient id="paint5_radial_2484_45975" cx="0" cy="0" r="1" gradientUnits="userSpaceOnUse" gradientTransform="translate(16.8569 40.7944) rotate(-40.0123) scale(10.5882 10.5882)">
<stop stop-color="#689133"/>
<stop offset="0.527913" stop-color="#A4D948"/>
<stop offset="1" stop-color="#CCEE37"/>
</radialGradient>
<radialGradient id="paint6_radial_2484_45975" cx="0" cy="0" r="1" gradientUnits="userSpaceOnUse" gradientTransform="translate(16.7797 33.127) rotate(35.4333) scale(9.24885 11.1181)">
<stop stop-color="#678F32"/>
<stop offset="0.389562" stop-color="#96CB3A" stop-opacity="0"/>
</radialGradient>
<linearGradient id="paint7_linear_2484_45975" x1="20.9963" y1="33.127" x2="20.9963" y2="41.8554" gradientUnits="userSpaceOnUse">
<stop offset="0.583333" stop-color="#A3CE5A" stop-opacity="0"/>
<stop offset="1" stop-color="#A37CA3"/>
</linearGradient>
<radialGradient id="paint8_radial_2484_45975" cx="0" cy="0" r="1" gradientUnits="userSpaceOnUse" gradientTransform="translate(19.5736 35.98) rotate(62.7745) scale(8.58642 10.3218)">
<stop stop-color="#BFF341"/>
<stop offset="0.367134" stop-color="#BFF341" stop-opacity="0"/>
</radialGradient>
<radialGradient id="paint9_radial_2484_45975" cx="0" cy="0" r="1" gradientUnits="userSpaceOnUse" gradientTransform="translate(24.068 35.9463) rotate(128.117) scale(8.78224 10.5572)">
<stop stop-color="#EEFF61"/>
<stop offset="0.386328" stop-color="#EEFF61" stop-opacity="0"/>
</radialGradient>
</defs>
</svg>
