<svg xmlns="http://www.w3.org/2000/svg" width="86" height="87" viewBox="0 0 86 87" fill="none">
<path d="M28.6965 72.5165C44.551 80.3826 63.7882 73.8988 71.6641 58.0345C79.54 42.1702 73.0721 22.933 57.2177 15.067C41.3633 7.20092 22.1261 13.6847 14.2502 29.549C6.37427 45.4132 12.8421 64.6505 28.6965 72.5165Z" fill="url(#paint0_radial_1447_69778)"/>
<g style="mix-blend-mode:soft-light">
<path d="M28.6965 72.5165C44.551 80.3826 63.7882 73.8988 71.6641 58.0345C79.54 42.1702 73.0721 22.933 57.2177 15.067C41.3633 7.20092 22.1261 13.6847 14.2502 29.549C6.37427 45.4132 12.8421 64.6505 28.6965 72.5165Z" fill="url(#paint1_radial_1447_69778)"/>
</g>
<g style="mix-blend-mode:soft-light">
<path d="M28.6965 72.5165C44.551 80.3826 63.7882 73.8988 71.6641 58.0345C79.54 42.1702 73.0721 22.933 57.2177 15.067C41.3633 7.20092 22.1261 13.6847 14.2502 29.549C6.37427 45.4132 12.8421 64.6505 28.6965 72.5165Z" fill="url(#paint2_radial_1447_69778)"/>
</g>
<g style="mix-blend-mode:overlay">
<path d="M28.6965 72.5165C44.551 80.3826 63.7882 73.8988 71.6641 58.0345C79.54 42.1702 73.0721 22.933 57.2177 15.067C41.3633 7.20092 22.1261 13.6847 14.2502 29.549C6.37427 45.4132 12.8421 64.6505 28.6965 72.5165Z" fill="url(#paint3_radial_1447_69778)" fill-opacity="0.7"/>
</g>
<mask id="mask0_1447_69778" style="mask-type:alpha" maskUnits="userSpaceOnUse" x="10" y="11" width="66" height="65">
<path d="M28.6965 72.5165C44.551 80.3826 63.7882 73.8988 71.6641 58.0345C79.54 42.1702 73.0721 22.933 57.2177 15.067C41.3633 7.20092 22.1261 13.6847 14.2502 29.549C6.37427 45.4132 12.8421 64.6505 28.6965 72.5165Z" fill="white"/>
</mask>
<g mask="url(#mask0_1447_69778)">
<g filter="url(#filter0_f_1447_69778)">
<path d="M14.4957 28.6395C14.7295 28.2468 14.884 28.2725 14.7174 28.7064C14.5323 29.1885 13.9881 30.0724 13.7312 30.641C13.051 32.1464 12.6392 33.5445 12.3535 34.7062C11.4329 38.4497 11.3968 41.1384 11.4553 43.4606C11.6477 51.0938 13.627 55.8929 15.8953 59.8949C19.2202 65.7613 23.7311 69.3407 28.6671 72.0742C28.7916 72.1431 28.4007 72.9838 28.2217 73.0298C27.899 73.1126 27.7152 72.7803 27.488 72.6574C26.8354 72.3046 26.1938 71.9295 25.564 71.5309C23.6964 70.349 21.9343 68.955 20.3022 67.309C15.8645 62.8337 11.6541 56.8515 10.9906 45.5569C10.9488 44.8464 10.9241 44.1079 10.9254 43.3281C10.9265 42.7045 10.9419 42.0579 10.9798 41.377C11.1044 39.1374 11.6052 33.4943 14.4957 28.6395ZM28.1976 73.0289C28.0742 72.9723 28.4277 72.1831 28.6233 72.0799C28.9189 71.9239 29.0819 72.2541 29.2722 72.3341C30.0625 72.6665 30.8641 72.9755 31.6779 73.2593C33.9094 74.0375 36.2321 74.6282 38.6709 74.9732C44.7199 75.829 51.6073 75.9754 60.5067 70.3422C61.0731 69.9836 61.6523 69.5925 62.2476 69.1586C64.0567 67.8398 68.7217 64.271 71.3667 58.2695C71.5897 57.7635 71.8873 57.5419 71.744 57.9997C71.5615 58.5826 70.9674 59.6918 70.6462 60.2795C69.6175 62.1617 68.517 63.639 67.5554 64.7959C64.5082 68.4626 61.93 70.186 59.6657 71.5697C52.3057 76.0669 46.529 76.4858 41.2446 76.2246C36.5049 75.9904 32.1769 74.8523 28.1976 73.0289Z" fill="#401C02"/>
</g>
<g filter="url(#filter1_f_1447_69778)">
<path d="M14.4957 28.6395C14.7295 28.2468 14.884 28.2725 14.7174 28.7064C14.5323 29.1885 13.9881 30.0724 13.7312 30.641C13.051 32.1464 12.6392 33.5445 12.3535 34.7062C11.4329 38.4497 11.3968 41.1384 11.4553 43.4606C11.6477 51.0938 13.627 55.8929 15.8953 59.8949C19.2202 65.7613 23.7311 69.3407 28.6671 72.0742C28.7916 72.1431 28.4007 72.9838 28.2217 73.0298C27.899 73.1126 27.7152 72.7803 27.488 72.6574C26.8354 72.3046 26.1938 71.9295 25.564 71.5309C23.6964 70.349 21.9343 68.955 20.3022 67.309C15.8645 62.8337 11.6541 56.8515 10.9906 45.5569C10.9488 44.8464 10.9241 44.1079 10.9254 43.3281C10.9265 42.7045 10.9419 42.0579 10.9798 41.377C11.1044 39.1374 11.6052 33.4943 14.4957 28.6395ZM28.1976 73.0289C28.0742 72.9723 28.4277 72.1831 28.6233 72.0799C28.9189 71.9239 29.0819 72.2541 29.2722 72.3341C30.0625 72.6665 30.8641 72.9755 31.6779 73.2593C33.9094 74.0375 36.2321 74.6282 38.6709 74.9732C44.7199 75.829 51.6073 75.9754 60.5067 70.3422C61.0731 69.9836 61.6523 69.5925 62.2476 69.1586C64.0567 67.8398 68.7217 64.271 71.3667 58.2695C71.5897 57.7635 71.8873 57.5419 71.744 57.9997C71.5615 58.5826 70.9674 59.6918 70.6462 60.2795C69.6175 62.1617 68.517 63.639 67.5554 64.7959C64.5082 68.4626 61.93 70.186 59.6657 71.5697C52.3057 76.0669 46.529 76.4858 41.2446 76.2246C36.5049 75.9904 32.1769 74.8523 28.1976 73.0289Z" fill="#401C02"/>
</g>
</g>
<mask id="mask1_1447_69778" style="mask-type:alpha" maskUnits="userSpaceOnUse" x="10" y="11" width="66" height="65">
<path d="M28.7048 72.5291C44.5582 80.3941 63.7954 73.9087 71.6723 58.0434C79.5492 42.1782 73.083 22.941 57.2296 15.0759C41.3761 7.21085 22.1389 13.6963 14.262 29.5615C6.38513 45.4268 12.8514 64.664 28.7048 72.5291Z" fill="black"/>
</mask>
<g mask="url(#mask1_1447_69778)">
<g filter="url(#filter2_f_1447_69778)">
<path d="M78.0371 45.2444C78.0371 45.2444 63.7975 34.666 51.6808 34.0015L51.6755 34.0122C50.5421 33.7491 49.4437 33.3536 48.4029 32.8339C47.3652 32.3217 46.3915 31.6891 45.5018 30.9491L45.5077 30.9371C37.6503 21.6929 20.6124 16.7513 20.6124 16.7513L18.7374 20.5282L19.5652 22.51C19.5652 22.51 12.7343 34.6917 25.1686 40.8611C35.4327 45.9537 41.7835 39.0725 43.6848 36.5129C43.9572 36.1381 44.3069 35.8262 44.7103 35.5985C45.1136 35.3707 45.5612 35.2324 46.0225 35.193C46.4066 35.1538 46.7939 35.2193 47.1436 35.3824C47.4855 35.5627 47.7727 35.8314 47.9755 36.1604C48.2253 36.5522 48.3874 36.9935 48.4507 37.4539C48.5141 37.9144 48.4771 38.3832 48.3425 38.8283C47.4561 41.8959 45.8182 51.1065 56.0776 56.1968C68.5119 62.3661 74.0857 49.5607 74.0857 49.5607L76.1621 49.0213L78.0371 45.2444Z" fill="#C74800" fill-opacity="0.75"/>
</g>
</g>
<path d="M78.3922 44.5316C78.3922 44.5316 64.152 33.9529 52.0354 33.2875L52.0301 33.2982C50.8967 33.0351 49.7983 32.6395 48.7574 32.1198C47.7197 31.6076 46.7459 30.9749 45.8562 30.2349L45.8621 30.223C38.0041 20.9789 20.966 16.0364 20.966 16.0364L19.0913 19.8128L19.9192 21.7945C19.9192 21.7945 13.0893 33.9747 25.524 40.1446C35.7883 45.2376 42.1386 38.3574 44.0396 35.7982C44.312 35.4234 44.6617 35.1116 45.065 34.8839C45.4684 34.6562 45.9159 34.5179 46.3772 34.4785C46.7613 34.4394 47.1486 34.5049 47.4983 34.668C47.8402 34.8483 48.1274 35.117 48.3302 35.4461C48.58 35.8378 48.7422 36.279 48.8056 36.7395C48.869 37.1999 48.832 37.6687 48.6974 38.1137C47.8113 41.181 46.1742 50.3908 56.4338 55.4814C68.8684 61.6513 74.4412 48.8472 74.4412 48.8472L76.5175 48.3081L78.3922 44.5316Z" fill="#0B0B0B"/>
<path d="M22.1476 23.8644C25.0817 19.0033 28.7578 20.6283 33.9343 23.1964C39.1107 25.7646 43.8572 29.2047 42.2699 32.8828C40.9924 35.8475 38.1472 39.2088 33.6522 40.2759C31.715 40.7246 29.6878 40.5746 27.8387 39.8456C24.9097 38.7057 20.1271 36.2557 19.6558 32.2838C19.6558 32.2838 19.0922 28.9251 22.1476 23.8644Z" fill="url(#paint4_radial_1447_69778)"/>
<g filter="url(#filter3_f_1447_69778)">
<path d="M22.206 23.6747C22.646 22.9501 21.5274 25.0246 21.4644 25.1484C20.9665 26.1276 20.6215 27.0156 20.3904 27.739C19.7062 29.8804 19.7454 31.0113 19.8134 31.9945C19.8151 32.0199 19.7974 32.0758 19.7613 32.149C19.5436 32.5899 19.5774 31.7828 19.5765 31.7196C19.5697 31.2023 19.6133 30.5988 19.7407 29.8674C19.9696 28.5524 20.6153 26.2944 22.206 23.6747ZM19.6171 32.3298C19.6067 32.2319 19.8064 31.9393 19.8173 32.0267C19.8305 32.1327 19.8464 32.2343 19.8643 32.3322C19.8913 32.479 19.923 32.6177 19.9584 32.75C20.095 33.262 20.2824 33.6852 20.4924 34.0673C21.1193 35.2081 21.9395 36.0018 22.8099 36.697C25.7817 39.0707 29.1219 40.8739 33.8007 39.9789C33.8292 39.9735 33.794 40.0826 33.7294 40.1971C33.6291 40.375 33.0605 40.4461 32.9692 40.4608C32.49 40.5375 32.0302 40.5757 31.5855 40.5841C30.2563 40.6094 29.0596 40.3745 27.9582 39.9603C25.8502 39.1676 23.8479 38.1659 22.1322 36.6369C21.053 35.675 19.8758 34.7604 19.6171 32.3298ZM33.6248 40.3322C33.6056 40.3365 33.6136 40.2895 33.6447 40.217C33.8478 39.7438 34.2574 39.8613 34.3212 39.8431C34.7334 39.7258 35.159 39.5814 35.6035 39.3982C35.9134 39.2704 36.2325 39.1238 36.564 38.9512C36.8259 38.8149 37.0955 38.6624 37.3754 38.4878C38.0336 38.077 40.7091 36.3814 42.264 32.8208C42.4635 32.3641 42.3749 32.8181 41.9839 33.5759C41.603 34.3138 41.1806 34.9613 40.8099 35.4678C39.6562 37.044 38.7575 37.7384 38.0151 38.2894C36.2656 39.5879 34.8892 40.0457 33.6248 40.3322Z" fill="#818181"/>
</g>
<path d="M71.508 48.3582C73.6065 43.0825 70.0888 41.1383 64.9124 38.5702C59.736 36.002 54.1249 34.3034 52.1544 37.7913C50.565 40.6013 49.6076 44.8992 51.4757 49.1232C52.2897 50.9369 53.6352 52.4602 55.3342 53.4915C58.0136 55.1341 62.8578 57.4602 66.3072 55.4335C66.3072 55.4335 69.3239 53.8511 71.508 48.3582Z" fill="url(#paint5_radial_1447_69778)"/>
<g filter="url(#filter4_f_1447_69778)">
<path d="M71.6235 48.1975C71.9348 47.409 70.9585 49.5542 70.8979 49.6791C70.419 50.6677 69.9201 51.4794 69.4835 52.1008C68.1913 53.9405 67.2666 54.5932 66.4422 55.1337C66.4209 55.1477 66.3871 55.1955 66.3506 55.2686C66.1309 55.7085 66.7535 55.1936 66.8044 55.156C67.2207 54.8486 67.6751 54.4489 68.1808 53.9052C69.0899 52.9278 70.4985 51.0482 71.6235 48.1975ZM66.2937 55.4927C66.378 55.4418 66.4904 55.1059 66.4142 55.15C66.3217 55.2037 66.2312 55.2524 66.1423 55.2973C66.009 55.3647 65.8794 55.4232 65.7526 55.4752C65.2621 55.676 64.8115 55.7827 64.3802 55.8466C63.0922 56.0374 61.9639 55.8643 60.8836 55.5918C57.1954 54.6611 53.7389 53.0923 51.6225 48.8259C51.6096 48.7999 51.5439 48.8939 51.4918 49.0145C51.4107 49.202 51.6979 49.6978 51.7415 49.7793C51.9701 50.2073 52.2177 50.5964 52.4799 50.9555C53.2636 52.0291 54.1744 52.8398 55.1705 53.4663C57.0768 54.6652 59.0857 55.6535 61.3414 56.0949C62.7603 56.3725 64.2009 56.7567 66.2937 55.4927ZM51.4474 49.1795C51.4556 49.1974 51.4882 49.1626 51.5271 49.0941C51.7813 48.6462 51.44 48.3911 51.4159 48.3293C51.2601 47.9302 51.1178 47.504 50.9949 47.0394C50.9093 46.7154 50.8331 46.3726 50.7701 46.0043C50.7204 45.7134 50.6789 45.4066 50.6488 45.0781C50.5779 44.3056 50.3108 41.1501 52.2072 37.7589C52.4505 37.3239 52.1423 37.669 51.7751 38.4386C51.4175 39.188 51.1571 39.9159 50.9777 40.5173C50.4196 42.3891 50.41 43.5245 50.4199 44.4488C50.4434 46.627 50.911 47.9997 51.4474 49.1795Z" fill="#818181"/>
</g>
<path d="M21.9879 17.5362L21.4033 17.2461L20.164 19.7428L20.7486 20.0329L21.9879 17.5362Z" fill="url(#paint6_linear_1447_69778)"/>
<path d="M75.3382 47.1259L75.9229 47.416L77.1622 44.9193L76.5776 44.6293L75.3382 47.1259Z" fill="url(#paint7_linear_1447_69778)"/>
<path d="M49.8039 59.778C50.185 59.7636 50.5011 60.167 50.2722 60.3771C47.0147 63.4542 40.5908 63.7396 34.5883 60.7612C28.5858 57.7827 24.9255 52.4861 25.4139 48.032C25.4476 47.725 25.9565 47.7311 26.1749 48.0443C28.3534 51.1521 32.0437 54.2453 36.6807 56.5462C41.3176 58.847 46.0091 59.9173 49.8039 59.778Z" fill="url(#paint8_radial_1447_69778)"/>
<path d="M49.8039 59.778C50.185 59.7636 50.5011 60.167 50.2722 60.3771C47.0147 63.4542 40.5908 63.7396 34.5883 60.7612C28.5858 57.7827 24.9255 52.4861 25.4139 48.032C25.4476 47.725 25.9565 47.7311 26.1749 48.0443C28.3534 51.1521 32.0437 54.2453 36.6806 56.5462C41.3176 58.847 46.0091 59.9173 49.8039 59.778Z" stroke="url(#paint9_linear_1447_69778)" stroke-width="0.315023" stroke-miterlimit="10"/>
<defs>
<filter id="filter0_f_1447_69778" x="7.60275" y="25.0393" width="67.5015" height="54.5689" filterUnits="userSpaceOnUse" color-interpolation-filters="sRGB">
<feFlood flood-opacity="0" result="BackgroundImageFix"/>
<feBlend mode="normal" in="SourceGraphic" in2="BackgroundImageFix" result="shape"/>
<feGaussianBlur stdDeviation="1.66151" result="effect1_foregroundBlur_1447_69778"/>
</filter>
<filter id="filter1_f_1447_69778" x="5.60893" y="23.0455" width="71.4892" height="58.5565" filterUnits="userSpaceOnUse" color-interpolation-filters="sRGB">
<feFlood flood-opacity="0" result="BackgroundImageFix"/>
<feBlend mode="normal" in="SourceGraphic" in2="BackgroundImageFix" result="shape"/>
<feGaussianBlur stdDeviation="2.65842" result="effect1_foregroundBlur_1447_69778"/>
</filter>
<filter id="filter2_f_1447_69778" x="15.6995" y="14.7572" width="64.3314" height="45.1136" filterUnits="userSpaceOnUse" color-interpolation-filters="sRGB">
<feFlood flood-opacity="0" result="BackgroundImageFix"/>
<feBlend mode="normal" in="SourceGraphic" in2="BackgroundImageFix" result="shape"/>
<feGaussianBlur stdDeviation="0.996909" result="effect1_foregroundBlur_1447_69778"/>
</filter>
<filter id="filter3_f_1447_69778" x="19.0435" y="22.9898" width="23.8554" height="18.1278" filterUnits="userSpaceOnUse" color-interpolation-filters="sRGB">
<feFlood flood-opacity="0" result="BackgroundImageFix"/>
<feBlend mode="normal" in="SourceGraphic" in2="BackgroundImageFix" result="shape"/>
<feGaussianBlur stdDeviation="0.265842" result="effect1_foregroundBlur_1447_69778"/>
</filter>
<filter id="filter4_f_1447_69778" x="49.8863" y="37.0367" width="22.33" height="19.87" filterUnits="userSpaceOnUse" color-interpolation-filters="sRGB">
<feFlood flood-opacity="0" result="BackgroundImageFix"/>
<feBlend mode="normal" in="SourceGraphic" in2="BackgroundImageFix" result="shape"/>
<feGaussianBlur stdDeviation="0.265842" result="effect1_foregroundBlur_1447_69778"/>
</filter>
<radialGradient id="paint0_radial_1447_69778" cx="0" cy="0" r="1" gradientUnits="userSpaceOnUse" gradientTransform="translate(57.1963 15.0563) rotate(116.402) scale(64.0919 64.0441)">
<stop stop-color="#FFDE43"/>
<stop offset="1" stop-color="#FFBC00"/>
</radialGradient>
<radialGradient id="paint1_radial_1447_69778" cx="0" cy="0" r="1" gradientUnits="userSpaceOnUse" gradientTransform="translate(53.3825 22.7384) rotate(116.402) scale(55.5153 55.4739)">
<stop stop-color="white" stop-opacity="0.5"/>
<stop offset="0.782278"/>
</radialGradient>
<radialGradient id="paint2_radial_1447_69778" cx="0" cy="0" r="1" gradientUnits="userSpaceOnUse" gradientTransform="translate(53.3825 22.7384) rotate(116.402) scale(55.5153 55.4739)">
<stop stop-color="white" stop-opacity="0.5"/>
<stop offset="0.782278"/>
</radialGradient>
<radialGradient id="paint3_radial_1447_69778" cx="0" cy="0" r="1" gradientUnits="userSpaceOnUse" gradientTransform="translate(60.3005 8.80355) rotate(116.402) scale(71.0728 96.0442)">
<stop offset="0.0922635" stop-color="white"/>
<stop offset="0.670207" stop-color="white" stop-opacity="0"/>
</radialGradient>
<radialGradient id="paint4_radial_1447_69778" cx="0" cy="0" r="1" gradientUnits="userSpaceOnUse" gradientTransform="translate(47.3405 26.7093) rotate(26.3873) scale(25.1255 25.1481)">
<stop offset="0.14" stop-color="#8A8B88"/>
<stop offset="1" stop-color="#0B0B0B"/>
</radialGradient>
<radialGradient id="paint5_radial_1447_69778" cx="0" cy="0" r="1" gradientUnits="userSpaceOnUse" gradientTransform="translate(54.0065 30.0211) rotate(-153.613) scale(25.1255 25.1481)">
<stop offset="0.14" stop-color="#8A8B88"/>
<stop offset="1" stop-color="#0B0B0B"/>
</radialGradient>
<linearGradient id="paint6_linear_1447_69778" x1="20.7832" y1="18.4948" x2="21.368" y2="18.7851" gradientUnits="userSpaceOnUse">
<stop stop-color="#CCCCCC"/>
<stop offset="0.05" stop-color="#D5D5D5"/>
<stop offset="0.2" stop-color="#E9E9E9"/>
<stop offset="0.35" stop-color="#F6F6F6"/>
<stop offset="0.5" stop-color="#FAFAFA"/>
<stop offset="0.65" stop-color="#F6F6F6"/>
<stop offset="0.8" stop-color="#E9E9E9"/>
<stop offset="0.95" stop-color="#D5D5D5"/>
<stop offset="1" stop-color="#CCCCCC"/>
</linearGradient>
<linearGradient id="paint7_linear_1447_69778" x1="76.543" y1="46.1673" x2="75.9582" y2="45.877" gradientUnits="userSpaceOnUse">
<stop stop-color="#CCCCCC"/>
<stop offset="0.05" stop-color="#D5D5D5"/>
<stop offset="0.2" stop-color="#E9E9E9"/>
<stop offset="0.35" stop-color="#F6F6F6"/>
<stop offset="0.5" stop-color="#FAFAFA"/>
<stop offset="0.65" stop-color="#F6F6F6"/>
<stop offset="0.8" stop-color="#E9E9E9"/>
<stop offset="0.95" stop-color="#D5D5D5"/>
<stop offset="1" stop-color="#CCCCCC"/>
</linearGradient>
<radialGradient id="paint8_radial_1447_69778" cx="0" cy="0" r="1" gradientUnits="userSpaceOnUse" gradientTransform="translate(36.3119 57.2905) rotate(26.3906) scale(10.4873 7.79659)">
<stop stop-color="#743C1C"/>
<stop offset="1" stop-color="#401C02"/>
</radialGradient>
<linearGradient id="paint9_linear_1447_69778" x1="34.4923" y1="60.956" x2="38.1303" y2="53.6244" gradientUnits="userSpaceOnUse">
<stop offset="0.265625" stop-color="#FFDE43"/>
<stop offset="1" stop-color="#F79D14"/>
</linearGradient>
</defs>
</svg>