<svg width="24" height="24" viewBox="0 0 24 24" fill="none" xmlns="http://www.w3.org/2000/svg">
<path d="M16.103 3.01332C16.4225 2.68744 16.8034 2.42811 17.2238 2.25033C17.6441 2.07255 18.0955 1.97985 18.5519 1.97758C19.0082 1.97531 19.4605 2.06352 19.8826 2.23711C20.3047 2.4107 20.6882 2.66623 21.0109 2.98892C21.3336 3.31161 21.5892 3.69507 21.7628 4.11713C21.9365 4.53919 22.0247 4.99148 22.0225 5.44786C22.0203 5.90423 21.9276 6.35564 21.7499 6.77599C21.5721 7.19634 21.3129 7.57729 20.987 7.89682L19.8845 8.99982L15 4.11582L16.1025 3.01332H16.103ZM14.1165 4.99982L4.019 15.0988C3.63806 15.4797 3.36658 15.956 3.233 16.4778L2.0195 21.2203C1.99262 21.3254 1.99355 21.4357 2.0222 21.5403C2.05085 21.6449 2.10624 21.7403 2.18291 21.817C2.25959 21.8937 2.35491 21.9492 2.45952 21.9779C2.56412 22.0066 2.67439 22.0076 2.7795 21.9808L7.523 20.7688C8.04524 20.6352 8.52191 20.3636 8.903 19.9823L19.0005 9.88382L14.1165 4.99982Z" fill="url(#paint0_linear_2450_41886)"/>
<defs>
<linearGradient id="paint0_linear_2450_41886" x1="2.53128" y1="1.97754" x2="21.6086" y2="11.1842" gradientUnits="userSpaceOnUse">
<stop stop-color="#22BB96"/>
<stop offset="1" stop-color="#2290BA"/>
</linearGradient>
</defs>
</svg>
