<svg xmlns="http://www.w3.org/2000/svg" width="24" height="24" viewBox="0 0 24 24" fill="none">
<g clip-path="url(#clip0_1447_100298)">
<g filter="url(#filter0_d_1447_100298)">
<path d="M15.5021 3.94344C16.106 3.33945 16.9251 3.00008 17.7792 3C18.6333 2.99992 19.4525 3.33912 20.0565 3.94299C20.6605 4.54686 20.9999 5.36594 21 6.22003C21.0001 7.07411 20.6609 7.89325 20.057 8.49725L19.2542 9.30001L14.7002 4.74621L15.5021 3.94344ZM13.7462 5.70017L4.74631 14.6989C4.38058 15.0647 4.12354 15.5249 4.00381 16.0281L3.01832 20.1688C2.99164 20.281 2.99414 20.3982 3.02559 20.5091C3.05703 20.62 3.11638 20.7211 3.19797 20.8026C3.27955 20.8841 3.38065 20.9433 3.49163 20.9746C3.60261 21.0059 3.71976 21.0083 3.83191 20.9815L7.97278 19.9961C8.47616 19.8761 8.93635 19.6188 9.30207 19.2527L18.3002 10.2558L13.7453 5.70017H13.7462Z" fill="white" fill-opacity="0.8" shape-rendering="crispEdges"/>
</g>
</g>
<defs>
<filter id="filter0_d_1447_100298" x="-1" y="0" width="26" height="26" filterUnits="userSpaceOnUse" color-interpolation-filters="sRGB">
<feFlood flood-opacity="0" result="BackgroundImageFix"/>
<feColorMatrix in="SourceAlpha" type="matrix" values="0 0 0 0 0 0 0 0 0 0 0 0 0 0 0 0 0 0 127 0" result="hardAlpha"/>
<feOffset dy="1"/>
<feGaussianBlur stdDeviation="2"/>
<feComposite in2="hardAlpha" operator="out"/>
<feColorMatrix type="matrix" values="0 0 0 0 0.404167 0 0 0 0 0.404167 0 0 0 0 0.404167 0 0 0 0.15 0"/>
<feBlend mode="normal" in2="BackgroundImageFix" result="effect1_dropShadow_1447_100298"/>
<feBlend mode="normal" in="SourceGraphic" in2="effect1_dropShadow_1447_100298" result="shape"/>
</filter>
<clipPath id="clip0_1447_100298">
<rect width="24" height="24" fill="white"/>
</clipPath>
</defs>
</svg>