<svg width="171" height="152" viewBox="0 0 171 152" fill="none" xmlns="http://www.w3.org/2000/svg">
<path d="M85.2439 61.8574H0V85.7708C0 89.5255 2.13179 93.0519 5.73064 95.2502L78.3607 149.115C81.4237 150.721 83.3307 151.559 85.2439 151.603V61.8574Z" fill="url(#paint0_linear_1566_30531)"/>
<path fill-rule="evenodd" clip-rule="evenodd" d="M170.524 61.8574H85.251V151.61C87.2466 151.655 89.2491 150.836 92.5775 149.122L164.505 95.4558C168.272 93.276 170.524 89.6646 170.524 85.8045V61.8574Z" fill="#FFC670"/>
<path d="M4.71347 69.2294C-0.842315 65.2039 -0.842315 58.6774 4.71347 54.6519L75.1309 3.6309C80.6867 -0.394545 89.6944 -0.394546 95.2502 3.6309L165.668 54.6519C171.223 58.6774 171.223 65.2039 165.668 69.2294L95.2502 120.25C89.6944 124.276 80.6867 124.276 75.1309 120.25L4.71347 69.2294Z" fill="url(#paint1_radial_1566_30531)"/>
<defs>
<linearGradient id="paint0_linear_1566_30531" x1="23.0419" y1="135.101" x2="56.4532" y2="167.339" gradientUnits="userSpaceOnUse">
<stop stop-color="#F09447"/>
<stop offset="1" stop-color="#FFC670"/>
</linearGradient>
<radialGradient id="paint1_radial_1566_30531" cx="0" cy="0" r="1" gradientUnits="userSpaceOnUse" gradientTransform="translate(85.1906 61.9407) rotate(90) scale(61.3288 84.6439)">
<stop stop-color="#CB6816"/>
<stop offset="1" stop-color="#E98836"/>
</radialGradient>
</defs>
</svg>
