<svg width="368" height="100" viewBox="0 0 368 100" fill="none" xmlns="http://www.w3.org/2000/svg">
      <path
        d="M368 83C283.5 92.5 227 81 150 74.5C120.655 72.0228 101.969 73.1912 67.6584 77.9613C61.0334 79.5851 60.7387 80.0827 56.0868 82.6201C51.435 85.1575 48.5853 82.0566 46.3621 84.2369C42.5251 88 39.8061 90.0212 34.9607 88C30.1153 85.9788 29.3191 85.0311 27.5 85.5C27.5 85.5 24.5 86.3865 26.4423 90.8956C28.8456 96.475 26.7162 99.0572 24.0975 99.0572C21.0346 99.0572 19.9303 95.9231 21 92.5C23.5 84.5 18.2643 85 15 85.5C9.04208 86.4366 5.69477 87.1008 0 88V8C0 3.58172 3.58172 0 8 0H360C364.418 0 368 3.58172 368 8V83Z"
        fill="url(#paint0_linear_547_14011)" />
      <defs>
        <linearGradient id="paint0_linear_547_14011" x1="20.0648" y1="6.72327e-05" x2="158.544" y2="200.121"
          gradientUnits="userSpaceOnUse">
          <stop stop-color='#fff'/>
          <stop offset="1" stop-color='#fff'/>
        </linearGradient>
      </defs>
    </svg>