<svg width="59" height="63" viewBox="0 0 59 63" fill="none" xmlns="http://www.w3.org/2000/svg">
<path d="M26.7668 30.6044C27.4762 30.7724 28.0502 31.1037 28.4888 31.5984C28.9368 32.0837 29.1608 32.6951 29.1608 33.4324C29.1608 34.4124 28.8295 35.1824 28.1668 35.7424C27.5042 36.3024 26.6922 36.5824 25.7308 36.5824C24.9842 36.5824 24.3122 36.4097 23.7148 36.0644C23.1268 35.7191 22.7022 35.2151 22.4408 34.5524L23.8128 33.7544C24.1022 34.5944 24.7415 35.0144 25.7308 35.0144C26.2908 35.0144 26.7342 34.8744 27.0608 34.5944C27.3875 34.3051 27.5508 33.9177 27.5508 33.4324C27.5508 32.9471 27.3875 32.5644 27.0608 32.2844C26.7342 32.0044 26.2908 31.8644 25.7308 31.8644H25.3668L24.7228 30.8984L26.8368 28.1124H22.7348V26.6004H28.7548V27.9724L26.7668 30.6044ZM37.6701 33.1384V34.6364H36.5501V36.4004H34.9261V34.6364H30.1101V33.1384L33.4841 26.6004H35.2341L31.8601 33.1384H34.9261V30.5904H36.5501V33.1384H37.6701Z" fill="#5C2448"/>
<mask id="path-3-inside-1_2484_46052" fill="white">
<path d="M48 31.4004C48 41.3415 39.9411 49.4004 30 49.4004C20.0589 49.4004 12 41.3415 12 31.4004C12 21.4593 20.0589 13.4004 30 13.4004C39.9411 13.4004 48 21.4593 48 31.4004ZM13.98 31.4004C13.98 40.248 21.1524 47.4204 30 47.4204C38.8476 47.4204 46.02 40.248 46.02 31.4004C46.02 22.5528 38.8476 15.3804 30 15.3804C21.1524 15.3804 13.98 22.5528 13.98 31.4004Z"/>
</mask>
<path d="M48 31.4004C48 41.3415 39.9411 49.4004 30 49.4004C20.0589 49.4004 12 41.3415 12 31.4004C12 21.4593 20.0589 13.4004 30 13.4004C39.9411 13.4004 48 21.4593 48 31.4004ZM13.98 31.4004C13.98 40.248 21.1524 47.4204 30 47.4204C38.8476 47.4204 46.02 40.248 46.02 31.4004C46.02 22.5528 38.8476 15.3804 30 15.3804C21.1524 15.3804 13.98 22.5528 13.98 31.4004Z" stroke="url(#paint0_linear_2484_46052)" stroke-opacity="0.23" stroke-width="4" mask="url(#path-3-inside-1_2484_46052)"/>
<mask id="path-4-inside-2_2484_46052" fill="white">
<path d="M30 14.3904C30 13.8436 30.4436 13.3976 30.9895 13.4276C33.8685 13.5861 36.6726 14.4344 39.1627 15.907C41.9374 17.548 44.2205 19.904 45.7735 22.7288C47.3265 25.5537 48.0924 28.7438 47.9911 31.9658C47.9002 34.8574 47.114 37.6794 45.7051 40.1952C45.438 40.6722 44.8237 40.8078 44.362 40.5148C43.9004 40.2218 43.7666 39.6114 44.0305 39.1326C45.2511 36.9177 45.9324 34.4407 46.0121 31.9036C46.1022 29.036 45.4206 26.1968 44.0384 23.6827C42.6563 21.1686 40.6243 19.0717 38.1548 17.6113C35.97 16.3192 33.5136 15.5671 30.9894 15.411C30.4437 15.3772 30 14.9372 30 14.3904Z"/>
</mask>
<path d="M30 14.3904C30 13.8436 30.4436 13.3976 30.9895 13.4276C33.8685 13.5861 36.6726 14.4344 39.1627 15.907C41.9374 17.548 44.2205 19.904 45.7735 22.7288C47.3265 25.5537 48.0924 28.7438 47.9911 31.9658C47.9002 34.8574 47.114 37.6794 45.7051 40.1952C45.438 40.6722 44.8237 40.8078 44.362 40.5148C43.9004 40.2218 43.7666 39.6114 44.0305 39.1326C45.2511 36.9177 45.9324 34.4407 46.0121 31.9036C46.1022 29.036 45.4206 26.1968 44.0384 23.6827C42.6563 21.1686 40.6243 19.0717 38.1548 17.6113C35.97 16.3192 33.5136 15.5671 30.9894 15.411C30.4437 15.3772 30 14.9372 30 14.3904Z" stroke="url(#paint1_linear_2484_46052)" stroke-width="4" mask="url(#path-4-inside-2_2484_46052)"/>
<g filter="url(#filter0_iii_2484_46052)">
<path d="M43.9341 38.5642C43.8702 38.8124 43.6532 38.9975 43.3967 39.1258C42.6696 39.3774 42.0952 39.6194 41.62 39.8543C41.1993 40.0623 41.2033 40.7195 41.6254 40.9247C42.1186 41.1645 42.7378 41.3944 43.4254 41.667C43.6103 41.7403 43.8716 41.9474 43.9367 42.2019C44.1371 42.9863 44.4098 43.8167 44.7101 44.5833C44.9432 45.1783 45.5195 45.1779 45.7538 44.5833C46.0578 43.8114 46.2889 42.9776 46.5496 42.1843C46.612 41.9394 46.7967 41.7457 47.035 41.6613C47.6789 41.4332 48.2995 41.1758 48.8055 40.953C49.2779 40.7449 49.2876 40.0693 48.8211 39.8483C48.3229 39.6122 47.7032 39.3389 47.0319 39.095C46.7956 39.0091 46.6139 38.828 46.5299 38.5708C46.2469 37.7042 46.0676 36.9695 45.767 36.2065C45.5328 35.6118 44.9178 35.6301 44.6836 36.2248C44.3841 36.9849 44.175 37.7416 43.9341 38.5642Z" fill="url(#paint2_linear_2484_46052)"/>
</g>
<path d="M43.9341 38.5642C43.8702 38.8124 43.6532 38.9975 43.3967 39.1258C42.6696 39.3774 42.0952 39.6194 41.62 39.8543C41.1993 40.0623 41.2033 40.7195 41.6254 40.9247C42.1186 41.1645 42.7378 41.3944 43.4254 41.667C43.6103 41.7403 43.8716 41.9474 43.9367 42.2019C44.1371 42.9863 44.4098 43.8167 44.7101 44.5833C44.9432 45.1783 45.5195 45.1779 45.7538 44.5833C46.0578 43.8114 46.2889 42.9776 46.5496 42.1843C46.612 41.9394 46.7967 41.7457 47.035 41.6613C47.6789 41.4332 48.2995 41.1758 48.8055 40.953C49.2779 40.7449 49.2876 40.0693 48.8211 39.8483C48.3229 39.6122 47.7032 39.3389 47.0319 39.095C46.7956 39.0091 46.6139 38.828 46.5299 38.5708C46.2469 37.7042 46.0676 36.9695 45.767 36.2065C45.5328 35.6118 44.9178 35.6301 44.6836 36.2248C44.3841 36.9849 44.175 37.7416 43.9341 38.5642Z" fill="url(#paint3_linear_2484_46052)"/>
<g filter="url(#filter1_ii_2484_46052)">
<path d="M40.914 36.5811C40.8934 36.661 40.8236 36.7206 40.7411 36.7619C40.507 36.8428 40.3222 36.9207 40.1692 36.9964C40.0338 37.0633 40.0351 37.2748 40.171 37.3409C40.3297 37.418 40.529 37.492 40.7503 37.5798C40.8098 37.6034 40.8939 37.67 40.9149 37.752C40.9794 38.0044 41.0671 38.2717 41.1638 38.5184C41.2388 38.7099 41.4243 38.7098 41.4997 38.5184C41.5976 38.27 41.6719 38.0016 41.7558 37.7463C41.7759 37.6674 41.8354 37.6051 41.9121 37.5779C42.1193 37.5045 42.3191 37.4217 42.4819 37.35C42.634 37.283 42.6371 37.0655 42.4869 36.9944C42.3266 36.9184 42.1271 36.8305 41.9111 36.752C41.835 36.7243 41.7765 36.666 41.7495 36.5832C41.6584 36.3043 41.6007 36.0678 41.504 35.8223C41.4286 35.6309 41.2306 35.6368 41.1552 35.8282C41.0589 36.0728 40.9916 36.3164 40.914 36.5811Z" fill="url(#paint4_linear_2484_46052)"/>
</g>
<path d="M40.914 36.5811C40.8934 36.661 40.8236 36.7206 40.7411 36.7619C40.507 36.8428 40.3222 36.9207 40.1692 36.9964C40.0338 37.0633 40.0351 37.2748 40.171 37.3409C40.3297 37.418 40.529 37.492 40.7503 37.5798C40.8098 37.6034 40.8939 37.67 40.9149 37.752C40.9794 38.0044 41.0671 38.2717 41.1638 38.5184C41.2388 38.7099 41.4243 38.7098 41.4997 38.5184C41.5976 38.27 41.6719 38.0016 41.7558 37.7463C41.7759 37.6674 41.8354 37.6051 41.9121 37.5779C42.1193 37.5045 42.3191 37.4217 42.4819 37.35C42.634 37.283 42.6371 37.0655 42.4869 36.9944C42.3266 36.9184 42.1271 36.8305 41.9111 36.752C41.835 36.7243 41.7765 36.666 41.7495 36.5832C41.6584 36.3043 41.6007 36.0678 41.504 35.8223C41.4286 35.6309 41.2306 35.6368 41.1552 35.8282C41.0589 36.0728 40.9916 36.3164 40.914 36.5811Z" fill="url(#paint5_linear_2484_46052)"/>
<g filter="url(#filter2_i_2484_46052)">
<path d="M39.9605 41.9242C39.9318 42.0356 39.8344 42.1187 39.7193 42.1763C39.3929 42.2892 39.1352 42.3978 38.9219 42.5032C38.7331 42.5966 38.7349 42.8915 38.9243 42.9836C39.1457 43.0912 39.4236 43.1945 39.7322 43.3168C39.8152 43.3497 39.9325 43.4426 39.9616 43.5569C40.0516 43.9089 40.174 44.2816 40.3088 44.6256C40.4134 44.8927 40.6721 44.8925 40.7772 44.6257C40.9137 44.2792 41.0173 43.905 41.1344 43.549C41.1624 43.439 41.2453 43.3521 41.3522 43.3142C41.6412 43.2119 41.9198 43.0963 42.1468 42.9963C42.3589 42.9029 42.3632 42.5997 42.1538 42.5005C41.9303 42.3946 41.6521 42.2719 41.3508 42.1624C41.2448 42.1239 41.1632 42.0426 41.1255 41.9272C40.9985 41.5382 40.9181 41.2085 40.7831 40.866C40.678 40.5991 40.402 40.6074 40.2969 40.8742C40.1625 41.2154 40.0686 41.555 39.9605 41.9242Z" fill="url(#paint6_radial_2484_46052)"/>
</g>
<defs>
<filter id="filter0_iii_2484_46052" x="41.1566" y="35.6758" width="8.10215" height="9.44727" filterUnits="userSpaceOnUse" color-interpolation-filters="sRGB">
<feFlood flood-opacity="0" result="BackgroundImageFix"/>
<feBlend mode="normal" in="SourceGraphic" in2="BackgroundImageFix" result="shape"/>
<feColorMatrix in="SourceAlpha" type="matrix" values="0 0 0 0 0 0 0 0 0 0 0 0 0 0 0 0 0 0 127 0" result="hardAlpha"/>
<feOffset dx="0.09375" dy="-0.09375"/>
<feGaussianBlur stdDeviation="0.09375"/>
<feComposite in2="hardAlpha" operator="arithmetic" k2="-1" k3="1"/>
<feColorMatrix type="matrix" values="0 0 0 0 0.937255 0 0 0 0 0.482353 0 0 0 0 0.329412 0 0 0 1 0"/>
<feBlend mode="normal" in2="shape" result="effect1_innerShadow_2484_46052"/>
<feColorMatrix in="SourceAlpha" type="matrix" values="0 0 0 0 0 0 0 0 0 0 0 0 0 0 0 0 0 0 127 0" result="hardAlpha"/>
<feOffset dx="0.09375" dy="0.09375"/>
<feGaussianBlur stdDeviation="0.1875"/>
<feComposite in2="hardAlpha" operator="arithmetic" k2="-1" k3="1"/>
<feColorMatrix type="matrix" values="0 0 0 0 0.737255 0 0 0 0 0.615686 0 0 0 0 0.415686 0 0 0 1 0"/>
<feBlend mode="normal" in2="effect1_innerShadow_2484_46052" result="effect2_innerShadow_2484_46052"/>
<feColorMatrix in="SourceAlpha" type="matrix" values="0 0 0 0 0 0 0 0 0 0 0 0 0 0 0 0 0 0 127 0" result="hardAlpha"/>
<feOffset dx="-0.15" dy="0.09375"/>
<feGaussianBlur stdDeviation="0.075"/>
<feComposite in2="hardAlpha" operator="arithmetic" k2="-1" k3="1"/>
<feColorMatrix type="matrix" values="0 0 0 0 1 0 0 0 0 0.901961 0 0 0 0 0.458824 0 0 0 1 0"/>
<feBlend mode="normal" in2="effect2_innerShadow_2484_46052" result="effect3_innerShadow_2484_46052"/>
</filter>
<filter id="filter1_ii_2484_46052" x="40.0309" y="35.6816" width="2.6043" height="3.01797" filterUnits="userSpaceOnUse" color-interpolation-filters="sRGB">
<feFlood flood-opacity="0" result="BackgroundImageFix"/>
<feBlend mode="normal" in="SourceGraphic" in2="BackgroundImageFix" result="shape"/>
<feColorMatrix in="SourceAlpha" type="matrix" values="0 0 0 0 0 0 0 0 0 0 0 0 0 0 0 0 0 0 127 0" result="hardAlpha"/>
<feOffset dx="0.0375" dy="0.0375"/>
<feGaussianBlur stdDeviation="0.0375"/>
<feComposite in2="hardAlpha" operator="arithmetic" k2="-1" k3="1"/>
<feColorMatrix type="matrix" values="0 0 0 0 0.803922 0 0 0 0 0.6 0 0 0 0 0.262745 0 0 0 1 0"/>
<feBlend mode="normal" in2="shape" result="effect1_innerShadow_2484_46052"/>
<feColorMatrix in="SourceAlpha" type="matrix" values="0 0 0 0 0 0 0 0 0 0 0 0 0 0 0 0 0 0 127 0" result="hardAlpha"/>
<feOffset dx="-0.0375" dy="0.0375"/>
<feGaussianBlur stdDeviation="0.0375"/>
<feComposite in2="hardAlpha" operator="arithmetic" k2="-1" k3="1"/>
<feColorMatrix type="matrix" values="0 0 0 0 1 0 0 0 0 0.882353 0 0 0 0 0.423529 0 0 0 1 0"/>
<feBlend mode="normal" in2="effect1_innerShadow_2484_46052" result="effect2_innerShadow_2484_46052"/>
</filter>
<filter id="filter2_i_2484_46052" x="38.7812" y="40.6137" width="3.58359" height="4.2125" filterUnits="userSpaceOnUse" color-interpolation-filters="sRGB">
<feFlood flood-opacity="0" result="BackgroundImageFix"/>
<feBlend mode="normal" in="SourceGraphic" in2="BackgroundImageFix" result="shape"/>
<feColorMatrix in="SourceAlpha" type="matrix" values="0 0 0 0 0 0 0 0 0 0 0 0 0 0 0 0 0 0 127 0" result="hardAlpha"/>
<feOffset dx="0.05625" dy="-0.05625"/>
<feGaussianBlur stdDeviation="0.05625"/>
<feComposite in2="hardAlpha" operator="arithmetic" k2="-1" k3="1"/>
<feColorMatrix type="matrix" values="0 0 0 0 1 0 0 0 0 0.458824 0 0 0 0 0.462745 0 0 0 1 0"/>
<feBlend mode="normal" in2="shape" result="effect1_innerShadow_2484_46052"/>
</filter>
<linearGradient id="paint0_linear_2484_46052" x1="30" y1="13.4004" x2="39.7828" y2="46.5099" gradientUnits="userSpaceOnUse">
<stop stop-color="#FFB800"/>
<stop offset="1" stop-color="#EBD511"/>
</linearGradient>
<linearGradient id="paint1_linear_2484_46052" x1="30" y1="13.4004" x2="39.7828" y2="46.5099" gradientUnits="userSpaceOnUse">
<stop stop-color="#FFB800"/>
<stop offset="1" stop-color="#EBD511"/>
</linearGradient>
<linearGradient id="paint2_linear_2484_46052" x1="47.7994" y1="38.6262" x2="43.6458" y2="42.9987" gradientUnits="userSpaceOnUse">
<stop stop-color="#FFCF5A"/>
<stop offset="1" stop-color="#FEA254"/>
</linearGradient>
<linearGradient id="paint3_linear_2484_46052" x1="43.5338" y1="45.3833" x2="45.798" y2="40.6072" gradientUnits="userSpaceOnUse">
<stop stop-color="#FF886D"/>
<stop offset="1" stop-color="#FF886D" stop-opacity="0"/>
</linearGradient>
<linearGradient id="paint4_linear_2484_46052" x1="42.1581" y1="36.6011" x2="40.8212" y2="38.0084" gradientUnits="userSpaceOnUse">
<stop stop-color="#FFDA72"/>
<stop offset="1" stop-color="#F7A967"/>
</linearGradient>
<linearGradient id="paint5_linear_2484_46052" x1="41.3331" y1="38.8926" x2="41.3331" y2="37.3458" gradientUnits="userSpaceOnUse">
<stop stop-color="#FDA071"/>
<stop offset="1" stop-color="#FDA071" stop-opacity="0"/>
</linearGradient>
<radialGradient id="paint6_radial_2484_46052" cx="0" cy="0" r="1" gradientUnits="userSpaceOnUse" gradientTransform="translate(41.7558 41.3622) rotate(127.221) scale(2.65349 2.584)">
<stop offset="0.364601" stop-color="#FFBC64"/>
<stop offset="1" stop-color="#FF8F6B"/>
</radialGradient>
</defs>
</svg>
