<svg width="59" height="63" viewBox="0 0 59 63" fill="none" xmlns="http://www.w3.org/2000/svg">
<path d="M30.2878 29.364C30.2878 30.1107 30.0918 30.7687 29.6998 31.338L26.6058 36H24.7578L26.9978 32.71H26.8298C25.8125 32.71 24.9771 32.402 24.3238 31.786C23.6798 31.1607 23.3578 30.3533 23.3578 29.364C23.3578 28.3747 23.6798 27.572 24.3238 26.956C24.9771 26.3307 25.8125 26.018 26.8298 26.018C27.8471 26.018 28.6778 26.3307 29.3218 26.956C29.9658 27.572 30.2878 28.3747 30.2878 29.364ZM24.9678 29.364C24.9678 29.9053 25.1405 30.344 25.4858 30.68C25.8405 31.016 26.2885 31.184 26.8298 31.184C27.3711 31.184 27.8145 31.0207 28.1598 30.694C28.5051 30.358 28.6778 29.9147 28.6778 29.364C28.6778 28.8133 28.5051 28.3747 28.1598 28.048C27.8145 27.712 27.3711 27.544 26.8298 27.544C26.2885 27.544 25.8405 27.712 25.4858 28.048C25.1405 28.3747 24.9678 28.8133 24.9678 29.364ZM34.1853 29.49C35.2026 29.49 36.0333 29.8027 36.6773 30.428C37.3213 31.044 37.6433 31.8467 37.6433 32.836C37.6433 33.8253 37.3213 34.6327 36.6773 35.258C36.0333 35.874 35.2026 36.182 34.1853 36.182C33.1586 36.182 32.3233 35.874 31.6793 35.258C31.0353 34.6327 30.7133 33.8253 30.7133 32.836C30.7133 32.0893 30.9093 31.4313 31.3013 30.862L34.4093 26.2H36.2433L34.0033 29.49H34.1853ZM34.1853 34.656C34.7266 34.656 35.1699 34.4927 35.5153 34.166C35.8606 33.83 36.0333 33.3867 36.0333 32.836C36.0333 32.2853 35.8606 31.8467 35.5153 31.52C35.1699 31.184 34.7266 31.016 34.1853 31.016C33.6346 31.016 33.1866 31.184 32.8413 31.52C32.4959 31.8467 32.3233 32.2853 32.3233 32.836C32.3233 33.3867 32.4959 33.83 32.8413 34.166C33.1866 34.4927 33.6346 34.656 34.1853 34.656Z" fill="#5C2448"/>
<mask id="path-3-inside-1_2484_46042" fill="white">
<path d="M48 31C48 40.9411 39.9411 49 30 49C20.0589 49 12 40.9411 12 31C12 21.0589 20.0589 13 30 13C39.9411 13 48 21.0589 48 31ZM13.98 31C13.98 39.8476 21.1524 47.02 30 47.02C38.8476 47.02 46.02 39.8476 46.02 31C46.02 22.1524 38.8476 14.98 30 14.98C21.1524 14.98 13.98 22.1524 13.98 31Z"/>
</mask>
<path d="M48 31C48 40.9411 39.9411 49 30 49C20.0589 49 12 40.9411 12 31C12 21.0589 20.0589 13 30 13C39.9411 13 48 21.0589 48 31ZM13.98 31C13.98 39.8476 21.1524 47.02 30 47.02C38.8476 47.02 46.02 39.8476 46.02 31C46.02 22.1524 38.8476 14.98 30 14.98C21.1524 14.98 13.98 22.1524 13.98 31Z" stroke="url(#paint0_linear_2484_46042)" stroke-opacity="0.23" stroke-width="4" mask="url(#path-3-inside-1_2484_46042)"/>
<mask id="path-4-inside-2_2484_46042" fill="white">
<path d="M30 13.99C30 13.4432 30.4437 12.9972 30.9896 13.0272C35.2096 13.2594 39.2257 14.971 42.3218 17.8786C45.6592 21.0126 47.677 25.3006 47.9645 29.8698C48.2519 34.439 46.7875 38.946 43.8692 42.4736C40.951 46.0012 36.7981 48.2843 32.256 48.8581C27.7138 49.4319 23.1237 48.2533 19.4199 45.5623C15.716 42.8713 13.1767 38.87 12.3188 34.3729C11.461 29.8757 12.349 25.2206 14.8021 21.3551C17.078 17.7689 20.5422 15.1123 24.5718 13.838C25.0931 13.6731 25.6338 13.9948 25.7698 14.5244C25.9058 15.054 25.5854 15.5906 25.0652 15.759C21.5231 16.9057 18.4798 19.2552 16.4739 22.416C14.2906 25.8564 13.5002 29.9994 14.2638 34.0018C15.0273 38.0043 17.2872 41.5654 20.5837 43.9604C23.8801 46.3555 27.9653 47.4044 32.0078 46.8937C36.0503 46.383 39.7463 44.3511 42.3436 41.2115C44.9409 38.072 46.2442 34.0607 45.9884 29.9941C45.7325 25.9275 43.9367 22.1112 40.9664 19.3219C38.2374 16.7592 34.7054 15.2404 30.9895 15.0106C30.4438 14.9768 30 14.5368 30 13.99Z"/>
</mask>
<path d="M30 13.99C30 13.4432 30.4437 12.9972 30.9896 13.0272C35.2096 13.2594 39.2257 14.971 42.3218 17.8786C45.6592 21.0126 47.677 25.3006 47.9645 29.8698C48.2519 34.439 46.7875 38.946 43.8692 42.4736C40.951 46.0012 36.7981 48.2843 32.256 48.8581C27.7138 49.4319 23.1237 48.2533 19.4199 45.5623C15.716 42.8713 13.1767 38.87 12.3188 34.3729C11.461 29.8757 12.349 25.2206 14.8021 21.3551C17.078 17.7689 20.5422 15.1123 24.5718 13.838C25.0931 13.6731 25.6338 13.9948 25.7698 14.5244C25.9058 15.054 25.5854 15.5906 25.0652 15.759C21.5231 16.9057 18.4798 19.2552 16.4739 22.416C14.2906 25.8564 13.5002 29.9994 14.2638 34.0018C15.0273 38.0043 17.2872 41.5654 20.5837 43.9604C23.8801 46.3555 27.9653 47.4044 32.0078 46.8937C36.0503 46.383 39.7463 44.3511 42.3436 41.2115C44.9409 38.072 46.2442 34.0607 45.9884 29.9941C45.7325 25.9275 43.9367 22.1112 40.9664 19.3219C38.2374 16.7592 34.7054 15.2404 30.9895 15.0106C30.4438 14.9768 30 14.5368 30 13.99Z" stroke="url(#paint1_linear_2484_46042)" stroke-width="4" mask="url(#path-4-inside-2_2484_46042)"/>
<g clip-path="url(#clip0_2484_46042)">
<path d="M22.8443 7.75H20.583C20.583 8.97625 21.5768 9.96999 22.803 9.96999H25.0643C25.068 8.74749 24.0705 7.75 22.8443 7.75Z" fill="url(#paint2_linear_2484_46042)"/>
<g filter="url(#filter0_f_2484_46042)">
<path d="M22.8023 9.78249C21.7428 9.78249 20.8729 8.97227 20.7783 7.9375H22.8435C23.9033 7.9375 24.7759 8.75118 24.868 9.78249H22.8023Z" fill="url(#paint3_linear_2484_46042)"/>
</g>
<g filter="url(#filter1_f_2484_46042)">
<path d="M21.6094 7.9375H22.8439C23.9037 7.9375 24.7763 8.75118 24.8684 9.78249C24.0154 8.30902 23.6811 8.36548 21.6094 7.9375Z" fill="url(#paint4_linear_2484_46042)"/>
</g>
<path d="M25.7838 9.76731C25.2812 9.98106 24.7113 9.98106 24.2088 9.76731C22.6338 9.10356 20.8188 9.86481 20.1888 11.4586C19.6037 12.9398 19.6037 14.5861 20.1888 16.0673C20.8413 17.7136 22.63 18.6023 24.3362 18.126C24.7675 18.006 25.225 18.006 25.6563 18.126C27.3625 18.606 29.155 17.7173 29.8038 16.0673C30.3888 14.5861 30.3888 12.9398 29.8038 11.4586C29.1775 9.86481 27.3625 9.10356 25.7838 9.76731Z" fill="url(#paint5_radial_2484_46042)"/>
<path d="M25.7838 9.76731C25.2812 9.98106 24.7113 9.98106 24.2088 9.76731C22.6338 9.10356 20.8188 9.86481 20.1888 11.4586C19.6037 12.9398 19.6037 14.5861 20.1888 16.0673C20.8413 17.7136 22.63 18.6023 24.3362 18.126C24.7675 18.006 25.225 18.006 25.6563 18.126C27.3625 18.606 29.155 17.7173 29.8038 16.0673C30.3888 14.5861 30.3888 12.9398 29.8038 11.4586C29.1775 9.86481 27.3625 9.10356 25.7838 9.76731Z" fill="url(#paint6_radial_2484_46042)"/>
<path d="M25.7838 9.76731C25.2812 9.98106 24.7113 9.98106 24.2088 9.76731C22.6338 9.10356 20.8188 9.86481 20.1888 11.4586C19.6037 12.9398 19.6037 14.5861 20.1888 16.0673C20.8413 17.7136 22.63 18.6023 24.3362 18.126C24.7675 18.006 25.225 18.006 25.6563 18.126C27.3625 18.606 29.155 17.7173 29.8038 16.0673C30.3888 14.5861 30.3888 12.9398 29.8038 11.4586C29.1775 9.86481 27.3625 9.10356 25.7838 9.76731Z" fill="url(#paint7_linear_2484_46042)"/>
<path d="M25.7838 9.76731C25.2812 9.98106 24.7113 9.98106 24.2088 9.76731C22.6338 9.10356 20.8188 9.86481 20.1888 11.4586C19.6037 12.9398 19.6037 14.5861 20.1888 16.0673C20.8413 17.7136 22.63 18.6023 24.3362 18.126C24.7675 18.006 25.225 18.006 25.6563 18.126C27.3625 18.606 29.155 17.7173 29.8038 16.0673C30.3888 14.5861 30.3888 12.9398 29.8038 11.4586C29.1775 9.86481 27.3625 9.10356 25.7838 9.76731Z" fill="url(#paint8_radial_2484_46042)"/>
<path d="M25.7838 9.76731C25.2812 9.98106 24.7113 9.98106 24.2088 9.76731C22.6338 9.10356 20.8188 9.86481 20.1888 11.4586C19.6037 12.9398 19.6037 14.5861 20.1888 16.0673C20.8413 17.7136 22.63 18.6023 24.3362 18.126C24.7675 18.006 25.225 18.006 25.6563 18.126C27.3625 18.606 29.155 17.7173 29.8038 16.0673C30.3888 14.5861 30.3888 12.9398 29.8038 11.4586C29.1775 9.86481 27.3625 9.10356 25.7838 9.76731Z" fill="url(#paint9_radial_2484_46042)"/>
</g>
<defs>
<filter id="filter0_f_2484_46042" x="20.5908" y="7.75" width="4.46484" height="2.2207" filterUnits="userSpaceOnUse" color-interpolation-filters="sRGB">
<feFlood flood-opacity="0" result="BackgroundImageFix"/>
<feBlend mode="normal" in="SourceGraphic" in2="BackgroundImageFix" result="shape"/>
<feGaussianBlur stdDeviation="0.09375" result="effect1_foregroundBlur_2484_46042"/>
</filter>
<filter id="filter1_f_2484_46042" x="21.3281" y="7.65625" width="3.82129" height="2.4082" filterUnits="userSpaceOnUse" color-interpolation-filters="sRGB">
<feFlood flood-opacity="0" result="BackgroundImageFix"/>
<feBlend mode="normal" in="SourceGraphic" in2="BackgroundImageFix" result="shape"/>
<feGaussianBlur stdDeviation="0.140625" result="effect1_foregroundBlur_2484_46042"/>
</filter>
<linearGradient id="paint0_linear_2484_46042" x1="48" y1="31" x2="13.9708" y2="41.0545" gradientUnits="userSpaceOnUse">
<stop stop-color="#6FDF2B"/>
<stop offset="1" stop-color="#2BDF89"/>
</linearGradient>
<linearGradient id="paint1_linear_2484_46042" x1="41" y1="16.5" x2="11" y2="31" gradientUnits="userSpaceOnUse">
<stop stop-color="#6FDF2B"/>
<stop offset="1" stop-color="#2BDF89"/>
</linearGradient>
<linearGradient id="paint2_linear_2484_46042" x1="20.583" y1="7.75" x2="25.0643" y2="9.96999" gradientUnits="userSpaceOnUse">
<stop stop-color="#77B725"/>
<stop offset="1" stop-color="#A3DA32"/>
</linearGradient>
<linearGradient id="paint3_linear_2484_46042" x1="20.5823" y1="7.75" x2="25.0636" y2="9.96998" gradientUnits="userSpaceOnUse">
<stop stop-color="#8FCD20"/>
<stop offset="1" stop-color="#AEE137"/>
</linearGradient>
<linearGradient id="paint4_linear_2484_46042" x1="21.6094" y1="7.9375" x2="25.0236" y2="9.62508" gradientUnits="userSpaceOnUse">
<stop offset="0.260417" stop-color="#CDFF7A" stop-opacity="0"/>
<stop offset="0.739583" stop-color="#CDFF7A" stop-opacity="0.8"/>
<stop offset="1" stop-color="#CDFF7A" stop-opacity="0"/>
</linearGradient>
<radialGradient id="paint5_radial_2484_46042" cx="0" cy="0" r="1" gradientUnits="userSpaceOnUse" gradientTransform="translate(20.8569 17.1948) rotate(-40.0123) scale(10.5882 10.5882)">
<stop stop-color="#689133"/>
<stop offset="0.527913" stop-color="#A4D948"/>
<stop offset="1" stop-color="#CCEE37"/>
</radialGradient>
<radialGradient id="paint6_radial_2484_46042" cx="0" cy="0" r="1" gradientUnits="userSpaceOnUse" gradientTransform="translate(20.7797 9.52734) rotate(35.4333) scale(9.24885 11.1181)">
<stop stop-color="#678F32"/>
<stop offset="0.389562" stop-color="#96CB3A" stop-opacity="0"/>
</radialGradient>
<linearGradient id="paint7_linear_2484_46042" x1="24.9963" y1="9.52734" x2="24.9963" y2="18.2558" gradientUnits="userSpaceOnUse">
<stop offset="0.583333" stop-color="#A3CE5A" stop-opacity="0"/>
<stop offset="1" stop-color="#A37CA3"/>
</linearGradient>
<radialGradient id="paint8_radial_2484_46042" cx="0" cy="0" r="1" gradientUnits="userSpaceOnUse" gradientTransform="translate(23.5736 12.3804) rotate(62.7745) scale(8.58642 10.3218)">
<stop stop-color="#BFF341"/>
<stop offset="0.367134" stop-color="#BFF341" stop-opacity="0"/>
</radialGradient>
<radialGradient id="paint9_radial_2484_46042" cx="0" cy="0" r="1" gradientUnits="userSpaceOnUse" gradientTransform="translate(28.068 12.3467) rotate(128.117) scale(8.78224 10.5572)">
<stop stop-color="#EEFF61"/>
<stop offset="0.386328" stop-color="#EEFF61" stop-opacity="0"/>
</radialGradient>
<clipPath id="clip0_2484_46042">
<rect width="12" height="12" fill="white" transform="translate(19 7)"/>
</clipPath>
</defs>
</svg>
