<svg width="59" height="63" viewBox="0 0 59 63" fill="none" xmlns="http://www.w3.org/2000/svg">
<path d="M29.5417 29.5632C29.5417 30.3099 29.3457 30.9679 28.9537 31.5372L25.8597 36.1992H24.0117L26.2517 32.9092H26.0837C25.0664 32.9092 24.2311 32.6012 23.5777 31.9852C22.9337 31.3599 22.6117 30.5526 22.6117 29.5632C22.6117 28.5739 22.9337 27.7712 23.5777 27.1552C24.2311 26.5299 25.0664 26.2172 26.0837 26.2172C27.1011 26.2172 27.9317 26.5299 28.5757 27.1552C29.2197 27.7712 29.5417 28.5739 29.5417 29.5632ZM24.2217 29.5632C24.2217 30.1046 24.3944 30.5432 24.7397 30.8792C25.0944 31.2152 25.5424 31.3832 26.0837 31.3832C26.6251 31.3832 27.0684 31.2199 27.4137 30.8932C27.7591 30.5572 27.9317 30.1139 27.9317 29.5632C27.9317 29.0126 27.7591 28.5739 27.4137 28.2472C27.0684 27.9112 26.6251 27.7432 26.0837 27.7432C25.5424 27.7432 25.0944 27.9112 24.7397 28.2472C24.3944 28.5739 24.2217 29.0126 24.2217 29.5632ZM37.4992 32.9372V34.4352H36.3792V36.1992H34.7552V34.4352H29.9392V32.9372L33.3132 26.3992H35.0632L31.6892 32.9372H34.7552V30.3892H36.3792V32.9372H37.4992Z" fill="#5C2448"/>
<mask id="path-3-inside-1_2484_46076" fill="white">
<path d="M48 31.1992C48 41.1403 39.9411 49.1992 30 49.1992C20.0589 49.1992 12 41.1403 12 31.1992C12 21.2581 20.0589 13.1992 30 13.1992C39.9411 13.1992 48 21.2581 48 31.1992ZM13.98 31.1992C13.98 40.0468 21.1524 47.2192 30 47.2192C38.8476 47.2192 46.02 40.0468 46.02 31.1992C46.02 22.3516 38.8476 15.1792 30 15.1792C21.1524 15.1792 13.98 22.3516 13.98 31.1992Z"/>
</mask>
<path d="M48 31.1992C48 41.1403 39.9411 49.1992 30 49.1992C20.0589 49.1992 12 41.1403 12 31.1992C12 21.2581 20.0589 13.1992 30 13.1992C39.9411 13.1992 48 21.2581 48 31.1992ZM13.98 31.1992C13.98 40.0468 21.1524 47.2192 30 47.2192C38.8476 47.2192 46.02 40.0468 46.02 31.1992C46.02 22.3516 38.8476 15.1792 30 15.1792C21.1524 15.1792 13.98 22.3516 13.98 31.1992Z" stroke="url(#paint0_linear_2484_46076)" stroke-opacity="0.23" stroke-width="4" mask="url(#path-3-inside-1_2484_46076)"/>
<mask id="path-4-inside-2_2484_46076" fill="white">
<path d="M30 14.1892C30 13.6425 30.4437 13.1964 30.9896 13.2264C35.1131 13.4533 39.0449 15.093 42.1142 17.8859C45.4282 20.9014 47.4985 25.0445 47.9201 29.5053C48.3418 33.966 47.0846 38.4237 44.3943 42.0068C41.7041 45.5899 37.7741 48.0408 33.3729 48.8804C28.9716 49.72 24.4154 48.8879 20.595 46.5467C16.7746 44.2056 13.9648 40.5238 12.7147 36.2211C11.4647 31.9183 11.8643 27.304 13.8355 23.2803C15.6612 19.5537 18.7133 16.5818 22.4637 14.8528C22.9602 14.6239 23.5369 14.8754 23.7382 15.3837C23.9395 15.8921 23.6889 16.4646 23.1939 16.6969C19.9013 18.242 17.2224 20.8675 15.6136 24.1514C13.8592 27.7325 13.5035 31.8392 14.6161 35.6686C15.7286 39.4981 18.2294 42.7749 21.6296 44.8585C25.0297 46.9421 29.0847 47.6827 33.0018 46.9355C36.919 46.1882 40.4166 44.0069 42.8109 40.818C45.2053 37.629 46.3242 33.6617 45.9489 29.6916C45.5736 25.7215 43.7311 22.0341 40.7817 19.3503C38.077 16.8892 34.6197 15.4343 30.9895 15.2098C30.4438 15.176 30 14.736 30 14.1892Z"/>
</mask>
<path d="M30 14.1892C30 13.6425 30.4437 13.1964 30.9896 13.2264C35.1131 13.4533 39.0449 15.093 42.1142 17.8859C45.4282 20.9014 47.4985 25.0445 47.9201 29.5053C48.3418 33.966 47.0846 38.4237 44.3943 42.0068C41.7041 45.5899 37.7741 48.0408 33.3729 48.8804C28.9716 49.72 24.4154 48.8879 20.595 46.5467C16.7746 44.2056 13.9648 40.5238 12.7147 36.2211C11.4647 31.9183 11.8643 27.304 13.8355 23.2803C15.6612 19.5537 18.7133 16.5818 22.4637 14.8528C22.9602 14.6239 23.5369 14.8754 23.7382 15.3837C23.9395 15.8921 23.6889 16.4646 23.1939 16.6969C19.9013 18.242 17.2224 20.8675 15.6136 24.1514C13.8592 27.7325 13.5035 31.8392 14.6161 35.6686C15.7286 39.4981 18.2294 42.7749 21.6296 44.8585C25.0297 46.9421 29.0847 47.6827 33.0018 46.9355C36.919 46.1882 40.4166 44.0069 42.8109 40.818C45.2053 37.629 46.3242 33.6617 45.9489 29.6916C45.5736 25.7215 43.7311 22.0341 40.7817 19.3503C38.077 16.8892 34.6197 15.4343 30.9895 15.2098C30.4438 15.176 30 14.736 30 14.1892Z" stroke="url(#paint1_linear_2484_46076)" stroke-width="4" mask="url(#path-4-inside-2_2484_46076)"/>
<g clip-path="url(#clip0_2484_46076)">
<path d="M19.8443 9.94922H17.583C17.583 11.1755 18.5768 12.1692 19.803 12.1692H22.0643C22.068 10.9467 21.0705 9.94922 19.8443 9.94922Z" fill="url(#paint2_linear_2484_46076)"/>
<g filter="url(#filter0_f_2484_46076)">
<path d="M19.8023 11.9817C18.7428 11.9817 17.8729 11.1715 17.7783 10.1367H19.8435C20.9033 10.1367 21.7759 10.9504 21.868 11.9817H19.8023Z" fill="url(#paint3_linear_2484_46076)"/>
</g>
<g filter="url(#filter1_f_2484_46076)">
<path d="M18.6094 10.1367H19.8439C20.9037 10.1367 21.7763 10.9504 21.8684 11.9817C21.0154 10.5082 20.6811 10.5647 18.6094 10.1367Z" fill="url(#paint4_linear_2484_46076)"/>
</g>
<path d="M22.7838 11.9665C22.2812 12.1803 21.7113 12.1803 21.2088 11.9665C19.6338 11.3028 17.8188 12.064 17.1888 13.6578C16.6037 15.139 16.6037 16.7853 17.1888 18.2665C17.8413 19.9128 19.63 20.8015 21.3362 20.3253C21.7675 20.2053 22.225 20.2053 22.6563 20.3253C24.3625 20.8053 26.155 19.9165 26.8038 18.2665C27.3888 16.7853 27.3888 15.139 26.8038 13.6578C26.1775 12.064 24.3625 11.3028 22.7838 11.9665Z" fill="url(#paint5_radial_2484_46076)"/>
<path d="M22.7838 11.9665C22.2812 12.1803 21.7113 12.1803 21.2088 11.9665C19.6338 11.3028 17.8188 12.064 17.1888 13.6578C16.6037 15.139 16.6037 16.7853 17.1888 18.2665C17.8413 19.9128 19.63 20.8015 21.3362 20.3253C21.7675 20.2053 22.225 20.2053 22.6563 20.3253C24.3625 20.8053 26.155 19.9165 26.8038 18.2665C27.3888 16.7853 27.3888 15.139 26.8038 13.6578C26.1775 12.064 24.3625 11.3028 22.7838 11.9665Z" fill="url(#paint6_radial_2484_46076)"/>
<path d="M22.7838 11.9665C22.2812 12.1803 21.7113 12.1803 21.2088 11.9665C19.6338 11.3028 17.8188 12.064 17.1888 13.6578C16.6037 15.139 16.6037 16.7853 17.1888 18.2665C17.8413 19.9128 19.63 20.8015 21.3362 20.3253C21.7675 20.2053 22.225 20.2053 22.6563 20.3253C24.3625 20.8053 26.155 19.9165 26.8038 18.2665C27.3888 16.7853 27.3888 15.139 26.8038 13.6578C26.1775 12.064 24.3625 11.3028 22.7838 11.9665Z" fill="url(#paint7_linear_2484_46076)"/>
<path d="M22.7838 11.9665C22.2812 12.1803 21.7113 12.1803 21.2088 11.9665C19.6338 11.3028 17.8188 12.064 17.1888 13.6578C16.6037 15.139 16.6037 16.7853 17.1888 18.2665C17.8413 19.9128 19.63 20.8015 21.3362 20.3253C21.7675 20.2053 22.225 20.2053 22.6563 20.3253C24.3625 20.8053 26.155 19.9165 26.8038 18.2665C27.3888 16.7853 27.3888 15.139 26.8038 13.6578C26.1775 12.064 24.3625 11.3028 22.7838 11.9665Z" fill="url(#paint8_radial_2484_46076)"/>
<path d="M22.7838 11.9665C22.2812 12.1803 21.7113 12.1803 21.2088 11.9665C19.6338 11.3028 17.8188 12.064 17.1888 13.6578C16.6037 15.139 16.6037 16.7853 17.1888 18.2665C17.8413 19.9128 19.63 20.8015 21.3362 20.3253C21.7675 20.2053 22.225 20.2053 22.6563 20.3253C24.3625 20.8053 26.155 19.9165 26.8038 18.2665C27.3888 16.7853 27.3888 15.139 26.8038 13.6578C26.1775 12.064 24.3625 11.3028 22.7838 11.9665Z" fill="url(#paint9_radial_2484_46076)"/>
</g>
<defs>
<filter id="filter0_f_2484_46076" x="17.5908" y="9.94922" width="4.46484" height="2.2207" filterUnits="userSpaceOnUse" color-interpolation-filters="sRGB">
<feFlood flood-opacity="0" result="BackgroundImageFix"/>
<feBlend mode="normal" in="SourceGraphic" in2="BackgroundImageFix" result="shape"/>
<feGaussianBlur stdDeviation="0.09375" result="effect1_foregroundBlur_2484_46076"/>
</filter>
<filter id="filter1_f_2484_46076" x="18.3281" y="9.85547" width="3.82129" height="2.4082" filterUnits="userSpaceOnUse" color-interpolation-filters="sRGB">
<feFlood flood-opacity="0" result="BackgroundImageFix"/>
<feBlend mode="normal" in="SourceGraphic" in2="BackgroundImageFix" result="shape"/>
<feGaussianBlur stdDeviation="0.140625" result="effect1_foregroundBlur_2484_46076"/>
</filter>
<linearGradient id="paint0_linear_2484_46076" x1="48" y1="31.1992" x2="13.9708" y2="41.2537" gradientUnits="userSpaceOnUse">
<stop stop-color="#6FDF2B"/>
<stop offset="1" stop-color="#2BDF89"/>
</linearGradient>
<linearGradient id="paint1_linear_2484_46076" x1="41" y1="16.6992" x2="11" y2="31.1992" gradientUnits="userSpaceOnUse">
<stop stop-color="#6FDF2B"/>
<stop offset="1" stop-color="#2BDF89"/>
</linearGradient>
<linearGradient id="paint2_linear_2484_46076" x1="17.583" y1="9.94922" x2="22.0643" y2="12.1692" gradientUnits="userSpaceOnUse">
<stop stop-color="#77B725"/>
<stop offset="1" stop-color="#A3DA32"/>
</linearGradient>
<linearGradient id="paint3_linear_2484_46076" x1="17.5823" y1="9.94922" x2="22.0636" y2="12.1692" gradientUnits="userSpaceOnUse">
<stop stop-color="#8FCD20"/>
<stop offset="1" stop-color="#AEE137"/>
</linearGradient>
<linearGradient id="paint4_linear_2484_46076" x1="18.6094" y1="10.1367" x2="22.0236" y2="11.8243" gradientUnits="userSpaceOnUse">
<stop offset="0.260417" stop-color="#CDFF7A" stop-opacity="0"/>
<stop offset="0.739583" stop-color="#CDFF7A" stop-opacity="0.8"/>
<stop offset="1" stop-color="#CDFF7A" stop-opacity="0"/>
</linearGradient>
<radialGradient id="paint5_radial_2484_46076" cx="0" cy="0" r="1" gradientUnits="userSpaceOnUse" gradientTransform="translate(17.8569 19.394) rotate(-40.0123) scale(10.5882 10.5882)">
<stop stop-color="#689133"/>
<stop offset="0.527913" stop-color="#A4D948"/>
<stop offset="1" stop-color="#CCEE37"/>
</radialGradient>
<radialGradient id="paint6_radial_2484_46076" cx="0" cy="0" r="1" gradientUnits="userSpaceOnUse" gradientTransform="translate(17.7797 11.7266) rotate(35.4333) scale(9.24885 11.1181)">
<stop stop-color="#678F32"/>
<stop offset="0.389562" stop-color="#96CB3A" stop-opacity="0"/>
</radialGradient>
<linearGradient id="paint7_linear_2484_46076" x1="21.9963" y1="11.7266" x2="21.9963" y2="20.455" gradientUnits="userSpaceOnUse">
<stop offset="0.583333" stop-color="#A3CE5A" stop-opacity="0"/>
<stop offset="1" stop-color="#A37CA3"/>
</linearGradient>
<radialGradient id="paint8_radial_2484_46076" cx="0" cy="0" r="1" gradientUnits="userSpaceOnUse" gradientTransform="translate(20.5736 14.5796) rotate(62.7745) scale(8.58642 10.3218)">
<stop stop-color="#BFF341"/>
<stop offset="0.367134" stop-color="#BFF341" stop-opacity="0"/>
</radialGradient>
<radialGradient id="paint9_radial_2484_46076" cx="0" cy="0" r="1" gradientUnits="userSpaceOnUse" gradientTransform="translate(25.068 14.5459) rotate(128.117) scale(8.78224 10.5572)">
<stop stop-color="#EEFF61"/>
<stop offset="0.386328" stop-color="#EEFF61" stop-opacity="0"/>
</radialGradient>
<clipPath id="clip0_2484_46076">
<rect width="12" height="12" fill="white" transform="translate(16 9.19922)"/>
</clipPath>
</defs>
</svg>
