<svg xmlns="http://www.w3.org/2000/svg" width="24" height="24" fill="none" viewBox="0 0 24 24"><path fill="#000" d="M3.27913 20.7177L3.28244 20.721C3.37011 20.8093 3.47437 20.8794 3.58923 20.9273C3.70409 20.9752 3.82728 20.9999 3.95172 21C4.05643 20.9999 4.16042 20.9827 4.25953 20.9489L9.65597 19.1183L20.0114 8.76276C20.6444 8.12965 21 7.27098 21 6.37566C21 5.48034 20.6443 4.62171 20.0112 3.98865C19.378 3.35559 18.5194 2.99996 17.6241 3C16.7288 3.00004 15.8701 3.35574 15.2371 3.98886L4.88169 14.3444L3.05124 19.7407C2.99358 19.9085 2.98438 20.0892 3.02468 20.262C3.06499 20.4348 3.15318 20.5927 3.27913 20.7177ZM16.097 4.84872C16.5026 4.44626 17.0511 4.2209 17.6225 4.222C18.1938 4.22309 18.7415 4.45056 19.1455 4.85458C19.5495 5.2586 19.7769 5.80625 19.778 6.37762C19.7791 6.94898 19.5537 7.4975 19.1512 7.90305L17.7895 9.2648L14.7352 6.21048L16.097 4.84872ZM5.94231 15.0035L13.8753 7.07035L16.9296 10.1247L8.99657 18.0578L4.3743 19.6258L5.94231 15.0035Z"/></svg>