<svg width="91" height="64" viewBox="0 0 91 64" fill="none" xmlns="http://www.w3.org/2000/svg">
<path d="M8.14883 20.2996V21.8396H5.39083V30.0996H3.78083V21.8396H1.00883V20.2996H8.14883ZM11.2876 30.2816C10.2609 30.2816 9.38823 29.9269 8.66956 29.2176C7.9509 28.5083 7.59156 27.6356 7.59156 26.5996C7.59156 25.5636 7.9509 24.6909 8.66956 23.9816C9.38823 23.2723 10.2609 22.9176 11.2876 22.9176C12.3236 22.9176 13.1962 23.2723 13.9056 23.9816C14.6242 24.6909 14.9836 25.5636 14.9836 26.5996C14.9836 27.6356 14.6242 28.5083 13.9056 29.2176C13.1962 29.9269 12.3236 30.2816 11.2876 30.2816ZM9.73356 28.1816C10.1536 28.6016 10.6716 28.8116 11.2876 28.8116C11.9036 28.8116 12.4216 28.6016 12.8416 28.1816C13.2616 27.7616 13.4716 27.2343 13.4716 26.5996C13.4716 25.9649 13.2616 25.4376 12.8416 25.0176C12.4216 24.5976 11.9036 24.3876 11.2876 24.3876C10.6716 24.3876 10.1536 24.5976 9.73356 25.0176C9.31356 25.4376 9.10356 25.9649 9.10356 26.5996C9.10356 27.2343 9.31356 27.7616 9.73356 28.1816ZM20.3128 22.9176C21.2741 22.9176 22.0954 23.2769 22.7768 23.9956C23.4581 24.7049 23.7988 25.5729 23.7988 26.5996C23.7988 27.6356 23.4581 28.5083 22.7768 29.2176C22.0954 29.9269 21.2741 30.2816 20.3128 30.2816C19.2488 30.2816 18.4321 29.8896 17.8628 29.1056V32.8996H16.3508V23.0996H17.8628V24.1076C18.4321 23.3143 19.2488 22.9176 20.3128 22.9176ZM18.4928 28.2096C18.9128 28.6296 19.4401 28.8396 20.0748 28.8396C20.7094 28.8396 21.2368 28.6296 21.6568 28.2096C22.0768 27.7803 22.2868 27.2436 22.2868 26.5996C22.2868 25.9556 22.0768 25.4236 21.6568 25.0036C21.2368 24.5743 20.7094 24.3596 20.0748 24.3596C19.4401 24.3596 18.9128 24.5743 18.4928 25.0036C18.0728 25.4236 17.8628 25.9556 17.8628 26.5996C17.8628 27.2436 18.0728 27.7803 18.4928 28.2096ZM30.5451 20.2996H31.9451V30.0996H30.3351V22.0216L28.3611 22.5816L27.9691 21.2096L30.5451 20.2996ZM40.2341 28.8956C39.5621 29.8196 38.6194 30.2816 37.4061 30.2816C36.1928 30.2816 35.2454 29.8196 34.5641 28.8956C33.8921 27.9716 33.5561 26.7396 33.5561 25.1996C33.5561 23.6596 33.8921 22.4276 34.5641 21.5036C35.2454 20.5796 36.1928 20.1176 37.4061 20.1176C38.6194 20.1176 39.5621 20.5796 40.2341 21.5036C40.9154 22.4276 41.2561 23.6596 41.2561 25.1996C41.2561 26.7396 40.9154 27.9716 40.2341 28.8956ZM37.4061 28.7136C38.1341 28.7136 38.6894 28.4103 39.0721 27.8036C39.4548 27.1969 39.6461 26.3289 39.6461 25.1996C39.6461 24.0703 39.4548 23.2023 39.0721 22.5956C38.6894 21.9889 38.1341 21.6856 37.4061 21.6856C36.6874 21.6856 36.1321 21.9889 35.7401 22.5956C35.3574 23.2023 35.1661 24.0703 35.1661 25.1996C35.1661 26.3289 35.3574 27.1969 35.7401 27.8036C36.1321 28.4103 36.6874 28.7136 37.4061 28.7136ZM46.161 23.9536C45.7317 24.3829 45.1903 24.5976 44.537 24.5976C43.8837 24.5976 43.3377 24.3829 42.899 23.9536C42.4603 23.5149 42.241 22.9829 42.241 22.3576C42.241 21.7323 42.4603 21.2049 42.899 20.7756C43.3377 20.3369 43.8837 20.1176 44.537 20.1176C45.1903 20.1176 45.7317 20.3323 46.161 20.7616C46.5997 21.1909 46.819 21.7229 46.819 22.3576C46.819 22.9829 46.5997 23.5149 46.161 23.9536ZM44.523 23.3656C44.8217 23.3656 45.0643 23.2676 45.251 23.0716C45.4377 22.8756 45.531 22.6376 45.531 22.3576C45.531 22.0683 45.4377 21.8256 45.251 21.6296C45.0643 21.4336 44.8217 21.3356 44.523 21.3356C44.2337 21.3356 43.9957 21.4336 43.809 21.6296C43.6223 21.8256 43.529 22.0683 43.529 22.3576C43.529 22.6376 43.6223 22.8756 43.809 23.0716C43.9957 23.2676 44.2337 23.3656 44.523 23.3656ZM43.067 28.6576L49.521 21.4756L50.277 21.9096L43.823 29.1056L43.067 28.6576ZM49.017 30.2676C48.3637 30.2676 47.8177 30.0529 47.379 29.6236C46.9403 29.1849 46.721 28.6529 46.721 28.0276C46.721 27.4023 46.9403 26.8749 47.379 26.4456C47.8177 26.0069 48.3637 25.7876 49.017 25.7876C49.661 25.7876 50.2023 26.0069 50.641 26.4456C51.0797 26.8749 51.299 27.4023 51.299 28.0276C51.299 28.6529 51.0797 29.1849 50.641 29.6236C50.2023 30.0529 49.661 30.2676 49.017 30.2676ZM49.003 29.0356C49.3017 29.0356 49.5443 28.9376 49.731 28.7416C49.9177 28.5456 50.011 28.3076 50.011 28.0276C50.011 27.7383 49.9177 27.4956 49.731 27.2996C49.5443 27.1036 49.3017 27.0056 49.003 27.0056C48.7137 27.0056 48.4757 27.1036 48.289 27.2996C48.1023 27.4956 48.009 27.7383 48.009 28.0276C48.009 28.3076 48.1023 28.5456 48.289 28.7416C48.4757 28.9376 48.7137 29.0356 49.003 29.0356Z" fill="url(#paint0_linear_2484_46006)"/>
<rect y="38.0996" width="91" height="2" rx="1" fill="url(#paint1_linear_2484_46006)" fill-opacity="0.23"/>
<rect y="38.0996" width="81" height="2" rx="1" fill="url(#paint2_linear_2484_46006)"/>
<defs>
<linearGradient id="paint0_linear_2484_46006" x1="26" y1="17.0996" x2="26" y2="34.0996" gradientUnits="userSpaceOnUse">
<stop stop-color="#6FDF2B"/>
<stop offset="1" stop-color="#2BDF89"/>
</linearGradient>
<linearGradient id="paint1_linear_2484_46006" x1="45.5" y1="38.0996" x2="45.5" y2="40.0996" gradientUnits="userSpaceOnUse">
<stop stop-color="#6FDF2B"/>
<stop offset="1" stop-color="#2BDF89"/>
</linearGradient>
<linearGradient id="paint2_linear_2484_46006" x1="40.5" y1="38.0996" x2="40.5" y2="40.0996" gradientUnits="userSpaceOnUse">
<stop stop-color="#6FDF2B"/>
<stop offset="1" stop-color="#2BDF89"/>
</linearGradient>
</defs>
</svg>
