<svg width="91" height="64" viewBox="0 0 91 64" fill="none" xmlns="http://www.w3.org/2000/svg">
<path d="M8.06875 20.7V22.24H5.31075V30.5H3.70075V22.24H0.92875V20.7H8.06875ZM11.2075 30.682C10.1808 30.682 9.30815 30.3273 8.58948 29.618C7.87082 28.9087 7.51148 28.036 7.51148 27C7.51148 25.964 7.87082 25.0913 8.58948 24.382C9.30815 23.6727 10.1808 23.318 11.2075 23.318C12.2435 23.318 13.1162 23.6727 13.8255 24.382C14.5442 25.0913 14.9035 25.964 14.9035 27C14.9035 28.036 14.5442 28.9087 13.8255 29.618C13.1162 30.3273 12.2435 30.682 11.2075 30.682ZM9.65348 28.582C10.0735 29.002 10.5915 29.212 11.2075 29.212C11.8235 29.212 12.3415 29.002 12.7615 28.582C13.1815 28.162 13.3915 27.6347 13.3915 27C13.3915 26.3653 13.1815 25.838 12.7615 25.418C12.3415 24.998 11.8235 24.788 11.2075 24.788C10.5915 24.788 10.0735 24.998 9.65348 25.418C9.23348 25.838 9.02348 26.3653 9.02348 27C9.02348 27.6347 9.23348 28.162 9.65348 28.582ZM20.2327 23.318C21.194 23.318 22.0153 23.6773 22.6967 24.396C23.378 25.1053 23.7187 25.9733 23.7187 27C23.7187 28.036 23.378 28.9087 22.6967 29.618C22.0153 30.3273 21.194 30.682 20.2327 30.682C19.1687 30.682 18.352 30.29 17.7827 29.506V33.3H16.2707V23.5H17.7827V24.508C18.352 23.7147 19.1687 23.318 20.2327 23.318ZM18.4127 28.61C18.8327 29.03 19.36 29.24 19.9947 29.24C20.6293 29.24 21.1567 29.03 21.5767 28.61C21.9967 28.1807 22.2067 27.644 22.2067 27C22.2067 26.356 21.9967 25.824 21.5767 25.404C21.1567 24.9747 20.6293 24.76 19.9947 24.76C19.36 24.76 18.8327 24.9747 18.4127 25.404C17.9927 25.824 17.7827 26.356 17.7827 27C17.7827 27.644 17.9927 28.1807 18.4127 28.61ZM31.557 24.396C32.4904 24.396 33.279 24.676 33.923 25.236C34.567 25.7867 34.889 26.552 34.889 27.532C34.889 28.512 34.5577 29.282 33.895 29.842C33.2324 30.402 32.4204 30.682 31.459 30.682C30.6844 30.682 29.9984 30.5047 29.401 30.15C28.8037 29.786 28.379 29.2633 28.127 28.582L29.513 27.784C29.7744 28.6707 30.423 29.114 31.459 29.114C32.0097 29.114 32.4484 28.974 32.775 28.694C33.111 28.4047 33.279 28.0173 33.279 27.532C33.279 27.0467 33.1157 26.664 32.789 26.384C32.4624 26.104 32.0284 25.964 31.487 25.964H28.631L29.009 20.7H34.469V22.212H30.493L30.325 24.396H31.557ZM39.1579 23.99C40.1753 23.99 41.0059 24.3027 41.6499 24.928C42.2939 25.544 42.6159 26.3467 42.6159 27.336C42.6159 28.3253 42.2939 29.1327 41.6499 29.758C41.0059 30.374 40.1753 30.682 39.1579 30.682C38.1313 30.682 37.2959 30.374 36.6519 29.758C36.0079 29.1327 35.6859 28.3253 35.6859 27.336C35.6859 26.5893 35.8819 25.9313 36.2739 25.362L39.3819 20.7H41.2159L38.9759 23.99H39.1579ZM39.1579 29.156C39.6993 29.156 40.1426 28.9927 40.4879 28.666C40.8333 28.33 41.0059 27.8867 41.0059 27.336C41.0059 26.7853 40.8333 26.3467 40.4879 26.02C40.1426 25.684 39.6993 25.516 39.1579 25.516C38.6073 25.516 38.1593 25.684 37.8139 26.02C37.4686 26.3467 37.2959 26.7853 37.2959 27.336C37.2959 27.8867 37.4686 28.33 37.8139 28.666C38.1593 28.9927 38.6073 29.156 39.1579 29.156ZM47.161 24.354C46.7317 24.7833 46.1903 24.998 45.537 24.998C44.8837 24.998 44.3377 24.7833 43.899 24.354C43.4603 23.9153 43.241 23.3833 43.241 22.758C43.241 22.1327 43.4603 21.6053 43.899 21.176C44.3377 20.7373 44.8837 20.518 45.537 20.518C46.1903 20.518 46.7317 20.7327 47.161 21.162C47.5997 21.5913 47.819 22.1233 47.819 22.758C47.819 23.3833 47.5997 23.9153 47.161 24.354ZM45.523 23.766C45.8217 23.766 46.0643 23.668 46.251 23.472C46.4377 23.276 46.531 23.038 46.531 22.758C46.531 22.4687 46.4377 22.226 46.251 22.03C46.0643 21.834 45.8217 21.736 45.523 21.736C45.2337 21.736 44.9957 21.834 44.809 22.03C44.6223 22.226 44.529 22.4687 44.529 22.758C44.529 23.038 44.6223 23.276 44.809 23.472C44.9957 23.668 45.2337 23.766 45.523 23.766ZM44.067 29.058L50.521 21.876L51.277 22.31L44.823 29.506L44.067 29.058ZM50.017 30.668C49.3637 30.668 48.8177 30.4533 48.379 30.024C47.9403 29.5853 47.721 29.0533 47.721 28.428C47.721 27.8027 47.9403 27.2753 48.379 26.846C48.8177 26.4073 49.3637 26.188 50.017 26.188C50.661 26.188 51.2023 26.4073 51.641 26.846C52.0797 27.2753 52.299 27.8027 52.299 28.428C52.299 29.0533 52.0797 29.5853 51.641 30.024C51.2023 30.4533 50.661 30.668 50.017 30.668ZM50.003 29.436C50.3017 29.436 50.5443 29.338 50.731 29.142C50.9177 28.946 51.011 28.708 51.011 28.428C51.011 28.1387 50.9177 27.896 50.731 27.7C50.5443 27.504 50.3017 27.406 50.003 27.406C49.7137 27.406 49.4757 27.504 49.289 27.7C49.1023 27.896 49.009 28.1387 49.009 28.428C49.009 28.708 49.1023 28.946 49.289 29.142C49.4757 29.338 49.7137 29.436 50.003 29.436Z" fill="url(#paint0_linear_2484_46018)"/>
<path d="M8.06875 20.7V22.24H5.31075V30.5H3.70075V22.24H0.92875V20.7H8.06875ZM11.2075 30.682C10.1808 30.682 9.30815 30.3273 8.58948 29.618C7.87082 28.9087 7.51148 28.036 7.51148 27C7.51148 25.964 7.87082 25.0913 8.58948 24.382C9.30815 23.6727 10.1808 23.318 11.2075 23.318C12.2435 23.318 13.1162 23.6727 13.8255 24.382C14.5442 25.0913 14.9035 25.964 14.9035 27C14.9035 28.036 14.5442 28.9087 13.8255 29.618C13.1162 30.3273 12.2435 30.682 11.2075 30.682ZM9.65348 28.582C10.0735 29.002 10.5915 29.212 11.2075 29.212C11.8235 29.212 12.3415 29.002 12.7615 28.582C13.1815 28.162 13.3915 27.6347 13.3915 27C13.3915 26.3653 13.1815 25.838 12.7615 25.418C12.3415 24.998 11.8235 24.788 11.2075 24.788C10.5915 24.788 10.0735 24.998 9.65348 25.418C9.23348 25.838 9.02348 26.3653 9.02348 27C9.02348 27.6347 9.23348 28.162 9.65348 28.582ZM20.2327 23.318C21.194 23.318 22.0153 23.6773 22.6967 24.396C23.378 25.1053 23.7187 25.9733 23.7187 27C23.7187 28.036 23.378 28.9087 22.6967 29.618C22.0153 30.3273 21.194 30.682 20.2327 30.682C19.1687 30.682 18.352 30.29 17.7827 29.506V33.3H16.2707V23.5H17.7827V24.508C18.352 23.7147 19.1687 23.318 20.2327 23.318ZM18.4127 28.61C18.8327 29.03 19.36 29.24 19.9947 29.24C20.6293 29.24 21.1567 29.03 21.5767 28.61C21.9967 28.1807 22.2067 27.644 22.2067 27C22.2067 26.356 21.9967 25.824 21.5767 25.404C21.1567 24.9747 20.6293 24.76 19.9947 24.76C19.36 24.76 18.8327 24.9747 18.4127 25.404C17.9927 25.824 17.7827 26.356 17.7827 27C17.7827 27.644 17.9927 28.1807 18.4127 28.61ZM31.557 24.396C32.4904 24.396 33.279 24.676 33.923 25.236C34.567 25.7867 34.889 26.552 34.889 27.532C34.889 28.512 34.5577 29.282 33.895 29.842C33.2324 30.402 32.4204 30.682 31.459 30.682C30.6844 30.682 29.9984 30.5047 29.401 30.15C28.8037 29.786 28.379 29.2633 28.127 28.582L29.513 27.784C29.7744 28.6707 30.423 29.114 31.459 29.114C32.0097 29.114 32.4484 28.974 32.775 28.694C33.111 28.4047 33.279 28.0173 33.279 27.532C33.279 27.0467 33.1157 26.664 32.789 26.384C32.4624 26.104 32.0284 25.964 31.487 25.964H28.631L29.009 20.7H34.469V22.212H30.493L30.325 24.396H31.557ZM39.1579 23.99C40.1753 23.99 41.0059 24.3027 41.6499 24.928C42.2939 25.544 42.6159 26.3467 42.6159 27.336C42.6159 28.3253 42.2939 29.1327 41.6499 29.758C41.0059 30.374 40.1753 30.682 39.1579 30.682C38.1313 30.682 37.2959 30.374 36.6519 29.758C36.0079 29.1327 35.6859 28.3253 35.6859 27.336C35.6859 26.5893 35.8819 25.9313 36.2739 25.362L39.3819 20.7H41.2159L38.9759 23.99H39.1579ZM39.1579 29.156C39.6993 29.156 40.1426 28.9927 40.4879 28.666C40.8333 28.33 41.0059 27.8867 41.0059 27.336C41.0059 26.7853 40.8333 26.3467 40.4879 26.02C40.1426 25.684 39.6993 25.516 39.1579 25.516C38.6073 25.516 38.1593 25.684 37.8139 26.02C37.4686 26.3467 37.2959 26.7853 37.2959 27.336C37.2959 27.8867 37.4686 28.33 37.8139 28.666C38.1593 28.9927 38.6073 29.156 39.1579 29.156ZM47.161 24.354C46.7317 24.7833 46.1903 24.998 45.537 24.998C44.8837 24.998 44.3377 24.7833 43.899 24.354C43.4603 23.9153 43.241 23.3833 43.241 22.758C43.241 22.1327 43.4603 21.6053 43.899 21.176C44.3377 20.7373 44.8837 20.518 45.537 20.518C46.1903 20.518 46.7317 20.7327 47.161 21.162C47.5997 21.5913 47.819 22.1233 47.819 22.758C47.819 23.3833 47.5997 23.9153 47.161 24.354ZM45.523 23.766C45.8217 23.766 46.0643 23.668 46.251 23.472C46.4377 23.276 46.531 23.038 46.531 22.758C46.531 22.4687 46.4377 22.226 46.251 22.03C46.0643 21.834 45.8217 21.736 45.523 21.736C45.2337 21.736 44.9957 21.834 44.809 22.03C44.6223 22.226 44.529 22.4687 44.529 22.758C44.529 23.038 44.6223 23.276 44.809 23.472C44.9957 23.668 45.2337 23.766 45.523 23.766ZM44.067 29.058L50.521 21.876L51.277 22.31L44.823 29.506L44.067 29.058ZM50.017 30.668C49.3637 30.668 48.8177 30.4533 48.379 30.024C47.9403 29.5853 47.721 29.0533 47.721 28.428C47.721 27.8027 47.9403 27.2753 48.379 26.846C48.8177 26.4073 49.3637 26.188 50.017 26.188C50.661 26.188 51.2023 26.4073 51.641 26.846C52.0797 27.2753 52.299 27.8027 52.299 28.428C52.299 29.0533 52.0797 29.5853 51.641 30.024C51.2023 30.4533 50.661 30.668 50.017 30.668ZM50.003 29.436C50.3017 29.436 50.5443 29.338 50.731 29.142C50.9177 28.946 51.011 28.708 51.011 28.428C51.011 28.1387 50.9177 27.896 50.731 27.7C50.5443 27.504 50.3017 27.406 50.003 27.406C49.7137 27.406 49.4757 27.504 49.289 27.7C49.1023 27.896 49.009 28.1387 49.009 28.428C49.009 28.708 49.1023 28.946 49.289 29.142C49.4757 29.338 49.7137 29.436 50.003 29.436Z" fill="url(#paint1_linear_2484_46018)"/>
<rect y="38.5" width="91" height="2" rx="1" fill="url(#paint2_linear_2484_46018)" fill-opacity="0.23"/>
<rect y="38.5" width="47" height="2" rx="1" fill="url(#paint3_linear_2484_46018)"/>
<defs>
<linearGradient id="paint0_linear_2484_46018" x1="2.88977" y1="17.5" x2="27.8192" y2="47.7334" gradientUnits="userSpaceOnUse">
<stop stop-color="#CE2791"/>
<stop offset="1" stop-color="#FF7070"/>
</linearGradient>
<linearGradient id="paint1_linear_2484_46018" x1="26.5" y1="17.5" x2="26.5" y2="34.5" gradientUnits="userSpaceOnUse">
<stop stop-color="#FFB800"/>
<stop offset="1" stop-color="#EBD511"/>
</linearGradient>
<linearGradient id="paint2_linear_2484_46018" x1="45.5" y1="38.5" x2="45.5" y2="40.5" gradientUnits="userSpaceOnUse">
<stop stop-color="#FFB800"/>
<stop offset="1" stop-color="#EBD511"/>
</linearGradient>
<linearGradient id="paint3_linear_2484_46018" x1="23.5" y1="38.5" x2="23.5" y2="40.5" gradientUnits="userSpaceOnUse">
<stop stop-color="#FFB800"/>
<stop offset="1" stop-color="#EBD511"/>
</linearGradient>
</defs>
</svg>
