<svg width="91" height="64" viewBox="0 0 91 64" fill="none" xmlns="http://www.w3.org/2000/svg">
<path d="M7.76797 21.1004V22.6404H5.00997V30.9004H3.39997V22.6404H0.627969V21.1004H7.76797ZM10.9067 31.0824C9.88004 31.0824 9.00737 30.7277 8.2887 30.0184C7.57004 29.3091 7.2107 28.4364 7.2107 27.4004C7.2107 26.3644 7.57004 25.4917 8.2887 24.7824C9.00737 24.0731 9.88004 23.7184 10.9067 23.7184C11.9427 23.7184 12.8154 24.0731 13.5247 24.7824C14.2434 25.4917 14.6027 26.3644 14.6027 27.4004C14.6027 28.4364 14.2434 29.3091 13.5247 30.0184C12.8154 30.7277 11.9427 31.0824 10.9067 31.0824ZM9.3527 28.9824C9.7727 29.4024 10.2907 29.6124 10.9067 29.6124C11.5227 29.6124 12.0407 29.4024 12.4607 28.9824C12.8807 28.5624 13.0907 28.0351 13.0907 27.4004C13.0907 26.7657 12.8807 26.2384 12.4607 25.8184C12.0407 25.3984 11.5227 25.1884 10.9067 25.1884C10.2907 25.1884 9.7727 25.3984 9.3527 25.8184C8.9327 26.2384 8.7227 26.7657 8.7227 27.4004C8.7227 28.0351 8.9327 28.5624 9.3527 28.9824ZM19.9319 23.7184C20.8932 23.7184 21.7146 24.0777 22.3959 24.7964C23.0772 25.5057 23.4179 26.3737 23.4179 27.4004C23.4179 28.4364 23.0772 29.3091 22.3959 30.0184C21.7146 30.7277 20.8932 31.0824 19.9319 31.0824C18.8679 31.0824 18.0512 30.6904 17.4819 29.9064V33.7004H15.9699V23.9004H17.4819V24.9084C18.0512 24.1151 18.8679 23.7184 19.9319 23.7184ZM18.1119 29.0104C18.5319 29.4304 19.0592 29.6404 19.6939 29.6404C20.3286 29.6404 20.8559 29.4304 21.2759 29.0104C21.6959 28.5811 21.9059 28.0444 21.9059 27.4004C21.9059 26.7564 21.6959 26.2244 21.2759 25.8044C20.8559 25.3751 20.3286 25.1604 19.6939 25.1604C19.0592 25.1604 18.5319 25.3751 18.1119 25.8044C17.6919 26.2244 17.4819 26.7564 17.4819 27.4004C17.4819 28.0444 17.6919 28.5811 18.1119 29.0104ZM32.0823 25.1044C32.7916 25.2724 33.3656 25.6037 33.8043 26.0984C34.2523 26.5837 34.4762 27.1951 34.4762 27.9324C34.4762 28.9124 34.1449 29.6824 33.4823 30.2424C32.8196 30.8024 32.0076 31.0824 31.0463 31.0824C30.2996 31.0824 29.6276 30.9097 29.0303 30.5644C28.4423 30.2191 28.0176 29.7151 27.7563 29.0524L29.1283 28.2544C29.4176 29.0944 30.0569 29.5144 31.0463 29.5144C31.6063 29.5144 32.0496 29.3744 32.3763 29.0944C32.7029 28.8051 32.8663 28.4177 32.8663 27.9324C32.8663 27.4471 32.7029 27.0644 32.3763 26.7844C32.0496 26.5044 31.6063 26.3644 31.0463 26.3644H30.6823L30.0383 25.3984L32.1523 22.6124H28.0503V21.1004H34.0703V22.4724L32.0823 25.1044ZM40.8888 25.8044C41.8501 26.3364 42.3308 27.1297 42.3308 28.1844C42.3308 29.0804 42.0181 29.7897 41.3928 30.3124C40.7675 30.8257 39.9368 31.0824 38.9008 31.0824C37.8648 31.0824 37.0295 30.8257 36.3948 30.3124C35.7695 29.7897 35.4568 29.0804 35.4568 28.1844C35.4568 27.6804 35.5828 27.2231 35.8348 26.8124C36.0868 26.3924 36.4415 26.0564 36.8988 25.8044C36.1615 25.3191 35.7928 24.6284 35.7928 23.7324C35.7928 22.8364 36.0915 22.1457 36.6888 21.6604C37.2861 21.1657 38.0235 20.9184 38.9008 20.9184C39.7688 20.9184 40.5015 21.1657 41.0988 21.6604C41.7055 22.1457 42.0088 22.8364 42.0088 23.7324C42.0088 24.6284 41.6355 25.3191 40.8888 25.8044ZM38.9008 22.4444C38.4621 22.4444 38.1028 22.5611 37.8228 22.7944C37.5428 23.0277 37.4028 23.3637 37.4028 23.8024C37.4028 24.2224 37.5428 24.5537 37.8228 24.7964C38.1121 25.0391 38.4715 25.1604 38.9008 25.1604C39.3208 25.1604 39.6755 25.0391 39.9648 24.7964C40.2541 24.5537 40.3988 24.2224 40.3988 23.8024C40.3988 23.3637 40.2541 23.0277 39.9648 22.7944C39.6848 22.5611 39.3301 22.4444 38.9008 22.4444ZM38.9008 29.5564C39.4421 29.5564 39.8808 29.4257 40.2168 29.1644C40.5528 28.8937 40.7208 28.5157 40.7208 28.0304C40.7208 27.5451 40.5528 27.1717 40.2168 26.9104C39.8808 26.6397 39.4421 26.5044 38.9008 26.5044C38.3501 26.5044 37.9068 26.6397 37.5708 26.9104C37.2348 27.1717 37.0668 27.5451 37.0668 28.0304C37.0668 28.5157 37.2348 28.8937 37.5708 29.1644C37.9068 29.4257 38.3501 29.5564 38.9008 29.5564ZM47.161 24.7544C46.7317 25.1837 46.1903 25.3984 45.537 25.3984C44.8837 25.3984 44.3377 25.1837 43.899 24.7544C43.4603 24.3157 43.241 23.7837 43.241 23.1584C43.241 22.5331 43.4603 22.0057 43.899 21.5764C44.3377 21.1377 44.8837 20.9184 45.537 20.9184C46.1903 20.9184 46.7317 21.1331 47.161 21.5624C47.5997 21.9917 47.819 22.5237 47.819 23.1584C47.819 23.7837 47.5997 24.3157 47.161 24.7544ZM45.523 24.1664C45.8217 24.1664 46.0643 24.0684 46.251 23.8724C46.4377 23.6764 46.531 23.4384 46.531 23.1584C46.531 22.8691 46.4377 22.6264 46.251 22.4304C46.0643 22.2344 45.8217 22.1364 45.523 22.1364C45.2337 22.1364 44.9957 22.2344 44.809 22.4304C44.6223 22.6264 44.529 22.8691 44.529 23.1584C44.529 23.4384 44.6223 23.6764 44.809 23.8724C44.9957 24.0684 45.2337 24.1664 45.523 24.1664ZM44.067 29.4584L50.521 22.2764L51.277 22.7104L44.823 29.9064L44.067 29.4584ZM50.017 31.0684C49.3637 31.0684 48.8177 30.8537 48.379 30.4244C47.9403 29.9857 47.721 29.4537 47.721 28.8284C47.721 28.2031 47.9403 27.6757 48.379 27.2464C48.8177 26.8077 49.3637 26.5884 50.017 26.5884C50.661 26.5884 51.2023 26.8077 51.641 27.2464C52.0797 27.6757 52.299 28.2031 52.299 28.8284C52.299 29.4537 52.0797 29.9857 51.641 30.4244C51.2023 30.8537 50.661 31.0684 50.017 31.0684ZM50.003 29.8364C50.3017 29.8364 50.5443 29.7384 50.731 29.5424C50.9177 29.3464 51.011 29.1084 51.011 28.8284C51.011 28.5391 50.9177 28.2964 50.731 28.1004C50.5443 27.9044 50.3017 27.8064 50.003 27.8064C49.7137 27.8064 49.4757 27.9044 49.289 28.1004C49.1023 28.2964 49.009 28.5391 49.009 28.8284C49.009 29.1084 49.1023 29.3464 49.289 29.5424C49.4757 29.7384 49.7137 29.8364 50.003 29.8364Z" fill="url(#paint0_linear_2484_46030)"/>
<path d="M7.76797 21.1004V22.6404H5.00997V30.9004H3.39997V22.6404H0.627969V21.1004H7.76797ZM10.9067 31.0824C9.88004 31.0824 9.00737 30.7277 8.2887 30.0184C7.57004 29.3091 7.2107 28.4364 7.2107 27.4004C7.2107 26.3644 7.57004 25.4917 8.2887 24.7824C9.00737 24.0731 9.88004 23.7184 10.9067 23.7184C11.9427 23.7184 12.8154 24.0731 13.5247 24.7824C14.2434 25.4917 14.6027 26.3644 14.6027 27.4004C14.6027 28.4364 14.2434 29.3091 13.5247 30.0184C12.8154 30.7277 11.9427 31.0824 10.9067 31.0824ZM9.3527 28.9824C9.7727 29.4024 10.2907 29.6124 10.9067 29.6124C11.5227 29.6124 12.0407 29.4024 12.4607 28.9824C12.8807 28.5624 13.0907 28.0351 13.0907 27.4004C13.0907 26.7657 12.8807 26.2384 12.4607 25.8184C12.0407 25.3984 11.5227 25.1884 10.9067 25.1884C10.2907 25.1884 9.7727 25.3984 9.3527 25.8184C8.9327 26.2384 8.7227 26.7657 8.7227 27.4004C8.7227 28.0351 8.9327 28.5624 9.3527 28.9824ZM19.9319 23.7184C20.8932 23.7184 21.7146 24.0777 22.3959 24.7964C23.0772 25.5057 23.4179 26.3737 23.4179 27.4004C23.4179 28.4364 23.0772 29.3091 22.3959 30.0184C21.7146 30.7277 20.8932 31.0824 19.9319 31.0824C18.8679 31.0824 18.0512 30.6904 17.4819 29.9064V33.7004H15.9699V23.9004H17.4819V24.9084C18.0512 24.1151 18.8679 23.7184 19.9319 23.7184ZM18.1119 29.0104C18.5319 29.4304 19.0592 29.6404 19.6939 29.6404C20.3286 29.6404 20.8559 29.4304 21.2759 29.0104C21.6959 28.5811 21.9059 28.0444 21.9059 27.4004C21.9059 26.7564 21.6959 26.2244 21.2759 25.8044C20.8559 25.3751 20.3286 25.1604 19.6939 25.1604C19.0592 25.1604 18.5319 25.3751 18.1119 25.8044C17.6919 26.2244 17.4819 26.7564 17.4819 27.4004C17.4819 28.0444 17.6919 28.5811 18.1119 29.0104ZM32.0823 25.1044C32.7916 25.2724 33.3656 25.6037 33.8043 26.0984C34.2523 26.5837 34.4762 27.1951 34.4762 27.9324C34.4762 28.9124 34.1449 29.6824 33.4823 30.2424C32.8196 30.8024 32.0076 31.0824 31.0463 31.0824C30.2996 31.0824 29.6276 30.9097 29.0303 30.5644C28.4423 30.2191 28.0176 29.7151 27.7563 29.0524L29.1283 28.2544C29.4176 29.0944 30.0569 29.5144 31.0463 29.5144C31.6063 29.5144 32.0496 29.3744 32.3763 29.0944C32.7029 28.8051 32.8663 28.4177 32.8663 27.9324C32.8663 27.4471 32.7029 27.0644 32.3763 26.7844C32.0496 26.5044 31.6063 26.3644 31.0463 26.3644H30.6823L30.0383 25.3984L32.1523 22.6124H28.0503V21.1004H34.0703V22.4724L32.0823 25.1044ZM40.8888 25.8044C41.8501 26.3364 42.3308 27.1297 42.3308 28.1844C42.3308 29.0804 42.0181 29.7897 41.3928 30.3124C40.7675 30.8257 39.9368 31.0824 38.9008 31.0824C37.8648 31.0824 37.0295 30.8257 36.3948 30.3124C35.7695 29.7897 35.4568 29.0804 35.4568 28.1844C35.4568 27.6804 35.5828 27.2231 35.8348 26.8124C36.0868 26.3924 36.4415 26.0564 36.8988 25.8044C36.1615 25.3191 35.7928 24.6284 35.7928 23.7324C35.7928 22.8364 36.0915 22.1457 36.6888 21.6604C37.2861 21.1657 38.0235 20.9184 38.9008 20.9184C39.7688 20.9184 40.5015 21.1657 41.0988 21.6604C41.7055 22.1457 42.0088 22.8364 42.0088 23.7324C42.0088 24.6284 41.6355 25.3191 40.8888 25.8044ZM38.9008 22.4444C38.4621 22.4444 38.1028 22.5611 37.8228 22.7944C37.5428 23.0277 37.4028 23.3637 37.4028 23.8024C37.4028 24.2224 37.5428 24.5537 37.8228 24.7964C38.1121 25.0391 38.4715 25.1604 38.9008 25.1604C39.3208 25.1604 39.6755 25.0391 39.9648 24.7964C40.2541 24.5537 40.3988 24.2224 40.3988 23.8024C40.3988 23.3637 40.2541 23.0277 39.9648 22.7944C39.6848 22.5611 39.3301 22.4444 38.9008 22.4444ZM38.9008 29.5564C39.4421 29.5564 39.8808 29.4257 40.2168 29.1644C40.5528 28.8937 40.7208 28.5157 40.7208 28.0304C40.7208 27.5451 40.5528 27.1717 40.2168 26.9104C39.8808 26.6397 39.4421 26.5044 38.9008 26.5044C38.3501 26.5044 37.9068 26.6397 37.5708 26.9104C37.2348 27.1717 37.0668 27.5451 37.0668 28.0304C37.0668 28.5157 37.2348 28.8937 37.5708 29.1644C37.9068 29.4257 38.3501 29.5564 38.9008 29.5564ZM47.161 24.7544C46.7317 25.1837 46.1903 25.3984 45.537 25.3984C44.8837 25.3984 44.3377 25.1837 43.899 24.7544C43.4603 24.3157 43.241 23.7837 43.241 23.1584C43.241 22.5331 43.4603 22.0057 43.899 21.5764C44.3377 21.1377 44.8837 20.9184 45.537 20.9184C46.1903 20.9184 46.7317 21.1331 47.161 21.5624C47.5997 21.9917 47.819 22.5237 47.819 23.1584C47.819 23.7837 47.5997 24.3157 47.161 24.7544ZM45.523 24.1664C45.8217 24.1664 46.0643 24.0684 46.251 23.8724C46.4377 23.6764 46.531 23.4384 46.531 23.1584C46.531 22.8691 46.4377 22.6264 46.251 22.4304C46.0643 22.2344 45.8217 22.1364 45.523 22.1364C45.2337 22.1364 44.9957 22.2344 44.809 22.4304C44.6223 22.6264 44.529 22.8691 44.529 23.1584C44.529 23.4384 44.6223 23.6764 44.809 23.8724C44.9957 24.0684 45.2337 24.1664 45.523 24.1664ZM44.067 29.4584L50.521 22.2764L51.277 22.7104L44.823 29.9064L44.067 29.4584ZM50.017 31.0684C49.3637 31.0684 48.8177 30.8537 48.379 30.4244C47.9403 29.9857 47.721 29.4537 47.721 28.8284C47.721 28.2031 47.9403 27.6757 48.379 27.2464C48.8177 26.8077 49.3637 26.5884 50.017 26.5884C50.661 26.5884 51.2023 26.8077 51.641 27.2464C52.0797 27.6757 52.299 28.2031 52.299 28.8284C52.299 29.4537 52.0797 29.9857 51.641 30.4244C51.2023 30.8537 50.661 31.0684 50.017 31.0684ZM50.003 29.8364C50.3017 29.8364 50.5443 29.7384 50.731 29.5424C50.9177 29.3464 51.011 29.1084 51.011 28.8284C51.011 28.5391 50.9177 28.2964 50.731 28.1004C50.5443 27.9044 50.3017 27.8064 50.003 27.8064C49.7137 27.8064 49.4757 27.9044 49.289 28.1004C49.1023 28.2964 49.009 28.5391 49.009 28.8284C49.009 29.1084 49.1023 29.3464 49.289 29.5424C49.4757 29.7384 49.7137 29.8364 50.003 29.8364Z" fill="url(#paint1_linear_2484_46030)"/>
<rect y="38.9004" width="91" height="2" rx="1" fill="url(#paint2_linear_2484_46030)" fill-opacity="0.23"/>
<rect y="38.9004" width="29" height="2" rx="1" fill="url(#paint3_linear_2484_46030)"/>
<defs>
<linearGradient id="paint0_linear_2484_46030" x1="2.88977" y1="17.9004" x2="27.8192" y2="48.1338" gradientUnits="userSpaceOnUse">
<stop stop-color="#CE2791"/>
<stop offset="1" stop-color="#FF7070"/>
</linearGradient>
<linearGradient id="paint1_linear_2484_46030" x1="26.5" y1="17.9004" x2="26.5" y2="34.9004" gradientUnits="userSpaceOnUse">
<stop stop-color="#FFB800"/>
<stop offset="1" stop-color="#EBD511"/>
</linearGradient>
<linearGradient id="paint2_linear_2484_46030" x1="45.5" y1="38.9004" x2="45.5" y2="40.9004" gradientUnits="userSpaceOnUse">
<stop stop-color="#FFB800"/>
<stop offset="1" stop-color="#EBD511"/>
</linearGradient>
<linearGradient id="paint3_linear_2484_46030" x1="14.5" y1="38.9004" x2="14.5" y2="40.9004" gradientUnits="userSpaceOnUse">
<stop stop-color="#FFB800"/>
<stop offset="1" stop-color="#EBD511"/>
</linearGradient>
</defs>
</svg>
