<svg xmlns="http://www.w3.org/2000/svg" width="24" height="24" viewBox="0 0 24 24" fill="none">
<g clip-path="url(#clip0_1447_99694)">
<g filter="url(#filter0_d_1447_99694)">
<path d="M2.57031 4.92843C2.57031 4.30328 2.81865 3.70373 3.2607 3.26168C3.70275 2.81963 4.3023 2.57129 4.92746 2.57129H16.4989C17.124 2.57129 17.7236 2.81963 18.1656 3.26168C18.6077 3.70373 18.856 4.30328 18.856 4.92843V6.00672C19.6697 6.06108 20.4322 6.42265 20.9892 7.01818C21.5462 7.61372 21.8561 8.39871 21.856 9.21415V18.2141C21.856 19.0666 21.5174 19.8842 20.9146 20.487C20.3118 21.0898 19.4942 21.4284 18.6417 21.4284H5.78803C4.93555 21.4284 4.11798 21.0898 3.51518 20.487C2.91239 19.8842 2.57374 19.0666 2.57374 18.2141V9.21415H2.57031V5.14272H2.57974C2.57339 5.07147 2.57024 4.99997 2.57031 4.92843ZM17.5703 4.92843C17.5703 4.337 17.0903 3.857 16.4989 3.857H4.92746C4.6433 3.857 4.37077 3.96989 4.16984 4.17082C3.96891 4.37175 3.85603 4.64427 3.85603 4.92843C3.85603 5.21259 3.96891 5.48511 4.16984 5.68605C4.37077 5.88698 4.6433 5.99986 4.92746 5.99986H17.5703V4.92843ZM16.0703 13.7141C15.8998 13.7141 15.7363 13.7819 15.6157 13.9024C15.4952 14.023 15.4275 14.1865 15.4275 14.357C15.4275 14.5275 15.4952 14.691 15.6157 14.8116C15.7363 14.9321 15.8998 14.9999 16.0703 14.9999H18.2132C18.3837 14.9999 18.5472 14.9321 18.6677 14.8116C18.7883 14.691 18.856 14.5275 18.856 14.357C18.856 14.1865 18.7883 14.023 18.6677 13.9024C18.5472 13.7819 18.3837 13.7141 18.2132 13.7141H16.0703Z" fill="white" fill-opacity="0.8" shape-rendering="crispEdges"/>
</g>
</g>
<defs>
<filter id="filter0_d_1447_99694" x="-1.42969" y="-0.428711" width="27.2852" height="26.8572" filterUnits="userSpaceOnUse" color-interpolation-filters="sRGB">
<feFlood flood-opacity="0" result="BackgroundImageFix"/>
<feColorMatrix in="SourceAlpha" type="matrix" values="0 0 0 0 0 0 0 0 0 0 0 0 0 0 0 0 0 0 127 0" result="hardAlpha"/>
<feOffset dy="1"/>
<feGaussianBlur stdDeviation="2"/>
<feComposite in2="hardAlpha" operator="out"/>
<feColorMatrix type="matrix" values="0 0 0 0 0.404167 0 0 0 0 0.404167 0 0 0 0 0.404167 0 0 0 0.15 0"/>
<feBlend mode="normal" in2="BackgroundImageFix" result="effect1_dropShadow_1447_99694"/>
<feBlend mode="normal" in="SourceGraphic" in2="effect1_dropShadow_1447_99694" result="shape"/>
</filter>
<clipPath id="clip0_1447_99694">
<rect width="24" height="24" fill="white"/>
</clipPath>
</defs>
</svg>