<svg xmlns="http://www.w3.org/2000/svg" width="24" height="21" fill="none" viewBox="0 0 24 21"><path fill="#55ACEE" d="M24 2.98588C23.1013 3.38401 22.148 3.64534 21.1719 3.76119C22.1887 3.15181 22.9693 2.18685 23.3369 1.0371C22.3704 1.61064 21.3129 2.01475 20.2103 2.23194C19.312 1.27503 18.0324 0.677002 16.6162 0.677002C13.8968 0.677002 11.6921 2.88163 11.6921 5.60075C11.6921 5.98672 11.7357 6.36247 11.8196 6.72294C7.72744 6.51753 4.09931 4.55731 1.67072 1.57831C1.24697 2.30553 1.00416 3.15144 1.00416 4.05369C1.00416 5.762 1.8735 7.26903 3.19462 8.15206C2.4127 8.12758 1.64798 7.91639 0.964313 7.53613C0.964031 7.55675 0.964031 7.57738 0.964031 7.5981C0.964031 9.98375 2.66128 11.9739 4.91372 12.4262C4.18864 12.6234 3.42809 12.6523 2.69016 12.5106C3.31669 14.4668 5.13516 15.8903 7.28972 15.9301C5.60456 17.2507 3.48141 18.0379 1.17459 18.0379C0.777094 18.0379 0.385219 18.0146 0 17.9691C2.17903 19.3662 4.76719 20.1813 7.54781 20.1813C16.6047 20.1813 21.5573 12.6784 21.5573 6.17178C21.5573 5.95822 21.5526 5.74588 21.543 5.53475C22.507 4.83789 23.339 3.97477 24 2.98588Z"/></svg>