<svg xmlns="http://www.w3.org/2000/svg" width="46" height="40" fill="none" viewBox="0 0 46 40"><g clip-path="url(#clip0_964_24895)" filter="url(#filter0_d_964_24895)"><path fill="red" d="M34.47 14.232C34.3323 13.7233 34.0638 13.2595 33.6911 12.8868C33.3185 12.5141 32.8547 12.2456 32.346 12.1079C30.4835 11.6 22.9878 11.6 22.9878 11.6C22.9878 11.6 15.4918 11.6154 13.6293 12.1233C13.1206 12.261 12.6568 12.5295 12.2842 12.9022C11.9115 13.2749 11.643 13.7387 11.5053 14.2475C10.942 17.5567 10.7235 22.5991 11.5208 25.7759C11.6585 26.2846 11.927 26.7484 12.2996 27.1211C12.6723 27.4938 13.1361 27.7623 13.6448 27.9C15.5072 28.4079 23.0031 28.4079 23.0031 28.4079C23.0031 28.4079 30.4989 28.4079 32.3612 27.9C32.87 27.7623 33.3338 27.4938 33.7064 27.1211C34.0791 26.7485 34.3477 26.2847 34.4853 25.7759C35.0795 22.462 35.2626 17.4228 34.47 14.2321V14.232Z"/><path fill="#fff" d="M20.6016 23.6056L26.8198 20.0039L20.6016 16.4022V23.6056Z"/></g><defs><filter id="filter0_d_964_24895" width="46" height="46" x="0" y="-3.4" color-interpolation-filters="sRGB" filterUnits="userSpaceOnUse"><feFlood flood-opacity="0" result="BackgroundImageFix"/><feColorMatrix in="SourceAlpha" result="hardAlpha" type="matrix" values="0 0 0 0 0 0 0 0 0 0 0 0 0 0 0 0 0 0 127 0"/><feOffset/><feGaussianBlur stdDeviation="5.5"/><feComposite in2="hardAlpha" operator="out"/><feColorMatrix type="matrix" values="0 0 0 0 0.5625 0 0 0 0 0.5625 0 0 0 0 0.5625 0 0 0 0.16 0"/><feBlend in2="BackgroundImageFix" mode="normal" result="effect1_dropShadow_964_24895"/><feBlend in="SourceGraphic" in2="effect1_dropShadow_964_24895" mode="normal" result="shape"/></filter><clipPath id="clip0_964_24895"><rect width="24" height="24" fill="#fff" transform="translate(11 7.59998)"/></clipPath></defs></svg>