<svg width="74" height="64" viewBox="0 0 74 64" fill="none" xmlns="http://www.w3.org/2000/svg">
<path d="M29.8393 37.8008V36.5408L33.2553 33.0548C34.0859 32.2241 34.5013 31.5054 34.5013 30.8988C34.5013 30.4228 34.3566 30.0541 34.0673 29.7928C33.7873 29.5221 33.4279 29.3868 32.9893 29.3868C32.1679 29.3868 31.5613 29.7928 31.1693 30.6048L29.8113 29.8068C30.1193 29.1534 30.5533 28.6588 31.1133 28.3228C31.6733 27.9868 32.2939 27.8188 32.9753 27.8188C33.8339 27.8188 34.5713 28.0894 35.1873 28.6308C35.8033 29.1721 36.1113 29.9094 36.1113 30.8428C36.1113 31.8414 35.5559 32.9054 34.4453 34.0348L32.2333 36.2468H36.2933V37.8008H29.8393ZM42.6691 32.7048C43.6304 33.2368 44.1111 34.0301 44.1111 35.0848C44.1111 35.9808 43.7984 36.6901 43.1731 37.2128C42.5477 37.7261 41.7171 37.9828 40.6811 37.9828C39.6451 37.9828 38.8097 37.7261 38.1751 37.2128C37.5497 36.6901 37.2371 35.9808 37.2371 35.0848C37.2371 34.5808 37.3631 34.1234 37.6151 33.7128C37.8671 33.2928 38.2217 32.9568 38.6791 32.7048C37.9417 32.2194 37.5731 31.5288 37.5731 30.6328C37.5731 29.7368 37.8717 29.0461 38.4691 28.5608C39.0664 28.0661 39.8037 27.8188 40.6811 27.8188C41.5491 27.8188 42.2817 28.0661 42.8791 28.5608C43.4857 29.0461 43.7891 29.7368 43.7891 30.6328C43.7891 31.5288 43.4157 32.2194 42.6691 32.7048ZM40.6811 29.3448C40.2424 29.3448 39.8831 29.4614 39.6031 29.6948C39.3231 29.9281 39.1831 30.2641 39.1831 30.7028C39.1831 31.1228 39.3231 31.4541 39.6031 31.6968C39.8924 31.9394 40.2517 32.0608 40.6811 32.0608C41.1011 32.0608 41.4557 31.9394 41.7451 31.6968C42.0344 31.4541 42.1791 31.1228 42.1791 30.7028C42.1791 30.2641 42.0344 29.9281 41.7451 29.6948C41.4651 29.4614 41.1104 29.3448 40.6811 29.3448ZM40.6811 36.4568C41.2224 36.4568 41.6611 36.3261 41.9971 36.0648C42.3331 35.7941 42.5011 35.4161 42.5011 34.9308C42.5011 34.4454 42.3331 34.0721 41.9971 33.8108C41.6611 33.5401 41.2224 33.4048 40.6811 33.4048C40.1304 33.4048 39.6871 33.5401 39.3511 33.8108C39.0151 34.0721 38.8471 34.4454 38.8471 34.9308C38.8471 35.4161 39.0151 35.7941 39.3511 36.0648C39.6871 36.3261 40.1304 36.4568 40.6811 36.4568Z" fill="#5C2448"/>
<mask id="path-3-inside-1_2484_45985" fill="white">
<path d="M55 32.8008C55 42.7419 46.9411 50.8008 37 50.8008C27.0589 50.8008 19 42.7419 19 32.8008C19 22.8597 27.0589 14.8008 37 14.8008C46.9411 14.8008 55 22.8597 55 32.8008ZM20.98 32.8008C20.98 41.6484 28.1524 48.8208 37 48.8208C45.8476 48.8208 53.02 41.6484 53.02 32.8008C53.02 23.9532 45.8476 16.7808 37 16.7808C28.1524 16.7808 20.98 23.9532 20.98 32.8008Z"/>
</mask>
<path d="M55 32.8008C55 42.7419 46.9411 50.8008 37 50.8008C27.0589 50.8008 19 42.7419 19 32.8008C19 22.8597 27.0589 14.8008 37 14.8008C46.9411 14.8008 55 22.8597 55 32.8008ZM20.98 32.8008C20.98 41.6484 28.1524 48.8208 37 48.8208C45.8476 48.8208 53.02 41.6484 53.02 32.8008C53.02 23.9532 45.8476 16.7808 37 16.7808C28.1524 16.7808 20.98 23.9532 20.98 32.8008Z" stroke="url(#paint0_linear_2484_45985)" stroke-opacity="0.23" stroke-width="4" mask="url(#path-3-inside-1_2484_45985)"/>
<mask id="path-4-inside-2_2484_45985" fill="white">
<path d="M37 15.7908C37 15.244 37.4436 14.7979 37.9895 14.828C40.299 14.9551 42.5656 15.5264 44.664 16.5139C47.0615 17.642 49.1803 19.2856 50.8692 21.3271C52.5582 23.3687 53.7756 25.758 54.4345 28.3244C55.0112 30.5707 55.1477 32.9042 54.8399 35.1966C54.7671 35.7385 54.2458 36.0906 53.7087 35.9881C53.1716 35.8857 52.8225 35.3674 52.8916 34.825C53.1471 32.8195 53.021 30.7807 52.5167 28.8168C51.9302 26.5327 50.8468 24.4062 49.3436 22.5892C47.8405 20.7722 45.9547 19.3095 43.821 18.3055C41.9863 17.4421 40.0072 16.9362 37.9894 16.8114C37.4437 16.7776 37 16.3375 37 15.7908Z"/>
</mask>
<path d="M37 15.7908C37 15.244 37.4436 14.7979 37.9895 14.828C40.299 14.9551 42.5656 15.5264 44.664 16.5139C47.0615 17.642 49.1803 19.2856 50.8692 21.3271C52.5582 23.3687 53.7756 25.758 54.4345 28.3244C55.0112 30.5707 55.1477 32.9042 54.8399 35.1966C54.7671 35.7385 54.2458 36.0906 53.7087 35.9881C53.1716 35.8857 52.8225 35.3674 52.8916 34.825C53.1471 32.8195 53.021 30.7807 52.5167 28.8168C51.9302 26.5327 50.8468 24.4062 49.3436 22.5892C47.8405 20.7722 45.9547 19.3095 43.821 18.3055C41.9863 17.4421 40.0072 16.9362 37.9894 16.8114C37.4437 16.7776 37 16.3375 37 15.7908Z" stroke="url(#paint1_linear_2484_45985)" stroke-width="4" mask="url(#path-4-inside-2_2484_45985)"/>
<g clip-path="url(#clip0_2484_45985)">
<path d="M51.875 31.3003C51.875 30.8878 51.5801 30.5808 51.1484 30.5269C50.7031 30.4712 50.416 30.7378 50.1934 31.1421C50.0761 31.3551 49.8857 31.4292 49.6748 31.3589C49.2773 31.2264 48.9046 31.0161 48.5293 31.4439C48.2568 31.7544 48.2975 32.112 48.5293 32.4546C48.6641 32.6538 48.6747 32.9897 48.4473 33.1196C48.1191 33.3071 47.7559 33.5128 47.7559 33.9253C47.7559 34.523 48.2105 34.8159 48.623 34.8159L51.875 34.6753V31.3003Z" fill="url(#paint2_linear_2484_45985)"/>
<path d="M51.875 31.3003C51.875 30.8878 51.5801 30.5808 51.1484 30.5269C50.7031 30.4712 50.416 30.7378 50.1934 31.1421C50.0761 31.3551 49.8857 31.4292 49.6748 31.3589C49.2773 31.2264 48.9046 31.0161 48.5293 31.4439C48.2568 31.7544 48.2975 32.112 48.5293 32.4546C48.6641 32.6538 48.6747 32.9897 48.4473 33.1196C48.1191 33.3071 47.7559 33.5128 47.7559 33.9253C47.7559 34.523 48.2105 34.8159 48.623 34.8159L51.875 34.6753V31.3003Z" fill="url(#paint3_radial_2484_45985)"/>
<path d="M51.875 31.3003C51.875 30.8878 51.5801 30.5808 51.1484 30.5269C50.7031 30.4712 50.416 30.7378 50.1934 31.1421C50.0761 31.3551 49.8857 31.4292 49.6748 31.3589C49.2773 31.2264 48.9046 31.0161 48.5293 31.4439C48.2568 31.7544 48.2975 32.112 48.5293 32.4546C48.6641 32.6538 48.6747 32.9897 48.4473 33.1196C48.1191 33.3071 47.7559 33.5128 47.7559 33.9253C47.7559 34.523 48.2105 34.8159 48.623 34.8159L51.875 34.6753V31.3003Z" fill="url(#paint4_radial_2484_45985)"/>
<path d="M53 39.5508C55.0711 39.5508 56.75 37.8718 56.75 35.8008C56.75 33.7297 55.0711 32.0508 53 32.0508C50.9289 32.0508 49.25 33.7297 49.25 35.8008C49.25 37.8718 50.9289 39.5508 53 39.5508Z" fill="url(#paint5_radial_2484_45985)"/>
<path d="M53 39.5508C55.0711 39.5508 56.75 37.8718 56.75 35.8008C56.75 33.7297 55.0711 32.0508 53 32.0508C50.9289 32.0508 49.25 33.7297 49.25 35.8008C49.25 37.8718 50.9289 39.5508 53 39.5508Z" fill="url(#paint6_radial_2484_45985)"/>
<path d="M53 39.5508C55.0711 39.5508 56.75 37.8718 56.75 35.8008C56.75 33.7297 55.0711 32.0508 53 32.0508C50.9289 32.0508 49.25 33.7297 49.25 35.8008C49.25 37.8718 50.9289 39.5508 53 39.5508Z" fill="url(#paint7_radial_2484_45985)"/>
<path d="M51.9633 34.6812C53.1882 33.4278 55.6312 32.8882 56.6097 34.7764C56.5204 34.479 56.2875 33.7524 55.6312 33.1284C54.3187 32.0444 52.191 32.782 50.973 34.1479C50.174 35.044 49.0892 37.189 50.6068 38.6875C50.9232 38.9336 51.4418 39.3569 52.3148 39.4858C49.6195 38.3081 50.8803 35.7893 51.9633 34.6812Z" fill="url(#paint8_linear_2484_45985)"/>
<path d="M54.1659 38.8643C52.701 38.7998 52.7262 37.3868 53.4803 36.541C54.7394 35.1289 56.1083 35.8057 56.0819 36.9512H56.4427C56.913 35.3035 55.7716 34.6719 54.8514 34.6719C53.5093 34.6719 52.3085 35.8408 51.9598 37.0977C51.6639 38.29 52.3348 39.6904 54.1659 39.2217V38.8643Z" fill="#C62561"/>
<path d="M54.1659 38.8643C52.701 38.7998 52.7262 37.3868 53.4803 36.541C54.7394 35.1289 56.1083 35.8057 56.0819 36.9512H56.4427C56.913 35.3035 55.7716 34.6719 54.8514 34.6719C53.5093 34.6719 52.3085 35.8408 51.9598 37.0977C51.6639 38.29 52.3348 39.6904 54.1659 39.2217V38.8643Z" fill="url(#paint9_radial_2484_45985)"/>
<path d="M54.125 40.3008C54.125 40.7133 54.4625 41.0508 54.875 41.0508C55.2875 41.0508 55.625 40.7133 55.625 40.3008C55.625 40.0008 55.9888 39.8508 56.2025 40.0608L56.2213 40.0795C56.5138 40.372 56.99 40.372 57.2825 40.0795C57.575 39.787 57.575 39.3108 57.2825 39.0183L57.2638 38.9995C57.05 38.7895 57.2 38.4258 57.5 38.4258C57.9125 38.4258 58.25 38.0883 58.25 37.6758C58.25 37.2633 57.9125 36.9258 57.5 36.9258H55.4375C54.7138 36.9258 54.125 37.5145 54.125 38.2383V40.3008Z" fill="url(#paint10_linear_2484_45985)"/>
<path d="M50.3168 33.1775C49.3277 34.1666 49.2035 35.3528 49.2621 36.1263C49.2621 36.1263 49.2323 34.6443 50.4838 33.3929C51.7352 32.1414 53.1556 32.0569 53.1556 32.0569C52.3646 32.013 51.3058 32.1885 50.3168 33.1775Z" fill="#A72D36"/>
<g filter="url(#filter0_f_2484_45985)">
<path d="M57.0002 38.8213C57.1775 38.8022 56.9797 38.5312 57.2053 38.1035C56.9328 38.2939 56.823 38.8403 57.0002 38.8213Z" fill="#E75372"/>
</g>
<g filter="url(#filter1_f_2484_45985)">
<path d="M57.396 39.3145C57.4947 39.4834 57.4693 39.8652 57.1119 40.0234C56.6478 40.1852 57.108 39.6182 57.396 39.3145Z" fill="url(#paint11_radial_2484_45985)"/>
</g>
<g filter="url(#filter2_f_2484_45985)">
<path d="M58.0693 37.2891C58.1904 37.4671 58.2978 37.8765 57.7822 38.1115C57.4728 38.2524 57.7607 37.6629 58.0693 37.2891Z" fill="url(#paint12_radial_2484_45985)"/>
</g>
</g>
<defs>
<filter id="filter0_f_2484_45985" x="56.7641" y="37.9535" width="0.591016" height="1.01875" filterUnits="userSpaceOnUse" color-interpolation-filters="sRGB">
<feFlood flood-opacity="0" result="BackgroundImageFix"/>
<feBlend mode="normal" in="SourceGraphic" in2="BackgroundImageFix" result="shape"/>
<feGaussianBlur stdDeviation="0.075" result="effect1_foregroundBlur_2484_45985"/>
</filter>
<filter id="filter1_f_2484_45985" x="56.8203" y="39.2207" width="0.719727" height="0.925781" filterUnits="userSpaceOnUse" color-interpolation-filters="sRGB">
<feFlood flood-opacity="0" result="BackgroundImageFix"/>
<feBlend mode="normal" in="SourceGraphic" in2="BackgroundImageFix" result="shape"/>
<feGaussianBlur stdDeviation="0.046875" result="effect1_foregroundBlur_2484_45985"/>
</filter>
<filter id="filter2_f_2484_45985" x="57.4994" y="37.1391" width="0.820508" height="1.14375" filterUnits="userSpaceOnUse" color-interpolation-filters="sRGB">
<feFlood flood-opacity="0" result="BackgroundImageFix"/>
<feBlend mode="normal" in="SourceGraphic" in2="BackgroundImageFix" result="shape"/>
<feGaussianBlur stdDeviation="0.075" result="effect1_foregroundBlur_2484_45985"/>
</filter>
<linearGradient id="paint0_linear_2484_45985" x1="37" y1="14.8008" x2="46.7828" y2="47.9103" gradientUnits="userSpaceOnUse">
<stop stop-color="#EF3F19"/>
<stop offset="1" stop-color="#EC721A"/>
</linearGradient>
<linearGradient id="paint1_linear_2484_45985" x1="37" y1="14.8008" x2="46.7828" y2="47.9103" gradientUnits="userSpaceOnUse">
<stop stop-color="#EF3F19"/>
<stop offset="1" stop-color="#EC721A"/>
</linearGradient>
<linearGradient id="paint2_linear_2484_45985" x1="47.7559" y1="32.6677" x2="51.875" y2="32.6677" gradientUnits="userSpaceOnUse">
<stop stop-color="#AA1C3D"/>
<stop offset="1" stop-color="#C31D45"/>
</linearGradient>
<radialGradient id="paint3_radial_2484_45985" cx="0" cy="0" r="1" gradientUnits="userSpaceOnUse" gradientTransform="translate(50 33.9956) rotate(123.69) scale(1.94362 1.86343)">
<stop stop-color="#951731"/>
<stop offset="1" stop-color="#9D1934" stop-opacity="0"/>
</radialGradient>
<radialGradient id="paint4_radial_2484_45985" cx="0" cy="0" r="1" gradientUnits="userSpaceOnUse" gradientTransform="translate(51.957 31.4527) rotate(90) scale(1.89844 0.521549)">
<stop stop-color="#EC516B"/>
<stop offset="1" stop-color="#EB506C" stop-opacity="0"/>
</radialGradient>
<radialGradient id="paint5_radial_2484_45985" cx="0" cy="0" r="1" gradientUnits="userSpaceOnUse" gradientTransform="translate(55.1797 34.2305) rotate(161.633) scale(6.24797)">
<stop stop-color="#FFD95A"/>
<stop offset="0.423359" stop-color="#EEB53D"/>
<stop offset="0.787547" stop-color="#CA8631"/>
<stop offset="1" stop-color="#B28341"/>
</radialGradient>
<radialGradient id="paint6_radial_2484_45985" cx="0" cy="0" r="1" gradientUnits="userSpaceOnUse" gradientTransform="translate(52.8594 39.8086) rotate(104.903) scale(3.00741 5.14519)">
<stop stop-color="#CD7677"/>
<stop offset="1" stop-color="#CE7A85" stop-opacity="0"/>
</radialGradient>
<radialGradient id="paint7_radial_2484_45985" cx="0" cy="0" r="1" gradientUnits="userSpaceOnUse" gradientTransform="translate(54.5234 38.0742) rotate(151.844) scale(1.88741 1.42592)">
<stop stop-color="#CF771E"/>
<stop offset="1" stop-color="#C96D2E" stop-opacity="0"/>
</radialGradient>
<linearGradient id="paint8_linear_2484_45985" x1="56.0238" y1="33.48" x2="50.6332" y2="38.7534" gradientUnits="userSpaceOnUse">
<stop stop-color="#F54353"/>
<stop offset="0.485245" stop-color="#C01C47"/>
<stop offset="1" stop-color="#C2355A"/>
</linearGradient>
<radialGradient id="paint9_radial_2484_45985" cx="0" cy="0" r="1" gradientUnits="userSpaceOnUse" gradientTransform="translate(55.1092 34.5107) rotate(73.1132) scale(2.74329 2.75333)">
<stop offset="0.341752" stop-color="#F25271"/>
<stop offset="1" stop-color="#F15372" stop-opacity="0"/>
</radialGradient>
<linearGradient id="paint10_linear_2484_45985" x1="54.6172" y1="37.418" x2="57.3125" y2="40.207" gradientUnits="userSpaceOnUse">
<stop stop-color="#BF242E"/>
<stop offset="1" stop-color="#CF1E51"/>
</linearGradient>
<radialGradient id="paint11_radial_2484_45985" cx="0" cy="0" r="1" gradientUnits="userSpaceOnUse" gradientTransform="translate(57.4458 39.6074) rotate(118.896) scale(0.683174 0.397953)">
<stop stop-color="#ED5372"/>
<stop offset="1" stop-color="#ED5372" stop-opacity="0"/>
</radialGradient>
<radialGradient id="paint12_radial_2484_45985" cx="0" cy="0" r="1" gradientUnits="userSpaceOnUse" gradientTransform="translate(58.1695 37.752) rotate(120.115) scale(0.643497 0.350144)">
<stop stop-color="#ED5372"/>
<stop offset="1" stop-color="#ED5372" stop-opacity="0"/>
</radialGradient>
<clipPath id="clip0_2484_45985">
<rect width="12" height="12" fill="white" transform="translate(47 29.8008)"/>
</clipPath>
</defs>
</svg>
