<svg width="74" height="64" viewBox="0 0 74 64" fill="none" xmlns="http://www.w3.org/2000/svg">
<mask id="path-2-inside-1_2484_45930" fill="white">
<path d="M55 32C55 41.9411 46.9411 50 37 50C27.0589 50 19 41.9411 19 32C19 22.0589 27.0589 14 37 14C46.9411 14 55 22.0589 55 32ZM20.98 32C20.98 40.8476 28.1524 48.02 37 48.02C45.8476 48.02 53.02 40.8476 53.02 32C53.02 23.1524 45.8476 15.98 37 15.98C28.1524 15.98 20.98 23.1524 20.98 32Z"/>
</mask>
<path d="M55 32C55 41.9411 46.9411 50 37 50C27.0589 50 19 41.9411 19 32C19 22.0589 27.0589 14 37 14C46.9411 14 55 22.0589 55 32ZM20.98 32C20.98 40.8476 28.1524 48.02 37 48.02C45.8476 48.02 53.02 40.8476 53.02 32C53.02 23.1524 45.8476 15.98 37 15.98C28.1524 15.98 20.98 23.1524 20.98 32Z" stroke="url(#paint0_linear_2484_45930)" stroke-opacity="0.23" stroke-width="4" mask="url(#path-2-inside-1_2484_45930)"/>
<mask id="path-3-inside-2_2484_45930" fill="white">
<path d="M37 14.99C37 14.4432 37.4436 13.9972 37.9895 14.0272C40.6784 14.1752 43.3043 14.9251 45.6716 16.2265C48.3284 17.6871 50.5733 19.7952 52.1979 22.3551C53.8225 24.915 54.7741 27.8438 54.9645 30.8698C55.1341 33.5658 54.6945 36.2611 53.6836 38.7571C53.4783 39.2638 52.8858 39.4753 52.3911 39.2425C51.8964 39.0097 51.6871 38.4209 51.8889 37.9127C52.7598 35.7197 53.1371 33.3572 52.9884 30.9941C52.819 28.301 51.972 25.6944 50.5261 23.4161C49.0803 21.1377 47.0823 19.2615 44.7177 17.9616C42.6428 16.8209 40.3445 16.1563 37.9894 16.0106C37.4437 15.9768 37 15.5368 37 14.99Z"/>
</mask>
<path d="M37 14.99C37 14.4432 37.4436 13.9972 37.9895 14.0272C40.6784 14.1752 43.3043 14.9251 45.6716 16.2265C48.3284 17.6871 50.5733 19.7952 52.1979 22.3551C53.8225 24.915 54.7741 27.8438 54.9645 30.8698C55.1341 33.5658 54.6945 36.2611 53.6836 38.7571C53.4783 39.2638 52.8858 39.4753 52.3911 39.2425C51.8964 39.0097 51.6871 38.4209 51.8889 37.9127C52.7598 35.7197 53.1371 33.3572 52.9884 30.9941C52.819 28.301 51.972 25.6944 50.5261 23.4161C49.0803 21.1377 47.0823 19.2615 44.7177 17.9616C42.6428 16.8209 40.3445 16.1563 37.9894 16.0106C37.4437 15.9768 37 15.5368 37 14.99Z" stroke="url(#paint1_linear_2484_45930)" stroke-width="4" mask="url(#path-3-inside-2_2484_45930)"/>
<path d="M34.7248 31.204C35.4342 31.372 36.0082 31.7033 36.4468 32.198C36.8948 32.6833 37.1188 33.2947 37.1188 34.032C37.1188 35.012 36.7875 35.782 36.1248 36.342C35.4622 36.902 34.6502 37.182 33.6888 37.182C32.9422 37.182 32.2702 37.0093 31.6728 36.664C31.0848 36.3187 30.6602 35.8147 30.3988 35.152L31.7708 34.354C32.0602 35.194 32.6995 35.614 33.6888 35.614C34.2488 35.614 34.6922 35.474 35.0188 35.194C35.3455 34.9047 35.5088 34.5173 35.5088 34.032C35.5088 33.5467 35.3455 33.164 35.0188 32.884C34.6922 32.604 34.2488 32.464 33.6888 32.464H33.3248L32.6808 31.498L34.7948 28.712H30.6928V27.2H36.7128V28.572L34.7248 31.204ZM37.975 37V35.74L41.391 32.254C42.2217 31.4233 42.637 30.7047 42.637 30.098C42.637 29.622 42.4923 29.2533 42.203 28.992C41.923 28.7213 41.5637 28.586 41.125 28.586C40.3037 28.586 39.697 28.992 39.305 29.804L37.947 29.006C38.255 28.3527 38.689 27.858 39.249 27.522C39.809 27.186 40.4297 27.018 41.111 27.018C41.9697 27.018 42.707 27.2887 43.323 27.83C43.939 28.3713 44.247 29.1087 44.247 30.042C44.247 31.0407 43.6917 32.1047 42.581 33.234L40.369 35.446H44.429V37H37.975Z" fill="#5C2448"/>
<g clip-path="url(#clip0_2484_45930)">
<path d="M50.875 34.4995C50.875 34.087 50.5801 33.78 50.1484 33.7261C49.7031 33.6704 49.416 33.937 49.1934 34.3413C49.0761 34.5543 48.8857 34.6284 48.6748 34.5581C48.2773 34.4256 47.9046 34.2153 47.5293 34.6431C47.2568 34.9536 47.2975 35.3112 47.5293 35.6538C47.6641 35.853 47.6747 36.1889 47.4473 36.3189C47.1191 36.5064 46.7559 36.712 46.7559 37.1245C46.7559 37.7222 47.2105 38.0152 47.623 38.0152L50.875 37.8745V34.4995Z" fill="url(#paint2_linear_2484_45930)"/>
<path d="M50.875 34.4995C50.875 34.087 50.5801 33.78 50.1484 33.7261C49.7031 33.6704 49.416 33.937 49.1934 34.3413C49.0761 34.5543 48.8857 34.6284 48.6748 34.5581C48.2773 34.4256 47.9046 34.2153 47.5293 34.6431C47.2568 34.9536 47.2975 35.3112 47.5293 35.6538C47.6641 35.853 47.6747 36.1889 47.4473 36.3189C47.1191 36.5064 46.7559 36.712 46.7559 37.1245C46.7559 37.7222 47.2105 38.0152 47.623 38.0152L50.875 37.8745V34.4995Z" fill="url(#paint3_radial_2484_45930)"/>
<path d="M50.875 34.4995C50.875 34.087 50.5801 33.78 50.1484 33.7261C49.7031 33.6704 49.416 33.937 49.1934 34.3413C49.0761 34.5543 48.8857 34.6284 48.6748 34.5581C48.2773 34.4256 47.9046 34.2153 47.5293 34.6431C47.2568 34.9536 47.2975 35.3112 47.5293 35.6538C47.6641 35.853 47.6747 36.1889 47.4473 36.3189C47.1191 36.5064 46.7559 36.712 46.7559 37.1245C46.7559 37.7222 47.2105 38.0152 47.623 38.0152L50.875 37.8745V34.4995Z" fill="url(#paint4_radial_2484_45930)"/>
<path d="M52 42.75C54.0711 42.75 55.75 41.0711 55.75 39C55.75 36.9289 54.0711 35.25 52 35.25C49.9289 35.25 48.25 36.9289 48.25 39C48.25 41.0711 49.9289 42.75 52 42.75Z" fill="url(#paint5_radial_2484_45930)"/>
<path d="M52 42.75C54.0711 42.75 55.75 41.0711 55.75 39C55.75 36.9289 54.0711 35.25 52 35.25C49.9289 35.25 48.25 36.9289 48.25 39C48.25 41.0711 49.9289 42.75 52 42.75Z" fill="url(#paint6_radial_2484_45930)"/>
<path d="M52 42.75C54.0711 42.75 55.75 41.0711 55.75 39C55.75 36.9289 54.0711 35.25 52 35.25C49.9289 35.25 48.25 36.9289 48.25 39C48.25 41.0711 49.9289 42.75 52 42.75Z" fill="url(#paint7_radial_2484_45930)"/>
<path d="M50.9633 37.8804C52.1882 36.627 54.6312 36.0874 55.6097 37.9756C55.5204 37.6782 55.2875 36.9517 54.6312 36.3276C53.3187 35.2436 51.191 35.9812 49.973 37.3472C49.174 38.2432 48.0892 40.3882 49.6068 41.8867C49.9232 42.1328 50.4418 42.5562 51.3148 42.6851C48.6195 41.5073 49.8803 38.9885 50.9633 37.8804Z" fill="url(#paint8_linear_2484_45930)"/>
<path d="M53.1659 42.0635C51.701 41.999 51.7262 40.5861 52.4803 39.7402C53.7394 38.3281 55.1083 39.0049 55.0819 40.1504H55.4427C55.913 38.5028 54.7716 37.8711 53.8514 37.8711C52.5093 37.8711 51.3085 39.04 50.9598 40.2969C50.6639 41.4893 51.3348 42.8896 53.1659 42.4209V42.0635Z" fill="#C62561"/>
<path d="M53.1659 42.0635C51.701 41.999 51.7262 40.5861 52.4803 39.7402C53.7394 38.3281 55.1083 39.0049 55.0819 40.1504H55.4427C55.913 38.5028 54.7716 37.8711 53.8514 37.8711C52.5093 37.8711 51.3085 39.04 50.9598 40.2969C50.6639 41.4893 51.3348 42.8896 53.1659 42.4209V42.0635Z" fill="url(#paint9_radial_2484_45930)"/>
<path d="M53.125 43.5C53.125 43.9125 53.4625 44.25 53.875 44.25C54.2875 44.25 54.625 43.9125 54.625 43.5C54.625 43.2 54.9888 43.05 55.2025 43.26L55.2213 43.2787C55.5138 43.5712 55.99 43.5712 56.2825 43.2787C56.575 42.9862 56.575 42.51 56.2825 42.2175L56.2638 42.1988C56.05 41.9888 56.2 41.625 56.5 41.625C56.9125 41.625 57.25 41.2875 57.25 40.875C57.25 40.4625 56.9125 40.125 56.5 40.125H54.4375C53.7138 40.125 53.125 40.7138 53.125 41.4375V43.5Z" fill="url(#paint10_linear_2484_45930)"/>
<path d="M49.3168 36.3767C48.3277 37.3658 48.2035 38.552 48.2621 39.3255C48.2621 39.3255 48.2323 37.8435 49.4838 36.5921C50.7352 35.3406 52.1556 35.2561 52.1556 35.2561C51.3646 35.2122 50.3058 35.3877 49.3168 36.3767Z" fill="#A72D36"/>
<g filter="url(#filter0_f_2484_45930)">
<path d="M56.0002 42.0205C56.1775 42.0015 55.9797 41.7305 56.2053 41.3027C55.9328 41.4932 55.823 42.0396 56.0002 42.0205Z" fill="#E75372"/>
</g>
<g filter="url(#filter1_f_2484_45930)">
<path d="M56.396 42.5137C56.4947 42.6826 56.4693 43.0645 56.1119 43.2227C55.6478 43.3844 56.108 42.8174 56.396 42.5137Z" fill="url(#paint11_radial_2484_45930)"/>
</g>
<g filter="url(#filter2_f_2484_45930)">
<path d="M57.0693 40.4883C57.1904 40.6663 57.2978 41.0757 56.7822 41.3107C56.4728 41.4516 56.7607 40.8621 57.0693 40.4883Z" fill="url(#paint12_radial_2484_45930)"/>
</g>
</g>
<defs>
<filter id="filter0_f_2484_45930" x="55.7641" y="41.1527" width="0.591016" height="1.01875" filterUnits="userSpaceOnUse" color-interpolation-filters="sRGB">
<feFlood flood-opacity="0" result="BackgroundImageFix"/>
<feBlend mode="normal" in="SourceGraphic" in2="BackgroundImageFix" result="shape"/>
<feGaussianBlur stdDeviation="0.075" result="effect1_foregroundBlur_2484_45930"/>
</filter>
<filter id="filter1_f_2484_45930" x="55.8203" y="42.4199" width="0.719727" height="0.925781" filterUnits="userSpaceOnUse" color-interpolation-filters="sRGB">
<feFlood flood-opacity="0" result="BackgroundImageFix"/>
<feBlend mode="normal" in="SourceGraphic" in2="BackgroundImageFix" result="shape"/>
<feGaussianBlur stdDeviation="0.046875" result="effect1_foregroundBlur_2484_45930"/>
</filter>
<filter id="filter2_f_2484_45930" x="56.4994" y="40.3383" width="0.820508" height="1.14375" filterUnits="userSpaceOnUse" color-interpolation-filters="sRGB">
<feFlood flood-opacity="0" result="BackgroundImageFix"/>
<feBlend mode="normal" in="SourceGraphic" in2="BackgroundImageFix" result="shape"/>
<feGaussianBlur stdDeviation="0.075" result="effect1_foregroundBlur_2484_45930"/>
</filter>
<linearGradient id="paint0_linear_2484_45930" x1="37" y1="14" x2="46.7828" y2="47.1095" gradientUnits="userSpaceOnUse">
<stop stop-color="#EF3F19"/>
<stop offset="1" stop-color="#EC721A"/>
</linearGradient>
<linearGradient id="paint1_linear_2484_45930" x1="37" y1="14" x2="46.7828" y2="47.1095" gradientUnits="userSpaceOnUse">
<stop stop-color="#EF3F19"/>
<stop offset="1" stop-color="#EC721A"/>
</linearGradient>
<linearGradient id="paint2_linear_2484_45930" x1="46.7559" y1="35.867" x2="50.875" y2="35.867" gradientUnits="userSpaceOnUse">
<stop stop-color="#AA1C3D"/>
<stop offset="1" stop-color="#C31D45"/>
</linearGradient>
<radialGradient id="paint3_radial_2484_45930" cx="0" cy="0" r="1" gradientUnits="userSpaceOnUse" gradientTransform="translate(49 37.1948) rotate(123.69) scale(1.94362 1.86343)">
<stop stop-color="#951731"/>
<stop offset="1" stop-color="#9D1934" stop-opacity="0"/>
</radialGradient>
<radialGradient id="paint4_radial_2484_45930" cx="0" cy="0" r="1" gradientUnits="userSpaceOnUse" gradientTransform="translate(50.957 34.6519) rotate(90) scale(1.89844 0.521549)">
<stop stop-color="#EC516B"/>
<stop offset="1" stop-color="#EB506C" stop-opacity="0"/>
</radialGradient>
<radialGradient id="paint5_radial_2484_45930" cx="0" cy="0" r="1" gradientUnits="userSpaceOnUse" gradientTransform="translate(54.1797 37.4297) rotate(161.633) scale(6.24797)">
<stop stop-color="#FFD95A"/>
<stop offset="0.423359" stop-color="#EEB53D"/>
<stop offset="0.787547" stop-color="#CA8631"/>
<stop offset="1" stop-color="#B28341"/>
</radialGradient>
<radialGradient id="paint6_radial_2484_45930" cx="0" cy="0" r="1" gradientUnits="userSpaceOnUse" gradientTransform="translate(51.8594 43.0078) rotate(104.903) scale(3.00741 5.14519)">
<stop stop-color="#CD7677"/>
<stop offset="1" stop-color="#CE7A85" stop-opacity="0"/>
</radialGradient>
<radialGradient id="paint7_radial_2484_45930" cx="0" cy="0" r="1" gradientUnits="userSpaceOnUse" gradientTransform="translate(53.5234 41.2734) rotate(151.844) scale(1.88741 1.42592)">
<stop stop-color="#CF771E"/>
<stop offset="1" stop-color="#C96D2E" stop-opacity="0"/>
</radialGradient>
<linearGradient id="paint8_linear_2484_45930" x1="55.0238" y1="36.6792" x2="49.6332" y2="41.9526" gradientUnits="userSpaceOnUse">
<stop stop-color="#F54353"/>
<stop offset="0.485245" stop-color="#C01C47"/>
<stop offset="1" stop-color="#C2355A"/>
</linearGradient>
<radialGradient id="paint9_radial_2484_45930" cx="0" cy="0" r="1" gradientUnits="userSpaceOnUse" gradientTransform="translate(54.1092 37.71) rotate(73.1132) scale(2.74329 2.75333)">
<stop offset="0.341752" stop-color="#F25271"/>
<stop offset="1" stop-color="#F15372" stop-opacity="0"/>
</radialGradient>
<linearGradient id="paint10_linear_2484_45930" x1="53.6172" y1="40.6172" x2="56.3125" y2="43.4063" gradientUnits="userSpaceOnUse">
<stop stop-color="#BF242E"/>
<stop offset="1" stop-color="#CF1E51"/>
</linearGradient>
<radialGradient id="paint11_radial_2484_45930" cx="0" cy="0" r="1" gradientUnits="userSpaceOnUse" gradientTransform="translate(56.4458 42.8066) rotate(118.896) scale(0.683174 0.397953)">
<stop stop-color="#ED5372"/>
<stop offset="1" stop-color="#ED5372" stop-opacity="0"/>
</radialGradient>
<radialGradient id="paint12_radial_2484_45930" cx="0" cy="0" r="1" gradientUnits="userSpaceOnUse" gradientTransform="translate(57.1695 40.9512) rotate(120.115) scale(0.643497 0.350144)">
<stop stop-color="#ED5372"/>
<stop offset="1" stop-color="#ED5372" stop-opacity="0"/>
</radialGradient>
<clipPath id="clip0_2484_45930">
<rect width="12" height="12" fill="white" transform="translate(46 33)"/>
</clipPath>
</defs>
</svg>
