<svg width="170" height="152" viewBox="0 0 170 152" fill="none" xmlns="http://www.w3.org/2000/svg">
<path d="M84.7057 62.4329H0V86.1953C0 89.9263 2.11833 93.4304 5.69447 95.6149L77.866 149.14C80.9097 150.736 82.8046 151.568 84.7057 151.611V62.4329Z" fill="url(#paint0_linear_1566_30535)"/>
<path fill-rule="evenodd" clip-rule="evenodd" d="M169.437 62.4329H84.709V151.611C86.6919 151.656 88.6816 150.843 91.9887 149.14L163.456 95.8163C167.199 93.6506 169.437 90.0622 169.437 86.2268V62.4329Z" fill="#2BD9BA"/>
<path d="M4.17042 69.78C-1.39014 65.7223 -1.39014 59.1434 4.17042 55.0857L74.6484 3.65583C80.209 -0.401877 89.2244 -0.401878 94.785 3.65583L165.263 55.0857C170.824 59.1434 170.824 65.7222 165.263 69.78L94.785 121.21C89.2244 125.268 80.209 125.268 74.6484 121.21L4.17042 69.78Z" fill="url(#paint1_radial_1566_30535)"/>
<defs>
<linearGradient id="paint0_linear_1566_30535" x1="22.8964" y1="135.214" x2="56.0968" y2="167.248" gradientUnits="userSpaceOnUse">
<stop stop-color="#26C9B9"/>
<stop offset="1" stop-color="#2BD9BA"/>
</linearGradient>
<radialGradient id="paint1_radial_1566_30535" cx="0" cy="0" r="1" gradientUnits="userSpaceOnUse" gradientTransform="translate(84.7167 62.4328) rotate(90) scale(61.8203 84.7167)">
<stop stop-color="#189689"/>
<stop offset="1" stop-color="#1EBDAD"/>
</radialGradient>
</defs>
</svg>
