<svg width="24" height="24" viewBox="0 0 24 24" fill="none" xmlns="http://www.w3.org/2000/svg">
<g filter="url(#filter0_d_1447_115709)">
<path d="M12.0006 1.71484C17.6808 1.71484 22.2863 6.32027 22.2863 12.0006C22.2863 17.6808 17.6808 22.2863 12.0006 22.2863C6.32027 22.2863 1.71484 17.6808 1.71484 12.0006C1.71484 6.32027 6.32027 1.71484 12.0006 1.71484ZM12.0006 6.8577C11.8452 6.85771 11.6951 6.91397 11.578 7.01607C11.461 7.11818 11.3848 7.25923 11.3637 7.41313L11.3577 7.50056V11.3577H7.50056C7.33768 11.3578 7.18089 11.4196 7.06188 11.5308C6.94286 11.642 6.87049 11.7942 6.85939 11.9567C6.84829 12.1192 6.89929 12.2799 7.00207 12.4062C7.10486 12.5326 7.25177 12.6152 7.41313 12.6374L7.50056 12.6434H11.3577V16.5006C11.3578 16.6634 11.4196 16.8202 11.5308 16.9392C11.642 17.0583 11.7942 17.1306 11.9567 17.1417C12.1192 17.1528 12.2799 17.1018 12.4062 16.999C12.5326 16.8963 12.6152 16.7493 12.6374 16.588L12.6434 16.5006V12.6434H16.5006C16.6634 12.6434 16.8202 12.5815 16.9392 12.4703C17.0583 12.3591 17.1306 12.2069 17.1417 12.0444C17.1528 11.8819 17.1018 11.7212 16.999 11.5949C16.8963 11.4685 16.7493 11.3859 16.588 11.3637L16.5006 11.3577H12.6434V7.50056C12.6434 7.33006 12.5757 7.16655 12.4551 7.04599C12.3346 6.92543 12.1711 6.8577 12.0006 6.8577Z" fill="white" fill-opacity="0.8" shape-rendering="crispEdges"/>
</g>
<defs>
<filter id="filter0_d_1447_115709" x="-2.28516" y="-1.28516" width="28.5703" height="28.5723" filterUnits="userSpaceOnUse" color-interpolation-filters="sRGB">
<feFlood flood-opacity="0" result="BackgroundImageFix"/>
<feColorMatrix in="SourceAlpha" type="matrix" values="0 0 0 0 0 0 0 0 0 0 0 0 0 0 0 0 0 0 127 0" result="hardAlpha"/>
<feOffset dy="1"/>
<feGaussianBlur stdDeviation="2"/>
<feComposite in2="hardAlpha" operator="out"/>
<feColorMatrix type="matrix" values="0 0 0 0 0.404167 0 0 0 0 0.404167 0 0 0 0 0.404167 0 0 0 0.15 0"/>
<feBlend mode="normal" in2="BackgroundImageFix" result="effect1_dropShadow_1447_115709"/>
<feBlend mode="normal" in="SourceGraphic" in2="effect1_dropShadow_1447_115709" result="shape"/>
</filter>
</defs>
</svg>
