<svg xmlns="http://www.w3.org/2000/svg" width="26" height="29" fill="none" viewBox="0 0 26 29"><g filter="url(#filter0_d_337_9427)"><path fill="#fff" fill-opacity=".8" d="M17.157 23.9694H8.90096C8.1878 24.0512 7.4667 23.9687 6.78684 23.7266C6.10698 23.4846 5.48506 23.0886 4.96386 22.5673C4.52586 21.9127 4.22677 21.1662 4.0882 20.3778C3.94963 19.5894 3.97466 18.7784 4.16099 18.0011L4.93363 11.5024C5.04867 10.541 5.4674 9.64902 6.1217 8.97062C6.62711 8.48672 7.28645 8.22106 7.96819 8.22695H8.04658C8.03188 8.14686 8.03188 8.06547 8.04658 7.98538C8.11357 6.6397 8.66633 5.37217 9.59074 4.44469C10.5151 3.51722 11.7407 3 13.015 3C14.2892 3 15.5148 3.51722 16.4392 4.44469C17.3636 5.37217 17.9164 6.6397 17.9834 7.98538H17.9576C17.96 8.06587 17.945 8.14514 17.914 8.21866H18.0674C18.7438 8.22095 19.3939 8.49516 19.8859 8.98601C20.5346 9.66407 20.964 10.5423 21.112 11.4941L21.8735 17.9976C22.0382 18.7623 22.0419 19.5554 21.8858 20.3221C21.7297 21.0888 21.4175 21.8106 20.9698 22.4359C20.4743 22.9648 19.876 23.3746 19.2174 23.6378C18.5587 23.901 17.855 24.0113 17.1525 23.9611L17.157 23.9694ZM15.8872 11.7226C15.7088 11.7184 15.5339 11.7695 15.3833 11.8707C15.2327 11.9718 15.1129 12.1185 15.0406 12.291C14.9684 12.4636 14.9464 12.6546 14.9768 12.8405C15.0072 13.0264 15.0891 13.1986 15.212 13.3355C15.3348 13.4723 15.4937 13.5673 15.6677 13.609C15.8417 13.6508 16.0228 13.6373 16.1895 13.57C16.3562 13.5026 16.5005 13.3851 16.6038 13.2313C16.7072 13.0774 16.7654 12.8941 16.7707 12.7055V12.6771C16.7716 12.427 16.6786 12.1867 16.5131 12.008C16.3477 11.8294 16.1225 11.728 15.8861 11.7238L15.8872 11.7226ZM10.1327 11.7226C9.95419 11.7177 9.77764 11.7688 9.62657 11.8695C9.4755 11.9702 9.3567 12.115 9.28392 12.2875C9.21114 12.4599 9.18784 12.652 9.21785 12.8381C9.24787 13.0243 9.32918 13.1971 9.45189 13.3343C9.57459 13.4715 9.73354 13.567 9.90763 13.609C10.0817 13.6511 10.2637 13.6372 10.4306 13.57C10.5974 13.5027 10.7414 13.3852 10.8449 13.2313C10.9484 13.0774 11.0064 12.8943 11.0117 12.7055V12.6771C11.0136 12.4284 10.9235 12.189 10.7598 12.0104C10.5961 11.8318 10.3723 11.7295 10.1372 11.7238L10.1327 11.7226ZM12.9847 4.34167C12.0677 4.34006 11.1872 4.72363 10.5369 5.40743C9.88668 6.09123 9.51935 7.02036 9.51571 7.99012C9.52981 8.07027 9.52981 8.15154 9.51571 8.23169H16.4941C16.467 8.15391 16.4518 8.07297 16.4493 7.99012C16.4469 7.02058 16.0809 6.09175 15.4314 5.40743C14.782 4.72311 13.9027 4.33834 12.9859 4.3393L12.9847 4.34167Z" shape-rendering="crispEdges"/></g><defs><filter id="filter0_d_337_9427" width="26" height="29" x="0" y="0" color-interpolation-filters="sRGB" filterUnits="userSpaceOnUse"><feFlood flood-opacity="0" result="BackgroundImageFix"/><feColorMatrix in="SourceAlpha" result="hardAlpha" type="matrix" values="0 0 0 0 0 0 0 0 0 0 0 0 0 0 0 0 0 0 127 0"/><feOffset dy="1"/><feGaussianBlur stdDeviation="2"/><feComposite in2="hardAlpha" operator="out"/><feColorMatrix type="matrix" values="0 0 0 0 0.404167 0 0 0 0 0.404167 0 0 0 0 0.404167 0 0 0 0.15 0"/><feBlend in2="BackgroundImageFix" mode="normal" result="effect1_dropShadow_337_9427"/><feBlend in="SourceGraphic" in2="effect1_dropShadow_337_9427" mode="normal" result="shape"/></filter></defs></svg>