<svg width="24" height="24" viewBox="0 0 24 24" fill="none" xmlns="http://www.w3.org/2000/svg">
<g filter="url(#filter0_d_1447_53494)">
<path d="M13.4985 6.75V1.5H9.7485C9.15176 1.5 8.57947 1.73705 8.15751 2.15901C7.73555 2.58097 7.4985 3.15326 7.4985 3.75V17.25C7.4985 17.8467 7.73555 18.419 8.15751 18.841C8.57947 19.2629 9.15176 19.5 9.7485 19.5H18.75C19.3467 19.5 19.919 19.2629 20.341 18.841C20.7629 18.419 21 17.8467 21 17.25V9H15.747C15.1503 9 14.578 8.76295 14.156 8.34099C13.7341 7.91903 13.497 7.34674 13.497 6.75H13.4985ZM14.9985 6.75V1.875L20.6235 7.5H15.7485C15.5496 7.5 15.3588 7.42098 15.2182 7.28033C15.0775 7.13968 14.9985 6.94891 14.9985 6.75ZM4.5 6C4.5 5.60218 4.65804 5.22064 4.93934 4.93934C5.22064 4.65804 5.60218 4.5 6 4.5V17.25C6 18.2446 6.39509 19.1984 7.09835 19.9016C7.80161 20.6049 8.75544 21 9.75 21H18C18 21.3978 17.842 21.7794 17.5607 22.0607C17.2794 22.342 16.8978 22.5 16.5 22.5H9.834C8.41934 22.5 7.06261 21.938 6.06229 20.9377C5.06197 19.9374 4.5 18.5807 4.5 17.166V6Z" fill="url(#paint0_linear_1447_53494)"/>
</g>
<defs>
<filter id="filter0_d_1447_53494" x="0.5" y="-1.5" width="24.5" height="29" filterUnits="userSpaceOnUse" color-interpolation-filters="sRGB">
<feFlood flood-opacity="0" result="BackgroundImageFix"/>
<feColorMatrix in="SourceAlpha" type="matrix" values="0 0 0 0 0 0 0 0 0 0 0 0 0 0 0 0 0 0 127 0" result="hardAlpha"/>
<feOffset dy="1"/>
<feGaussianBlur stdDeviation="2"/>
<feComposite in2="hardAlpha" operator="out"/>
<feColorMatrix type="matrix" values="0 0 0 0 0.404167 0 0 0 0 0.404167 0 0 0 0 0.404167 0 0 0 0.15 0"/>
<feBlend mode="normal" in2="BackgroundImageFix" result="effect1_dropShadow_1447_53494"/>
<feBlend mode="normal" in="SourceGraphic" in2="effect1_dropShadow_1447_53494" result="shape"/>
</filter>
<linearGradient id="paint0_linear_1447_53494" x1="5.16892" y1="3.3375" x2="20.0846" y2="4.66874" gradientUnits="userSpaceOnUse">
<stop stop-color="#2BDFB4"/>
<stop offset="1" stop-color="#29ADDF"/>
</linearGradient>
</defs>
</svg>
