<svg xmlns="http://www.w3.org/2000/svg" width="24" height="24" fill="none" viewBox="0 0 24 24"><path stroke="#000" stroke-linecap="round" stroke-linejoin="round" d="M21.2565 10.962C21.7305 11.582 21.7305 12.419 21.2565 13.038C19.7635 14.987 16.1815 19 11.9995 19C7.81752 19 4.23552 14.987 2.74252 13.038C2.51191 12.7411 2.38672 12.3759 2.38672 12C2.38672 11.6241 2.51191 11.2589 2.74252 10.962C4.23552 9.013 7.81752 5 11.9995 5C16.1815 5 19.7635 9.013 21.2565 10.962Z"/><path stroke="#000" stroke-linecap="round" stroke-linejoin="round" d="M11.9995 15C13.6564 15 14.9995 13.6569 14.9995 12C14.9995 10.3431 13.6564 9 11.9995 9C10.3427 9 8.99952 10.3431 8.99952 12C8.99952 13.6569 10.3427 15 11.9995 15Z"/></svg>