<svg xmlns="http://www.w3.org/2000/svg" width="98" height="98" viewBox="0 0 121 121" fill="none">
<path d="M72.4208 108.472C98.7158 101.62 114.478 74.7501 107.627 48.4551C100.776 22.1601 73.9053 6.39784 47.6103 13.2491C21.3153 20.1003 5.55303 46.9706 12.4043 73.2656C19.2555 99.5606 46.1258 115.323 72.4208 108.472Z" fill="url(#paint0_radial_1447_69808)"/>
<g style="mix-blend-mode:soft-light">
<path d="M72.4208 108.472C98.7158 101.62 114.478 74.7501 107.627 48.4551C100.776 22.1601 73.9053 6.39784 47.6103 13.2491C21.3153 20.1003 5.55303 46.9706 12.4043 73.2656C19.2555 99.5606 46.1258 115.323 72.4208 108.472Z" fill="url(#paint1_radial_1447_69808)"/>
</g>
<g style="mix-blend-mode:soft-light">
<path d="M72.4208 108.472C98.7158 101.62 114.478 74.7501 107.627 48.4551C100.776 22.1601 73.9053 6.39784 47.6103 13.2491C21.3153 20.1003 5.55303 46.9706 12.4043 73.2656C19.2555 99.5606 46.1258 115.323 72.4208 108.472Z" fill="url(#paint2_radial_1447_69808)"/>
</g>
<g style="mix-blend-mode:overlay">
<path d="M72.4208 108.472C98.7158 101.62 114.478 74.7501 107.627 48.4551C100.776 22.1601 73.9053 6.39784 47.6103 13.2491C21.3153 20.1003 5.55303 46.9706 12.4043 73.2656C19.2555 99.5606 46.1258 115.323 72.4208 108.472Z" fill="url(#paint3_radial_1447_69808)" fill-opacity="0.7"/>
</g>
<mask id="mask0_1447_69808" style="mask-type:alpha" maskUnits="userSpaceOnUse" x="10" y="11" width="100" height="100">
<path d="M72.4208 108.472C98.7158 101.62 114.478 74.7501 107.627 48.4551C100.776 22.1601 73.9053 6.39784 47.6103 13.2491C21.3153 20.1003 5.55303 46.9706 12.4043 73.2656C19.2555 99.5606 46.1258 115.323 72.4208 108.472Z" fill="white"/>
</mask>
<g mask="url(#mask0_1447_69808)">
<g filter="url(#filter0_f_1447_69808)">
<path d="M11.7794 71.9784C11.6548 71.2884 11.8598 71.1627 12.1037 71.8327C12.3747 72.5771 12.6342 74.1479 12.9091 75.0646C13.637 77.4918 14.5678 79.5246 15.4066 81.1568C18.1097 86.4167 20.7756 89.5653 23.1819 92.1945C31.0918 100.837 38.2181 104.4 44.8767 106.75C54.637 110.194 63.4686 109.798 71.9408 107.994C72.1545 107.949 72.5481 109.316 72.387 109.549C72.0965 109.969 71.5488 109.77 71.1619 109.856C70.0504 110.105 68.9292 110.316 67.798 110.489C64.4438 111 60.9981 111.16 57.4494 110.897C47.8005 110.183 36.8975 107.495 24.7545 95.0889C23.9906 94.3085 23.2183 93.4785 22.4345 92.5745C21.8077 91.8516 21.1745 91.0876 20.5327 90.2613C18.4216 87.5433 13.3191 80.5071 11.7794 71.9784ZM72.3581 109.572C72.1583 109.631 71.773 108.362 71.8957 108.045C72.0812 107.567 72.6026 107.785 72.9037 107.686C74.154 107.276 75.3941 106.827 76.623 106.336C79.9923 104.991 83.2786 103.337 86.4519 101.282C94.3229 96.1853 102.451 89.4233 107.09 73.946C107.385 72.9609 107.662 71.9253 107.915 70.8238C108.683 67.4765 110.495 58.6505 107.516 49.0414C107.265 48.2314 107.387 47.6753 107.682 48.3495C108.057 49.2078 108.486 51.0897 108.705 52.0933C109.409 55.3073 109.621 58.125 109.672 60.432C109.834 67.7431 108.582 72.3328 107.352 76.2133C103.352 88.8262 97.0805 95.1249 90.6943 100.141C84.9664 104.64 78.8054 107.678 72.3581 109.572Z" fill="#401C02"/>
</g>
<g filter="url(#filter1_f_1447_69808)">
<path d="M11.7794 71.9784C11.6548 71.2884 11.8598 71.1627 12.1037 71.8327C12.3747 72.5771 12.6342 74.1479 12.9091 75.0646C13.637 77.4918 14.5678 79.5246 15.4066 81.1568C18.1097 86.4167 20.7756 89.5653 23.1819 92.1945C31.0918 100.837 38.2181 104.4 44.8767 106.75C54.637 110.194 63.4686 109.798 71.9408 107.994C72.1545 107.949 72.5481 109.316 72.387 109.549C72.0965 109.969 71.5488 109.77 71.1619 109.856C70.0504 110.105 68.9292 110.316 67.798 110.489C64.4438 111 60.9981 111.16 57.4494 110.897C47.8005 110.183 36.8975 107.495 24.7545 95.0889C23.9906 94.3085 23.2183 93.4785 22.4345 92.5745C21.8077 91.8516 21.1745 91.0876 20.5327 90.2613C18.4216 87.5433 13.3191 80.5071 11.7794 71.9784ZM72.3581 109.572C72.1583 109.631 71.773 108.362 71.8957 108.045C72.0812 107.567 72.6026 107.785 72.9037 107.686C74.154 107.276 75.3941 106.827 76.623 106.336C79.9923 104.991 83.2786 103.337 86.4519 101.282C94.3229 96.1853 102.451 89.4233 107.09 73.946C107.385 72.9609 107.662 71.9253 107.915 70.8238C108.683 67.4765 110.495 58.6505 107.516 49.0414C107.265 48.2314 107.387 47.6753 107.682 48.3495C108.057 49.2078 108.486 51.0897 108.705 52.0933C109.409 55.3073 109.621 58.125 109.672 60.432C109.834 67.7431 108.582 72.3328 107.352 76.2133C103.352 88.8262 97.0805 95.1249 90.6943 100.141C84.9664 104.64 78.8054 107.678 72.3581 109.572Z" fill="#401C02"/>
</g>
</g>
<g filter="url(#filter2_f_1447_69808)">
<path d="M77.2793 33.7138C86.1978 20.8122 111.968 40.1094 77.0865 61.5934C42.5052 39.6292 68.54 20.6902 77.2793 33.7138Z" fill="#FF3D00"/>
<path d="M31.6985 45.5929C32.9714 29.9606 64.9379 33.7873 45.4714 69.8338C4.56046 68.0918 17.6183 38.6838 31.6985 45.5929Z" fill="#FF3D00"/>
</g>
<g filter="url(#filter3_f_1447_69808)">
<path d="M77.2793 33.7138C86.1978 20.8122 111.968 40.1094 77.0865 61.5934C42.5052 39.6292 68.54 20.6902 77.2793 33.7138Z" fill="#FF8A00"/>
<path d="M31.6985 45.5929C32.9714 29.9606 64.9379 33.7873 45.4714 69.8338C4.56046 68.0918 17.6183 38.6838 31.6985 45.5929Z" fill="#FF8A00"/>
</g>
<path d="M31.1839 43.6183C32.4568 27.986 64.4233 31.8126 44.9567 67.8592C4.04582 66.1172 17.1036 36.7092 31.1839 43.6183Z" fill="url(#paint4_linear_1447_69808)"/>
<mask id="mask1_1447_69808" style="mask-type:alpha" maskUnits="userSpaceOnUse" x="17" y="34" width="35" height="34">
<path d="M31.1829 43.6183C32.4558 27.986 64.4223 31.8126 44.9558 67.8592C4.04484 66.1172 17.1026 36.7092 31.1829 43.6183Z" fill="url(#paint5_linear_1447_69808)"/>
</mask>
<g mask="url(#mask1_1447_69808)">
<g filter="url(#filter4_f_1447_69808)">
<path d="M22.1716 58.7641C20.8012 57.3981 19.9981 55.348 19.9839 53.1855C19.9698 51.0231 20.736 48.779 22.1784 46.9518C22.9051 46.048 23.7877 45.2365 24.8203 44.5981C25.8529 43.9597 27.0049 43.4861 28.2288 43.2299C29.4528 42.9738 30.7291 42.9463 31.9659 43.1221C33.2027 43.2979 34.3609 43.6992 35.4241 44.2062L30.5799 46.9586C30.6141 46.6549 30.6593 46.3708 30.6935 46.0671C30.7277 45.7635 30.7925 45.4683 30.8573 45.1731C30.9222 44.8778 31.0176 44.5911 31.102 44.2847C31.1863 43.9784 31.3124 43.7001 31.4078 43.4133C31.89 42.2608 32.567 41.1785 33.4136 40.2583C34.2602 39.338 35.2764 38.5798 36.3534 38.0195C37.4303 37.4593 38.5793 37.1166 39.7277 36.955C42.0358 36.6514 44.3558 37.1419 46.2061 38.2611C48.0564 39.3803 49.4064 41.1197 49.8783 42.9962C49.0379 42.5176 48.2419 42.1172 47.4428 41.8477C46.6438 41.5782 45.8611 41.4286 45.0838 41.3793C43.5793 41.2781 42.1658 41.5644 41.008 42.1189C39.8502 42.6733 38.9259 43.4569 38.3302 44.3638C37.7344 45.2708 37.4059 46.2843 37.2997 47.5073L36.8531 52.3604L32.4555 50.2597C31.3616 49.7443 30.3117 49.4881 29.2276 49.5356C28.1435 49.5831 27.0057 49.9453 25.9283 50.6867C24.8704 51.417 23.8897 52.4651 23.2176 53.8288C22.8815 54.5107 22.6094 55.2596 22.4122 56.0951C22.2542 56.9084 22.1601 57.7887 22.1716 58.7641Z" fill="#FF3E3E"/>
</g>
<g filter="url(#filter5_f_1447_69808)">
<path d="M40.4808 67.3789C39.9068 67.3691 39.3524 67.3483 38.7979 67.3274C38.5053 67.3127 38.2434 67.3065 37.9508 67.2919C37.6778 67.2661 37.4048 67.2404 37.1012 67.2062L35.4213 67.0237C34.8531 66.9331 34.3044 66.8315 33.7557 66.7298C31.5497 66.3036 29.3332 65.6767 27.2427 64.7715C25.1522 63.8663 23.1656 62.6437 21.5115 61.0513L20.9055 60.4395C20.7138 60.2384 20.5304 60.0067 20.3471 59.775L20.0776 59.4371C19.9915 59.331 19.9138 59.1943 19.8277 59.0882L19.3473 58.3792C18.7813 57.383 18.3325 56.3202 18.0928 55.2161C18.5501 56.2483 19.1329 57.1832 19.7829 58.0543L20.3191 58.6798C20.4053 58.7859 20.4914 58.892 20.597 58.987L20.8945 59.2831C21.1058 59.4731 21.2669 59.6658 21.4782 59.8558L22.09 60.3867C23.764 61.7869 25.6729 62.8728 27.6911 63.7416C29.6897 64.6215 31.7975 65.2843 33.9417 65.8748C34.4819 66.0071 35.0027 66.1505 35.5541 66.3023L37.1833 66.6686C37.4479 66.725 37.7236 66.8009 37.9881 66.8573C38.2527 66.9136 38.5369 66.9589 38.8014 67.0153C39.3808 67.1254 39.9406 67.2466 40.4808 67.3789Z" fill="#FFA216"/>
</g>
<g filter="url(#filter6_f_1447_69808)">
<path d="M18.768 55.9952C17.7914 54.2762 17.3479 52.1768 17.6094 50.0904C17.8513 48.015 18.8009 46.0026 20.226 44.4178C21.6706 42.8218 23.6519 41.6703 25.8458 41.3023C26.9219 41.1043 28.0588 41.1043 29.1452 41.2881C30.2315 41.4719 31.2756 41.8089 32.2665 42.2794L30.6452 43.2006C30.7287 42.1196 30.9737 41.0502 31.372 40.0229C31.7702 38.9956 32.3633 38.0385 33.0731 37.1959C34.5235 35.5192 36.5159 34.3872 38.6264 33.9633C40.7369 33.5393 42.9321 33.7649 44.8583 34.6084C46.7846 35.4519 48.361 36.9075 49.3376 38.6265C49.1569 38.4449 48.9874 38.2829 48.8067 38.1013C48.6371 37.9393 48.4369 37.7688 48.2478 37.6178C47.8695 37.316 47.4718 37.0252 47.0656 36.765C46.2447 36.2754 45.3791 35.8887 44.4797 35.6245C42.6724 35.1269 40.7719 35.1473 39.0485 35.6613C37.3252 36.1754 35.7789 37.1831 34.7139 38.5375C33.6294 39.9031 33.0149 41.5958 32.8769 43.3538L32.753 45.0003L31.2751 44.2638C29.6748 43.4936 27.9145 43.1242 26.1863 43.3568C24.4581 43.5894 22.8204 44.3907 21.477 45.6191C20.1532 46.8363 19.1627 48.4585 18.6651 50.2657C18.4204 51.154 18.301 52.1262 18.321 53.0709C18.3365 53.5531 18.3716 54.0241 18.4484 54.5231C18.4812 54.7628 18.5141 55.0025 18.5776 55.2507C18.641 55.4988 18.7045 55.747 18.768 55.9952Z" fill="#700000"/>
</g>
<g filter="url(#filter7_f_1447_69808)">
<path d="M18.768 55.9952C17.7914 54.2762 17.3479 52.1768 17.6094 50.0904C17.8513 48.015 18.8009 46.0026 20.226 44.4178C21.6706 42.8218 23.6519 41.6703 25.8458 41.3023C26.9219 41.1043 28.0588 41.1043 29.1452 41.2881C30.2315 41.4719 31.2756 41.8089 32.2665 42.2794L30.6452 43.2006C30.7287 42.1196 30.9737 41.0502 31.372 40.0229C31.7702 38.9956 32.3633 38.0385 33.0731 37.1959C34.5235 35.5192 36.5159 34.3872 38.6264 33.9633C40.7369 33.5393 42.9321 33.7649 44.8583 34.6084C46.7846 35.4519 48.361 36.9075 49.3376 38.6265C49.1569 38.4449 48.9874 38.2829 48.8067 38.1013C48.6371 37.9393 48.4369 37.7688 48.2478 37.6178C47.8695 37.316 47.4718 37.0252 47.0656 36.765C46.2447 36.2754 45.3791 35.8887 44.4797 35.6245C42.6724 35.1269 40.7719 35.1473 39.0485 35.6613C37.3252 36.1754 35.7789 37.1831 34.7139 38.5375C33.6294 39.9031 33.0149 41.5958 32.8769 43.3538L32.753 45.0003L31.2751 44.2638C29.6748 43.4936 27.9145 43.1242 26.1863 43.3568C24.4581 43.5894 22.8204 44.3907 21.477 45.6191C20.1532 46.8363 19.1627 48.4585 18.6651 50.2657C18.4204 51.154 18.301 52.1262 18.321 53.0709C18.3365 53.5531 18.3716 54.0241 18.4484 54.5231C18.4812 54.7628 18.5141 55.0025 18.5776 55.2507C18.641 55.4988 18.7045 55.747 18.768 55.9952Z" fill="#700000"/>
</g>
<g filter="url(#filter8_f_1447_69808)">
<path d="M21.5857 59.0971C20.2152 57.7311 19.4122 55.681 19.398 53.5186C19.3838 51.3561 20.1501 49.1121 21.5924 47.2848C22.3192 46.381 23.2017 45.5695 24.2343 44.9311C25.2669 44.2927 26.419 43.8191 27.6429 43.5629C28.8668 43.3068 30.1431 43.2793 31.3799 43.4551C32.6167 43.6309 33.775 44.0322 34.8382 44.5392L29.9939 47.2916C30.0281 46.9879 30.0734 46.7038 30.1076 46.4002C30.1418 46.0965 30.2066 45.8013 30.2714 45.5061C30.3362 45.2108 30.4317 44.9241 30.516 44.6178C30.6004 44.3114 30.7265 44.0331 30.8219 43.7463C31.304 42.5939 31.9811 41.5115 32.8276 40.5913C33.6742 39.671 34.6904 38.9128 35.7674 38.3525C36.8444 37.7923 37.9933 37.4496 39.1418 37.288C41.4498 36.9844 43.7698 37.475 45.6201 38.5941C47.4704 39.7133 48.8204 41.4527 49.2923 43.3292C48.452 42.8506 47.656 42.4502 46.8569 42.1807C46.0578 41.9112 45.2752 41.7616 44.4978 41.7123C42.9933 41.6111 41.5798 41.8974 40.422 42.4519C39.2643 43.0064 38.34 43.7899 37.7442 44.6968C37.1484 45.6038 36.8199 46.6173 36.7138 47.8404L36.2671 52.6935L31.8891 50.5816C30.7952 50.0662 29.7453 49.81 28.6612 49.8575C27.5771 49.905 26.4393 50.2672 25.3619 51.0086C24.304 51.7389 23.3233 52.787 22.6512 54.1508C22.3151 54.8326 22.043 55.5816 21.8458 56.417C21.6683 57.2414 21.5741 58.1218 21.5857 59.0971Z" fill="#FF9797"/>
</g>
<g filter="url(#filter9_f_1447_69808)">
<path d="M46.9265 63.7158C47.0894 63.184 47.2719 62.6411 47.4654 62.1177C47.5524 61.8615 47.659 61.5943 47.746 61.3381C47.833 61.082 47.9089 60.8063 47.9959 60.5501L48.5154 58.9631C48.6477 58.4228 48.8106 57.891 48.9735 57.3591C49.564 55.2149 50.0541 53.0761 50.3409 50.8977C50.6082 48.7304 50.6721 46.5236 50.3263 44.3687L50.1834 43.5714C50.1283 43.2926 50.0453 43.0555 49.9903 42.7767L49.8882 42.3697C49.8607 42.2303 49.7941 42.1131 49.7666 41.9737L49.5038 41.1928C49.1078 40.1775 48.5724 39.1897 47.9309 38.2881C48.7762 39.0481 49.4398 39.9888 50.0058 40.985L50.369 41.7606C50.416 41.8889 50.4937 42.0256 50.5408 42.1539L50.693 42.5583C50.7983 42.8345 50.8924 43.0911 50.978 43.3783L51.1933 44.212C51.7145 46.4481 51.7478 48.7806 51.4552 51.0397C51.1626 53.2989 50.5859 55.5128 49.8032 57.6371C49.6097 58.1605 49.4161 58.6839 49.203 59.2184L48.4998 60.7548C48.3822 61.0025 48.2756 61.2698 48.1384 61.5286C48.0013 61.7874 47.8836 62.0351 47.7353 62.2744C47.4779 62.7308 47.223 63.2373 46.9265 63.7158Z" fill="#FFA216"/>
</g>
</g>
<g style="mix-blend-mode:soft-light">
<path d="M31.1924 43.6135C32.4654 27.9812 64.4318 31.8078 44.9653 67.8543C4.03485 66.1234 17.1122 36.7043 31.1924 43.6135Z" fill="url(#paint6_linear_1447_69808)"/>
</g>
<g style="mix-blend-mode:soft-light">
<path d="M31.1924 43.6135C17.1122 36.7043 4.03485 66.1234 44.9653 67.8543C64.4318 31.8078 32.4654 27.9812 31.1924 43.6135Z" fill="url(#paint7_linear_1447_69808)"/>
</g>
<mask id="mask2_1447_69808" style="mask-type:alpha" maskUnits="userSpaceOnUse" x="17" y="34" width="35" height="34">
<path d="M31.1829 43.6183C32.4558 27.986 64.4223 31.8126 44.9558 67.8592C4.04484 66.1172 17.1026 36.7092 31.1829 43.6183Z" fill="url(#paint8_linear_1447_69808)"/>
</mask>
<g mask="url(#mask2_1447_69808)">
<g filter="url(#filter10_f_1447_69808)">
<path d="M23.8379 43.0889C24.4292 42.8563 25.0343 42.6933 25.6727 42.589C26.2915 42.4958 26.9437 42.4612 27.59 42.5073C28.2253 42.534 28.8659 42.661 29.4785 42.8297C30.0912 42.9984 30.6869 43.2283 31.2658 43.5196L31.1096 43.6083C31.1668 42.9815 31.2743 42.352 31.4319 41.7198C31.6006 41.1072 31.8194 40.4919 32.1218 39.9326C32.413 39.3537 32.7571 38.8223 33.1735 38.3273C33.5899 37.8323 34.0396 37.3959 34.5421 37.0071C33.5704 37.8434 32.8099 38.8698 32.2665 40.0054C31.9948 40.5732 31.7844 41.1578 31.6157 41.7705C31.4665 42.372 31.3591 43.0015 31.3018 43.6283L31.2902 43.7899L31.1651 43.706C30.5973 43.4343 30.021 43.1933 29.4084 43.0246C28.8153 42.8448 28.1858 42.7373 27.559 42.68C26.3248 42.5544 25.0343 42.6933 23.8379 43.0889Z" fill="#820010"/>
</g>
<g filter="url(#filter11_f_1447_69808)">
<path d="M23.8379 43.0889C24.4292 42.8563 25.0343 42.6933 25.6727 42.589C26.2915 42.4958 26.9437 42.4612 27.59 42.5073C28.2253 42.534 28.8659 42.661 29.4785 42.8297C30.0912 42.9984 30.6869 43.2283 31.2658 43.5196L31.1096 43.6083C31.1668 42.9815 31.2743 42.352 31.4319 41.7198C31.6006 41.1072 31.8194 40.4919 32.1218 39.9326C32.413 39.3537 32.7571 38.8223 33.1735 38.3273C33.5899 37.8323 34.0396 37.3959 34.5421 37.0071C33.5704 37.8434 32.8099 38.8698 32.2665 40.0054C31.9948 40.5732 31.7844 41.1578 31.6157 41.7705C31.4665 42.372 31.3591 43.0015 31.3018 43.6283L31.2902 43.7899L31.1651 43.706C30.5973 43.4343 30.021 43.1933 29.4084 43.0246C28.8153 42.8448 28.1858 42.7373 27.559 42.68C26.3248 42.5544 25.0343 42.6933 23.8379 43.0889Z" fill="#820010"/>
</g>
<g filter="url(#filter12_f_1447_69808)">
<path d="M23.8379 43.0889C24.4292 42.8563 25.0343 42.6933 25.6727 42.589C26.2915 42.4958 26.9437 42.4612 27.59 42.5073C28.2253 42.534 28.8659 42.661 29.4785 42.8297C30.0912 42.9984 30.6869 43.2283 31.2658 43.5196L31.1096 43.6083C31.1668 42.9815 31.2743 42.352 31.4319 41.7198C31.6006 41.1072 31.8194 40.4919 32.1218 39.9326C32.413 39.3537 32.7571 38.8223 33.1735 38.3273C33.5899 37.8323 34.0396 37.3959 34.5421 37.0071C33.5704 37.8434 32.8099 38.8698 32.2665 40.0054C31.9948 40.5732 31.7844 41.1578 31.6157 41.7705C31.4665 42.372 31.3591 43.0015 31.3018 43.6283L31.2902 43.7899L31.1651 43.706C30.5973 43.4343 30.021 43.1933 29.4084 43.0246C28.8153 42.8448 28.1858 42.7373 27.559 42.68C26.3248 42.5544 25.0343 42.6933 23.8379 43.0889Z" fill="#820010"/>
</g>
</g>
<path d="M76.7538 31.7391C85.6724 18.8376 111.443 38.1348 76.5611 59.6187C42.0022 37.6546 68.0145 18.7155 76.7538 31.7391Z" fill="url(#paint9_linear_1447_69808)"/>
<mask id="mask3_1447_69808" style="mask-type:alpha" maskUnits="userSpaceOnUse" x="59" y="27" width="36" height="33">
<path d="M76.7528 31.7391C85.6714 18.8376 111.442 38.1348 76.5601 59.6187C42.0012 37.6546 68.0136 18.7155 76.7528 31.7391Z" fill="url(#paint10_linear_1447_69808)"/>
</mask>
<g mask="url(#mask3_1447_69808)">
<g filter="url(#filter13_f_1447_69808)">
<path d="M61.3773 40.3492C60.8735 38.481 61.2031 36.3041 62.272 34.4243C63.3409 32.5445 65.1266 30.9842 67.2893 30.1229C68.3706 29.7035 69.5407 29.442 70.7541 29.4055C71.9676 29.3689 73.2021 29.5347 74.3901 29.9249C75.5781 30.315 76.6972 30.9294 77.6804 31.7C78.6636 32.4707 79.466 33.3974 80.1333 34.368L74.5618 34.3295C74.7433 34.0836 74.9246 33.8602 75.106 33.6143C75.2874 33.3685 75.4912 33.1452 75.6949 32.922C75.8986 32.6987 76.1247 32.4981 76.3509 32.275C76.5771 32.0519 76.8255 31.8738 77.0515 31.6732C78.0453 30.9162 79.1728 30.3174 80.3661 29.9437C81.5594 29.5701 82.8185 29.4215 84.0313 29.4748C85.2442 29.5281 86.4105 29.8058 87.4859 30.2401C89.6365 31.1312 91.4004 32.716 92.4433 34.6104C93.4861 36.5048 93.7855 38.6861 93.2559 40.5472C92.7674 39.7126 92.2783 38.9678 91.721 38.3349C91.1637 37.7019 90.5608 37.181 89.9122 36.7497C88.6599 35.9098 87.2926 35.451 86.0127 35.3523C84.7328 35.2536 83.5406 35.47 82.5711 35.9575C81.6017 36.4451 80.8104 37.1586 80.107 38.1647L77.2937 42.1443L74.5356 38.1262C73.846 37.1329 73.0648 36.3861 72.1023 35.8852C71.1397 35.3842 69.9732 35.129 68.6694 35.2324C67.3881 35.3358 66.0147 35.7532 64.7508 36.5982C64.1188 37.0207 63.5086 37.5332 62.9202 38.1582C62.3767 38.7835 61.855 39.4988 61.3773 40.3492Z" fill="#FF3E3E"/>
</g>
<g filter="url(#filter14_f_1447_69808)">
<path d="M72.9265 56.9649C72.4342 56.6694 71.9645 56.3741 71.4947 56.0788C71.2487 55.9198 71.025 55.7835 70.7789 55.6245C70.5554 55.4657 70.3318 55.3069 70.0859 55.1255L68.7224 54.1275C68.2756 53.765 67.8512 53.4026 67.4268 53.0402C65.7296 51.5681 64.1234 49.9169 62.7656 48.0878C61.4078 46.2586 60.2986 44.2065 59.6623 42.0004L59.4434 41.1676C59.3779 40.8975 59.335 40.6052 59.2921 40.3128L59.2276 39.8855C59.2061 39.7505 59.2072 39.5933 59.1857 39.4583L59.1242 38.6042C59.1321 37.4585 59.2748 36.3136 59.6193 35.2376C59.4992 36.3601 59.5365 37.4612 59.6638 38.5405L59.8155 39.3504C59.837 39.4853 59.8585 39.6203 59.9025 39.7554L60.0121 40.1605C60.1001 40.4307 60.1433 40.6782 60.2313 40.9484L60.4956 41.7141C61.2453 43.7637 62.3555 45.6586 63.6688 47.42C64.9597 49.1813 66.4537 50.8092 68.0154 52.3927C68.4172 52.7774 68.7965 53.162 69.198 53.5691L70.4259 54.701C70.6268 54.8821 70.8276 55.0857 71.0285 55.2668C71.2295 55.4479 71.4529 55.6292 71.6539 55.8103C72.1005 56.1953 72.5247 56.5802 72.9265 56.9649Z" fill="#FFA216"/>
</g>
<g filter="url(#filter15_f_1447_69808)">
<path d="M59.8137 36.2497C59.8274 34.2727 60.493 32.2329 61.7627 30.5566C63.01 28.8803 64.8385 27.6123 66.8651 26.9523C68.9141 26.2925 71.2057 26.2859 73.2897 27.0642C74.3207 27.4308 75.3053 27.9992 76.1541 28.7016C77.003 29.4039 77.7388 30.2178 78.3616 31.1207L76.497 31.1079C77.1097 30.2134 77.8567 29.4098 78.7152 28.7193C79.5737 28.0287 80.5659 27.4964 81.602 27.1216C83.6964 26.3947 85.9878 26.4106 88.0275 27.0987C90.0672 27.7868 91.8556 29.0797 93.102 30.7733C94.3484 32.4669 94.9858 34.5158 94.9721 36.4928C94.9064 36.2452 94.8406 36.0201 94.7749 35.7725C94.7091 35.5473 94.6209 35.2996 94.5326 35.0743C94.356 34.6238 94.1569 34.1731 93.9352 33.7447C93.4692 32.9102 92.9128 32.1425 92.266 31.464C90.9497 30.1294 89.2936 29.1968 87.5441 28.7803C85.7946 28.3638 83.9517 28.4634 82.3521 29.1039C80.7301 29.7442 79.3516 30.9029 78.3531 32.3563L77.4225 33.7204L76.5109 32.3436C75.51 30.8764 74.1703 29.6764 72.5573 29.0137C70.9443 28.351 69.1254 28.2261 67.3478 28.6182C65.5927 29.0105 63.9239 29.9201 62.5893 31.2364C61.9333 31.8834 61.3438 32.6656 60.8887 33.4937C60.6611 33.919 60.456 34.3445 60.273 34.815C60.1816 35.039 60.0901 35.2631 60.021 35.5097C59.9519 35.7564 59.8828 36.003 59.8137 36.2497Z" fill="#700000"/>
</g>
<g filter="url(#filter16_f_1447_69808)">
<path d="M59.8137 36.2497C59.8274 34.2727 60.493 32.2329 61.7627 30.5566C63.01 28.8803 64.8385 27.6123 66.8651 26.9523C68.9141 26.2925 71.2057 26.2859 73.2897 27.0642C74.3207 27.4308 75.3053 27.9992 76.1541 28.7016C77.003 29.4039 77.7388 30.2178 78.3616 31.1207L76.497 31.1079C77.1097 30.2134 77.8567 29.4098 78.7152 28.7193C79.5737 28.0287 80.5659 27.4964 81.602 27.1216C83.6964 26.3947 85.9878 26.4106 88.0275 27.0987C90.0672 27.7868 91.8556 29.0797 93.102 30.7733C94.3484 32.4669 94.9858 34.5158 94.9721 36.4928C94.9064 36.2452 94.8406 36.0201 94.7749 35.7725C94.7091 35.5473 94.6209 35.2996 94.5326 35.0743C94.356 34.6238 94.1569 34.1731 93.9352 33.7447C93.4692 32.9102 92.9128 32.1425 92.266 31.464C90.9497 30.1294 89.2936 29.1968 87.5441 28.7803C85.7946 28.3638 83.9517 28.4634 82.3521 29.1039C80.7301 29.7442 79.3516 30.9029 78.3531 32.3563L77.4225 33.7204L76.5109 32.3436C75.51 30.8764 74.1703 29.6764 72.5573 29.0137C70.9443 28.351 69.1254 28.2261 67.3478 28.6182C65.5927 29.0105 63.9239 29.9201 62.5893 31.2364C61.9333 31.8834 61.3438 32.6656 60.8887 33.4937C60.6611 33.919 60.456 34.3445 60.273 34.815C60.1816 35.039 60.0901 35.2631 60.021 35.5097C59.9519 35.7564 59.8828 36.003 59.8137 36.2497Z" fill="#700000"/>
</g>
<g filter="url(#filter17_f_1447_69808)">
<path d="M60.7035 40.3444C60.1997 38.4762 60.5292 36.2992 61.5982 34.4194C62.6671 32.5396 64.4527 30.9793 66.6155 30.118C67.6968 29.6987 68.8668 29.4371 70.0803 29.4006C71.2937 29.3641 72.5282 29.5299 73.7163 29.92C74.9043 30.3102 76.0234 30.9245 77.0066 31.6951C77.9898 32.4658 78.7922 33.3925 79.4594 34.3632L73.888 34.3246C74.0694 34.0788 74.2507 33.8553 74.4322 33.6095C74.6136 33.3636 74.8173 33.1403 75.0211 32.9171C75.2248 32.6938 75.4509 32.4932 75.6771 32.2701C75.9033 32.047 76.1516 31.869 76.3777 31.6683C77.3715 30.9113 78.4989 30.3125 79.6922 29.9389C80.8855 29.5652 82.1447 29.4166 83.3575 29.4699C84.5703 29.5233 85.7367 29.8009 86.8121 30.2352C88.9627 31.1263 90.7266 32.7111 91.7694 34.6055C92.8122 36.4999 93.1117 38.6813 92.5821 40.5423C92.0936 39.7077 91.6045 38.9629 91.0472 38.33C90.4899 37.6971 89.8869 37.1762 89.2384 36.7448C87.9861 35.9049 86.6188 35.4461 85.3389 35.3474C84.059 35.2487 82.8667 35.4651 81.8973 35.9527C80.9279 36.4402 80.1366 37.1537 79.4332 38.1598L76.6198 42.1394L73.8842 38.1214C73.1946 37.1281 72.4135 36.3814 71.4509 35.8804C70.4883 35.3795 69.3218 35.1243 68.018 35.2276C66.7367 35.3311 65.3634 35.7485 64.0994 36.5935C63.4674 37.016 62.8573 37.5285 62.2688 38.1535C61.7028 38.7786 61.1812 39.4939 60.7035 40.3444Z" fill="#FF9797"/>
</g>
<g filter="url(#filter18_f_1447_69808)">
<path d="M80.3398 57.0161C80.7468 56.6369 81.1763 56.258 81.6057 55.9015C81.8091 55.7232 82.035 55.545 82.2384 55.3667C82.4419 55.1883 82.6454 54.9875 82.8489 54.8092L84.0922 53.6945C84.4769 53.2927 84.884 52.9136 85.291 52.5345C86.8744 50.9728 88.3683 49.3655 89.7059 47.6224C91.021 45.8791 92.1798 43.9999 92.9578 41.9609L93.2326 41.1989C93.3244 40.9299 93.371 40.6831 93.4627 40.4142L93.5779 40.0106C93.6237 39.8761 93.6247 39.7413 93.6705 39.6068L93.8334 38.7991C93.9981 37.7219 94.0283 36.5988 93.9236 35.4972C94.2756 36.578 94.38 37.7245 94.3721 38.8703L94.2988 39.7235C94.2754 39.8581 94.2743 40.0154 94.2509 40.15L94.1805 40.5764C94.1336 40.8681 94.0868 41.1374 94.0174 41.429L93.787 42.2587C93.1203 44.4558 91.9828 46.4924 90.5999 48.3026C89.2169 50.1128 87.6105 51.7418 85.8706 53.19C85.4413 53.5465 85.0119 53.903 84.5601 54.2594L83.1829 55.2384C82.9572 55.3941 82.7313 55.5723 82.4831 55.7278C82.2349 55.8834 82.0091 56.0391 81.7611 56.1721C81.3099 56.4386 80.8359 56.7499 80.3398 57.0161Z" fill="#FFA216"/>
</g>
</g>
<g style="mix-blend-mode:soft-light">
<path d="M76.7637 31.7392C85.6822 18.8376 111.453 38.1348 76.5709 59.6188C41.9895 37.6545 68.0244 18.7155 76.7637 31.7392Z" fill="url(#paint11_linear_1447_69808)"/>
</g>
<g style="mix-blend-mode:soft-light">
<path d="M76.7637 31.7392C68.0244 18.7155 41.9895 37.6545 76.5709 59.6188C111.453 38.1348 85.6822 18.8376 76.7637 31.7392Z" fill="url(#paint12_linear_1447_69808)"/>
</g>
<mask id="mask4_1447_69808" style="mask-type:alpha" maskUnits="userSpaceOnUse" x="59" y="27" width="36" height="33">
<path d="M76.7528 31.7391C85.6714 18.8376 111.442 38.1348 76.5601 59.6187C42.0012 37.6546 68.0136 18.7155 76.7528 31.7391Z" fill="url(#paint13_linear_1447_69808)"/>
</mask>
<g mask="url(#mask4_1447_69808)">
<g filter="url(#filter19_f_1447_69808)">
<path d="M70.6562 27.6074C71.2847 27.7016 71.8901 27.8631 72.4952 28.0919C73.0777 28.3206 73.6598 28.6167 74.1965 28.9799C74.7333 29.3206 75.2246 29.7509 75.6708 30.2033C76.117 30.6557 76.518 31.1527 76.8737 31.6944L76.694 31.6931C77.057 31.1789 77.4648 30.6875 77.9173 30.2188C78.3698 29.7726 78.867 29.3492 79.4085 29.0159C79.9501 28.6602 80.5138 28.372 81.1219 28.1516C81.73 27.9311 82.3377 27.7781 82.9673 27.6925C81.7075 27.931 80.5358 28.4396 79.4974 29.1513C78.9782 29.5072 78.5036 29.9083 78.0512 30.3545C77.6213 30.8009 77.2135 31.2923 76.8504 31.8066L76.7596 31.9407L76.6932 31.8055C76.3373 31.2863 75.9588 30.7894 75.5126 30.337C75.0889 29.8847 74.5974 29.4769 74.0832 29.1139C73.0772 28.388 71.8901 27.8631 70.6562 27.6074Z" fill="#820010"/>
</g>
<g filter="url(#filter20_f_1447_69808)">
<path d="M70.6562 27.6074C71.2847 27.7016 71.8901 27.8631 72.4952 28.0919C73.0777 28.3206 73.6598 28.6167 74.1965 28.9799C74.7333 29.3206 75.2246 29.7509 75.6708 30.2033C76.117 30.6557 76.518 31.1527 76.8737 31.6944L76.694 31.6931C77.057 31.1789 77.4648 30.6875 77.9173 30.2188C78.3698 29.7726 78.867 29.3492 79.4085 29.0159C79.9501 28.6602 80.5138 28.372 81.1219 28.1516C81.73 27.9311 82.3377 27.7781 82.9673 27.6925C81.7075 27.931 80.5358 28.4396 79.4974 29.1513C78.9782 29.5072 78.5036 29.9083 78.0512 30.3545C77.6213 30.8009 77.2135 31.2923 76.8504 31.8066L76.7596 31.9407L76.6932 31.8055C76.3373 31.2863 75.9588 30.7894 75.5126 30.337C75.0889 29.8847 74.5974 29.4769 74.0832 29.1139C73.0772 28.388 71.8901 27.8631 70.6562 27.6074Z" fill="#820010"/>
</g>
<g filter="url(#filter21_f_1447_69808)">
<path d="M70.6562 27.6074C71.2847 27.7016 71.8901 27.8631 72.4952 28.0919C73.0777 28.3206 73.6598 28.6167 74.1965 28.9799C74.7333 29.3206 75.2246 29.7509 75.6708 30.2033C76.117 30.6557 76.518 31.1527 76.8737 31.6944L76.694 31.6931C77.057 31.1789 77.4648 30.6875 77.9173 30.2188C78.3698 29.7726 78.867 29.3492 79.4085 29.0159C79.9501 28.6602 80.5138 28.372 81.1219 28.1516C81.73 27.9311 82.3377 27.7781 82.9673 27.6925C81.7075 27.931 80.5358 28.4396 79.4974 29.1513C78.9782 29.5072 78.5036 29.9083 78.0512 30.3545C77.6213 30.8009 77.2135 31.2923 76.8504 31.8066L76.7596 31.9407L76.6932 31.8055C76.3373 31.2863 75.9588 30.7894 75.5126 30.337C75.0889 29.8847 74.5974 29.4769 74.0832 29.1139C73.0772 28.388 71.8901 27.8631 70.6562 27.6074Z" fill="#820010"/>
</g>
</g>
<path d="M86.5223 69.3953L86.5249 69.4052C87.479 73.0672 84.9982 78.6676 80.123 83.3151C76.4714 86.7918 72.0001 89.2889 67.1248 90.5744C65.4698 91.0048 63.7801 91.2885 62.0753 91.422C51.0693 92.2975 41.2571 86.9129 39.8632 81.563C39.1496 78.5573 41.7524 76.6775 44.9211 77.9811C49.1267 79.7039 57.1669 80.3832 64.0072 78.601C70.8474 76.8187 77.5438 72.2997 80.3661 68.7458C82.4983 66.0632 85.6726 66.4335 86.5223 69.3953Z" fill="url(#paint14_radial_1447_69808)"/>
<path d="M86.5253 69.4076C88.1306 75.5688 80.0116 87.2171 67.1246 90.5748C54.2377 93.9325 41.4688 87.7266 39.8635 81.5655C39.8532 81.526 39.8738 81.6049 39.8635 81.5655C39.148 78.5602 41.7424 76.6805 44.919 77.982C49.1251 79.7068 57.1668 80.3837 64.0051 78.6019C70.8433 76.8202 77.5422 72.3026 80.3639 68.7468C82.5016 66.0606 85.6834 66.4353 86.5253 69.4076C86.5375 69.4466 86.515 69.3681 86.5253 69.4076Z" stroke="url(#paint15_linear_1447_69808)" stroke-width="0.408001" stroke-miterlimit="10"/>
<mask id="mask5_1447_69808" style="mask-type:alpha" maskUnits="userSpaceOnUse" x="39" y="66" width="48" height="26">
<path d="M86.5223 69.3953L86.5249 69.4052C87.479 73.0672 84.9982 78.6676 80.123 83.3151C76.4714 86.7918 72.0001 89.2889 67.1248 90.5744C65.4698 91.0048 63.7801 91.2885 62.0753 91.422C51.0693 92.2975 41.2571 86.9129 39.8632 81.563C39.1496 78.5573 41.7524 76.6775 44.9211 77.9811C49.1267 79.7039 57.1669 80.3832 64.0072 78.601C70.8474 76.8187 77.5438 72.2997 80.3661 68.7458C82.4983 66.0632 85.6726 66.4335 86.5223 69.3953Z" fill="url(#paint16_radial_1447_69808)"/>
</mask>
<g mask="url(#mask5_1447_69808)">
<g filter="url(#filter22_f_1447_69808)">
<ellipse cx="62.2005" cy="71.8475" rx="23.6641" ry="10.404" transform="rotate(-14.6039 62.2005 71.8475)" fill="#371600"/>
</g>
</g>
<defs>
<filter id="filter0_f_1447_69808" x="6.64217" y="42.9478" width="108.144" height="73.1737" filterUnits="userSpaceOnUse" color-interpolation-filters="sRGB">
<feFlood flood-opacity="0" result="BackgroundImageFix"/>
<feBlend mode="normal" in="SourceGraphic" in2="BackgroundImageFix" result="shape"/>
<feGaussianBlur stdDeviation="2.55001" result="effect1_foregroundBlur_1447_69808"/>
</filter>
<filter id="filter1_f_1447_69808" x="3.58216" y="39.8878" width="114.264" height="79.2937" filterUnits="userSpaceOnUse" color-interpolation-filters="sRGB">
<feFlood flood-opacity="0" result="BackgroundImageFix"/>
<feBlend mode="normal" in="SourceGraphic" in2="BackgroundImageFix" result="shape"/>
<feGaussianBlur stdDeviation="4.08001" result="effect1_foregroundBlur_1447_69808"/>
</filter>
<filter id="filter2_f_1447_69808" x="5.72188" y="17.2072" width="101.348" height="64.8668" filterUnits="userSpaceOnUse" color-interpolation-filters="sRGB">
<feFlood flood-opacity="0" result="BackgroundImageFix"/>
<feBlend mode="normal" in="SourceGraphic" in2="BackgroundImageFix" result="shape"/>
<feGaussianBlur stdDeviation="6.12002" result="effect1_foregroundBlur_1447_69808"/>
</filter>
<filter id="filter3_f_1447_69808" x="9.80189" y="21.2872" width="93.1882" height="56.7068" filterUnits="userSpaceOnUse" color-interpolation-filters="sRGB">
<feFlood flood-opacity="0" result="BackgroundImageFix"/>
<feBlend mode="normal" in="SourceGraphic" in2="BackgroundImageFix" result="shape"/>
<feGaussianBlur stdDeviation="4.08001" result="effect1_foregroundBlur_1447_69808"/>
</filter>
<filter id="filter4_f_1447_69808" x="15.9034" y="32.7872" width="38.0546" height="30.0565" filterUnits="userSpaceOnUse" color-interpolation-filters="sRGB">
<feFlood flood-opacity="0" result="BackgroundImageFix"/>
<feBlend mode="normal" in="SourceGraphic" in2="BackgroundImageFix" result="shape"/>
<feGaussianBlur stdDeviation="2.04001" result="effect1_foregroundBlur_1447_69808"/>
</filter>
<filter id="filter5_f_1447_69808" x="16.0528" y="53.1758" width="26.4677" height="16.2431" filterUnits="userSpaceOnUse" color-interpolation-filters="sRGB">
<feFlood flood-opacity="0" result="BackgroundImageFix"/>
<feBlend mode="normal" in="SourceGraphic" in2="BackgroundImageFix" result="shape"/>
<feGaussianBlur stdDeviation="1.02" result="effect1_foregroundBlur_1447_69808"/>
</filter>
<filter id="filter6_f_1447_69808" x="13.4551" y="29.6749" width="39.9628" height="30.4003" filterUnits="userSpaceOnUse" color-interpolation-filters="sRGB">
<feFlood flood-opacity="0" result="BackgroundImageFix"/>
<feBlend mode="normal" in="SourceGraphic" in2="BackgroundImageFix" result="shape"/>
<feGaussianBlur stdDeviation="2.04001" result="effect1_foregroundBlur_1447_69808"/>
</filter>
<filter id="filter7_f_1447_69808" x="13.4551" y="29.6749" width="39.9628" height="30.4003" filterUnits="userSpaceOnUse" color-interpolation-filters="sRGB">
<feFlood flood-opacity="0" result="BackgroundImageFix"/>
<feBlend mode="normal" in="SourceGraphic" in2="BackgroundImageFix" result="shape"/>
<feGaussianBlur stdDeviation="2.04001" result="effect1_foregroundBlur_1447_69808"/>
</filter>
<filter id="filter8_f_1447_69808" x="11.2374" y="29.0402" width="46.2146" height="38.2165" filterUnits="userSpaceOnUse" color-interpolation-filters="sRGB">
<feFlood flood-opacity="0" result="BackgroundImageFix"/>
<feBlend mode="normal" in="SourceGraphic" in2="BackgroundImageFix" result="shape"/>
<feGaussianBlur stdDeviation="4.08001" result="effect1_foregroundBlur_1447_69808"/>
</filter>
<filter id="filter9_f_1447_69808" x="44.8868" y="36.2481" width="8.7929" height="29.5077" filterUnits="userSpaceOnUse" color-interpolation-filters="sRGB">
<feFlood flood-opacity="0" result="BackgroundImageFix"/>
<feBlend mode="normal" in="SourceGraphic" in2="BackgroundImageFix" result="shape"/>
<feGaussianBlur stdDeviation="1.02" result="effect1_foregroundBlur_1447_69808"/>
</filter>
<filter id="filter10_f_1447_69808" x="22.6139" y="35.7828" width="13.1521" height="9.23121" filterUnits="userSpaceOnUse" color-interpolation-filters="sRGB">
<feFlood flood-opacity="0" result="BackgroundImageFix"/>
<feBlend mode="normal" in="SourceGraphic" in2="BackgroundImageFix" result="shape"/>
<feGaussianBlur stdDeviation="0.612002" result="effect1_foregroundBlur_1447_69808"/>
</filter>
<filter id="filter11_f_1447_69808" x="23.0219" y="36.1908" width="12.3361" height="8.41521" filterUnits="userSpaceOnUse" color-interpolation-filters="sRGB">
<feFlood flood-opacity="0" result="BackgroundImageFix"/>
<feBlend mode="normal" in="SourceGraphic" in2="BackgroundImageFix" result="shape"/>
<feGaussianBlur stdDeviation="0.408001" result="effect1_foregroundBlur_1447_69808"/>
</filter>
<filter id="filter12_f_1447_69808" x="22.2059" y="35.3748" width="13.9681" height="10.0472" filterUnits="userSpaceOnUse" color-interpolation-filters="sRGB">
<feFlood flood-opacity="0" result="BackgroundImageFix"/>
<feBlend mode="normal" in="SourceGraphic" in2="BackgroundImageFix" result="shape"/>
<feGaussianBlur stdDeviation="0.816002" result="effect1_foregroundBlur_1447_69808"/>
</filter>
<filter id="filter13_f_1447_69808" x="57.0665" y="25.3204" width="40.5262" height="20.9042" filterUnits="userSpaceOnUse" color-interpolation-filters="sRGB">
<feFlood flood-opacity="0" result="BackgroundImageFix"/>
<feBlend mode="normal" in="SourceGraphic" in2="BackgroundImageFix" result="shape"/>
<feGaussianBlur stdDeviation="2.04001" result="effect1_foregroundBlur_1447_69808"/>
</filter>
<filter id="filter14_f_1447_69808" x="57.084" y="33.1973" width="17.8827" height="25.8076" filterUnits="userSpaceOnUse" color-interpolation-filters="sRGB">
<feFlood flood-opacity="0" result="BackgroundImageFix"/>
<feBlend mode="normal" in="SourceGraphic" in2="BackgroundImageFix" result="shape"/>
<feGaussianBlur stdDeviation="1.02" result="effect1_foregroundBlur_1447_69808"/>
</filter>
<filter id="filter15_f_1447_69808" x="55.7335" y="22.3878" width="43.3192" height="18.1854" filterUnits="userSpaceOnUse" color-interpolation-filters="sRGB">
<feFlood flood-opacity="0" result="BackgroundImageFix"/>
<feBlend mode="normal" in="SourceGraphic" in2="BackgroundImageFix" result="shape"/>
<feGaussianBlur stdDeviation="2.04001" result="effect1_foregroundBlur_1447_69808"/>
</filter>
<filter id="filter16_f_1447_69808" x="55.7335" y="22.3878" width="43.3192" height="18.1854" filterUnits="userSpaceOnUse" color-interpolation-filters="sRGB">
<feFlood flood-opacity="0" result="BackgroundImageFix"/>
<feBlend mode="normal" in="SourceGraphic" in2="BackgroundImageFix" result="shape"/>
<feGaussianBlur stdDeviation="2.04001" result="effect1_foregroundBlur_1447_69808"/>
</filter>
<filter id="filter17_f_1447_69808" x="52.3126" y="21.2355" width="48.6863" height="29.0642" filterUnits="userSpaceOnUse" color-interpolation-filters="sRGB">
<feFlood flood-opacity="0" result="BackgroundImageFix"/>
<feBlend mode="normal" in="SourceGraphic" in2="BackgroundImageFix" result="shape"/>
<feGaussianBlur stdDeviation="4.08001" result="effect1_foregroundBlur_1447_69808"/>
</filter>
<filter id="filter18_f_1447_69808" x="78.2998" y="33.4571" width="18.1122" height="25.5986" filterUnits="userSpaceOnUse" color-interpolation-filters="sRGB">
<feFlood flood-opacity="0" result="BackgroundImageFix"/>
<feBlend mode="normal" in="SourceGraphic" in2="BackgroundImageFix" result="shape"/>
<feGaussianBlur stdDeviation="1.02" result="effect1_foregroundBlur_1447_69808"/>
</filter>
<filter id="filter19_f_1447_69808" x="69.4322" y="26.3834" width="14.7595" height="6.78102" filterUnits="userSpaceOnUse" color-interpolation-filters="sRGB">
<feFlood flood-opacity="0" result="BackgroundImageFix"/>
<feBlend mode="normal" in="SourceGraphic" in2="BackgroundImageFix" result="shape"/>
<feGaussianBlur stdDeviation="0.612002" result="effect1_foregroundBlur_1447_69808"/>
</filter>
<filter id="filter20_f_1447_69808" x="69.8402" y="26.7914" width="13.9435" height="5.96501" filterUnits="userSpaceOnUse" color-interpolation-filters="sRGB">
<feFlood flood-opacity="0" result="BackgroundImageFix"/>
<feBlend mode="normal" in="SourceGraphic" in2="BackgroundImageFix" result="shape"/>
<feGaussianBlur stdDeviation="0.408001" result="effect1_foregroundBlur_1447_69808"/>
</filter>
<filter id="filter21_f_1447_69808" x="69.0242" y="25.9754" width="15.5755" height="7.59702" filterUnits="userSpaceOnUse" color-interpolation-filters="sRGB">
<feFlood flood-opacity="0" result="BackgroundImageFix"/>
<feBlend mode="normal" in="SourceGraphic" in2="BackgroundImageFix" result="shape"/>
<feGaussianBlur stdDeviation="0.816002" result="effect1_foregroundBlur_1447_69808"/>
</filter>
<filter id="filter22_f_1447_69808" x="30.9894" y="51.9826" width="62.4226" height="39.7302" filterUnits="userSpaceOnUse" color-interpolation-filters="sRGB">
<feFlood flood-opacity="0" result="BackgroundImageFix"/>
<feBlend mode="normal" in="SourceGraphic" in2="BackgroundImageFix" result="shape"/>
<feGaussianBlur stdDeviation="4.08001" result="effect1_foregroundBlur_1447_69808"/>
</filter>
<radialGradient id="paint0_radial_1447_69808" cx="0" cy="0" r="1" gradientUnits="userSpaceOnUse" gradientTransform="translate(47.5748 13.2583) rotate(75.3961) scale(98.3283)">
<stop stop-color="#FFDE43"/>
<stop offset="1" stop-color="#FFBC00"/>
</radialGradient>
<radialGradient id="paint1_radial_1447_69808" cx="0" cy="0" r="1" gradientUnits="userSpaceOnUse" gradientTransform="translate(50.8924 25.9913) rotate(75.3961) scale(85.1703)">
<stop stop-color="white" stop-opacity="0.5"/>
<stop offset="0.782278"/>
</radialGradient>
<radialGradient id="paint2_radial_1447_69808" cx="0" cy="0" r="1" gradientUnits="userSpaceOnUse" gradientTransform="translate(50.8924 25.9913) rotate(75.3961) scale(85.1703)">
<stop stop-color="white" stop-opacity="0.5"/>
<stop offset="0.782278"/>
</radialGradient>
<radialGradient id="paint3_radial_1447_69808" cx="0" cy="0" r="1" gradientUnits="userSpaceOnUse" gradientTransform="translate(44.8744 2.89431) rotate(75.3961) scale(109.038 147.459)">
<stop offset="0.0922635" stop-color="white"/>
<stop offset="0.670207" stop-color="white" stop-opacity="0"/>
</radialGradient>
<linearGradient id="paint4_linear_1447_69808" x1="29.1085" y1="39.9507" x2="44.9628" y2="67.855" gradientUnits="userSpaceOnUse">
<stop stop-color="#FF0000"/>
<stop offset="1" stop-color="#610003"/>
</linearGradient>
<linearGradient id="paint5_linear_1447_69808" x1="29.1075" y1="39.9507" x2="44.9618" y2="67.855" gradientUnits="userSpaceOnUse">
<stop stop-color="#FF0000"/>
<stop offset="1" stop-color="#610003"/>
</linearGradient>
<linearGradient id="paint6_linear_1447_69808" x1="52.33" y1="45.2131" x2="21.7451" y2="62.5904" gradientUnits="userSpaceOnUse">
<stop stop-color="#FF8F00"/>
<stop offset="0.0143476" stop-color="#FF9001" stop-opacity="0.9857"/>
<stop offset="0.2987" stop-color="#FF9912" stop-opacity="0.7013"/>
<stop offset="0.6103" stop-color="#FF9F1C" stop-opacity="0.3897"/>
<stop offset="1" stop-color="#FFA11F" stop-opacity="0"/>
</linearGradient>
<linearGradient id="paint7_linear_1447_69808" x1="21.7534" y1="62.5857" x2="52.3383" y2="45.2084" gradientUnits="userSpaceOnUse">
<stop stop-color="#FF8F00"/>
<stop offset="0.0143476" stop-color="#FF9001" stop-opacity="0.9857"/>
<stop offset="0.2987" stop-color="#FF9912" stop-opacity="0.7013"/>
<stop offset="0.6103" stop-color="#FF9F1C" stop-opacity="0.3897"/>
<stop offset="1" stop-color="#FFA11F" stop-opacity="0"/>
</linearGradient>
<linearGradient id="paint8_linear_1447_69808" x1="29.1075" y1="39.9507" x2="44.9618" y2="67.855" gradientUnits="userSpaceOnUse">
<stop stop-color="#FF0000"/>
<stop offset="1" stop-color="#610003"/>
</linearGradient>
<linearGradient id="paint9_linear_1447_69808" x1="76.7903" y1="27.5252" x2="76.5684" y2="59.6181" gradientUnits="userSpaceOnUse">
<stop stop-color="#FF0000"/>
<stop offset="1" stop-color="#610003"/>
</linearGradient>
<linearGradient id="paint10_linear_1447_69808" x1="76.7893" y1="27.5252" x2="76.5674" y2="59.6181" gradientUnits="userSpaceOnUse">
<stop stop-color="#FF0000"/>
<stop offset="1" stop-color="#610003"/>
</linearGradient>
<linearGradient id="paint11_linear_1447_69808" x1="94.2695" y1="43.6933" x2="59.0936" y2="43.45" gradientUnits="userSpaceOnUse">
<stop stop-color="#FF8F00"/>
<stop offset="0.0143476" stop-color="#FF9001" stop-opacity="0.9857"/>
<stop offset="0.2987" stop-color="#FF9912" stop-opacity="0.7013"/>
<stop offset="0.6103" stop-color="#FF9F1C" stop-opacity="0.3897"/>
<stop offset="1" stop-color="#FFA11F" stop-opacity="0"/>
</linearGradient>
<linearGradient id="paint12_linear_1447_69808" x1="59.1031" y1="43.4501" x2="94.2791" y2="43.6933" gradientUnits="userSpaceOnUse">
<stop stop-color="#FF8F00"/>
<stop offset="0.0143476" stop-color="#FF9001" stop-opacity="0.9857"/>
<stop offset="0.2987" stop-color="#FF9912" stop-opacity="0.7013"/>
<stop offset="0.6103" stop-color="#FF9F1C" stop-opacity="0.3897"/>
<stop offset="1" stop-color="#FFA11F" stop-opacity="0"/>
</linearGradient>
<linearGradient id="paint13_linear_1447_69808" x1="76.7893" y1="27.5252" x2="76.5674" y2="59.6181" gradientUnits="userSpaceOnUse">
<stop stop-color="#FF0000"/>
<stop offset="1" stop-color="#610003"/>
</linearGradient>
<radialGradient id="paint14_radial_1447_69808" cx="0" cy="0" r="1" gradientUnits="userSpaceOnUse" gradientTransform="translate(64.7193 81.4707) rotate(-14.6039) scale(30.7341 9.42616)">
<stop stop-color="#743C1C"/>
<stop offset="1" stop-color="#401C02"/>
</radialGradient>
<linearGradient id="paint15_linear_1447_69808" x1="67.2596" y1="91.0869" x2="62.2284" y2="71.7773" gradientUnits="userSpaceOnUse">
<stop offset="0.265625" stop-color="#FFDE43"/>
<stop offset="1" stop-color="#F79D14"/>
</linearGradient>
<radialGradient id="paint16_radial_1447_69808" cx="0" cy="0" r="1" gradientUnits="userSpaceOnUse" gradientTransform="translate(64.7193 81.4707) rotate(-14.6039) scale(30.7341 9.42616)">
<stop stop-color="#743C1C"/>
<stop offset="1" stop-color="#401C02"/>
</radialGradient>
</defs>
</svg>