<svg width="59" height="63" viewBox="0 0 59 63" fill="none" xmlns="http://www.w3.org/2000/svg">
<path d="M26.2895 30.4956C27.2228 30.4956 28.0115 30.7756 28.6555 31.3356C29.2995 31.8863 29.6215 32.6516 29.6215 33.6316C29.6215 34.6116 29.2901 35.3816 28.6275 35.9416C27.9648 36.5016 27.1528 36.7816 26.1915 36.7816C25.4168 36.7816 24.7308 36.6043 24.1335 36.2496C23.5361 35.8856 23.1115 35.3629 22.8595 34.6816L24.2455 33.8836C24.5068 34.7703 25.1555 35.2136 26.1915 35.2136C26.7421 35.2136 27.1808 35.0736 27.5075 34.7936C27.8435 34.5043 28.0115 34.1169 28.0115 33.6316C28.0115 33.1463 27.8481 32.7636 27.5215 32.4836C27.1948 32.2036 26.7608 32.0636 26.2195 32.0636H23.3635L23.7415 26.7996H29.2015V28.3116H25.2255L25.0575 30.4956H26.2895ZM33.7816 30.4956C34.715 30.4956 35.5036 30.7756 36.1476 31.3356C36.7916 31.8863 37.1136 32.6516 37.1136 33.6316C37.1136 34.6116 36.7823 35.3816 36.1196 35.9416C35.457 36.5016 34.645 36.7816 33.6836 36.7816C32.909 36.7816 32.223 36.6043 31.6256 36.2496C31.0283 35.8856 30.6036 35.3629 30.3516 34.6816L31.7376 33.8836C31.999 34.7703 32.6476 35.2136 33.6836 35.2136C34.2343 35.2136 34.673 35.0736 34.9996 34.7936C35.3356 34.5043 35.5036 34.1169 35.5036 33.6316C35.5036 33.1463 35.3403 32.7636 35.0136 32.4836C34.687 32.2036 34.253 32.0636 33.7116 32.0636H30.8556L31.2336 26.7996H36.6936V28.3116H32.7176L32.5496 30.4956H33.7816Z" fill="#5C2448"/>
<mask id="path-3-inside-1_2484_46086" fill="white">
<path d="M48 31.5996C48 41.5407 39.9411 49.5996 30 49.5996C20.0589 49.5996 12 41.5407 12 31.5996C12 21.6585 20.0589 13.5996 30 13.5996C39.9411 13.5996 48 21.6585 48 31.5996ZM13.98 31.5996C13.98 40.4472 21.1524 47.6196 30 47.6196C38.8476 47.6196 46.02 40.4472 46.02 31.5996C46.02 22.752 38.8476 15.5796 30 15.5796C21.1524 15.5796 13.98 22.752 13.98 31.5996Z"/>
</mask>
<path d="M48 31.5996C48 41.5407 39.9411 49.5996 30 49.5996C20.0589 49.5996 12 41.5407 12 31.5996C12 21.6585 20.0589 13.5996 30 13.5996C39.9411 13.5996 48 21.6585 48 31.5996ZM13.98 31.5996C13.98 40.4472 21.1524 47.6196 30 47.6196C38.8476 47.6196 46.02 40.4472 46.02 31.5996C46.02 22.752 38.8476 15.5796 30 15.5796C21.1524 15.5796 13.98 22.752 13.98 31.5996Z" stroke="url(#paint0_linear_2484_46086)" stroke-opacity="0.23" stroke-width="4" mask="url(#path-3-inside-1_2484_46086)"/>
<mask id="path-4-inside-2_2484_46086" fill="white">
<path d="M30 14.5896C30 14.0428 30.4436 13.5968 30.9895 13.6268C33.2516 13.7514 35.473 14.3021 37.5359 15.253C39.8988 16.3424 41.9975 17.931 43.6873 19.9095C45.3771 21.8881 46.6179 24.2094 47.3242 26.7137C48.0305 29.2179 48.1854 31.8455 47.7784 34.4154C47.3714 36.9853 46.412 39.4364 44.9665 41.5999C43.5209 43.7633 41.6235 45.5876 39.405 46.9471C37.1865 48.3066 34.6996 49.169 32.1157 49.4748C29.8599 49.7418 27.5771 49.5791 25.3872 48.9985C24.8587 48.8584 24.5747 48.2971 24.7436 47.7771C24.9126 47.2571 25.4705 46.9757 26 47.1122C27.9168 47.6065 29.9115 47.7419 31.883 47.5086C34.1826 47.2364 36.396 46.4689 38.3704 45.2589C40.3449 44.0489 42.0336 42.4253 43.3201 40.4998C44.6067 38.5744 45.4605 36.3929 45.8228 34.1057C46.185 31.8185 46.0471 29.4799 45.4185 27.2511C44.79 25.0224 43.6856 22.9563 42.1817 21.1954C40.6778 19.4346 38.8099 18.0207 36.7069 17.0512C34.9041 16.22 32.9651 15.7324 30.9894 15.6102C30.4437 15.5764 30 15.1364 30 14.5896Z"/>
</mask>
<path d="M30 14.5896C30 14.0428 30.4436 13.5968 30.9895 13.6268C33.2516 13.7514 35.473 14.3021 37.5359 15.253C39.8988 16.3424 41.9975 17.931 43.6873 19.9095C45.3771 21.8881 46.6179 24.2094 47.3242 26.7137C48.0305 29.2179 48.1854 31.8455 47.7784 34.4154C47.3714 36.9853 46.412 39.4364 44.9665 41.5999C43.5209 43.7633 41.6235 45.5876 39.405 46.9471C37.1865 48.3066 34.6996 49.169 32.1157 49.4748C29.8599 49.7418 27.5771 49.5791 25.3872 48.9985C24.8587 48.8584 24.5747 48.2971 24.7436 47.7771C24.9126 47.2571 25.4705 46.9757 26 47.1122C27.9168 47.6065 29.9115 47.7419 31.883 47.5086C34.1826 47.2364 36.396 46.4689 38.3704 45.2589C40.3449 44.0489 42.0336 42.4253 43.3201 40.4998C44.6067 38.5744 45.4605 36.3929 45.8228 34.1057C46.185 31.8185 46.0471 29.4799 45.4185 27.2511C44.79 25.0224 43.6856 22.9563 42.1817 21.1954C40.6778 19.4346 38.8099 18.0207 36.7069 17.0512C34.9041 16.22 32.9651 15.7324 30.9894 15.6102C30.4437 15.5764 30 15.1364 30 14.5896Z" stroke="url(#paint1_linear_2484_46086)" stroke-width="4" mask="url(#path-4-inside-2_2484_46086)"/>
<g filter="url(#filter0_iii_2484_46086)">
<path d="M25.9341 45.7634C25.8702 46.0116 25.6532 46.1968 25.3967 46.325C24.6696 46.5766 24.0952 46.8186 23.62 47.0535C23.1993 47.2615 23.2033 47.9187 23.6254 48.1239C24.1186 48.3637 24.7378 48.5936 25.4254 48.8662C25.6103 48.9395 25.8716 49.1466 25.9367 49.4011C26.1371 50.1855 26.4098 51.0159 26.7101 51.7825C26.9432 52.3775 27.5195 52.3771 27.7538 51.7825C28.0578 51.0106 28.2889 50.1768 28.5496 49.3835C28.612 49.1386 28.7967 48.9449 29.035 48.8605C29.6789 48.6324 30.2995 48.375 30.8055 48.1522C31.2779 47.9441 31.2876 47.2685 30.8211 47.0475C30.3229 46.8114 29.7032 46.5381 29.0319 46.2942C28.7956 46.2084 28.6139 46.0272 28.5299 45.77C28.2469 44.9034 28.0676 44.1687 27.767 43.4057C27.5328 42.8111 26.9178 42.8294 26.6836 43.424C26.3841 44.1842 26.175 44.9408 25.9341 45.7634Z" fill="url(#paint2_linear_2484_46086)"/>
</g>
<path d="M25.9341 45.7634C25.8702 46.0116 25.6532 46.1968 25.3967 46.325C24.6696 46.5766 24.0952 46.8186 23.62 47.0535C23.1993 47.2615 23.2033 47.9187 23.6254 48.1239C24.1186 48.3637 24.7378 48.5936 25.4254 48.8662C25.6103 48.9395 25.8716 49.1466 25.9367 49.4011C26.1371 50.1855 26.4098 51.0159 26.7101 51.7825C26.9432 52.3775 27.5195 52.3771 27.7538 51.7825C28.0578 51.0106 28.2889 50.1768 28.5496 49.3835C28.612 49.1386 28.7967 48.9449 29.035 48.8605C29.6789 48.6324 30.2995 48.375 30.8055 48.1522C31.2779 47.9441 31.2876 47.2685 30.8211 47.0475C30.3229 46.8114 29.7032 46.5381 29.0319 46.2942C28.7956 46.2084 28.6139 46.0272 28.5299 45.77C28.2469 44.9034 28.0676 44.1687 27.767 43.4057C27.5328 42.8111 26.9178 42.8294 26.6836 43.424C26.3841 44.1842 26.175 44.9408 25.9341 45.7634Z" fill="url(#paint3_linear_2484_46086)"/>
<g filter="url(#filter1_ii_2484_46086)">
<path d="M22.914 43.7803C22.8934 43.8602 22.8236 43.9198 22.7411 43.9611C22.507 44.0421 22.3222 44.12 22.1692 44.1956C22.0338 44.2625 22.0351 44.474 22.171 44.5401C22.3297 44.6173 22.529 44.6913 22.7503 44.779C22.8098 44.8026 22.8939 44.8692 22.9149 44.9512C22.9794 45.2036 23.0671 45.4709 23.1638 45.7176C23.2388 45.9091 23.4243 45.909 23.4997 45.7176C23.5976 45.4692 23.6719 45.2008 23.7558 44.9455C23.7759 44.8667 23.8354 44.8043 23.9121 44.7772C24.1193 44.7038 24.3191 44.6209 24.4819 44.5492C24.634 44.4822 24.6371 44.2648 24.4869 44.1936C24.3266 44.1177 24.1271 44.0297 23.9111 43.9512C23.835 43.9236 23.7765 43.8652 23.7495 43.7825C23.6584 43.5035 23.6007 43.2671 23.504 43.0215C23.4286 42.8301 23.2306 42.836 23.1552 43.0274C23.0589 43.272 22.9916 43.5156 22.914 43.7803Z" fill="url(#paint4_linear_2484_46086)"/>
</g>
<path d="M22.914 43.7803C22.8934 43.8602 22.8236 43.9198 22.7411 43.9611C22.507 44.0421 22.3222 44.12 22.1692 44.1956C22.0338 44.2625 22.0351 44.474 22.171 44.5401C22.3297 44.6173 22.529 44.6913 22.7503 44.779C22.8098 44.8026 22.8939 44.8692 22.9149 44.9512C22.9794 45.2036 23.0671 45.4709 23.1638 45.7176C23.2388 45.9091 23.4243 45.909 23.4997 45.7176C23.5976 45.4692 23.6719 45.2008 23.7558 44.9455C23.7759 44.8667 23.8354 44.8043 23.9121 44.7772C24.1193 44.7038 24.3191 44.6209 24.4819 44.5492C24.634 44.4822 24.6371 44.2648 24.4869 44.1936C24.3266 44.1177 24.1271 44.0297 23.9111 43.9512C23.835 43.9236 23.7765 43.8652 23.7495 43.7825C23.6584 43.5035 23.6007 43.2671 23.504 43.0215C23.4286 42.8301 23.2306 42.836 23.1552 43.0274C23.0589 43.272 22.9916 43.5156 22.914 43.7803Z" fill="url(#paint5_linear_2484_46086)"/>
<g filter="url(#filter2_i_2484_46086)">
<path d="M21.9605 49.1234C21.9318 49.2348 21.8344 49.3179 21.7193 49.3755C21.3929 49.4884 21.1352 49.597 20.9219 49.7024C20.7331 49.7958 20.7349 50.0908 20.9243 50.1829C21.1457 50.2905 21.4236 50.3937 21.7322 50.516C21.8152 50.5489 21.9325 50.6419 21.9616 50.7561C22.0516 51.1081 22.174 51.4808 22.3088 51.8249C22.4134 52.0919 22.6721 52.0917 22.7772 51.8249C22.9137 51.4784 23.0173 51.1042 23.1344 50.7482C23.1624 50.6383 23.2453 50.5513 23.3522 50.5135C23.6412 50.4111 23.9198 50.2956 24.1468 50.1955C24.3589 50.1021 24.3632 49.7989 24.1538 49.6997C23.9303 49.5938 23.6521 49.4711 23.3508 49.3617C23.2448 49.3231 23.1632 49.2418 23.1255 49.1264C22.9985 48.7374 22.9181 48.4077 22.7831 48.0652C22.678 47.7984 22.402 47.8066 22.2969 48.0735C22.1625 48.4146 22.0686 48.7542 21.9605 49.1234Z" fill="url(#paint6_radial_2484_46086)"/>
</g>
<defs>
<filter id="filter0_iii_2484_46086" x="23.1566" y="42.875" width="8.10215" height="9.44727" filterUnits="userSpaceOnUse" color-interpolation-filters="sRGB">
<feFlood flood-opacity="0" result="BackgroundImageFix"/>
<feBlend mode="normal" in="SourceGraphic" in2="BackgroundImageFix" result="shape"/>
<feColorMatrix in="SourceAlpha" type="matrix" values="0 0 0 0 0 0 0 0 0 0 0 0 0 0 0 0 0 0 127 0" result="hardAlpha"/>
<feOffset dx="0.09375" dy="-0.09375"/>
<feGaussianBlur stdDeviation="0.09375"/>
<feComposite in2="hardAlpha" operator="arithmetic" k2="-1" k3="1"/>
<feColorMatrix type="matrix" values="0 0 0 0 0.937255 0 0 0 0 0.482353 0 0 0 0 0.329412 0 0 0 1 0"/>
<feBlend mode="normal" in2="shape" result="effect1_innerShadow_2484_46086"/>
<feColorMatrix in="SourceAlpha" type="matrix" values="0 0 0 0 0 0 0 0 0 0 0 0 0 0 0 0 0 0 127 0" result="hardAlpha"/>
<feOffset dx="0.09375" dy="0.09375"/>
<feGaussianBlur stdDeviation="0.1875"/>
<feComposite in2="hardAlpha" operator="arithmetic" k2="-1" k3="1"/>
<feColorMatrix type="matrix" values="0 0 0 0 0.737255 0 0 0 0 0.615686 0 0 0 0 0.415686 0 0 0 1 0"/>
<feBlend mode="normal" in2="effect1_innerShadow_2484_46086" result="effect2_innerShadow_2484_46086"/>
<feColorMatrix in="SourceAlpha" type="matrix" values="0 0 0 0 0 0 0 0 0 0 0 0 0 0 0 0 0 0 127 0" result="hardAlpha"/>
<feOffset dx="-0.15" dy="0.09375"/>
<feGaussianBlur stdDeviation="0.075"/>
<feComposite in2="hardAlpha" operator="arithmetic" k2="-1" k3="1"/>
<feColorMatrix type="matrix" values="0 0 0 0 1 0 0 0 0 0.901961 0 0 0 0 0.458824 0 0 0 1 0"/>
<feBlend mode="normal" in2="effect2_innerShadow_2484_46086" result="effect3_innerShadow_2484_46086"/>
</filter>
<filter id="filter1_ii_2484_46086" x="22.0309" y="42.8809" width="2.6043" height="3.01797" filterUnits="userSpaceOnUse" color-interpolation-filters="sRGB">
<feFlood flood-opacity="0" result="BackgroundImageFix"/>
<feBlend mode="normal" in="SourceGraphic" in2="BackgroundImageFix" result="shape"/>
<feColorMatrix in="SourceAlpha" type="matrix" values="0 0 0 0 0 0 0 0 0 0 0 0 0 0 0 0 0 0 127 0" result="hardAlpha"/>
<feOffset dx="0.0375" dy="0.0375"/>
<feGaussianBlur stdDeviation="0.0375"/>
<feComposite in2="hardAlpha" operator="arithmetic" k2="-1" k3="1"/>
<feColorMatrix type="matrix" values="0 0 0 0 0.803922 0 0 0 0 0.6 0 0 0 0 0.262745 0 0 0 1 0"/>
<feBlend mode="normal" in2="shape" result="effect1_innerShadow_2484_46086"/>
<feColorMatrix in="SourceAlpha" type="matrix" values="0 0 0 0 0 0 0 0 0 0 0 0 0 0 0 0 0 0 127 0" result="hardAlpha"/>
<feOffset dx="-0.0375" dy="0.0375"/>
<feGaussianBlur stdDeviation="0.0375"/>
<feComposite in2="hardAlpha" operator="arithmetic" k2="-1" k3="1"/>
<feColorMatrix type="matrix" values="0 0 0 0 1 0 0 0 0 0.882353 0 0 0 0 0.423529 0 0 0 1 0"/>
<feBlend mode="normal" in2="effect1_innerShadow_2484_46086" result="effect2_innerShadow_2484_46086"/>
</filter>
<filter id="filter2_i_2484_46086" x="20.7812" y="47.8129" width="3.58359" height="4.2125" filterUnits="userSpaceOnUse" color-interpolation-filters="sRGB">
<feFlood flood-opacity="0" result="BackgroundImageFix"/>
<feBlend mode="normal" in="SourceGraphic" in2="BackgroundImageFix" result="shape"/>
<feColorMatrix in="SourceAlpha" type="matrix" values="0 0 0 0 0 0 0 0 0 0 0 0 0 0 0 0 0 0 127 0" result="hardAlpha"/>
<feOffset dx="0.05625" dy="-0.05625"/>
<feGaussianBlur stdDeviation="0.05625"/>
<feComposite in2="hardAlpha" operator="arithmetic" k2="-1" k3="1"/>
<feColorMatrix type="matrix" values="0 0 0 0 1 0 0 0 0 0.458824 0 0 0 0 0.462745 0 0 0 1 0"/>
<feBlend mode="normal" in2="shape" result="effect1_innerShadow_2484_46086"/>
</filter>
<linearGradient id="paint0_linear_2484_46086" x1="30" y1="13.5996" x2="39.7828" y2="46.7091" gradientUnits="userSpaceOnUse">
<stop stop-color="#FFB800"/>
<stop offset="1" stop-color="#EBD511"/>
</linearGradient>
<linearGradient id="paint1_linear_2484_46086" x1="30" y1="13.5996" x2="39.7828" y2="46.7091" gradientUnits="userSpaceOnUse">
<stop stop-color="#FFB800"/>
<stop offset="1" stop-color="#EBD511"/>
</linearGradient>
<linearGradient id="paint2_linear_2484_46086" x1="29.7994" y1="45.8254" x2="25.6458" y2="50.198" gradientUnits="userSpaceOnUse">
<stop stop-color="#FFCF5A"/>
<stop offset="1" stop-color="#FEA254"/>
</linearGradient>
<linearGradient id="paint3_linear_2484_46086" x1="25.5338" y1="52.5825" x2="27.798" y2="47.8065" gradientUnits="userSpaceOnUse">
<stop stop-color="#FF886D"/>
<stop offset="1" stop-color="#FF886D" stop-opacity="0"/>
</linearGradient>
<linearGradient id="paint4_linear_2484_46086" x1="24.1581" y1="43.8003" x2="22.8212" y2="45.2076" gradientUnits="userSpaceOnUse">
<stop stop-color="#FFDA72"/>
<stop offset="1" stop-color="#F7A967"/>
</linearGradient>
<linearGradient id="paint5_linear_2484_46086" x1="23.3331" y1="46.0919" x2="23.3331" y2="44.545" gradientUnits="userSpaceOnUse">
<stop stop-color="#FDA071"/>
<stop offset="1" stop-color="#FDA071" stop-opacity="0"/>
</linearGradient>
<radialGradient id="paint6_radial_2484_46086" cx="0" cy="0" r="1" gradientUnits="userSpaceOnUse" gradientTransform="translate(23.7558 48.5615) rotate(127.221) scale(2.65349 2.584)">
<stop offset="0.364601" stop-color="#FFBC64"/>
<stop offset="1" stop-color="#FF8F6B"/>
</radialGradient>
</defs>
</svg>
