<svg width="59" height="64" viewBox="0 0 59 64" fill="none" xmlns="http://www.w3.org/2000/svg">
<path d="M26.2615 30.2908C27.2788 30.2908 28.1095 30.6034 28.7535 31.2288C29.3975 31.8448 29.7195 32.6474 29.7195 33.6368C29.7195 34.6261 29.3975 35.4334 28.7535 36.0588C28.1095 36.6748 27.2788 36.9828 26.2615 36.9828C25.2348 36.9828 24.3995 36.6748 23.7555 36.0588C23.1115 35.4334 22.7895 34.6261 22.7895 33.6368C22.7895 32.8901 22.9855 32.2321 23.3775 31.6628L26.4855 27.0008H28.3195L26.0795 30.2908H26.2615ZM26.2615 35.4568C26.8028 35.4568 27.2461 35.2934 27.5915 34.9668C27.9368 34.6308 28.1095 34.1874 28.1095 33.6368C28.1095 33.0861 27.9368 32.6474 27.5915 32.3208C27.2461 31.9848 26.8028 31.8168 26.2615 31.8168C25.7108 31.8168 25.2628 31.9848 24.9175 32.3208C24.5721 32.6474 24.3995 33.0861 24.3995 33.6368C24.3995 34.1874 24.5721 34.6308 24.9175 34.9668C25.2628 35.2934 25.7108 35.4568 26.2615 35.4568ZM33.7816 30.6968C34.715 30.6968 35.5036 30.9768 36.1476 31.5368C36.7916 32.0874 37.1136 32.8528 37.1136 33.8328C37.1136 34.8128 36.7823 35.5828 36.1196 36.1428C35.457 36.7028 34.645 36.9828 33.6836 36.9828C32.909 36.9828 32.223 36.8054 31.6256 36.4508C31.0283 36.0868 30.6036 35.5641 30.3516 34.8828L31.7376 34.0848C31.999 34.9714 32.6476 35.4148 33.6836 35.4148C34.2343 35.4148 34.673 35.2748 34.9996 34.9948C35.3356 34.7054 35.5036 34.3181 35.5036 33.8328C35.5036 33.3474 35.3403 32.9648 35.0136 32.6848C34.687 32.4048 34.253 32.2648 33.7116 32.2648H30.8556L31.2336 27.0008H36.6936V28.5128H32.7176L32.5496 30.6968H33.7816Z" fill="#5C2448"/>
<mask id="path-3-inside-1_2484_46064" fill="white">
<path d="M48 31.8008C48 41.7419 39.9411 49.8008 30 49.8008C20.0589 49.8008 12 41.7419 12 31.8008C12 21.8597 20.0589 13.8008 30 13.8008C39.9411 13.8008 48 21.8597 48 31.8008ZM13.98 31.8008C13.98 40.6484 21.1524 47.8208 30 47.8208C38.8476 47.8208 46.02 40.6484 46.02 31.8008C46.02 22.9532 38.8476 15.7808 30 15.7808C21.1524 15.7808 13.98 22.9532 13.98 31.8008Z"/>
</mask>
<path d="M48 31.8008C48 41.7419 39.9411 49.8008 30 49.8008C20.0589 49.8008 12 41.7419 12 31.8008C12 21.8597 20.0589 13.8008 30 13.8008C39.9411 13.8008 48 21.8597 48 31.8008ZM13.98 31.8008C13.98 40.6484 21.1524 47.8208 30 47.8208C38.8476 47.8208 46.02 40.6484 46.02 31.8008C46.02 22.9532 38.8476 15.7808 30 15.7808C21.1524 15.7808 13.98 22.9532 13.98 31.8008Z" stroke="url(#paint0_linear_2484_46064)" stroke-opacity="0.23" stroke-width="4" mask="url(#path-3-inside-1_2484_46064)"/>
<mask id="path-4-inside-2_2484_46064" fill="white">
<path d="M30 14.7908C30 14.244 30.4436 13.7979 30.9895 13.828C33.7259 13.9786 36.3965 14.7525 38.7952 16.0959C41.4823 17.6007 43.7383 19.7699 45.3475 22.3958C46.9567 25.0218 47.8652 28.0167 47.9861 31.0941C48.107 34.1715 47.4363 37.2285 46.0381 39.9726C44.6399 42.7167 42.561 45.0562 40.0003 46.7672C37.4395 48.4783 34.4826 49.5037 31.4123 49.7453C28.342 49.9869 25.261 49.4367 22.4641 48.1474C19.9674 46.9964 17.7716 45.2907 16.0414 43.1655C15.6961 42.7415 15.7963 42.1204 16.2386 41.799C16.681 41.4776 17.2978 41.5779 17.6458 41.9996C19.175 43.8519 21.1041 45.3401 23.2931 46.3492C25.7823 47.4968 28.5244 47.9865 31.2569 47.7714C33.9895 47.5563 36.6212 46.6437 38.9002 45.1209C41.1793 43.5981 43.0295 41.516 44.2739 39.0737C45.5183 36.6314 46.1153 33.9107 46.0076 31.1718C45.9 28.4329 45.0915 25.7675 43.6593 23.4304C42.2271 21.0933 40.2192 19.1627 37.8277 17.8234C35.7246 16.6456 33.3868 15.9597 30.9894 15.8114C30.4437 15.7776 30 15.3375 30 14.7908Z"/>
</mask>
<path d="M30 14.7908C30 14.244 30.4436 13.7979 30.9895 13.828C33.7259 13.9786 36.3965 14.7525 38.7952 16.0959C41.4823 17.6007 43.7383 19.7699 45.3475 22.3958C46.9567 25.0218 47.8652 28.0167 47.9861 31.0941C48.107 34.1715 47.4363 37.2285 46.0381 39.9726C44.6399 42.7167 42.561 45.0562 40.0003 46.7672C37.4395 48.4783 34.4826 49.5037 31.4123 49.7453C28.342 49.9869 25.261 49.4367 22.4641 48.1474C19.9674 46.9964 17.7716 45.2907 16.0414 43.1655C15.6961 42.7415 15.7963 42.1204 16.2386 41.799C16.681 41.4776 17.2978 41.5779 17.6458 41.9996C19.175 43.8519 21.1041 45.3401 23.2931 46.3492C25.7823 47.4968 28.5244 47.9865 31.2569 47.7714C33.9895 47.5563 36.6212 46.6437 38.9002 45.1209C41.1793 43.5981 43.0295 41.516 44.2739 39.0737C45.5183 36.6314 46.1153 33.9107 46.0076 31.1718C45.9 28.4329 45.0915 25.7675 43.6593 23.4304C42.2271 21.0933 40.2192 19.1627 37.8277 17.8234C35.7246 16.6456 33.3868 15.9597 30.9894 15.8114C30.4437 15.7776 30 15.3375 30 14.7908Z" stroke="url(#paint1_linear_2484_46064)" stroke-width="4" mask="url(#path-4-inside-2_2484_46064)"/>
<g filter="url(#filter0_iii_2484_46064)">
<path d="M15.9341 40.9646C15.8702 41.2128 15.6532 41.3979 15.3967 41.5262C14.6696 41.7777 14.0952 42.0198 13.62 42.2547C13.1993 42.4627 13.2033 43.1199 13.6254 43.3251C14.1186 43.5649 14.7378 43.7948 15.4254 44.0674C15.6103 44.1407 15.8716 44.3478 15.9367 44.6023C16.1371 45.3867 16.4098 46.2171 16.7101 46.9836C16.9432 47.5787 17.5195 47.5783 17.7538 46.9836C18.0578 46.2118 18.2889 45.378 18.5496 44.5847C18.612 44.3398 18.7967 44.1461 19.035 44.0617C19.6789 43.8336 20.2995 43.5762 20.8055 43.3534C21.2779 43.1453 21.2876 42.4697 20.8211 42.2486C20.3229 42.0126 19.7032 41.7393 19.0319 41.4954C18.7956 41.4095 18.6139 41.2284 18.5299 40.9712C18.2469 40.1046 18.0676 39.3698 17.767 38.6068C17.5328 38.0122 16.9178 38.0305 16.6836 38.6251C16.3841 39.3853 16.175 40.142 15.9341 40.9646Z" fill="url(#paint2_linear_2484_46064)"/>
</g>
<path d="M15.9341 40.9646C15.8702 41.2128 15.6532 41.3979 15.3967 41.5262C14.6696 41.7777 14.0952 42.0198 13.62 42.2547C13.1993 42.4627 13.2033 43.1199 13.6254 43.3251C14.1186 43.5649 14.7378 43.7948 15.4254 44.0674C15.6103 44.1407 15.8716 44.3478 15.9367 44.6023C16.1371 45.3867 16.4098 46.2171 16.7101 46.9836C16.9432 47.5787 17.5195 47.5783 17.7538 46.9836C18.0578 46.2118 18.2889 45.378 18.5496 44.5847C18.612 44.3398 18.7967 44.1461 19.035 44.0617C19.6789 43.8336 20.2995 43.5762 20.8055 43.3534C21.2779 43.1453 21.2876 42.4697 20.8211 42.2486C20.3229 42.0126 19.7032 41.7393 19.0319 41.4954C18.7956 41.4095 18.6139 41.2284 18.5299 40.9712C18.2469 40.1046 18.0676 39.3698 17.767 38.6068C17.5328 38.0122 16.9178 38.0305 16.6836 38.6251C16.3841 39.3853 16.175 40.142 15.9341 40.9646Z" fill="url(#paint3_linear_2484_46064)"/>
<g filter="url(#filter1_ii_2484_46064)">
<path d="M12.914 38.9815C12.8934 39.0614 12.8236 39.121 12.7411 39.1623C12.507 39.2432 12.3222 39.3211 12.1692 39.3967C12.0338 39.4637 12.0351 39.6752 12.171 39.7413C12.3297 39.8184 12.529 39.8924 12.7503 39.9802C12.8098 40.0038 12.8939 40.0704 12.9149 40.1523C12.9794 40.4048 13.0671 40.6721 13.1638 40.9188C13.2388 41.1103 13.4243 41.1102 13.4997 40.9188C13.5976 40.6704 13.6719 40.402 13.7558 40.1467C13.7759 40.0678 13.8354 40.0055 13.9121 39.9783C14.1193 39.9049 14.3191 39.8221 14.4819 39.7504C14.634 39.6834 14.6371 39.4659 14.4869 39.3948C14.3266 39.3188 14.1271 39.2309 13.9111 39.1524C13.835 39.1247 13.7765 39.0664 13.7495 38.9836C13.6584 38.7047 13.6007 38.4682 13.504 38.2227C13.4286 38.0313 13.2306 38.0372 13.1552 38.2285C13.0589 38.4732 12.9916 38.7168 12.914 38.9815Z" fill="url(#paint4_linear_2484_46064)"/>
</g>
<path d="M12.914 38.9815C12.8934 39.0614 12.8236 39.121 12.7411 39.1623C12.507 39.2432 12.3222 39.3211 12.1692 39.3967C12.0338 39.4637 12.0351 39.6752 12.171 39.7413C12.3297 39.8184 12.529 39.8924 12.7503 39.9802C12.8098 40.0038 12.8939 40.0704 12.9149 40.1523C12.9794 40.4048 13.0671 40.6721 13.1638 40.9188C13.2388 41.1103 13.4243 41.1102 13.4997 40.9188C13.5976 40.6704 13.6719 40.402 13.7558 40.1467C13.7759 40.0678 13.8354 40.0055 13.9121 39.9783C14.1193 39.9049 14.3191 39.8221 14.4819 39.7504C14.634 39.6834 14.6371 39.4659 14.4869 39.3948C14.3266 39.3188 14.1271 39.2309 13.9111 39.1524C13.835 39.1247 13.7765 39.0664 13.7495 38.9836C13.6584 38.7047 13.6007 38.4682 13.504 38.2227C13.4286 38.0313 13.2306 38.0372 13.1552 38.2285C13.0589 38.4732 12.9916 38.7168 12.914 38.9815Z" fill="url(#paint5_linear_2484_46064)"/>
<g filter="url(#filter2_i_2484_46064)">
<path d="M11.9605 44.3246C11.9318 44.436 11.8344 44.5191 11.7193 44.5766C11.3929 44.6896 11.1352 44.7982 10.9219 44.9036C10.7331 44.997 10.7349 45.2919 10.9243 45.384C11.1457 45.4916 11.4236 45.5948 11.7322 45.7172C11.8152 45.7501 11.9325 45.843 11.9616 45.9573C12.0516 46.3093 12.174 46.682 12.3088 47.026C12.4134 47.2931 12.6721 47.2929 12.7772 47.026C12.9137 46.6796 13.0173 46.3054 13.1344 45.9494C13.1624 45.8394 13.2453 45.7525 13.3522 45.7146C13.6412 45.6123 13.9198 45.4967 14.1468 45.3967C14.3589 45.3033 14.3632 45.0001 14.1538 44.9009C13.9303 44.795 13.6521 44.6723 13.3508 44.5628C13.2448 44.5243 13.1632 44.443 13.1255 44.3276C12.9985 43.9386 12.9181 43.6089 12.7831 43.2664C12.678 42.9995 12.402 43.0077 12.2969 43.2746C12.1625 43.6158 12.0686 43.9554 11.9605 44.3246Z" fill="url(#paint6_radial_2484_46064)"/>
</g>
<defs>
<filter id="filter0_iii_2484_46064" x="13.1566" y="38.0762" width="8.10215" height="9.44727" filterUnits="userSpaceOnUse" color-interpolation-filters="sRGB">
<feFlood flood-opacity="0" result="BackgroundImageFix"/>
<feBlend mode="normal" in="SourceGraphic" in2="BackgroundImageFix" result="shape"/>
<feColorMatrix in="SourceAlpha" type="matrix" values="0 0 0 0 0 0 0 0 0 0 0 0 0 0 0 0 0 0 127 0" result="hardAlpha"/>
<feOffset dx="0.09375" dy="-0.09375"/>
<feGaussianBlur stdDeviation="0.09375"/>
<feComposite in2="hardAlpha" operator="arithmetic" k2="-1" k3="1"/>
<feColorMatrix type="matrix" values="0 0 0 0 0.937255 0 0 0 0 0.482353 0 0 0 0 0.329412 0 0 0 1 0"/>
<feBlend mode="normal" in2="shape" result="effect1_innerShadow_2484_46064"/>
<feColorMatrix in="SourceAlpha" type="matrix" values="0 0 0 0 0 0 0 0 0 0 0 0 0 0 0 0 0 0 127 0" result="hardAlpha"/>
<feOffset dx="0.09375" dy="0.09375"/>
<feGaussianBlur stdDeviation="0.1875"/>
<feComposite in2="hardAlpha" operator="arithmetic" k2="-1" k3="1"/>
<feColorMatrix type="matrix" values="0 0 0 0 0.737255 0 0 0 0 0.615686 0 0 0 0 0.415686 0 0 0 1 0"/>
<feBlend mode="normal" in2="effect1_innerShadow_2484_46064" result="effect2_innerShadow_2484_46064"/>
<feColorMatrix in="SourceAlpha" type="matrix" values="0 0 0 0 0 0 0 0 0 0 0 0 0 0 0 0 0 0 127 0" result="hardAlpha"/>
<feOffset dx="-0.15" dy="0.09375"/>
<feGaussianBlur stdDeviation="0.075"/>
<feComposite in2="hardAlpha" operator="arithmetic" k2="-1" k3="1"/>
<feColorMatrix type="matrix" values="0 0 0 0 1 0 0 0 0 0.901961 0 0 0 0 0.458824 0 0 0 1 0"/>
<feBlend mode="normal" in2="effect2_innerShadow_2484_46064" result="effect3_innerShadow_2484_46064"/>
</filter>
<filter id="filter1_ii_2484_46064" x="12.0309" y="38.082" width="2.6043" height="3.01797" filterUnits="userSpaceOnUse" color-interpolation-filters="sRGB">
<feFlood flood-opacity="0" result="BackgroundImageFix"/>
<feBlend mode="normal" in="SourceGraphic" in2="BackgroundImageFix" result="shape"/>
<feColorMatrix in="SourceAlpha" type="matrix" values="0 0 0 0 0 0 0 0 0 0 0 0 0 0 0 0 0 0 127 0" result="hardAlpha"/>
<feOffset dx="0.0375" dy="0.0375"/>
<feGaussianBlur stdDeviation="0.0375"/>
<feComposite in2="hardAlpha" operator="arithmetic" k2="-1" k3="1"/>
<feColorMatrix type="matrix" values="0 0 0 0 0.803922 0 0 0 0 0.6 0 0 0 0 0.262745 0 0 0 1 0"/>
<feBlend mode="normal" in2="shape" result="effect1_innerShadow_2484_46064"/>
<feColorMatrix in="SourceAlpha" type="matrix" values="0 0 0 0 0 0 0 0 0 0 0 0 0 0 0 0 0 0 127 0" result="hardAlpha"/>
<feOffset dx="-0.0375" dy="0.0375"/>
<feGaussianBlur stdDeviation="0.0375"/>
<feComposite in2="hardAlpha" operator="arithmetic" k2="-1" k3="1"/>
<feColorMatrix type="matrix" values="0 0 0 0 1 0 0 0 0 0.882353 0 0 0 0 0.423529 0 0 0 1 0"/>
<feBlend mode="normal" in2="effect1_innerShadow_2484_46064" result="effect2_innerShadow_2484_46064"/>
</filter>
<filter id="filter2_i_2484_46064" x="10.7812" y="43.0141" width="3.58359" height="4.2125" filterUnits="userSpaceOnUse" color-interpolation-filters="sRGB">
<feFlood flood-opacity="0" result="BackgroundImageFix"/>
<feBlend mode="normal" in="SourceGraphic" in2="BackgroundImageFix" result="shape"/>
<feColorMatrix in="SourceAlpha" type="matrix" values="0 0 0 0 0 0 0 0 0 0 0 0 0 0 0 0 0 0 127 0" result="hardAlpha"/>
<feOffset dx="0.05625" dy="-0.05625"/>
<feGaussianBlur stdDeviation="0.05625"/>
<feComposite in2="hardAlpha" operator="arithmetic" k2="-1" k3="1"/>
<feColorMatrix type="matrix" values="0 0 0 0 1 0 0 0 0 0.458824 0 0 0 0 0.462745 0 0 0 1 0"/>
<feBlend mode="normal" in2="shape" result="effect1_innerShadow_2484_46064"/>
</filter>
<linearGradient id="paint0_linear_2484_46064" x1="30" y1="13.8008" x2="39.7828" y2="46.9103" gradientUnits="userSpaceOnUse">
<stop stop-color="#FFB800"/>
<stop offset="1" stop-color="#EBD511"/>
</linearGradient>
<linearGradient id="paint1_linear_2484_46064" x1="30" y1="13.8008" x2="39.7828" y2="46.9103" gradientUnits="userSpaceOnUse">
<stop stop-color="#FFB800"/>
<stop offset="1" stop-color="#EBD511"/>
</linearGradient>
<linearGradient id="paint2_linear_2484_46064" x1="19.7994" y1="41.0266" x2="15.6458" y2="45.3991" gradientUnits="userSpaceOnUse">
<stop stop-color="#FFCF5A"/>
<stop offset="1" stop-color="#FEA254"/>
</linearGradient>
<linearGradient id="paint3_linear_2484_46064" x1="15.5338" y1="47.7837" x2="17.798" y2="43.0076" gradientUnits="userSpaceOnUse">
<stop stop-color="#FF886D"/>
<stop offset="1" stop-color="#FF886D" stop-opacity="0"/>
</linearGradient>
<linearGradient id="paint4_linear_2484_46064" x1="14.1581" y1="39.0015" x2="12.8212" y2="40.4088" gradientUnits="userSpaceOnUse">
<stop stop-color="#FFDA72"/>
<stop offset="1" stop-color="#F7A967"/>
</linearGradient>
<linearGradient id="paint5_linear_2484_46064" x1="13.3331" y1="41.293" x2="13.3331" y2="39.7462" gradientUnits="userSpaceOnUse">
<stop stop-color="#FDA071"/>
<stop offset="1" stop-color="#FDA071" stop-opacity="0"/>
</linearGradient>
<radialGradient id="paint6_radial_2484_46064" cx="0" cy="0" r="1" gradientUnits="userSpaceOnUse" gradientTransform="translate(13.7558 43.7626) rotate(127.221) scale(2.65349 2.584)">
<stop offset="0.364601" stop-color="#FFBC64"/>
<stop offset="1" stop-color="#FF8F6B"/>
</radialGradient>
</defs>
</svg>
