<svg xmlns="http://www.w3.org/2000/svg" width="89" height="62" viewBox="0 0 89 62" fill="none">
<path d="M52.2564 68.8744C66.0484 63.765 73.087 48.4425 67.9776 34.6505C62.8683 20.8586 47.5457 13.82 33.7538 18.9293C19.9618 24.0387 12.9232 39.3612 18.0326 53.1532C23.1419 66.9451 38.4645 73.9838 52.2564 68.8744Z" fill="url(#paint0_radial_1447_69683)"/>
<g style="mix-blend-mode:soft-light">
<path d="M52.2564 68.8744C66.0484 63.765 73.087 48.4425 67.9776 34.6505C62.8683 20.8586 47.5457 13.82 33.7538 18.9293C19.9618 24.0387 12.9232 39.3612 18.0326 53.1532C23.1419 66.9451 38.4645 73.9838 52.2564 68.8744Z" fill="url(#paint1_radial_1447_69683)"/>
</g>
<g style="mix-blend-mode:soft-light">
<path d="M52.2564 68.8744C66.0484 63.765 73.087 48.4425 67.9776 34.6505C62.8683 20.8586 47.5457 13.82 33.7538 18.9293C19.9618 24.0387 12.9232 39.3612 18.0326 53.1532C23.1419 66.9451 38.4645 73.9838 52.2564 68.8744Z" fill="url(#paint2_radial_1447_69683)"/>
</g>
<g style="mix-blend-mode:overlay">
<path d="M52.2564 68.8744C66.0484 63.765 73.087 48.4425 67.9776 34.6505C62.8683 20.8586 47.5457 13.82 33.7538 18.9293C19.9618 24.0387 12.9232 39.3612 18.0326 53.1532C23.1419 66.9451 38.4645 73.9838 52.2564 68.8744Z" fill="url(#paint3_radial_1447_69683)" fill-opacity="0.7"/>
</g>
<mask id="mask0_1447_69683" style="mask-type:alpha" maskUnits="userSpaceOnUse" x="16" y="17" width="54" height="54">
<path d="M52.2564 68.8744C66.0484 63.765 73.087 48.4425 67.9776 34.6505C62.8683 20.8586 47.5457 13.82 33.7538 18.9293C19.9618 24.0387 12.9232 39.3612 18.0326 53.1532C23.1419 66.9451 38.4645 73.9838 52.2564 68.8744Z" fill="white"/>
</mask>
<g mask="url(#mask0_1447_69683)">
<g filter="url(#filter0_f_1447_69683)">
<path d="M17.6271 52.4935C17.5228 52.1286 17.6264 52.0498 17.7939 52.3975C17.9801 52.7838 18.2047 53.6158 18.4022 54.0946C18.9252 55.3626 19.5363 56.4072 20.0762 57.2409C21.8159 59.9279 23.4217 61.4797 24.8596 62.7658C29.5862 66.9934 33.6166 68.5277 37.3295 69.4338C42.7721 70.7621 47.5072 70.0718 51.9727 68.6431C52.0854 68.6071 52.3712 69.3219 52.297 69.4562C52.1632 69.6984 51.8575 69.6205 51.6538 69.6879C51.0685 69.8817 50.4761 70.0561 49.8762 70.21C48.0973 70.6666 46.2502 70.9386 44.3247 70.9887C39.0896 71.1248 33.0724 70.266 25.8628 64.2398C25.4092 63.8607 24.9485 63.4554 24.4776 63.0108C24.101 62.6553 23.7187 62.278 23.3284 61.8676C22.0447 60.5178 18.9168 57.0037 17.6271 52.4935ZM52.2827 69.4703C52.1782 69.5127 51.9022 68.8499 51.9512 68.6729C52.0253 68.4054 52.3179 68.4947 52.4747 68.4252C53.1259 68.1366 53.7696 67.8278 54.4049 67.4973C56.147 66.591 57.8276 65.5229 59.4257 64.2448C63.3897 61.0748 67.4021 56.9941 69.0651 48.408C69.1709 47.8616 69.2644 47.2888 69.3411 46.682C69.5741 44.8377 70.0733 39.9865 67.9502 34.9721C67.7712 34.5494 67.8067 34.2433 68.002 34.5905C68.2505 35.0325 68.583 36.0229 68.7555 36.5516C69.3079 38.2446 69.5743 39.7506 69.7263 40.9903C70.208 44.9192 69.7816 47.4587 69.3284 49.615C67.8554 56.6239 64.8176 60.3548 61.6489 63.401C58.8069 66.1332 55.6528 68.1021 52.2827 69.4703Z" fill="#401C02"/>
</g>
<g filter="url(#filter1_f_1447_69683)">
<path d="M17.6271 52.4935C17.5228 52.1286 17.6264 52.0498 17.7939 52.3975C17.9801 52.7838 18.2047 53.6158 18.4022 54.0946C18.9252 55.3626 19.5363 56.4072 20.0762 57.2409C21.8159 59.9279 23.4217 61.4797 24.8596 62.7658C29.5862 66.9934 33.6166 68.5277 37.3295 69.4338C42.7721 70.7621 47.5072 70.0718 51.9727 68.6431C52.0854 68.6071 52.3712 69.3219 52.297 69.4562C52.1632 69.6984 51.8575 69.6205 51.6538 69.6879C51.0685 69.8817 50.4761 70.0561 49.8762 70.21C48.0973 70.6666 46.2502 70.9386 44.3247 70.9887C39.0896 71.1248 33.0724 70.266 25.8628 64.2398C25.4092 63.8607 24.9485 63.4554 24.4776 63.0108C24.101 62.6553 23.7187 62.278 23.3284 61.8676C22.0447 60.5178 18.9168 57.0037 17.6271 52.4935ZM52.2827 69.4703C52.1782 69.5127 51.9022 68.8499 51.9512 68.6729C52.0253 68.4054 52.3179 68.4947 52.4747 68.4252C53.1259 68.1366 53.7696 67.8278 54.4049 67.4973C56.147 66.591 57.8276 65.5229 59.4257 64.2448C63.3897 61.0748 67.4021 56.9941 69.0651 48.408C69.1709 47.8616 69.2644 47.2888 69.3411 46.682C69.5741 44.8377 70.0733 39.9865 67.9502 34.9721C67.7712 34.5494 67.8067 34.2433 68.002 34.5905C68.2505 35.0325 68.583 36.0229 68.7555 36.5516C69.3079 38.2446 69.5743 39.7506 69.7263 40.9903C70.208 44.9192 69.7816 47.4587 69.3284 49.615C67.8554 56.6239 64.8176 60.3548 61.6489 63.401C58.8069 66.1332 55.6528 68.1021 52.2827 69.4703Z" fill="#401C02"/>
</g>
</g>
<g filter="url(#filter2_f_1447_69683)">
<circle cx="54.0072" cy="52.9926" r="5.521" transform="rotate(-20.3277 54.0072 52.9926)" fill="#E66200" fill-opacity="0.75"/>
</g>
<path d="M52.726 50.0046C52.7041 49.9774 52.6719 49.954 52.65 49.9268L52.5818 49.8696C52.5495 49.8462 52.5277 49.819 52.4993 49.806L52.4851 49.7995C52.4671 49.7826 52.4387 49.7695 52.4207 49.7527C52.2389 49.6434 52.0506 49.5483 51.8558 49.4674C51.5163 49.3458 51.1639 49.2527 50.8088 49.1841C50.1514 49.0625 49.4784 48.9939 48.8103 48.9706C48.4782 48.9641 48.1461 48.9576 47.8178 48.9615L47.7131 48.9649C47.5839 48.9657 47.4546 48.9665 47.3292 48.9776C47.1651 48.9796 47.0048 48.9918 46.8341 49.008C46.4541 49.031 46.1373 49.0659 45.8451 49.1035C45.5877 49.14 45.386 49.1676 45.1946 49.1914C45.1287 49.2041 45.0704 49.2374 45.0301 49.2877C44.9899 49.3379 44.9638 49.3947 44.9557 49.4683C44.9542 49.5278 44.9772 49.5899 45.0106 49.6482C45.0543 49.7026 45.1111 49.7287 45.1744 49.7406C45.3784 49.7828 45.5824 49.8249 45.7968 49.8633C46.0745 49.9135 46.3521 49.9637 46.6298 50.0139L48.5941 50.3578C49.2024 50.4739 49.8068 50.5797 50.3671 50.7254C50.6279 50.7936 50.8821 50.8761 51.1299 50.9727C51.197 50.9949 51.2576 51.0314 51.3286 51.064L51.3466 51.0808L51.3401 51.095C51.3178 51.1621 51.2852 51.2331 51.2526 51.304C51.1276 51.5387 50.9884 51.7669 50.8351 51.9886C50.488 52.4822 50.1023 52.9666 49.7295 53.4226L48.3893 55.0496C48.3491 55.0998 48.323 55.1566 48.3111 55.2198C48.2992 55.2831 48.3119 55.3491 48.3349 55.4112C48.3579 55.4733 48.4016 55.5278 48.4415 55.5719C48.4918 55.6122 48.5485 55.6382 48.6118 55.6501L48.9773 55.7149L50.7518 56.0231C51.2826 56.1208 51.803 56.2224 52.2962 56.3459C52.5286 56.4011 52.7441 56.4743 52.9635 56.5579C53.0202 56.584 53.077 56.6101 53.1338 56.6361C53.1077 56.6929 53.0816 56.7496 53.0555 56.8064C52.9436 57.0127 52.8278 57.2087 52.6874 57.402C52.3872 57.8312 52.0482 58.2512 51.7261 58.6531L50.6144 60.0069C50.4599 60.1937 50.3053 60.3805 50.1546 60.5776C50.0404 60.7142 49.9299 60.8611 49.8195 61.008C49.7792 61.0582 49.7532 61.115 49.7658 61.1809C49.7643 61.2404 49.7873 61.3025 49.8272 61.3466C49.8671 61.3907 49.9096 61.4102 49.9626 61.426C50.0155 61.4417 50.0711 61.4329 50.1229 61.4137C50.1436 61.406 50.1539 61.4022 50.1708 61.3841C50.3146 61.2955 50.4649 61.1928 50.6463 61.0785C50.8653 60.9385 51.087 60.7739 51.3565 60.5798C51.6261 60.3858 51.8336 60.2147 52.0411 60.0436C52.2382 59.8764 52.4625 59.6873 52.6999 59.4699C53.1409 59.071 53.5393 58.6526 53.912 58.1965C54.1133 57.9453 54.2901 57.6914 54.445 57.4103C54.5374 57.2466 54.6053 57.0801 54.6655 56.893C54.6785 56.8646 54.6812 56.84 54.6904 56.8013C54.6996 56.7626 54.7061 56.7484 54.7088 56.7238L54.7234 56.636C54.7261 56.6115 54.7249 56.5766 54.7341 56.5378C54.7464 56.3802 54.7237 56.2237 54.6662 56.0684C54.6125 55.9235 54.5239 55.7797 54.4119 55.6681C54.3939 55.6512 54.372 55.624 54.3398 55.6006L54.2715 55.5434C54.2186 55.5277 54.2006 55.5108 54.1684 55.4875L54.1503 55.4706C54.1323 55.4537 54.1181 55.4472 54.1001 55.4303C53.9467 55.3341 53.7726 55.2455 53.5958 55.1815C53.2951 55.0691 52.9956 54.9917 52.6792 54.9323C52.0993 54.8291 51.5141 54.7751 50.93 54.756C50.7026 54.746 50.479 54.7464 50.2658 54.743C50.4253 54.6015 50.5952 54.4561 50.7819 54.2927C51.2736 53.8398 51.7433 53.3596 52.1732 52.8353C52.4017 52.5622 52.6084 52.2619 52.7829 51.9382C52.8922 51.7564 52.9731 51.5616 53.0256 51.3538C53.0283 51.3292 53.0348 51.315 53.0478 51.2866L53.0505 51.2621C53.0467 51.2517 53.0597 51.2234 53.0586 51.1885L53.0796 51.0864C53.0785 51.0515 53.0877 51.0128 53.0865 50.9779C53.0911 50.7996 53.0712 50.6186 53.0098 50.4529C52.9484 50.2872 52.856 50.1331 52.726 50.0046Z" fill="url(#paint4_radial_1447_69683)"/>
<path d="M50.1356 61.5146C50.1564 61.5069 50.1874 61.4954 50.2043 61.4774C50.3688 61.3811 50.5191 61.2783 50.6902 61.1679C50.9091 61.0279 51.1204 60.8672 51.4107 60.6654C51.6531 60.4932 51.8502 60.326 52.0304 60.1768L52.0914 60.1189C52.3364 59.9221 52.5466 59.7265 52.7502 59.5451C53.1912 59.1462 53.6065 58.7097 53.9792 58.2537C54.1806 58.0025 54.3639 57.7344 54.5188 57.4533C54.6112 57.2895 54.6959 57.1051 54.7458 56.9218C54.7588 56.8934 54.7577 56.8585 54.7669 56.8197L54.7695 56.7952C54.7722 56.7707 54.7787 56.7565 54.7814 56.7319L54.796 56.6441C54.7987 56.6196 54.8079 56.5808 54.8067 56.5459C54.8217 56.3638 54.7952 56.1969 54.7338 56.0313C54.6724 55.8656 54.58 55.7114 54.4538 55.5933L54.432 55.5661C54.4139 55.5492 54.3997 55.5427 54.3921 55.522L54.3134 55.4687C54.2812 55.4453 54.2632 55.4284 54.231 55.405L54.213 55.3882C54.1949 55.3713 54.1769 55.3544 54.1524 55.3517C53.9848 55.249 53.8106 55.1604 53.6338 55.0964C53.3332 54.984 53.0195 54.9001 52.7031 54.8406C52.1232 54.7375 51.5238 54.677 50.9293 54.6617C50.7963 54.6521 50.6774 54.649 50.5585 54.646C50.6467 54.5662 50.7452 54.4826 50.8503 54.3848C51.3523 53.928 51.8182 53.4375 52.2481 52.9132C52.4831 52.6259 52.6898 52.3256 52.8681 52.0123C52.9736 51.8201 53.0648 51.6215 53.1277 51.4098C53.1342 51.3956 53.1407 51.3814 53.1434 51.3569L53.1488 51.3078C53.158 51.269 53.1672 51.2303 53.1699 51.2058L53.191 51.1037C53.2002 51.065 53.199 51.0301 53.2044 50.981C53.2051 50.7923 53.1813 50.601 53.1123 50.4146C53.0432 50.2282 52.9366 50.0675 52.8028 49.9287C52.7809 49.9015 52.7487 49.8781 52.7268 49.8509L52.6547 49.7834C52.6225 49.76 52.5903 49.7366 52.5581 49.7132L52.5439 49.7067C52.5297 49.7002 52.5117 49.6833 52.4936 49.6664L52.4795 49.6599C52.2938 49.5403 52.0913 49.4387 51.8861 49.3616C51.5467 49.24 51.1801 49.1404 50.825 49.0717C50.1573 48.9541 49.4842 48.8855 48.8058 48.866C48.4737 48.8595 48.1416 48.853 47.8029 48.8607L47.6982 48.8641C47.569 48.8649 47.4398 48.8657 47.304 48.8806C47.1399 48.8826 46.9796 48.8949 46.8089 48.911C46.4534 48.9367 46.1431 48.9574 45.8199 49.0066C45.5625 49.043 45.3608 49.0706 45.1694 49.0944C45.0789 49.1044 45.0038 49.1558 44.9363 49.2279C44.8791 49.2962 44.84 49.3813 44.8397 49.4757C44.8393 49.57 44.87 49.6528 44.9214 49.728C44.9831 49.7993 45.0579 49.8423 45.1496 49.8672C45.3536 49.9094 45.5576 49.9515 45.7682 49.9795C46.0458 50.0297 46.3235 50.0799 46.6011 50.1302L48.5655 50.474C49.1453 50.5771 49.7639 50.6894 50.3281 50.8455C50.585 50.9034 50.8393 50.9858 51.0767 51.0863C51.1193 51.1058 51.158 51.115 51.1902 51.1384C51.1707 51.181 51.1615 51.2197 51.1381 51.2519C51.0131 51.4866 50.8739 51.7148 50.727 51.9223C50.3865 52.4017 50.0176 52.8681 49.6215 53.3563L48.2813 54.9833C48.2241 55.0515 48.1915 55.1225 48.177 55.2103C48.1624 55.2981 48.1685 55.3783 48.1992 55.4611C48.2299 55.544 48.2775 55.6088 48.3458 55.6659C48.414 55.723 48.485 55.7556 48.5728 55.7702L48.941 55.8104L50.7155 56.1186C51.183 56.2045 51.7383 56.3049 52.2599 56.4414C52.4819 56.5005 52.704 56.5595 52.913 56.6469C52.9375 56.6496 52.9556 56.6665 52.9839 56.6795C52.9709 56.7079 52.9644 56.7221 52.9513 56.7505C52.8497 56.953 52.7236 57.1528 52.5897 57.3319C52.296 57.7469 51.9674 58.163 51.6284 58.583L50.5167 59.9368C50.3622 60.1236 50.2076 60.3104 50.0569 60.5075L49.9998 60.5758C49.9024 60.6943 49.8154 60.809 49.718 60.9275C49.6608 60.9957 49.6321 61.077 49.6317 61.1714C49.6313 61.2657 49.6724 61.3447 49.7303 61.4057C49.7843 61.4563 49.8488 61.5031 49.9263 61.5215C49.983 61.5476 50.0632 61.5414 50.1356 61.5146ZM52.6471 50.0806C52.7629 50.2025 52.8477 50.336 52.9052 50.4913C52.9627 50.6466 52.9854 50.8031 52.977 50.9711C52.9781 51.006 52.9689 51.0447 52.9662 51.0692L52.9555 51.1674C52.9567 51.2023 52.9436 51.2307 52.9409 51.2552L52.9252 51.3082C52.9187 51.3224 52.9225 51.3327 52.916 51.3469C52.8597 51.5444 52.7749 51.7289 52.676 51.9068C52.508 52.2163 52.2975 52.5063 52.069 52.7794C51.6456 53.2895 51.1901 53.7762 50.6946 54.2188C50.5078 54.3821 50.3522 54.534 50.1888 54.6652L49.9541 54.8581L50.2578 54.8516C50.4672 54.8447 50.6947 54.8546 50.9221 54.8646C51.5023 54.8733 52.0914 54.9377 52.6571 55.0343C52.9593 55.0872 53.2626 55.175 53.5595 55.277C53.7259 55.3449 53.8924 55.4127 54.0354 55.5128C54.0496 55.5193 54.0676 55.5362 54.0818 55.5427L54.0998 55.5596C54.1321 55.583 54.1501 55.5999 54.1681 55.6167L54.2402 55.6842C54.244 55.6946 54.2621 55.7115 54.2763 55.718L54.2981 55.7452C54.3959 55.8503 54.473 55.963 54.5267 56.108C54.5804 56.2529 54.5954 56.3887 54.5897 56.5321C54.5908 56.567 54.5881 56.5916 54.5789 56.6303L54.5644 56.7181C54.5578 56.7323 54.5617 56.7427 54.5552 56.7569L54.546 56.7956C54.5368 56.8343 54.5341 56.8589 54.5276 56.8731C54.4739 57.046 54.406 57.2125 54.3201 57.3621C54.1717 57.629 53.9988 57.8932 53.7936 58.1341C53.4312 58.5863 53.0225 59.0085 52.588 59.3932C52.3844 59.5746 52.1704 59.7599 51.9395 59.9632L51.8786 60.0211C51.6983 60.1703 51.5077 60.3233 51.2757 60.4917C50.9958 60.6896 50.7741 60.8541 50.5655 60.9903C50.3945 61.1008 50.2545 61.1997 50.09 61.296C50.0796 61.2998 50.0693 61.3037 50.0589 61.3075C50.0279 61.319 49.993 61.3202 49.9684 61.3175C49.94 61.3044 49.9117 61.2914 49.8898 61.2642C49.8679 61.2369 49.8564 61.2059 49.8553 61.171C49.8541 61.1361 49.8633 61.0974 49.8905 61.0755C49.9879 60.957 50.075 60.8423 50.1724 60.7238L50.2295 60.6555C50.3841 60.4687 50.5348 60.2716 50.6893 60.0848L51.801 58.731C52.14 58.311 52.479 57.8911 52.7688 57.4657C52.9092 57.2724 53.0354 57.0726 53.1435 56.8559C53.1696 56.7992 53.206 56.7386 53.2179 56.6753L53.257 56.5901L53.168 56.5407C53.1074 56.5043 53.0506 56.4782 52.9835 56.4559C52.7642 56.3724 52.5344 56.2926 52.302 56.2374C51.7804 56.1009 51.2251 56.0005 50.7434 55.9081L48.6035 55.5351C48.5544 55.5297 48.5222 55.5064 48.4861 55.4726C48.45 55.4389 48.4243 55.4013 48.409 55.3599C48.3937 55.3184 48.3887 55.2732 48.394 55.2241C48.3994 55.175 48.4228 55.1428 48.4423 55.1002L49.7826 53.4733C50.1787 52.9851 50.5579 52.5149 50.8946 52.0251C51.048 51.8034 51.1975 51.5714 51.3187 51.3263C51.3513 51.2554 51.3839 51.1844 51.4127 51.1031L51.4479 51.0076L51.3448 50.9516C51.2842 50.9152 51.2132 50.8826 51.1423 50.85C50.8907 50.743 50.6261 50.6644 50.3653 50.5962C49.7908 50.444 49.1722 50.3317 48.5819 50.2324L46.6176 49.8885C46.3399 49.8383 46.0623 49.7881 45.7846 49.7379C45.5806 49.6957 45.3804 49.6639 45.166 49.6256C45.1273 49.6164 45.0951 49.593 45.0732 49.5658C45.0514 49.5385 45.036 49.4971 45.0349 49.4622C45.0337 49.4273 45.0533 49.3847 45.0766 49.3525C45.1284 49.3334 45.1595 49.3218 45.2009 49.3065C45.3923 49.2827 45.5902 49.2447 45.841 49.2225C46.1681 49.1837 46.4745 49.1526 46.8197 49.1307C46.98 49.1184 47.1441 49.1165 47.3148 49.1004C47.444 49.0996 47.5732 49.0988 47.6986 49.0877L47.8033 49.0842C48.1316 49.0804 48.4599 49.0765 48.7958 49.0934C49.4601 49.1064 50.1228 49.1788 50.7801 49.3003C51.1314 49.3586 51.4735 49.4556 51.8129 49.5771C52.0039 49.6477 52.1922 49.7428 52.3598 49.8455L52.374 49.852C52.3882 49.8586 52.4062 49.8754 52.4204 49.882L52.4384 49.8988C52.4565 49.9157 52.4848 49.9287 52.5067 49.956L52.5788 50.0235C52.6072 50.0365 52.6252 50.0534 52.6471 50.0806Z" fill="url(#paint5_linear_1447_69683)"/>
<g opacity="0.7">
<g filter="url(#filter3_f_1447_69683)">
<circle cx="57.3138" cy="39.9916" r="5.521" transform="rotate(-20.3277 57.3138 39.9916)" fill="#E66200"/>
</g>
<g filter="url(#filter4_f_1447_69683)">
<circle cx="29.6674" cy="50.2338" r="5.521" transform="rotate(-20.3277 29.6674 50.2338)" fill="#E66200"/>
</g>
</g>
<path d="M21.3393 42.5124C21.8512 41.3737 25.1644 34.6531 31.2035 36.3429C31.4041 36.4052 31.5809 36.5272 31.7103 36.6926C31.8398 36.858 31.9157 37.0589 31.928 37.2685C31.9417 37.4129 31.9095 37.558 31.8359 37.683C31.7623 37.8079 31.651 37.9064 31.5181 37.9644C30.0792 38.667 26.6597 37.8661 23.2363 42.0864C22.9402 42.4603 22.6648 42.8501 22.4112 43.254C22.2241 43.5435 21.8965 43.9275 21.5488 43.7583C21.2517 43.6141 21.1997 43.2989 21.209 43.0411C21.2183 42.8582 21.2625 42.6787 21.3393 42.5124Z" fill="#42210B"/>
<path d="M58.5122 28.7408C57.3809 28.2108 50.4888 25.2708 47.0093 30.4869C46.8974 30.6647 46.8425 30.8725 46.8521 31.0824C46.8617 31.2923 46.9352 31.4942 47.0627 31.6611C47.1463 31.7798 47.2652 31.8689 47.4025 31.9158C47.5398 31.9626 47.6884 31.9648 47.827 31.922C49.3754 31.518 51.4488 28.6821 56.7955 29.6534C57.2636 29.7448 57.7264 29.8611 58.1821 30.0017C58.5127 30.0994 59.0114 30.1773 59.1649 29.8225C59.2964 29.5194 59.1305 29.2465 58.9545 29.0573C58.8286 28.9246 58.6784 28.8171 58.5122 28.7408Z" fill="#42210B"/>
<path d="M37.0781 46.8491C36.6353 46.7762 36.1847 46.7625 35.7383 46.8085C34.0235 46.9728 32.6771 47.9791 31.6085 49.2746C30.413 50.7231 28.1631 48.8742 29.3569 47.4274C31.582 44.7309 35.1433 43.0759 38.6057 44.2437C40.3362 44.8273 39.2115 47.3505 37.5234 46.9291C37.3761 46.8936 37.2271 46.8659 37.0769 46.846L37.0781 46.8491Z" fill="url(#paint6_radial_1447_69683)"/>
<path d="M37.0781 46.8491C36.6353 46.7762 36.1847 46.7625 35.7383 46.8085C34.0235 46.9728 32.6771 47.9791 31.6085 49.2746C30.413 50.7231 28.1631 48.8742 29.3569 47.4274C31.582 44.7309 35.1433 43.0759 38.6057 44.2437C40.3362 44.8273 39.2115 47.3505 37.5234 46.9291C37.3761 46.8936 37.2271 46.8659 37.0769 46.846L37.0781 46.8491Z" stroke="url(#paint7_linear_1447_69683)" stroke-width="0.22084" stroke-miterlimit="10"/>
<path d="M54.3797 40.4396C53.9369 40.3671 53.4864 40.3535 53.0399 40.399C51.3251 40.5633 49.9787 41.5696 48.9091 42.8655C47.7146 44.3136 45.4637 42.4651 46.6575 41.0183C48.8837 38.3214 52.4439 36.6668 55.9063 37.8346C57.6378 38.4178 56.5131 40.9411 54.824 40.52C54.677 40.4846 54.5283 40.4568 54.3786 40.4365L54.3797 40.4396Z" fill="url(#paint8_radial_1447_69683)"/>
<path d="M54.3797 40.4396C53.9369 40.3671 53.4864 40.3535 53.0399 40.399C51.3251 40.5633 49.9787 41.5696 48.9091 42.8655C47.7146 44.3136 45.4637 42.4651 46.6575 41.0183C48.8837 38.3214 52.4439 36.6668 55.9063 37.8346C57.6378 38.4178 56.5131 40.9411 54.824 40.52C54.677 40.4846 54.5284 40.4568 54.3786 40.4365L54.3797 40.4396Z" stroke="url(#paint9_linear_1447_69683)" stroke-width="0.22084" stroke-miterlimit="10"/>
<mask id="mask1_1447_69683" style="mask-type:alpha" maskUnits="userSpaceOnUse" x="16" y="17" width="54" height="54">
<path d="M52.2564 68.8744C66.0484 63.765 73.087 48.4425 67.9776 34.6505C62.8683 20.8586 47.5457 13.82 33.7538 18.9293C19.9618 24.0387 12.9232 39.3612 18.0326 53.1532C23.1419 66.9451 38.4645 73.9838 52.2564 68.8744Z" fill="url(#paint10_radial_1447_69683)"/>
</mask>
<g mask="url(#mask1_1447_69683)">
<g filter="url(#filter5_f_1447_69683)">
<path d="M68.2342 51.4025L52.8203 53.7627L53.2432 56.5241L68.657 54.1639L68.2342 51.4025Z" fill="#712900"/>
</g>
</g>
<mask id="mask2_1447_69683" style="mask-type:alpha" maskUnits="userSpaceOnUse" x="44" y="26" width="41" height="36">
<path fill-rule="evenodd" clip-rule="evenodd" d="M49.1346 49.0279L62.893 43.9309L58.7886 32.8518L76.7016 26.2158L84.0281 45.9925L54.6619 56.8715C54.657 56.8922 54.652 56.9107 54.6464 56.929C54.5922 57.1073 54.5189 57.2794 54.4279 57.4421C54.2732 57.719 54.0948 57.982 53.8949 58.2283C53.5219 58.6835 53.1149 59.1098 52.6776 59.5036C52.4429 59.7188 52.2183 59.9104 52.0201 60.0745C51.9984 60.0925 51.9765 60.1106 51.9545 60.1289C51.7752 60.2777 51.5825 60.4377 51.3415 60.6108C51.0709 60.8053 50.8452 60.9654 50.6282 61.1106C50.4522 61.23 50.2999 61.3276 50.153 61.4173C50.1375 61.4267 50.1212 61.4348 50.1042 61.4413C50.0536 61.4601 49.9985 61.4633 49.946 61.4504C49.8936 61.4375 49.8462 61.4091 49.8101 61.3689C49.7687 61.323 49.7452 61.2637 49.7439 61.2019C49.7427 61.1401 49.7637 61.0799 49.8032 61.0324C49.8971 60.9113 49.9931 60.7911 50.0888 60.6713C50.1068 60.6489 50.1247 60.6264 50.1426 60.604C50.2952 60.412 50.451 60.2224 50.6062 60.0342L51.7189 58.68C52.0439 58.2794 52.3872 57.8519 52.6847 57.4249C52.8212 57.235 52.9441 57.0356 53.0524 56.8283C53.0802 56.7737 53.105 56.7178 53.1269 56.6606C53.0733 56.6303 53.0178 56.6037 52.9607 56.5808C52.7436 56.4939 52.5204 56.4227 52.293 56.3678C51.7991 56.2422 51.2776 56.141 50.7427 56.0448L48.9678 55.7356L48.6058 55.6707C48.5426 55.6596 48.4834 55.6321 48.434 55.5909C48.3847 55.5498 48.347 55.4965 48.3247 55.4363C48.3024 55.3761 48.2963 55.3111 48.3069 55.2477C48.3175 55.1844 48.3445 55.125 48.3853 55.0753L49.7261 53.447C50.0971 52.9893 50.488 52.5029 50.8319 52.0105C50.9878 51.7919 51.1284 51.5628 51.2526 51.3248C51.287 51.2581 51.317 51.1891 51.3422 51.1185L51.3471 51.1061L51.3278 51.0955C51.2652 51.0603 51.2002 51.0293 51.1333 51.0027C50.8835 50.903 50.6271 50.8206 50.366 50.7559C49.8001 50.6111 49.2039 50.4988 48.5916 50.3876L46.6242 50.0449C46.3483 49.9964 46.0721 49.9469 45.7947 49.8942C45.5899 49.8562 45.3844 49.8166 45.1783 49.7752C45.1153 49.7635 45.0585 49.7296 45.0184 49.6797C44.9782 49.6297 44.9574 49.5669 44.9597 49.5029C44.9615 49.4374 44.9863 49.3746 45.0296 49.3255C45.0729 49.2763 45.132 49.2438 45.1967 49.2337C45.384 49.202 45.5843 49.1737 45.8425 49.1429C46.133 49.1071 46.4464 49.0757 46.8317 49.0508C46.9973 49.0401 47.1612 49.0312 47.3259 49.0243C47.4552 49.0176 47.5847 49.0144 47.7142 49.0111L47.7143 49.0111L47.8193 49.0087C48.1475 49.0014 48.4816 49.0036 48.8132 49.015C48.9204 49.018 49.0275 49.0223 49.1346 49.0279Z" fill="white"/>
</mask>
<g mask="url(#mask2_1447_69683)">
<path d="M79.3074 35.2448C79.3577 35.3804 79.4003 35.5177 79.446 35.6538C79.5442 35.9247 79.6251 36.2015 79.6883 36.4826C79.9636 37.6096 80.03 38.7776 79.8839 39.9286C79.6961 41.3769 79.1853 42.7645 78.3894 43.9889C77.5934 45.2134 76.5326 46.2434 75.2852 47.0029C74.7843 47.3074 74.258 47.5682 73.7123 47.7823L62.2956 52.0117L61.3251 49.3921L72.7418 45.1627C74.3429 44.5879 75.6834 43.4555 76.5175 41.9729C76.9364 41.2301 77.2195 40.4186 77.3537 39.5765C77.4844 38.731 77.4576 37.8687 77.2745 37.0329C77.101 36.2 76.7703 35.4077 76.3002 34.6985C75.8255 33.9945 75.2139 33.3933 74.5019 32.9307C73.7829 32.4619 72.977 32.1423 72.1321 31.9911C71.2871 31.8399 70.4204 31.86 69.5834 32.0504C68.7457 32.2279 67.9584 32.5908 67.2793 33.1123C66.6002 33.6339 66.0466 34.3009 65.659 35.0645C64.8514 36.5812 64.818 38.4777 65.5199 40.0546C65.8738 40.8375 66.4161 41.5206 67.0984 42.0427C67.7898 42.5642 68.5966 42.9115 69.4506 43.0554C70.3127 43.1844 71.1932 43.106 72.019 42.8269C72.1225 42.7886 72.2178 42.7438 72.3179 42.7056C72.4186 42.6688 72.5161 42.6236 72.6093 42.5705L72.8946 42.4189L73.1616 42.2399L73.2959 42.1513L73.4197 42.0466C73.5008 41.9765 73.5868 41.9129 73.666 41.8376C73.8219 41.6888 73.9686 41.5306 74.1053 41.364C74.2435 41.197 74.3707 41.0213 74.4862 40.8378C74.5443 40.7468 74.5879 40.6483 74.642 40.5528L74.7186 40.4067C74.7414 40.357 74.7603 40.3065 74.7811 40.2576C74.9587 39.8589 75.08 39.4375 75.1415 39.0054C75.1989 38.5747 75.2015 38.1385 75.1492 37.7072L75.0872 37.384L75.0567 37.2222L75.0103 37.0651L74.9149 36.7472L74.7917 36.4466C74.6178 36.0498 74.3835 35.6822 74.0972 35.3569C73.8069 35.0321 73.4714 34.7506 73.1011 34.5212C72.7235 34.301 72.317 34.1345 71.8934 34.0266C71.4665 33.9229 71.0263 33.8846 70.5879 33.9132C70.1474 33.9412 69.7139 34.0375 69.3029 34.1985C69.2021 34.2441 69.0958 34.2752 69.0046 34.3279L68.716 34.4831L68.4438 34.664C68.3491 34.7261 68.2748 34.802 68.1889 34.8691C67.5159 35.4479 67.0612 36.2396 66.9005 37.1127C66.8217 37.5492 66.816 37.9958 66.8838 38.4342C66.9499 38.8728 67.0947 39.2959 67.3111 39.683C67.7519 40.463 68.473 41.0459 69.3281 41.3133C69.7512 41.4494 70.1961 41.5055 70.6398 41.4785C71.0865 41.4479 71.5232 41.3317 71.9261 41.1362C72.7276 40.7053 73.3268 39.9755 73.5936 39.1055C73.7311 38.6797 73.7692 38.2281 73.7051 37.7853C73.6384 37.3475 73.4579 36.9348 73.1816 36.5886C72.8923 36.2411 72.5237 35.9684 72.1068 35.7935C71.6898 35.6186 71.237 35.5466 70.7864 35.5837C70.5635 35.6052 70.344 35.6526 70.1321 35.7248C69.9243 35.8019 69.7286 35.9081 69.5507 36.0402C69.1927 36.3161 68.9294 36.6964 68.7971 37.1285C68.6648 37.5607 68.67 38.0232 68.8122 38.4522C68.9511 38.8805 69.252 39.2376 69.6506 39.447C70.0492 39.6564 70.5139 39.7017 70.9454 39.5731C71.1587 39.5143 71.3545 39.4046 71.5159 39.2533C71.6773 39.102 71.7995 38.9137 71.8719 38.7047C71.9472 38.4957 71.9685 38.2712 71.9338 38.0518C71.8991 37.8325 71.8094 37.6254 71.6732 37.45C71.5287 37.2822 71.3371 37.1618 71.1232 37.1043C70.9094 37.0468 70.6832 37.055 70.474 37.1277C70.4389 37.1373 70.4014 37.1335 70.3689 37.1168C70.3365 37.1002 70.3115 37.072 70.2988 37.0378C70.2861 37.0036 70.2867 36.9659 70.3005 36.9321C70.3143 36.8984 70.3402 36.871 70.3732 36.8554C70.6395 36.754 70.9303 36.7356 71.2073 36.8026C71.4843 36.8696 71.7346 37.0188 71.9252 37.2307C72.1067 37.4477 72.2295 37.7077 72.282 37.9857C72.3345 38.2637 72.3149 38.5505 72.2251 38.8188C72.1374 39.0893 71.986 39.3347 71.7837 39.5345C71.582 39.7341 71.3349 39.8818 71.0635 39.965C70.527 40.1388 69.9436 40.0948 69.4391 39.8426C68.9295 39.59 68.5389 39.1482 68.3507 38.6114C68.161 38.0858 68.1415 37.5138 68.2949 36.9765C68.4457 36.4349 68.7613 35.9538 69.198 35.5998C69.4188 35.4252 69.6637 35.2833 69.925 35.1785C70.5785 34.9332 71.2917 34.8953 71.9675 35.07C72.6433 35.2446 73.2488 35.6234 73.7015 36.1546C74.0671 36.5875 74.3127 37.1089 74.4135 37.6666C74.5089 38.2188 74.4772 38.7854 74.3208 39.3235C74.168 39.8558 73.9155 40.3541 73.5766 40.7921C73.2371 41.2372 72.8085 41.6066 72.3181 41.8765C71.3139 42.3979 70.1477 42.5129 69.061 42.1976C67.9679 41.8833 67.035 41.1651 66.4516 40.1887C65.8778 39.2097 65.6607 38.0622 65.8373 36.9413C66.0144 35.8143 66.5718 34.7817 67.4169 34.0152C67.5247 33.9247 67.625 33.8204 67.7425 33.7403L68.0904 33.4937L68.4618 33.282C68.5842 33.2119 68.7192 33.1631 68.8464 33.103C69.3674 32.883 69.9194 32.7453 70.4827 32.6946C71.0468 32.6433 71.6156 32.6779 72.1693 32.7975C72.7255 32.9213 73.2612 33.1237 73.7603 33.3986C74.2544 33.685 74.704 34.0421 75.095 34.4585C75.4839 34.8776 75.8061 35.3539 76.0504 35.8709L76.2234 36.2648L76.3572 36.6674L76.4212 36.8686L76.4675 37.0764C76.498 37.2158 76.5291 37.3538 76.5561 37.4934C76.6433 38.0557 76.657 38.6269 76.5968 39.1928C76.5325 39.76 76.3895 40.3154 76.172 40.8433C76.1445 40.9088 76.1224 40.9794 76.0927 41.0422L75.9973 41.233C75.9271 41.3614 75.8713 41.4904 75.7978 41.6131C75.6532 41.8599 75.4924 42.0969 75.3164 42.3225C75.1414 42.5495 74.9511 42.7644 74.7469 42.9656C74.644 43.0661 74.5328 43.1568 74.4255 43.2519L74.2625 43.3935L74.0867 43.5199C73.97 43.602 73.8523 43.688 73.7337 43.7684L73.3596 43.9823C73.2354 44.0555 73.106 44.1196 72.9725 44.174C72.8406 44.2311 72.7106 44.2934 72.5768 44.3454C71.5007 44.7522 70.3403 44.885 69.2001 44.7318C68.0599 44.5787 66.9756 44.1444 66.045 43.468C65.1038 42.7887 64.3459 41.8864 63.8393 40.842C63.3479 39.8007 63.0927 38.6636 63.092 37.5121C63.091 37.2244 63.1072 36.9368 63.1404 36.651C63.1522 36.5079 63.173 36.3657 63.2028 36.2252L63.2814 35.8016C63.3579 35.5248 63.4283 35.2444 63.5227 34.9716L63.6788 34.5699L63.7585 34.3685L63.8545 34.1763C64.3554 33.1272 65.0839 32.2029 65.987 31.4708C66.8901 30.7386 67.945 30.2169 69.075 29.9437C70.1951 29.6569 71.3617 29.6001 72.5045 29.7766C73.6537 29.9541 74.7559 30.3597 75.7461 30.9693C76.7364 31.579 77.5947 32.3805 78.2707 33.3267L78.5212 33.685L78.7391 34.0635L78.9547 34.4452C79.0174 34.5762 79.0753 34.7102 79.1342 34.8438L79.3074 35.2448Z" fill="url(#paint11_linear_1447_69683)"/>
<path d="M61.9173 49.1719L47.2949 54.5889L48.2654 57.2085L62.8878 51.7915L61.9173 49.1719Z" fill="url(#paint12_linear_1447_69683)"/>
<g style="mix-blend-mode:soft-light">
<path style="mix-blend-mode:soft-light" d="M50.9461 56.2154L49.1828 56.8686L47.9255 56.2911L47.2949 54.5889L47.356 54.5662L50.9461 56.2154Z" fill="url(#paint13_linear_1447_69683)"/>
<path style="mix-blend-mode:soft-light" d="M54.6844 54.8313L52.9211 55.4845L49.332 53.835L51.0954 53.1817L54.6844 54.8313Z" fill="url(#paint14_linear_1447_69683)"/>
<path style="mix-blend-mode:soft-light" d="M58.4227 53.4465L56.6604 54.0994L53.0703 52.4502L54.8337 51.7969L58.4227 53.4465Z" fill="url(#paint15_linear_1447_69683)"/>
<path style="mix-blend-mode:soft-light" d="M62.1601 52.0614L60.3968 52.7146L56.8066 51.0654L58.57 50.4122L62.1601 52.0614Z" fill="url(#paint16_linear_1447_69683)"/>
</g>
<path d="M60.3915 49.4439L59.8262 49.6533L60.9877 52.7886L61.553 52.5792L60.3915 49.4439Z" fill="url(#paint17_linear_1447_69683)"/>
<path d="M62.6836 49.3308L63.3653 51.1708C63.4289 51.3427 63.4217 51.5329 63.3452 51.6995C63.2687 51.866 63.1291 51.9954 62.9572 52.0591L61.5521 52.5796L60.3906 49.4443L61.7957 48.9238C61.8807 48.8922 61.9712 48.8776 62.0618 48.8809C62.1525 48.8842 62.2416 48.9054 62.3241 48.9432C62.4065 48.981 62.4807 49.0347 62.5424 49.1012C62.6041 49.1677 62.6521 49.2458 62.6836 49.3308Z" fill="url(#paint18_linear_1447_69683)"/>
<mask id="mask3_1447_69683" style="mask-type:alpha" maskUnits="userSpaceOnUse" x="61" y="29" width="19" height="24">
<path d="M79.2488 35.2457C79.2991 35.3814 79.3417 35.5187 79.3874 35.6548C79.4856 35.9257 79.5665 36.2025 79.6297 36.4835C79.9051 37.6106 79.9714 38.7786 79.8253 39.9295C79.6375 41.3778 79.1267 42.7654 78.3308 43.9899C77.5348 45.2143 76.474 46.2444 75.2266 47.0039C74.7257 47.3084 74.1994 47.5692 73.6537 47.7833L62.237 52.0127L61.2665 49.3931L72.6832 45.1636C74.2844 44.5889 75.6248 43.4565 76.4589 41.9739C76.8778 41.2311 77.1609 40.4196 77.2951 39.5775C77.4258 38.732 77.399 37.8696 77.2159 37.0339C77.0424 36.201 76.7117 35.4087 76.2416 34.6995C75.7669 33.9955 75.1553 33.3943 74.4433 32.9317C73.7243 32.4628 72.9184 32.1433 72.0735 31.9921C71.2285 31.8409 70.3618 31.861 69.5248 32.0514C68.6871 32.2289 67.8998 32.5917 67.2207 33.1133C66.5416 33.6349 65.988 34.3019 65.6004 35.0655C64.7928 36.5822 64.7594 38.4786 65.4613 40.0556C65.8152 40.8385 66.3575 41.5215 67.0398 42.0437C67.7312 42.5652 68.538 42.9125 69.392 43.0564C70.2541 43.1853 71.1346 43.107 71.9604 42.8279C72.0639 42.7895 72.1592 42.7448 72.2593 42.7066C72.36 42.6697 72.4575 42.6246 72.5507 42.5715L72.836 42.4199L73.103 42.2409L73.2374 42.1523L73.3611 42.0476C73.4422 41.9775 73.5282 41.9138 73.6075 41.8385C73.7633 41.6897 73.91 41.5316 74.0467 41.365C74.1849 41.198 74.3121 41.0223 74.4276 40.8388C74.4857 40.7478 74.5293 40.6492 74.5834 40.5538L74.66 40.4077C74.6828 40.358 74.7017 40.3074 74.7225 40.2585C74.9001 39.8599 75.0214 39.4385 75.0829 39.0064C75.1403 38.5757 75.143 38.1395 75.0906 37.7082L75.0286 37.385L74.9981 37.2232L74.9517 37.0661L74.8563 36.7482L74.7331 36.4476C74.5592 36.0507 74.3249 35.6831 74.0386 35.3578C73.7483 35.033 73.4128 34.7516 73.0425 34.5222C72.6649 34.302 72.2584 34.1355 71.8348 34.0276C71.4079 33.9238 70.9677 33.8856 70.5293 33.9142C70.0888 33.9422 69.6553 34.0384 69.2443 34.1995C69.1435 34.2451 69.0372 34.2762 68.9461 34.3288L68.6574 34.4841L68.3852 34.6649C68.2905 34.7271 68.2162 34.8029 68.1303 34.8701C67.4573 35.4488 67.0026 36.2406 66.8419 37.1137C66.7631 37.5502 66.7574 37.9968 66.8252 38.4352C66.8913 38.8738 67.0361 39.2968 67.2525 39.684C67.6933 40.4639 68.4145 41.0468 69.2695 41.3143C69.6927 41.4504 70.1375 41.5064 70.5812 41.4795C71.0279 41.4488 71.4646 41.3326 71.8675 41.1372C72.669 40.7062 73.2682 39.9765 73.535 39.1064C73.6725 38.6807 73.7106 38.2291 73.6465 37.7863C73.5798 37.3484 73.3993 36.9358 73.123 36.5896C72.8337 36.2421 72.4651 35.9694 72.0482 35.7945C71.6312 35.6196 71.1784 35.5476 70.7278 35.5846C70.505 35.6062 70.2854 35.6536 70.0735 35.7257C69.8658 35.8028 69.67 35.9091 69.4921 36.0412C69.1342 36.3171 68.8708 36.6974 68.7385 37.1295C68.6062 37.5616 68.6115 38.0242 68.7536 38.4532C68.8925 38.8815 69.1934 39.2385 69.592 39.448C69.9906 39.6574 70.4553 39.7027 70.8868 39.5741C71.1001 39.5153 71.2959 39.4056 71.4573 39.2543C71.6187 39.103 71.7409 38.9147 71.8133 38.7056C71.8887 38.4967 71.9099 38.2722 71.8752 38.0528C71.8405 37.8334 71.7508 37.6264 71.6146 37.451C71.4701 37.2832 71.2785 37.1628 71.0646 37.1053C70.8508 37.0478 70.6246 37.056 70.4154 37.1287C70.3803 37.1383 70.3428 37.1344 70.3103 37.1178C70.2779 37.1011 70.2529 37.0729 70.2402 37.0387C70.2275 37.0046 70.2282 36.9669 70.2419 36.9331C70.2557 36.8993 70.2816 36.8719 70.3146 36.8564C70.5809 36.755 70.8717 36.7366 71.1487 36.8036C71.4257 36.8706 71.676 37.0198 71.8666 37.2316C72.0481 37.4487 72.1709 37.7086 72.2234 37.9866C72.2759 38.2647 72.2563 38.5515 72.1665 38.8198C72.0788 39.0902 71.9274 39.3357 71.7251 39.5355C71.5234 39.7351 71.2763 39.8828 71.005 39.966C70.4684 40.1397 69.885 40.0958 69.3805 39.8436C68.8709 39.591 68.4803 39.1491 68.2921 38.6124C68.1024 38.0868 68.0829 37.5148 68.2363 36.9774C68.3871 36.4359 68.7027 35.9547 69.1394 35.6008C69.3602 35.4261 69.6051 35.2843 69.8665 35.1795C70.5199 34.9342 71.2331 34.8963 71.9089 35.0709C72.5847 35.2456 73.1902 35.6244 73.6429 36.1556C74.0086 36.5885 74.2541 37.1099 74.3549 37.6675C74.4503 38.2197 74.4186 38.7864 74.2622 39.3245C74.1094 39.8567 73.8569 40.3551 73.518 40.793C73.1786 41.2382 72.7499 41.6075 72.2595 41.8775C71.2553 42.3989 70.0891 42.5139 69.0024 42.1986C67.9093 41.8842 66.9764 41.1661 66.393 40.1897C65.8192 39.2107 65.6021 38.0632 65.7787 36.9423C65.9558 35.8152 66.5132 34.7827 67.3583 34.0162C67.4661 33.9257 67.5664 33.8214 67.6839 33.7413L68.0318 33.4947L68.4032 33.2829C68.5256 33.2129 68.6606 33.164 68.7878 33.1039C69.3088 32.884 69.8608 32.7462 70.4241 32.6956C70.9882 32.6442 71.557 32.6789 72.1107 32.7985C72.6669 32.9223 73.2026 33.1247 73.7017 33.3996C74.1958 33.686 74.6454 34.0431 75.0364 34.4595C75.4253 34.8785 75.7475 35.3549 75.9918 35.8718L76.1648 36.2658L76.2986 36.6684L76.3626 36.8696L76.4089 37.0773C76.4394 37.2168 76.4705 37.3548 76.4975 37.4944C76.5847 38.0567 76.5984 38.6279 76.5383 39.1937C76.4739 39.7609 76.3309 40.3164 76.1135 40.8442C76.0859 40.9098 76.0638 40.9804 76.0341 41.0432L75.9387 41.234C75.8686 41.3624 75.8127 41.4914 75.7392 41.614C75.5947 41.8609 75.4338 42.0979 75.2578 42.3234C75.0828 42.5505 74.8925 42.7654 74.6883 42.9666C74.5854 43.0671 74.4742 43.1578 74.3669 43.2528L74.2039 43.3945L74.0281 43.5208C73.9114 43.603 73.7937 43.6889 73.6751 43.7694L73.301 43.9833C73.1768 44.0565 73.0475 44.1206 72.914 44.175C72.782 44.2321 72.652 44.2944 72.5182 44.3463C71.4421 44.7531 70.2817 44.8859 69.1415 44.7328C68.0013 44.5796 66.917 44.1453 65.9864 43.469C65.0452 42.7897 64.2873 41.8874 63.7807 40.843C63.2893 39.8017 63.0341 38.6646 63.0334 37.5131C63.0324 37.2253 63.0486 36.9378 63.0818 36.652C63.0936 36.5089 63.1144 36.3667 63.1442 36.2262L63.2228 35.8026C63.2993 35.5258 63.3697 35.2454 63.4641 34.9725L63.6202 34.5709L63.6999 34.3694L63.7959 34.1773C64.2968 33.1281 65.0253 32.2039 65.9284 31.4717C66.8315 30.7396 67.8864 30.2179 69.0164 29.9447C70.1365 29.6579 71.3032 29.6011 72.4459 29.7776C73.5951 29.9551 74.6973 30.3606 75.6875 30.9703C76.6778 31.58 77.5361 32.3815 78.2121 33.3277L78.4626 33.6859L78.6805 34.0644L78.8961 34.4462C78.9588 34.5772 79.0167 34.7112 79.0756 34.8448L79.2488 35.2457Z" fill="url(#paint19_linear_1447_69683)"/>
</mask>
<g mask="url(#mask3_1447_69683)">
<g filter="url(#filter6_f_1447_69683)">
<path d="M62.8186 49.7656L68.8383 47.5473L71.8514 46.4311C72.8492 46.0732 73.7869 45.5845 74.6282 44.9313C75.4631 44.2924 76.1951 43.5031 76.7634 42.6213C77.342 41.7358 77.7569 40.7578 77.9497 39.7208C78.041 39.2042 78.0586 38.6796 78.0309 38.1599L77.9937 37.7734C77.9914 37.7036 77.9787 37.6376 77.9699 37.582L77.9319 37.3841C77.8955 37.1268 77.8034 36.8783 77.7424 36.6183C77.4194 35.6193 76.8648 34.6943 76.2193 33.8736C76.0689 33.6585 75.881 33.4691 75.7034 33.2758C75.6198 33.1772 75.5155 33.0864 75.4254 33.002C75.3314 32.9073 75.2413 32.8229 75.1369 32.732L74.8317 32.4801C74.7814 32.4398 74.7312 32.3996 74.6809 32.3593L74.5237 32.2527C74.4128 32.176 74.3058 32.1097 74.195 32.033L73.8533 31.8416C73.3915 31.6123 72.8857 31.4229 72.3691 31.3317C71.8525 31.2405 71.3279 31.2229 70.8055 31.2751C70.2832 31.3273 69.767 31.4596 69.2842 31.6503C68.791 31.8447 68.3274 32.0871 67.8791 32.371C67.4346 32.6651 67.0262 32.9931 66.6577 33.3651C66.2892 33.7371 65.9464 34.1467 65.6642 34.5928C65.5875 34.7036 65.525 34.821 65.4728 34.9345C65.4103 35.0519 65.3582 35.1654 65.2995 35.2931C65.2734 35.3498 65.2512 35.417 65.2251 35.4737L65.13 35.662C65.1078 35.7291 65.0959 35.7924 65.0802 35.8454C65.0683 35.9086 65.0461 35.9757 65.0342 36.039L65.0089 36.225C64.997 36.2883 64.9993 36.3581 64.9874 36.4214L64.9729 36.8271C64.9641 37.0894 64.9449 37.3556 64.9503 37.6244C64.9469 38.1556 64.968 38.6894 65.0551 39.2106C65.0916 39.4679 65.1526 39.7279 65.2136 39.988C65.2849 40.2441 65.377 40.4926 65.4756 40.7269C65.5883 40.9678 65.7076 41.1944 65.858 41.4096C66.0083 41.6247 66.169 41.836 66.3531 42.0151C66.7148 42.3874 67.1543 42.6838 67.6199 42.9235C68.0855 43.1631 68.5875 43.3422 69.0949 43.4722C69.6061 43.6125 70.1227 43.7037 70.6539 43.7071C71.7097 43.7281 72.7539 43.4002 73.6145 42.7988C74.475 42.1974 75.1556 41.3329 75.546 40.3522C75.9259 39.3754 76.0079 38.2617 75.6746 37.2665C75.5112 36.7619 75.2481 36.3059 74.9201 35.8975L74.6589 35.6057L74.377 35.3215L74.0783 35.0554L73.773 34.8035C73.3569 34.4748 72.8939 34.2106 72.3984 34.0174C72.2746 33.9691 72.1545 33.9311 72.0203 33.8866C71.8899 33.8525 71.7699 33.8146 71.6329 33.7946C71.376 33.7367 71.1098 33.7176 70.8514 33.7191C70.5929 33.7207 70.3317 33.7468 70.0679 33.7974C69.804 33.8481 69.5582 33.9156 69.3135 34.018C68.8204 34.2125 68.3644 34.4756 67.9456 34.8074C67.7343 34.9681 67.5411 35.1456 67.3555 35.3439C67.166 35.5319 67.005 35.7328 66.88 35.9675C66.6261 36.4266 66.5038 36.9547 66.472 37.4728C66.4441 38.0013 66.4898 38.5378 66.6493 39.0321C66.8024 39.5407 67.059 40.0108 67.4142 40.3974C67.7693 40.7839 68.2127 41.0907 68.6978 41.2878C69.1868 41.4952 69.7137 41.5826 70.2422 41.6105C70.7707 41.6385 71.3034 41.5825 71.8042 41.4087C72.3051 41.2349 72.756 40.9266 73.0885 40.5208C73.4313 40.1112 73.6633 39.6249 73.7933 39.1175C73.8512 38.8605 73.8949 38.5971 73.8933 38.3386C73.8917 38.0801 73.8062 37.8174 73.718 37.5793C73.5339 37.0823 73.2565 36.6198 72.8807 36.2409C72.6927 36.0515 72.4711 35.8981 72.2402 35.7834C71.999 35.6726 71.7382 35.6044 71.4862 35.5917C71.2201 35.5726 70.9589 35.5987 70.6989 35.6597C70.4389 35.7207 70.1904 35.8127 69.9495 35.9255C69.8291 35.9819 69.7125 36.0486 69.5921 36.105C69.4717 36.1614 69.359 36.2385 69.2604 36.3221C69.0491 36.4828 68.8558 36.6604 68.6986 36.8717C68.5414 37.083 68.4202 37.3281 68.3727 37.5812C68.3148 37.8382 68.3305 38.1032 68.4019 38.3593C68.4733 38.6155 68.5964 38.8525 68.7467 39.0676C68.8971 39.2828 69.0785 39.4864 69.2795 39.6475C69.4804 39.8085 69.7255 39.9297 69.989 39.9734C70.2524 40.0171 70.5136 39.991 70.7659 39.9093C71.2526 39.729 71.7385 39.4195 71.9601 38.937C72.0709 38.6958 72.1146 38.4323 72.0885 38.1711C72.0735 38.0354 72.0379 37.9073 71.9853 37.7972C71.9289 37.6768 71.8622 37.5602 71.7786 37.4617C71.6075 37.2542 71.3793 37.115 71.1251 37.0326C70.8708 36.9502 70.6046 36.931 70.3396 36.9467L70.3385 36.9118C70.6035 36.8961 70.88 36.9114 71.1343 36.9939C71.3885 37.0763 71.6309 37.222 71.802 37.4295C71.8894 37.5384 71.9562 37.6549 72.0125 37.7754C72.0586 37.8996 72.1084 38.0342 72.1234 38.17C72.1533 38.4415 72.1135 38.7153 71.9923 38.9604C71.8853 39.212 71.7036 39.4206 71.4819 39.5852C71.2706 39.7459 71.0271 39.8832 70.7748 39.9649C70.5224 40.0466 70.2406 40.0804 69.9771 40.0367C69.7136 39.993 69.4544 39.8653 69.2496 39.6939C69.0447 39.5225 68.853 39.3227 68.6988 39.0972C68.5446 38.8717 68.4111 38.6385 68.3359 38.372C68.2646 38.1158 68.2412 37.8301 68.2952 37.5628C68.3493 37.2955 68.4808 37.0466 68.6342 36.8249C68.8018 36.6098 68.9912 36.4218 69.2128 36.2573C69.3256 36.1802 69.4383 36.1031 69.5549 36.0364C69.6715 35.9696 69.7881 35.9029 69.9123 35.8569C70.1532 35.7441 70.412 35.6482 70.672 35.5872C70.932 35.5262 71.2036 35.4963 71.4801 35.5116C71.7462 35.5307 72.0174 35.5951 72.2624 35.7163C72.5075 35.8375 72.7292 35.9909 72.9275 36.1765C73.3137 36.5515 73.5987 37.0347 73.7866 37.5421C73.8327 37.6663 73.8683 37.7944 73.9078 37.9328C73.9435 38.0609 73.9727 38.2032 73.9631 38.3363C73.9685 38.6051 73.9286 38.8789 73.8604 39.1397C73.7239 39.6613 73.4854 40.1618 73.1464 40.5818C72.7971 41.0056 72.3357 41.3178 71.8245 41.4954C71.3172 41.6833 70.76 41.7367 70.2315 41.7087C69.6927 41.6846 69.1515 41.5907 68.6522 41.3871C68.1425 41.1873 67.6849 40.874 67.3221 40.4668C66.9593 40.0595 66.6847 39.5725 66.5278 39.0536C66.3605 38.5386 66.311 37.9917 66.3351 37.4529C66.3696 36.9102 66.5022 36.3783 66.7588 35.8947C66.8799 35.6496 67.0579 35.4306 67.2473 35.2427C67.4329 35.0444 67.6365 34.863 67.844 34.6919C68.2628 34.3602 68.7356 34.079 69.2391 33.8807C69.4941 33.7745 69.7503 33.7031 70.0142 33.6525C70.278 33.6018 70.5495 33.5719 70.8184 33.5665C71.0872 33.5611 71.3675 33.5868 71.6349 33.6408C71.7718 33.6608 71.9022 33.6949 72.0326 33.729C72.1668 33.7735 72.2972 33.8076 72.4211 33.8559C72.9307 34.0557 73.3975 34.3302 73.824 34.655L74.1435 34.9135L74.4422 35.1796L74.7241 35.4638L74.9891 35.766C75.3351 36.1912 75.6059 36.6679 75.7731 37.1829C76.1218 38.2195 76.041 39.3681 75.648 40.3733C75.2588 41.3889 74.5509 42.2752 73.6632 42.8985C72.7754 43.5217 71.6897 43.8651 70.599 43.8452C70.0537 43.8353 69.5126 43.7414 68.991 43.6049C68.4694 43.4684 67.957 43.2932 67.4734 43.0366C66.9936 42.7905 66.5257 42.481 66.146 42.0918C65.9478 41.9062 65.7832 41.6845 65.6187 41.4629C65.4645 41.2374 65.3272 40.9939 65.2144 40.753C65.1082 40.498 65.0161 40.2495 64.9409 39.983C64.8657 39.7165 64.8047 39.4564 64.7748 39.1849C64.6942 38.6496 64.6692 38.1054 64.6688 37.5639C64.6738 37.2912 64.6826 37.0289 64.6875 36.7562L64.7163 36.357C64.7243 36.2833 64.7258 36.2239 64.7339 36.1503L64.7619 35.9397C64.7699 35.8661 64.7922 35.799 64.804 35.7357C64.8263 35.6686 64.8382 35.6053 64.8604 35.5382L64.931 35.3472C64.9532 35.2801 64.9754 35.213 65.0015 35.1562C65.0602 35.0285 65.1085 34.9046 65.1813 34.7834C65.2438 34.6661 65.3063 34.5487 65.3792 34.4275C65.6679 33.9673 66.0173 33.5435 66.3961 33.1676C66.7854 32.7879 67.1965 32.4354 67.6513 32.1374C68.1061 31.8394 68.5904 31.5893 69.094 31.391C69.5975 31.1927 70.1344 31.0527 70.6774 30.9928C71.2205 30.9329 71.7696 30.9532 72.3108 31.0471C72.8519 31.1411 73.3719 31.337 73.8582 31.569L74.2142 31.7668C74.3353 31.8397 74.4462 31.9164 74.557 31.9931L74.7285 32.1062C74.7787 32.1465 74.8328 32.1971 74.8934 32.2335L75.2129 32.492C75.3172 32.5828 75.4111 32.6776 75.5051 32.7723C75.5991 32.867 75.7034 32.9579 75.787 33.0564C75.9684 33.2601 76.1564 33.4495 76.3209 33.6711C76.9883 34.519 77.5609 35.4609 77.8992 36.5013C77.9744 36.7678 78.0561 37.0202 78.1003 37.2982L78.1382 37.4961C78.1509 37.562 78.1636 37.628 78.1659 37.6978L78.2108 38.1051C78.2461 38.6454 78.2258 39.1946 78.1319 39.7357C77.9402 40.8076 77.5058 41.8282 76.9141 42.7421C76.3224 43.6561 75.5735 44.4634 74.7218 45.1204C73.8636 45.7916 72.8884 46.306 71.8802 46.6677L68.8671 47.7839L62.9337 50.0762L62.8186 49.7656Z" fill="white"/>
</g>
</g>
<mask id="mask4_1447_69683" style="mask-type:alpha" maskUnits="userSpaceOnUse" x="47" y="48" width="17" height="10">
<path d="M62.4982 48.9052L47.2773 54.5439L48.2747 57.2361L63.4955 51.5974L62.4982 48.9052Z" fill="url(#paint20_linear_1447_69683)"/>
</mask>
<g mask="url(#mask4_1447_69683)">
<g filter="url(#filter7_f_1447_69683)">
<path d="M62.5706 50.055L46.7285 55.9238" stroke="white" stroke-width="0.33126"/>
</g>
</g>
</g>
<mask id="mask5_1447_69683" style="mask-type:alpha" maskUnits="userSpaceOnUse" x="44" y="45" width="22" height="17">
<path fill-rule="evenodd" clip-rule="evenodd" d="M50.8163 49.2219C50.9325 49.2426 51.0481 49.2665 51.1629 49.2936L50.985 48.8133L60.718 45.2076L65.3419 54.0336L53.8412 58.2942C53.4832 58.7245 53.0947 59.1285 52.6786 59.5031C52.444 59.7184 52.2193 59.9099 52.0211 60.0741L51.9555 60.1284C51.7762 60.2773 51.5835 60.4372 51.3425 60.6104C51.0719 60.8049 50.8463 60.965 50.6292 61.1102C50.4532 61.2295 50.301 61.3271 50.1541 61.4169C50.1385 61.4263 50.1222 61.4343 50.1052 61.4409C50.0546 61.4597 49.9995 61.4628 49.9471 61.4499C49.8946 61.437 49.8473 61.4086 49.8111 61.3685C49.7697 61.3226 49.7463 61.2633 49.745 61.2015C49.7437 61.1397 49.7647 61.0795 49.8042 61.0319C49.8982 60.9108 49.9941 60.7907 50.0898 60.6709L50.1436 60.6036C50.2962 60.4116 50.4521 60.222 50.6073 60.0338L51.72 58.6795C52.0449 58.2789 52.3882 57.8515 52.6857 57.4245C52.8222 57.2345 52.9451 57.0351 53.0535 56.8278C53.0812 56.7733 53.1061 56.7173 53.1279 56.6601C53.0744 56.6299 53.0189 56.6033 52.9618 56.5804C52.7446 56.4935 52.5215 56.4223 52.2941 56.3673C51.8001 56.2418 51.2787 56.1406 50.7437 56.0444L48.9689 55.7351L48.6069 55.6702C48.5436 55.6591 48.4844 55.6316 48.4351 55.5905C48.3858 55.5494 48.3481 55.496 48.3258 55.4358C48.3035 55.3756 48.2973 55.3106 48.3079 55.2473C48.3186 55.184 48.3456 55.1245 48.3863 55.0749L49.7272 53.4465C50.0981 52.9888 50.489 52.5025 50.833 52.0101C50.9889 51.7915 51.1294 51.5623 51.2537 51.3243C51.2881 51.2576 51.318 51.1887 51.3433 51.118L51.3481 51.1056L51.3289 51.0951C51.2662 51.0598 51.2012 51.0288 51.1344 51.0023C50.8845 50.9026 50.6281 50.8201 50.367 50.7555C49.8012 50.6107 49.2049 50.4983 48.5926 50.3872L46.6252 50.0445C46.3493 49.996 46.0731 49.9464 45.7957 49.8937C45.5909 49.8558 45.3854 49.8161 45.1793 49.7747C45.1163 49.7631 45.0595 49.7292 45.0194 49.6792C44.9793 49.6292 44.9584 49.5665 44.9607 49.5024C44.9626 49.4369 44.9873 49.3742 45.0306 49.325C45.0739 49.2758 45.133 49.2434 45.1978 49.2333C45.385 49.2016 45.5853 49.1733 45.8435 49.1424C46.1341 49.1066 46.4475 49.0753 46.8327 49.0503C46.9983 49.0396 47.1622 49.0307 47.3269 49.0239C47.4562 49.0171 47.5857 49.0139 47.7151 49.0107L47.7151 49.0107L47.7153 49.0107L47.8204 49.0083C48.1485 49.0009 48.4826 49.0031 48.8142 49.0145C49.4858 49.0334 50.1551 49.1027 50.8163 49.2219Z" fill="black"/>
</mask>
<g mask="url(#mask5_1447_69683)">
<g filter="url(#filter8_f_1447_69683)">
<path d="M50.8323 52.0101C50.4884 52.5025 50.0974 52.9888 49.7265 53.4465L48.3857 55.0749C48.3449 55.1245 48.3179 55.184 48.3073 55.2473C48.2967 55.3106 48.3028 55.3756 48.3251 55.4359C48.3474 55.4961 48.3851 55.5494 48.4344 55.5905C48.4837 55.6317 48.543 55.6591 48.6062 55.6703L48.9682 55.7352L50.7431 56.0444C51.278 56.1406 51.7995 56.2418 52.2934 56.3673" stroke="url(#paint21_radial_1447_69683)" stroke-width="0.883359"/>
</g>
</g>
<mask id="mask6_1447_69683" style="mask-type:alpha" maskUnits="userSpaceOnUse" x="44" y="45" width="22" height="17">
<path fill-rule="evenodd" clip-rule="evenodd" d="M50.8163 49.2219C50.9325 49.2426 51.0481 49.2665 51.1629 49.2936L50.985 48.8133L60.718 45.2076L65.3419 54.0336L53.8412 58.2942C53.4832 58.7245 53.0947 59.1285 52.6786 59.5031C52.444 59.7184 52.2193 59.9099 52.0211 60.0741L51.9555 60.1284C51.7762 60.2773 51.5835 60.4372 51.3425 60.6104C51.0719 60.8049 50.8463 60.965 50.6292 61.1102C50.4532 61.2295 50.301 61.3271 50.1541 61.4169C50.1385 61.4263 50.1222 61.4343 50.1052 61.4409C50.0546 61.4597 49.9995 61.4628 49.9471 61.4499C49.8946 61.437 49.8473 61.4086 49.8111 61.3685C49.7697 61.3226 49.7463 61.2633 49.745 61.2015C49.7437 61.1397 49.7647 61.0795 49.8042 61.0319C49.8982 60.9108 49.9941 60.7907 50.0898 60.6709L50.1436 60.6036C50.2962 60.4116 50.4521 60.222 50.6073 60.0338L51.72 58.6795C52.0449 58.2789 52.3882 57.8515 52.6857 57.4245C52.8222 57.2345 52.9451 57.0351 53.0535 56.8278C53.0812 56.7733 53.1061 56.7173 53.1279 56.6601C53.0744 56.6299 53.0189 56.6033 52.9618 56.5804C52.7446 56.4935 52.5215 56.4223 52.2941 56.3673C51.8001 56.2418 51.2787 56.1406 50.7437 56.0444L48.9689 55.7351L48.6069 55.6702C48.5436 55.6591 48.4844 55.6316 48.4351 55.5905C48.3858 55.5494 48.3481 55.496 48.3258 55.4358C48.3035 55.3756 48.2973 55.3106 48.3079 55.2473C48.3186 55.184 48.3456 55.1245 48.3863 55.0749L49.7272 53.4465C50.0981 52.9888 50.489 52.5025 50.833 52.0101C50.9889 51.7915 51.1294 51.5623 51.2537 51.3243C51.2881 51.2576 51.318 51.1887 51.3433 51.118L51.3481 51.1056L51.3289 51.0951C51.2662 51.0598 51.2012 51.0288 51.1344 51.0023C50.8845 50.9026 50.6281 50.8201 50.367 50.7555C49.8012 50.6107 49.2049 50.4983 48.5926 50.3872L46.6252 50.0445C46.3493 49.996 46.0731 49.9464 45.7957 49.8937C45.5909 49.8558 45.3854 49.8161 45.1793 49.7747C45.1163 49.7631 45.0595 49.7292 45.0194 49.6792C44.9793 49.6292 44.9584 49.5665 44.9607 49.5024C44.9626 49.4369 44.9873 49.3742 45.0306 49.325C45.0739 49.2758 45.133 49.2434 45.1978 49.2333C45.385 49.2016 45.5853 49.1733 45.8435 49.1424C46.1341 49.1066 46.4475 49.0753 46.8327 49.0503C46.9983 49.0396 47.1622 49.0307 47.3269 49.0239C47.4562 49.0171 47.5857 49.0139 47.7151 49.0107L47.7151 49.0107L47.7153 49.0107L47.8204 49.0083C48.1485 49.0009 48.4826 49.0031 48.8142 49.0145C49.4858 49.0334 50.1551 49.1027 50.8163 49.2219Z" fill="black"/>
</mask>
<g mask="url(#mask6_1447_69683)">
<g filter="url(#filter9_f_1447_69683)">
<path d="M51.3206 52.0003C50.9767 52.4928 50.5857 52.9791 50.2148 53.4368L48.8739 55.0651C48.8332 55.1148 48.8062 55.1742 48.7956 55.2375C48.7849 55.3009 48.7911 55.3659 48.8134 55.4261C48.8357 55.4863 48.8734 55.5396 48.9227 55.5808C48.972 55.6219 49.0313 55.6494 49.0945 55.6605L49.4565 55.7254L51.2314 56.0346C51.7663 56.1309 52.2878 56.2321 52.7817 56.3576" stroke="url(#paint22_radial_1447_69683)" stroke-width="1.32504"/>
</g>
</g>
<path d="M26.6572 22.9528L26.6656 22.9756C23.5497 25.3847 21.0082 28.4562 19.2249 31.968C17.4416 35.4797 16.461 39.3439 16.3542 43.281C16.3384 43.8443 16.34 44.4038 16.359 44.9596L15.3362 43.7053L14.7091 42.9343L12.7588 40.5305L10.9337 38.2899L8.34454 35.1183L8.17156 34.9056L6.51624 32.8753L4.78723 30.751L3.93224 29.7018L2.36785 27.7802L2.10421 27.4563L1.02646 26.1364C0.887277 25.9659 0.798177 25.7602 0.76909 25.542C0.740003 25.3239 0.772072 25.102 0.861722 24.901C0.951372 24.7 1.09508 24.5279 1.27682 24.4038C1.45857 24.2797 1.6712 24.2085 1.89103 24.1982L3.2492 24.1295L4.26069 24.0786L5.89924 23.9944L8.40076 23.8685L9.63794 23.807L12.2797 23.6749L13.7178 23.6026L16.0194 23.4871L18.4526 23.364L18.6653 23.3535L22.404 23.166L23.9579 23.0885L25.0514 23.0366L26.6572 22.9528Z" fill="url(#paint23_linear_1447_69683)"/>
<path d="M26.6562 22.9526L26.6483 22.9885C23.5367 25.3988 20.9993 28.47 19.2193 31.9804C17.4393 35.4907 16.4611 39.3526 16.3555 43.2871C16.3396 43.8503 16.3413 44.4098 16.3603 44.9656L15.3375 43.7113L14.7104 42.9404C14.9748 35.5429 18.1482 28.5487 23.5407 23.478C23.6788 23.3483 23.8175 23.2184 23.9569 23.0883L25.0504 23.0364L26.6562 22.9526Z" fill="#42C5E9"/>
<path d="M10.9272 38.2914C11.6411 32.5973 14.2994 27.3245 18.4527 23.3643L16.0195 23.4874L13.7179 23.6029C11.0354 26.9001 9.13975 30.7652 8.17479 34.9047L8.34777 35.1174L10.9272 38.2914Z" fill="#42C5E9"/>
<path d="M4.78558 30.7489C5.61802 28.2793 6.83689 25.9574 8.39676 23.8697L5.89939 23.9941L4.26084 24.0783C3.53832 25.2631 2.9056 26.5005 2.368 27.7799L3.93239 29.7014L4.78558 30.7489Z" fill="#42C5E9"/>
<mask id="mask7_1447_69683" style="mask-type:alpha" maskUnits="userSpaceOnUse" x="0" y="22" width="27" height="23">
<path d="M26.6572 22.9528L26.6656 22.9756C23.5497 25.3847 21.0082 28.4562 19.2249 31.968C17.4416 35.4797 16.461 39.3439 16.3542 43.281C16.3384 43.8443 16.34 44.4038 16.359 44.9596L15.3362 43.7053L14.7091 42.9343L12.7588 40.5305L10.9337 38.2899L8.34454 35.1183L8.17156 34.9056L6.51624 32.8753L4.78723 30.751L3.93224 29.7018L2.36785 27.7802L2.10421 27.4563L1.02646 26.1364C0.887277 25.9659 0.798177 25.7602 0.76909 25.542C0.740003 25.3239 0.772072 25.102 0.861722 24.901C0.951372 24.7 1.09508 24.5279 1.27682 24.4038C1.45857 24.2797 1.6712 24.2085 1.89103 24.1982L3.2492 24.1295L4.26069 24.0786L5.89924 23.9944L8.40076 23.8685L9.63794 23.807L12.2797 23.6749L13.7178 23.6026L16.0194 23.4871L18.4526 23.364L18.6653 23.3535L22.404 23.166L23.9579 23.0885L25.0514 23.0366L26.6572 22.9528Z" fill="url(#paint24_linear_1447_69683)"/>
<path d="M26.6562 22.9526L26.6483 22.9885C23.5367 25.3988 20.9993 28.47 19.2193 31.9804C17.4393 35.4907 16.4611 39.3526 16.3555 43.2871C16.3396 43.8503 16.3413 44.4098 16.3603 44.9656L15.3375 43.7113L14.7104 42.9404C14.9748 35.5429 18.1482 28.5487 23.5407 23.478C23.6788 23.3483 23.8175 23.2184 23.9569 23.0883L25.0504 23.0364L26.6562 22.9526Z" fill="#42C5E9"/>
<path d="M10.9272 38.2914C11.6411 32.5973 14.2994 27.3245 18.4527 23.3643L16.0195 23.4874L13.7179 23.6029C11.0354 26.9001 9.13975 30.7652 8.17479 34.9047L8.34777 35.1174L10.9272 38.2914Z" fill="#42C5E9"/>
<path d="M4.78558 30.7489C5.61802 28.2793 6.83689 25.9574 8.39676 23.8697L5.89939 23.9941L4.26084 24.0783C3.53832 25.2631 2.9056 26.5005 2.368 27.7799L3.93239 29.7014L4.78558 30.7489Z" fill="#42C5E9"/>
</mask>
<g mask="url(#mask7_1447_69683)">
<g filter="url(#filter10_f_1447_69683)">
<path d="M-1.64258 23.5635L23.0558 33.0187" stroke="white" stroke-width="0.883359"/>
</g>
</g>
<path d="M22.2255 47.8282C21.8806 49.3066 24.8603 50.0008 24.5196 51.4777C24.1788 52.9545 21.1961 52.2614 20.8508 53.7388C20.5055 55.2162 23.4859 55.9125 23.1452 57.3893C22.8045 58.8662 19.8217 58.1731 19.4768 59.6515" stroke="#DD0044" stroke-width="0.883359" stroke-miterlimit="10" stroke-linecap="round"/>
<path d="M57.5098 18.1846C58.4785 19.3565 60.8336 17.4018 61.8027 18.5713C62.7717 19.7408 60.414 21.6916 61.3816 22.8604C62.3492 24.0293 64.7069 22.0784 65.6745 23.2472C66.6421 24.416 64.2872 26.3682 65.2548 27.537" stroke="#F15A24" stroke-width="0.883359" stroke-miterlimit="10" stroke-linecap="round"/>
<path d="M62.7441 55.2162L62.0248 58.6526L66.2868 59.3946L66.3249 55.6642L62.7441 55.2162Z" fill="#42C5E9"/>
<path d="M40.0361 21.9129L39.3178 25.3489L43.5794 26.0899L43.6165 22.3598L40.0361 21.9129Z" fill="#3066D9"/>
<path d="M35.3047 60.891L34.5857 64.3285L38.8484 65.069L38.8855 61.339L35.3047 60.891Z" fill="#2E67DE"/>
<path d="M44.3622 9.50565L43.6439 12.9417L47.9056 13.6827L47.9427 9.95261L44.3622 9.50565Z" fill="#42C5E9"/>
<path d="M14.8125 45.4408L14.0932 48.8772L18.3548 49.6182L18.3929 45.8878L14.8125 45.4408Z" fill="#F15A24"/>
<path d="M23.0625 20.5463L22.3432 23.9827L26.6058 24.7233L26.6429 20.9932L23.0625 20.5463Z" fill="#DD0044"/>
<defs>
<filter id="filter0_f_1447_69683" x="14.8254" y="31.679" width="57.8745" height="42.0835" filterUnits="userSpaceOnUse" color-interpolation-filters="sRGB">
<feFlood flood-opacity="0" result="BackgroundImageFix"/>
<feBlend mode="normal" in="SourceGraphic" in2="BackgroundImageFix" result="shape"/>
<feGaussianBlur stdDeviation="1.38025" result="effect1_foregroundBlur_1447_69683"/>
</filter>
<filter id="filter1_f_1447_69683" x="13.1691" y="30.0227" width="61.1871" height="45.3961" filterUnits="userSpaceOnUse" color-interpolation-filters="sRGB">
<feFlood flood-opacity="0" result="BackgroundImageFix"/>
<feBlend mode="normal" in="SourceGraphic" in2="BackgroundImageFix" result="shape"/>
<feGaussianBlur stdDeviation="2.2084" result="effect1_foregroundBlur_1447_69683"/>
</filter>
<filter id="filter2_f_1447_69683" x="41.8592" y="40.8445" width="24.2953" height="24.2953" filterUnits="userSpaceOnUse" color-interpolation-filters="sRGB">
<feFlood flood-opacity="0" result="BackgroundImageFix"/>
<feBlend mode="normal" in="SourceGraphic" in2="BackgroundImageFix" result="shape"/>
<feGaussianBlur stdDeviation="3.3126" result="effect1_foregroundBlur_1447_69683"/>
</filter>
<filter id="filter3_f_1447_69683" x="45.1658" y="27.8436" width="24.2953" height="24.2953" filterUnits="userSpaceOnUse" color-interpolation-filters="sRGB">
<feFlood flood-opacity="0" result="BackgroundImageFix"/>
<feBlend mode="normal" in="SourceGraphic" in2="BackgroundImageFix" result="shape"/>
<feGaussianBlur stdDeviation="3.3126" result="effect1_foregroundBlur_1447_69683"/>
</filter>
<filter id="filter4_f_1447_69683" x="17.5193" y="38.0857" width="24.2953" height="24.2953" filterUnits="userSpaceOnUse" color-interpolation-filters="sRGB">
<feFlood flood-opacity="0" result="BackgroundImageFix"/>
<feBlend mode="normal" in="SourceGraphic" in2="BackgroundImageFix" result="shape"/>
<feGaussianBlur stdDeviation="3.3126" result="effect1_foregroundBlur_1447_69683"/>
</filter>
<filter id="filter5_f_1447_69683" x="49.5077" y="48.0897" width="22.4611" height="11.7473" filterUnits="userSpaceOnUse" color-interpolation-filters="sRGB">
<feFlood flood-opacity="0" result="BackgroundImageFix"/>
<feBlend mode="normal" in="SourceGraphic" in2="BackgroundImageFix" result="shape"/>
<feGaussianBlur stdDeviation="1.6563" result="effect1_foregroundBlur_1447_69683"/>
</filter>
<filter id="filter6_f_1447_69683" x="61.7142" y="29.8548" width="17.6166" height="21.3256" filterUnits="userSpaceOnUse" color-interpolation-filters="sRGB">
<feFlood flood-opacity="0" result="BackgroundImageFix"/>
<feBlend mode="normal" in="SourceGraphic" in2="BackgroundImageFix" result="shape"/>
<feGaussianBlur stdDeviation="0.5521" result="effect1_foregroundBlur_1447_69683"/>
</filter>
<filter id="filter7_f_1447_69683" x="45.7885" y="49.0161" width="17.7237" height="7.94641" filterUnits="userSpaceOnUse" color-interpolation-filters="sRGB">
<feFlood flood-opacity="0" result="BackgroundImageFix"/>
<feBlend mode="normal" in="SourceGraphic" in2="BackgroundImageFix" result="shape"/>
<feGaussianBlur stdDeviation="0.44168" result="effect1_foregroundBlur_1447_69683"/>
</filter>
<filter id="filter8_f_1447_69683" x="46.5363" y="50.4318" width="7.19109" height="7.68914" filterUnits="userSpaceOnUse" color-interpolation-filters="sRGB">
<feFlood flood-opacity="0" result="BackgroundImageFix"/>
<feBlend mode="normal" in="SourceGraphic" in2="BackgroundImageFix" result="shape"/>
<feGaussianBlur stdDeviation="0.662519" result="effect1_foregroundBlur_1447_69683"/>
</filter>
<filter id="filter9_f_1447_69683" x="46.583" y="50.0752" width="7.90816" height="8.47066" filterUnits="userSpaceOnUse" color-interpolation-filters="sRGB">
<feFlood flood-opacity="0" result="BackgroundImageFix"/>
<feBlend mode="normal" in="SourceGraphic" in2="BackgroundImageFix" result="shape"/>
<feGaussianBlur stdDeviation="0.772939" result="effect1_foregroundBlur_1447_69683"/>
</filter>
<filter id="filter10_f_1447_69683" x="-5.11338" y="19.8388" width="31.6389" height="16.9055" filterUnits="userSpaceOnUse" color-interpolation-filters="sRGB">
<feFlood flood-opacity="0" result="BackgroundImageFix"/>
<feBlend mode="normal" in="SourceGraphic" in2="BackgroundImageFix" result="shape"/>
<feGaussianBlur stdDeviation="1.6563" result="effect1_foregroundBlur_1447_69683"/>
</filter>
<radialGradient id="paint0_radial_1447_69683" cx="0" cy="0" r="1" gradientUnits="userSpaceOnUse" gradientTransform="translate(33.7351 18.9362) rotate(69.6723) scale(53.2224)">
<stop stop-color="#FFDE43"/>
<stop offset="1" stop-color="#FFBC00"/>
</radialGradient>
<radialGradient id="paint1_radial_1447_69683" cx="0" cy="0" r="1" gradientUnits="userSpaceOnUse" gradientTransform="translate(36.2093 25.6148) rotate(69.6723) scale(46.1003)">
<stop stop-color="white" stop-opacity="0.5"/>
<stop offset="0.782278"/>
</radialGradient>
<radialGradient id="paint2_radial_1447_69683" cx="0" cy="0" r="1" gradientUnits="userSpaceOnUse" gradientTransform="translate(36.2093 25.6148) rotate(69.6723) scale(46.1003)">
<stop stop-color="white" stop-opacity="0.5"/>
<stop offset="0.782278"/>
</radialGradient>
<radialGradient id="paint3_radial_1447_69683" cx="0" cy="0" r="1" gradientUnits="userSpaceOnUse" gradientTransform="translate(31.7213 13.5002) rotate(69.6723) scale(59.0194 79.8153)">
<stop offset="0.0922635" stop-color="white"/>
<stop offset="0.670207" stop-color="white" stop-opacity="0"/>
</radialGradient>
<radialGradient id="paint4_radial_1447_69683" cx="0" cy="0" r="1" gradientUnits="userSpaceOnUse" gradientTransform="translate(50.538 54.1989) rotate(-20.3277) scale(2.73317 13.2967)">
<stop stop-color="#743C1C"/>
<stop offset="1" stop-color="#401C02"/>
</radialGradient>
<linearGradient id="paint5_linear_1447_69683" x1="54.0437" y1="52.9287" x2="47.0491" y2="55.5199" gradientUnits="userSpaceOnUse">
<stop stop-color="#FFDE43"/>
<stop offset="0.22" stop-color="#FED93F"/>
<stop offset="0.51" stop-color="#FCC934"/>
<stop offset="0.82" stop-color="#F9AF21"/>
<stop offset="1" stop-color="#F79D14"/>
</linearGradient>
<radialGradient id="paint6_radial_1447_69683" cx="0" cy="0" r="1" gradientUnits="userSpaceOnUse" gradientTransform="translate(34.065 46.3834) rotate(-20.3277) scale(6.99893 2.06796)">
<stop stop-color="#743C1C"/>
<stop offset="1" stop-color="#401C02"/>
</radialGradient>
<linearGradient id="paint7_linear_1447_69683" x1="34.8301" y1="48.4268" x2="33.3094" y2="44.3216" gradientUnits="userSpaceOnUse">
<stop stop-color="#FFDE43"/>
<stop offset="0.22" stop-color="#FED93F"/>
<stop offset="0.51" stop-color="#FCC934"/>
<stop offset="0.82" stop-color="#F9AF21"/>
<stop offset="1" stop-color="#F79D14"/>
</linearGradient>
<radialGradient id="paint8_radial_1447_69683" cx="0" cy="0" r="1" gradientUnits="userSpaceOnUse" gradientTransform="translate(51.366 39.9741) rotate(-20.3277) scale(6.99919 2.06796)">
<stop stop-color="#743C1C"/>
<stop offset="1" stop-color="#401C02"/>
</radialGradient>
<linearGradient id="paint9_linear_1447_69683" x1="52.1311" y1="42.0175" x2="50.6103" y2="37.9124" gradientUnits="userSpaceOnUse">
<stop stop-color="#FFDE43"/>
<stop offset="0.22" stop-color="#FED93F"/>
<stop offset="0.51" stop-color="#FCC934"/>
<stop offset="0.82" stop-color="#F9AF21"/>
<stop offset="1" stop-color="#F79D14"/>
</linearGradient>
<radialGradient id="paint10_radial_1447_69683" cx="0" cy="0" r="1" gradientUnits="userSpaceOnUse" gradientTransform="translate(33.7351 18.9362) rotate(69.6723) scale(53.2224)">
<stop stop-color="#FFDE43"/>
<stop offset="1" stop-color="#FFBC00"/>
</radialGradient>
<linearGradient id="paint11_linear_1447_69683" x1="73.4612" y1="48.0708" x2="64.2751" y2="32.3684" gradientUnits="userSpaceOnUse">
<stop stop-color="#005269"/>
<stop offset="0.7" stop-color="#42C5E9"/>
</linearGradient>
<linearGradient id="paint12_linear_1447_69683" x1="55.5766" y1="54.5" x2="54.6061" y2="51.8804" gradientUnits="userSpaceOnUse">
<stop stop-color="#053584"/>
<stop offset="0.7" stop-color="#1D60D1"/>
</linearGradient>
<linearGradient id="paint13_linear_1447_69683" x1="50.6681" y1="56.8189" x2="47.0368" y2="55.1508" gradientUnits="userSpaceOnUse">
<stop stop-color="#17A7CF"/>
<stop offset="0.7" stop-color="#42C5E9"/>
</linearGradient>
<linearGradient id="paint14_linear_1447_69683" x1="2361.19" y1="604.262" x2="2234.83" y2="502.664" gradientUnits="userSpaceOnUse">
<stop stop-color="#17A7CF"/>
<stop offset="0.7" stop-color="#42C5E9"/>
</linearGradient>
<linearGradient id="paint15_linear_1447_69683" x1="2523.12" y1="544.275" x2="2396.76" y2="442.677" gradientUnits="userSpaceOnUse">
<stop stop-color="#17A7CF"/>
<stop offset="0.7" stop-color="#42C5E9"/>
</linearGradient>
<linearGradient id="paint16_linear_1447_69683" x1="2685.55" y1="484.098" x2="2559.19" y2="382.481" gradientUnits="userSpaceOnUse">
<stop stop-color="#17A7CF"/>
<stop offset="0.7" stop-color="#42C5E9"/>
</linearGradient>
<linearGradient id="paint17_linear_1447_69683" x1="61.2703" y1="52.6839" x2="60.1088" y2="49.5486" gradientUnits="userSpaceOnUse">
<stop stop-color="#021738"/>
<stop offset="0.7" stop-color="#053584"/>
</linearGradient>
<linearGradient id="paint18_linear_1447_69683" x1="1540.74" y1="1178.57" x2="1505.57" y2="1083.63" gradientUnits="userSpaceOnUse">
<stop stop-color="#053584"/>
<stop offset="0.7" stop-color="#1D60D1"/>
</linearGradient>
<linearGradient id="paint19_linear_1447_69683" x1="73.4026" y1="48.0718" x2="64.2165" y2="32.3693" gradientUnits="userSpaceOnUse">
<stop stop-color="#005269"/>
<stop offset="0.7" stop-color="#42C5E9"/>
</linearGradient>
<linearGradient id="paint20_linear_1447_69683" x1="55.8851" y1="54.4167" x2="54.8878" y2="51.7246" gradientUnits="userSpaceOnUse">
<stop stop-color="#053584"/>
<stop offset="0.7" stop-color="#1D60D1"/>
</linearGradient>
<radialGradient id="paint21_radial_1447_69683" cx="0" cy="0" r="1" gradientUnits="userSpaceOnUse" gradientTransform="translate(49.9667 54.7702) rotate(-20.3277) scale(1.33647 4.63966)">
<stop stop-color="#743C1C"/>
<stop offset="1" stop-color="#401C02"/>
</radialGradient>
<radialGradient id="paint22_radial_1447_69683" cx="0" cy="0" r="1" gradientUnits="userSpaceOnUse" gradientTransform="translate(50.4549 54.7604) rotate(-20.3277) scale(1.33647 4.63966)">
<stop stop-color="#743C1C"/>
<stop offset="1" stop-color="#401C02"/>
</radialGradient>
<linearGradient id="paint23_linear_1447_69683" x1="22.3556" y1="34.44" x2="2.02277" y2="22.8564" gradientUnits="userSpaceOnUse">
<stop stop-color="#04265E"/>
<stop offset="0.7" stop-color="#1D60D1"/>
</linearGradient>
<linearGradient id="paint24_linear_1447_69683" x1="22.3556" y1="34.44" x2="2.02277" y2="22.8564" gradientUnits="userSpaceOnUse">
<stop stop-color="#04265E"/>
<stop offset="0.7" stop-color="#1D60D1"/>
</linearGradient>
</defs>
</svg>