<svg xmlns="http://www.w3.org/2000/svg" width="24" height="25" viewBox="0 0 24 25" fill="none">
<g filter="url(#filter0_d_1447_114624)">
<path d="M16.8016 1.73678C15.7115 1.70229 14.6422 2.04002 13.7698 2.69438C12.8973 3.34873 12.2737 4.28068 12.0016 5.33678C11.7295 4.28068 11.1058 3.34873 10.2334 2.69438C9.36089 2.04002 8.2916 1.70229 7.20156 1.73678C4.43036 1.64878 3.57756 4.60878 4.51036 6.53358H2.40156C2.18939 6.53358 1.98591 6.61786 1.83588 6.76789C1.68585 6.91792 1.60156 7.1214 1.60156 7.33358V8.93358C1.60156 9.14575 1.68585 9.34923 1.83588 9.49926C1.98591 9.64929 2.18939 9.73358 2.40156 9.73358H21.6016C21.8137 9.73358 22.0172 9.64929 22.1672 9.49926C22.3173 9.34923 22.4016 9.14575 22.4016 8.93358V7.33358C22.4016 7.1214 22.3173 6.91792 22.1672 6.76789C22.0172 6.61786 21.8137 6.53358 21.6016 6.53358H19.512C20.4816 4.63758 19.6688 1.73518 16.8656 1.73518H16.8016V1.73678ZM17.0944 6.53358H13.6016C13.6024 5.68544 13.9399 4.87233 14.54 4.2729C15.14 3.67348 15.9534 3.33678 16.8016 3.33678C18.6816 3.33678 19.0144 6.33198 17.0944 6.53358ZM10.4016 6.53358H6.86876C5.21276 6.34638 5.11516 3.50318 6.93276 3.33678C7.02217 3.32859 7.11215 3.32859 7.20156 3.33678C8.0497 3.33678 8.86315 3.67348 9.46317 4.2729C10.0632 4.87233 10.4007 5.68544 10.4016 6.53358ZM3.20156 11.3352V18.5352C3.20156 19.1717 3.45442 19.7821 3.90451 20.2322C4.35459 20.6823 4.96504 20.9352 5.60156 20.9352H11.0485V11.3352H3.20156ZM13.0175 11.3352V20.9352H18.4016C19.0381 20.9352 19.6485 20.6823 20.0986 20.2322C20.5487 19.7821 20.8016 19.1717 20.8016 18.5352V11.3352H13.0175Z" fill="white" fill-opacity="0.8" shape-rendering="crispEdges"/>
</g>
<defs>
<filter id="filter0_d_1447_114624" x="-2.39844" y="-1.26562" width="28.8008" height="27.2012" filterUnits="userSpaceOnUse" color-interpolation-filters="sRGB">
<feFlood flood-opacity="0" result="BackgroundImageFix"/>
<feColorMatrix in="SourceAlpha" type="matrix" values="0 0 0 0 0 0 0 0 0 0 0 0 0 0 0 0 0 0 127 0" result="hardAlpha"/>
<feOffset dy="1"/>
<feGaussianBlur stdDeviation="2"/>
<feComposite in2="hardAlpha" operator="out"/>
<feColorMatrix type="matrix" values="0 0 0 0 0.404167 0 0 0 0 0.404167 0 0 0 0 0.404167 0 0 0 0.15 0"/>
<feBlend mode="normal" in2="BackgroundImageFix" result="effect1_dropShadow_1447_114624"/>
<feBlend mode="normal" in="SourceGraphic" in2="effect1_dropShadow_1447_114624" result="shape"/>
</filter>
</defs>
</svg>