        <svg xmlns="http://www.w3.org/2000/svg" width="24" height="24" viewBox="0 0 24 24" fill="none">
          <g clip-path="url(#clip0_345_9496)">
            <g filter="url(#filter0_d_345_9496)">
              <path
                d="M10.3636 3C8.90722 3 7.48354 3.43187 6.2726 4.24099C5.06167 5.05011 4.11786 6.20015 3.56052 7.54567C3.00319 8.89119 2.85737 10.3718 3.14149 11.8002C3.42562 13.2286 4.12693 14.5406 5.15675 15.5704C6.18657 16.6003 7.49863 17.3016 8.92703 17.5857C10.3554 17.8698 11.836 17.724 13.1815 17.1667C14.527 16.6093 15.6771 15.6655 16.4862 14.4546C17.2953 13.2437 17.7272 11.82 17.7272 10.3636C17.7271 8.41069 16.9512 6.5378 15.5703 5.15688C14.1894 3.77597 12.3165 3.00012 10.3636 3Z"
                stroke="white" stroke-opacity="0.8" stroke-width="2" stroke-miterlimit="10"
                shape-rendering="crispEdges" />
            </g>
            <g filter="url(#filter1_d_345_9496)">
              <path d="M15.8555 15.8574L20.9981 21.0001" stroke="white" stroke-opacity="0.8" stroke-width="2"
                stroke-miterlimit="10" stroke-linecap="round" shape-rendering="crispEdges" />
            </g>
          </g>
          <defs>
            <filter id="filter0_d_345_9496" x="-2" y="-1" width="24.7266" height="24.7275" filterUnits="userSpaceOnUse"
              color-interpolation-filters="sRGB">
              <feFlood flood-opacity="0" result="BackgroundImageFix" />
              <feColorMatrix in="SourceAlpha" type="matrix" values="0 0 0 0 0 0 0 0 0 0 0 0 0 0 0 0 0 0 127 0"
                result="hardAlpha" />
              <feOffset dy="1" />
              <feGaussianBlur stdDeviation="2" />
              <feComposite in2="hardAlpha" operator="out" />
              <feColorMatrix type="matrix" values="0 0 0 0 0.404167 0 0 0 0 0.404167 0 0 0 0 0.404167 0 0 0 0.15 0" />
              <feBlend mode="normal" in2="BackgroundImageFix" result="effect1_dropShadow_345_9496" />
              <feBlend mode="normal" in="SourceGraphic" in2="effect1_dropShadow_345_9496" result="shape" />
            </filter>
            <filter id="filter1_d_345_9496" x="10.8555" y="11.8574" width="15.1426" height="15.1426"
              filterUnits="userSpaceOnUse" color-interpolation-filters="sRGB">
              <feFlood flood-opacity="0" result="BackgroundImageFix" />
              <feColorMatrix in="SourceAlpha" type="matrix" values="0 0 0 0 0 0 0 0 0 0 0 0 0 0 0 0 0 0 127 0"
                result="hardAlpha" />
              <feOffset dy="1" />
              <feGaussianBlur stdDeviation="2" />
              <feComposite in2="hardAlpha" operator="out" />
              <feColorMatrix type="matrix" values="0 0 0 0 0.404167 0 0 0 0 0.404167 0 0 0 0 0.404167 0 0 0 0.15 0" />
              <feBlend mode="normal" in2="BackgroundImageFix" result="effect1_dropShadow_345_9496" />
              <feBlend mode="normal" in="SourceGraphic" in2="effect1_dropShadow_345_9496" result="shape" />
            </filter>
            <clipPath id="clip0_345_9496">
              <rect width="24" height="24" fill="white" />
            </clipPath>
          </defs>
        </svg>