<svg width="170" height="152" viewBox="0 0 170 152" fill="none" xmlns="http://www.w3.org/2000/svg">
<path d="M84.7057 62.4336H0V86.196C0 89.927 2.11833 93.4311 5.69447 95.6156L77.866 149.141C80.9097 150.736 82.8046 151.569 84.7057 151.612V62.4336Z" fill="url(#paint0_linear_1566_30539)"/>
<path fill-rule="evenodd" clip-rule="evenodd" d="M169.437 62.4336H84.709V151.612C86.6919 151.657 88.6816 150.843 91.9887 149.141L163.456 95.8171C167.199 93.6513 169.437 90.0629 169.437 86.2275V62.4336Z" fill="#2B71D9"/>
<path d="M4.17042 69.7807C-1.39014 65.723 -1.39014 59.1442 4.17042 55.0865L74.6484 3.65656C80.209 -0.401145 89.2244 -0.401145 94.785 3.65656L165.263 55.0864C170.824 59.1441 170.824 65.723 165.263 69.7807L94.785 121.211C89.2244 125.268 80.209 125.268 74.6484 121.211L4.17042 69.7807Z" fill="url(#paint1_radial_1566_30539)"/>
<defs>
<linearGradient id="paint0_linear_1566_30539" x1="22.8964" y1="135.215" x2="56.0968" y2="167.249" gradientUnits="userSpaceOnUse">
<stop stop-color="#1E61C4"/>
<stop offset="1" stop-color="#2B71D9"/>
</linearGradient>
<radialGradient id="paint1_radial_1566_30539" cx="0" cy="0" r="1" gradientUnits="userSpaceOnUse" gradientTransform="translate(84.7167 62.4336) rotate(90) scale(61.8203 84.7167)">
<stop stop-color="#124794"/>
<stop offset="1" stop-color="#1B56AD"/>
</radialGradient>
</defs>
</svg>
