<svg width="91" height="32" viewBox="0 0 91 32" fill="none" xmlns="http://www.w3.org/2000/svg">
<path d="M4.39427 8.49C5.4116 8.49 6.24227 8.80267 6.88627 9.428C7.53027 10.044 7.85227 10.8467 7.85227 11.836C7.85227 12.8253 7.53027 13.6327 6.88627 14.258C6.24227 14.874 5.4116 15.182 4.39427 15.182C3.3676 15.182 2.53227 14.874 1.88827 14.258C1.24427 13.6327 0.922266 12.8253 0.922266 11.836C0.922266 11.0893 1.11827 10.4313 1.51027 9.862L4.61827 5.2H6.45227L4.21227 8.49H4.39427ZM4.39427 13.656C4.9356 13.656 5.37893 13.4927 5.72427 13.166C6.0696 12.83 6.24227 12.3867 6.24227 11.836C6.24227 11.2853 6.0696 10.8467 5.72427 10.52C5.37893 10.184 4.9356 10.016 4.39427 10.016C3.8436 10.016 3.3956 10.184 3.05027 10.52C2.70493 10.8467 2.53227 11.2853 2.53227 11.836C2.53227 12.3867 2.70493 12.83 3.05027 13.166C3.3956 13.4927 3.8436 13.656 4.39427 13.656ZM10.4617 14.86C10.2564 15.0653 10.0091 15.168 9.71973 15.168C9.4304 15.168 9.18307 15.0653 8.97773 14.86C8.7724 14.6547 8.66973 14.4073 8.66973 14.118C8.66973 13.8287 8.76773 13.5813 8.96373 13.376C9.16907 13.1707 9.42107 13.068 9.71973 13.068C10.0091 13.068 10.2564 13.1707 10.4617 13.376C10.6671 13.5813 10.7697 13.8287 10.7697 14.118C10.7697 14.4073 10.6671 14.6547 10.4617 14.86ZM19.3781 11.738V13.236H18.2581V15H16.6341V13.236H11.8181V11.738L15.1921 5.2H16.9421L13.5681 11.738H16.6341V9.19H18.2581V11.738H19.3781ZM20.8772 16.4H20.1072L25.7072 3.8H26.4772L20.8772 16.4ZM29.7307 5.2H31.1307V15H29.5207V6.922L27.5467 7.482L27.1547 6.11L29.7307 5.2ZM39.4196 13.796C38.7476 14.72 37.805 15.182 36.5916 15.182C35.3783 15.182 34.431 14.72 33.7496 13.796C33.0776 12.872 32.7416 11.64 32.7416 10.1C32.7416 8.56 33.0776 7.328 33.7496 6.404C34.431 5.48 35.3783 5.018 36.5916 5.018C37.805 5.018 38.7476 5.48 39.4196 6.404C40.101 7.328 40.4416 8.56 40.4416 10.1C40.4416 11.64 40.101 12.872 39.4196 13.796ZM36.5916 13.614C37.3196 13.614 37.875 13.3107 38.2576 12.704C38.6403 12.0973 38.8316 11.2293 38.8316 10.1C38.8316 8.97067 38.6403 8.10267 38.2576 7.496C37.875 6.88933 37.3196 6.586 36.5916 6.586C35.873 6.586 35.3176 6.88933 34.9256 7.496C34.543 8.10267 34.3516 8.97067 34.3516 10.1C34.3516 11.2293 34.543 12.0973 34.9256 12.704C35.3176 13.3107 35.873 13.614 36.5916 13.614Z" fill="url(#paint0_linear_3238_58228)"/>
<rect y="22" width="91" height="2" rx="1" fill="url(#paint1_linear_3238_58228)" fill-opacity="0.23"/>
<rect y="22" width="55" height="2" rx="1" fill="url(#paint2_linear_3238_58228)"/>
<defs>
<linearGradient id="paint0_linear_3238_58228" x1="20.5" y1="2" x2="22.5519" y2="18.7486" gradientUnits="userSpaceOnUse">
<stop stop-color="#FFB800"/>
<stop offset="1" stop-color="#EBD511"/>
</linearGradient>
<linearGradient id="paint1_linear_3238_58228" x1="45.5" y1="22" x2="45.513" y2="23.9999" gradientUnits="userSpaceOnUse">
<stop stop-color="#FFB800"/>
<stop offset="1" stop-color="#EBD511"/>
</linearGradient>
<linearGradient id="paint2_linear_3238_58228" x1="27.5" y1="22" x2="27.5215" y2="23.9998" gradientUnits="userSpaceOnUse">
<stop stop-color="#FFB800"/>
<stop offset="1" stop-color="#EBD511"/>
</linearGradient>
</defs>
</svg>
