<svg width="91" height="32" viewBox="0 0 91 32" fill="none" xmlns="http://www.w3.org/2000/svg">
<path d="M4.77366 9.204C5.48299 9.372 6.05699 9.70333 6.49566 10.198C6.94366 10.6833 7.16766 11.2947 7.16766 12.032C7.16766 13.012 6.83632 13.782 6.17366 14.342C5.51099 14.902 4.69899 15.182 3.73766 15.182C2.99099 15.182 2.31899 15.0093 1.72166 14.664C1.13366 14.3187 0.70899 13.8147 0.447656 13.152L1.81966 12.354C2.10899 13.194 2.74832 13.614 3.73766 13.614C4.29766 13.614 4.74099 13.474 5.06766 13.194C5.39432 12.9047 5.55766 12.5173 5.55766 12.032C5.55766 11.5467 5.39432 11.164 5.06766 10.884C4.74099 10.604 4.29766 10.464 3.73766 10.464H3.37366L2.72966 9.498L4.84366 6.712H0.741656V5.2H6.76166V6.572L4.77366 9.204ZM8.02384 15V13.74L11.4398 10.254C12.2705 9.42333 12.6858 8.70467 12.6858 8.098C12.6858 7.622 12.5412 7.25333 12.2518 6.992C11.9718 6.72133 11.6125 6.586 11.1738 6.586C10.3525 6.586 9.74584 6.992 9.35384 7.804L7.99584 7.006C8.30384 6.35267 8.73784 5.858 9.29784 5.522C9.85784 5.186 10.4785 5.018 11.1598 5.018C12.0185 5.018 12.7558 5.28867 13.3718 5.83C13.9878 6.37133 14.2958 7.10867 14.2958 8.042C14.2958 9.04067 13.7405 10.1047 12.6298 11.234L10.4178 13.446H14.4778V15H8.02384Z" fill="url(#paint0_linear_3238_58236)"/>
<rect y="22" width="91" height="2" rx="1" fill="url(#paint1_linear_3238_58236)" fill-opacity="0.23"/>
<rect y="22" width="23" height="2" rx="1" fill="url(#paint2_linear_3238_58236)"/>
<defs>
<linearGradient id="paint0_linear_3238_58236" x1="7.5" y1="2" x2="12.6187" y2="17.2859" gradientUnits="userSpaceOnUse">
<stop stop-color="#EF3F19"/>
<stop offset="1" stop-color="#EC721A"/>
</linearGradient>
<linearGradient id="paint1_linear_3238_58236" x1="45.5" y1="22" x2="45.5" y2="24" gradientUnits="userSpaceOnUse">
<stop stop-color="#EF3F19"/>
<stop offset="1" stop-color="#EC721A"/>
</linearGradient>
<linearGradient id="paint2_linear_3238_58236" x1="11.5" y1="22" x2="11.5514" y2="23.9987" gradientUnits="userSpaceOnUse">
<stop stop-color="#EF3F19"/>
<stop offset="1" stop-color="#EC721A"/>
</linearGradient>
</defs>
</svg>
