<svg width="91" height="32" viewBox="0 0 91 32" fill="none" xmlns="http://www.w3.org/2000/svg">
<path d="M8.14883 4.7V6.24H5.39083V14.5H3.78083V6.24H1.00883V4.7H8.14883ZM11.2876 14.682C10.2609 14.682 9.38823 14.3273 8.66956 13.618C7.9509 12.9087 7.59156 12.036 7.59156 11C7.59156 9.964 7.9509 9.09133 8.66956 8.382C9.38823 7.67267 10.2609 7.318 11.2876 7.318C12.3236 7.318 13.1962 7.67267 13.9056 8.382C14.6242 9.09133 14.9836 9.964 14.9836 11C14.9836 12.036 14.6242 12.9087 13.9056 13.618C13.1962 14.3273 12.3236 14.682 11.2876 14.682ZM9.73356 12.582C10.1536 13.002 10.6716 13.212 11.2876 13.212C11.9036 13.212 12.4216 13.002 12.8416 12.582C13.2616 12.162 13.4716 11.6347 13.4716 11C13.4716 10.3653 13.2616 9.838 12.8416 9.418C12.4216 8.998 11.9036 8.788 11.2876 8.788C10.6716 8.788 10.1536 8.998 9.73356 9.418C9.31356 9.838 9.10356 10.3653 9.10356 11C9.10356 11.6347 9.31356 12.162 9.73356 12.582ZM20.3128 7.318C21.2741 7.318 22.0954 7.67733 22.7768 8.396C23.4581 9.10533 23.7988 9.97333 23.7988 11C23.7988 12.036 23.4581 12.9087 22.7768 13.618C22.0954 14.3273 21.2741 14.682 20.3128 14.682C19.2488 14.682 18.4321 14.29 17.8628 13.506V17.3H16.3508V7.5H17.8628V8.508C18.4321 7.71467 19.2488 7.318 20.3128 7.318ZM18.4928 12.61C18.9128 13.03 19.4401 13.24 20.0748 13.24C20.7094 13.24 21.2368 13.03 21.6568 12.61C22.0768 12.1807 22.2868 11.644 22.2868 11C22.2868 10.356 22.0768 9.824 21.6568 9.404C21.2368 8.97467 20.7094 8.76 20.0748 8.76C19.4401 8.76 18.9128 8.97467 18.4928 9.404C18.0728 9.824 17.8628 10.356 17.8628 11C17.8628 11.644 18.0728 12.1807 18.4928 12.61ZM30.5451 4.7H31.9451V14.5H30.3351V6.422L28.3611 6.982L27.9691 5.61L30.5451 4.7ZM40.2341 13.296C39.5621 14.22 38.6194 14.682 37.4061 14.682C36.1928 14.682 35.2454 14.22 34.5641 13.296C33.8921 12.372 33.5561 11.14 33.5561 9.6C33.5561 8.06 33.8921 6.828 34.5641 5.904C35.2454 4.98 36.1928 4.518 37.4061 4.518C38.6194 4.518 39.5621 4.98 40.2341 5.904C40.9154 6.828 41.2561 8.06 41.2561 9.6C41.2561 11.14 40.9154 12.372 40.2341 13.296ZM37.4061 13.114C38.1341 13.114 38.6894 12.8107 39.0721 12.204C39.4548 11.5973 39.6461 10.7293 39.6461 9.6C39.6461 8.47067 39.4548 7.60267 39.0721 6.996C38.6894 6.38933 38.1341 6.086 37.4061 6.086C36.6874 6.086 36.1321 6.38933 35.7401 6.996C35.3574 7.60267 35.1661 8.47067 35.1661 9.6C35.1661 10.7293 35.3574 11.5973 35.7401 12.204C36.1321 12.8107 36.6874 13.114 37.4061 13.114ZM46.161 8.354C45.7317 8.78333 45.1903 8.998 44.537 8.998C43.8837 8.998 43.3377 8.78333 42.899 8.354C42.4603 7.91533 42.241 7.38333 42.241 6.758C42.241 6.13267 42.4603 5.60533 42.899 5.176C43.3377 4.73733 43.8837 4.518 44.537 4.518C45.1903 4.518 45.7317 4.73267 46.161 5.162C46.5997 5.59133 46.819 6.12333 46.819 6.758C46.819 7.38333 46.5997 7.91533 46.161 8.354ZM44.523 7.766C44.8217 7.766 45.0643 7.668 45.251 7.472C45.4377 7.276 45.531 7.038 45.531 6.758C45.531 6.46867 45.4377 6.226 45.251 6.03C45.0643 5.834 44.8217 5.736 44.523 5.736C44.2337 5.736 43.9957 5.834 43.809 6.03C43.6223 6.226 43.529 6.46867 43.529 6.758C43.529 7.038 43.6223 7.276 43.809 7.472C43.9957 7.668 44.2337 7.766 44.523 7.766ZM43.067 13.058L49.521 5.876L50.277 6.31L43.823 13.506L43.067 13.058ZM49.017 14.668C48.3637 14.668 47.8177 14.4533 47.379 14.024C46.9403 13.5853 46.721 13.0533 46.721 12.428C46.721 11.8027 46.9403 11.2753 47.379 10.846C47.8177 10.4073 48.3637 10.188 49.017 10.188C49.661 10.188 50.2023 10.4073 50.641 10.846C51.0797 11.2753 51.299 11.8027 51.299 12.428C51.299 13.0533 51.0797 13.5853 50.641 14.024C50.2023 14.4533 49.661 14.668 49.017 14.668ZM49.003 13.436C49.3017 13.436 49.5443 13.338 49.731 13.142C49.9177 12.946 50.011 12.708 50.011 12.428C50.011 12.1387 49.9177 11.896 49.731 11.7C49.5443 11.504 49.3017 11.406 49.003 11.406C48.7137 11.406 48.4757 11.504 48.289 11.7C48.1023 11.896 48.009 12.1387 48.009 12.428C48.009 12.708 48.1023 12.946 48.289 13.142C48.4757 13.338 48.7137 13.436 49.003 13.436Z" fill="url(#paint0_linear_3238_58219)"/>
<rect y="22.5" width="91" height="2" rx="1" fill="url(#paint1_linear_3238_58219)" fill-opacity="0.23"/>
<rect y="22.5" width="71" height="2" rx="1" fill="url(#paint2_linear_3238_58219)"/>
<defs>
<linearGradient id="paint0_linear_3238_58219" x1="26" y1="1.5" x2="26" y2="18.5" gradientUnits="userSpaceOnUse">
<stop stop-color="#6FDF2B"/>
<stop offset="1" stop-color="#2BDF89"/>
</linearGradient>
<linearGradient id="paint1_linear_3238_58219" x1="45.5" y1="22.5" x2="45.5" y2="24.5" gradientUnits="userSpaceOnUse">
<stop stop-color="#6FDF2B"/>
<stop offset="1" stop-color="#2BDF89"/>
</linearGradient>
<linearGradient id="paint2_linear_3238_58219" x1="35.5" y1="22.5" x2="35.5" y2="24.5" gradientUnits="userSpaceOnUse">
<stop stop-color="#6FDF2B"/>
<stop offset="1" stop-color="#2BDF89"/>
</linearGradient>
</defs>
</svg>
