<svg width="91" height="64" viewBox="0 0 91 64" fill="none" xmlns="http://www.w3.org/2000/svg">
<path d="M7.51016 20.4988V22.0388H4.75216V30.2988H3.14216V22.0388H0.370156V20.4988H7.51016ZM10.6489 30.4808C9.62222 30.4808 8.74956 30.1262 8.03089 29.4168C7.31222 28.7075 6.95289 27.8348 6.95289 26.7988C6.95289 25.7628 7.31222 24.8902 8.03089 24.1808C8.74956 23.4715 9.62222 23.1168 10.6489 23.1168C11.6849 23.1168 12.5576 23.4715 13.2669 24.1808C13.9856 24.8902 14.3449 25.7628 14.3449 26.7988C14.3449 27.8348 13.9856 28.7075 13.2669 29.4168C12.5576 30.1262 11.6849 30.4808 10.6489 30.4808ZM9.09489 28.3808C9.51489 28.8008 10.0329 29.0108 10.6489 29.0108C11.2649 29.0108 11.7829 28.8008 12.2029 28.3808C12.6229 27.9608 12.8329 27.4335 12.8329 26.7988C12.8329 26.1642 12.6229 25.6368 12.2029 25.2168C11.7829 24.7968 11.2649 24.5868 10.6489 24.5868C10.0329 24.5868 9.51489 24.7968 9.09489 25.2168C8.67489 25.6368 8.46489 26.1642 8.46489 26.7988C8.46489 27.4335 8.67489 27.9608 9.09489 28.3808ZM19.6741 23.1168C20.6354 23.1168 21.4567 23.4762 22.1381 24.1948C22.8194 24.9042 23.1601 25.7722 23.1601 26.7988C23.1601 27.8348 22.8194 28.7075 22.1381 29.4168C21.4567 30.1262 20.6354 30.4808 19.6741 30.4808C18.6101 30.4808 17.7934 30.0888 17.2241 29.3048V33.0988H15.7121V23.2988H17.2241V24.3068C17.7934 23.5135 18.6101 23.1168 19.6741 23.1168ZM17.8541 28.4088C18.2741 28.8288 18.8014 29.0388 19.4361 29.0388C20.0707 29.0388 20.5981 28.8288 21.0181 28.4088C21.4381 27.9795 21.6481 27.4428 21.6481 26.7988C21.6481 26.1548 21.4381 25.6228 21.0181 25.2028C20.5981 24.7735 20.0707 24.5588 19.4361 24.5588C18.8014 24.5588 18.2741 24.7735 17.8541 25.2028C17.4341 25.6228 17.2241 26.1548 17.2241 26.7988C17.2241 27.4428 17.4341 27.9795 17.8541 28.4088ZM33.0704 25.2028C34.0318 25.7348 34.5124 26.5282 34.5124 27.5828C34.5124 28.4788 34.1998 29.1882 33.5744 29.7108C32.9491 30.2242 32.1184 30.4808 31.0824 30.4808C30.0464 30.4808 29.2111 30.2242 28.5764 29.7108C27.9511 29.1882 27.6384 28.4788 27.6384 27.5828C27.6384 27.0788 27.7644 26.6215 28.0164 26.2108C28.2684 25.7908 28.6231 25.4548 29.0804 25.2028C28.3431 24.7175 27.9744 24.0268 27.9744 23.1308C27.9744 22.2348 28.2731 21.5442 28.8704 21.0588C29.4678 20.5642 30.2051 20.3168 31.0824 20.3168C31.9504 20.3168 32.6831 20.5642 33.2804 21.0588C33.8871 21.5442 34.1904 22.2348 34.1904 23.1308C34.1904 24.0268 33.8171 24.7175 33.0704 25.2028ZM31.0824 21.8428C30.6438 21.8428 30.2844 21.9595 30.0044 22.1928C29.7244 22.4262 29.5844 22.7622 29.5844 23.2008C29.5844 23.6208 29.7244 23.9522 30.0044 24.1948C30.2938 24.4375 30.6531 24.5588 31.0824 24.5588C31.5024 24.5588 31.8571 24.4375 32.1464 24.1948C32.4358 23.9522 32.5804 23.6208 32.5804 23.2008C32.5804 22.7622 32.4358 22.4262 32.1464 22.1928C31.8664 21.9595 31.5118 21.8428 31.0824 21.8428ZM31.0824 28.9548C31.6238 28.9548 32.0624 28.8242 32.3984 28.5628C32.7344 28.2922 32.9024 27.9142 32.9024 27.4288C32.9024 26.9435 32.7344 26.5702 32.3984 26.3088C32.0624 26.0382 31.6238 25.9028 31.0824 25.9028C30.5318 25.9028 30.0884 26.0382 29.7524 26.3088C29.4164 26.5702 29.2484 26.9435 29.2484 27.4288C29.2484 27.9142 29.4164 28.2922 29.7524 28.5628C30.0884 28.8242 30.5318 28.9548 31.0824 28.9548ZM42.2341 29.0948C41.5621 30.0188 40.6194 30.4808 39.4061 30.4808C38.1928 30.4808 37.2454 30.0188 36.5641 29.0948C35.8921 28.1708 35.5561 26.9388 35.5561 25.3988C35.5561 23.8588 35.8921 22.6268 36.5641 21.7028C37.2454 20.7788 38.1928 20.3168 39.4061 20.3168C40.6194 20.3168 41.5621 20.7788 42.2341 21.7028C42.9154 22.6268 43.2561 23.8588 43.2561 25.3988C43.2561 26.9388 42.9154 28.1708 42.2341 29.0948ZM39.4061 28.9128C40.1341 28.9128 40.6894 28.6095 41.0721 28.0028C41.4548 27.3962 41.6461 26.5282 41.6461 25.3988C41.6461 24.2695 41.4548 23.4015 41.0721 22.7948C40.6894 22.1882 40.1341 21.8848 39.4061 21.8848C38.6874 21.8848 38.1321 22.1882 37.7401 22.7948C37.3574 23.4015 37.1661 24.2695 37.1661 25.3988C37.1661 26.5282 37.3574 27.3962 37.7401 28.0028C38.1321 28.6095 38.6874 28.9128 39.4061 28.9128ZM48.161 24.1528C47.7317 24.5822 47.1903 24.7968 46.537 24.7968C45.8837 24.7968 45.3377 24.5822 44.899 24.1528C44.4603 23.7142 44.241 23.1822 44.241 22.5568C44.241 21.9315 44.4603 21.4042 44.899 20.9748C45.3377 20.5362 45.8837 20.3168 46.537 20.3168C47.1903 20.3168 47.7317 20.5315 48.161 20.9608C48.5997 21.3902 48.819 21.9222 48.819 22.5568C48.819 23.1822 48.5997 23.7142 48.161 24.1528ZM46.523 23.5648C46.8217 23.5648 47.0643 23.4668 47.251 23.2708C47.4377 23.0748 47.531 22.8368 47.531 22.5568C47.531 22.2675 47.4377 22.0248 47.251 21.8288C47.0643 21.6328 46.8217 21.5348 46.523 21.5348C46.2337 21.5348 45.9957 21.6328 45.809 21.8288C45.6223 22.0248 45.529 22.2675 45.529 22.5568C45.529 22.8368 45.6223 23.0748 45.809 23.2708C45.9957 23.4668 46.2337 23.5648 46.523 23.5648ZM45.067 28.8568L51.521 21.6748L52.277 22.1088L45.823 29.3048L45.067 28.8568ZM51.017 30.4668C50.3637 30.4668 49.8177 30.2522 49.379 29.8228C48.9403 29.3842 48.721 28.8522 48.721 28.2268C48.721 27.6015 48.9403 27.0742 49.379 26.6448C49.8177 26.2062 50.3637 25.9868 51.017 25.9868C51.661 25.9868 52.2023 26.2062 52.641 26.6448C53.0797 27.0742 53.299 27.6015 53.299 28.2268C53.299 28.8522 53.0797 29.3842 52.641 29.8228C52.2023 30.2522 51.661 30.4668 51.017 30.4668ZM51.003 29.2348C51.3017 29.2348 51.5443 29.1368 51.731 28.9408C51.9177 28.7448 52.011 28.5068 52.011 28.2268C52.011 27.9375 51.9177 27.6948 51.731 27.4988C51.5443 27.3028 51.3017 27.2048 51.003 27.2048C50.7137 27.2048 50.4757 27.3028 50.289 27.4988C50.1023 27.6948 50.009 27.9375 50.009 28.2268C50.009 28.5068 50.1023 28.7448 50.289 28.9408C50.4757 29.1368 50.7137 29.2348 51.003 29.2348Z" fill="url(#paint0_linear_2484_46012)"/>
<rect y="38.2988" width="91" height="2" rx="1" fill="url(#paint1_linear_2484_46012)" fill-opacity="0.23"/>
<rect y="38.2988" width="11" height="2" rx="1" fill="url(#paint2_linear_2484_46012)"/>
<defs>
<linearGradient id="paint0_linear_2484_46012" x1="27" y1="17.2988" x2="27" y2="34.2988" gradientUnits="userSpaceOnUse">
<stop stop-color="#EF3F19"/>
<stop offset="1" stop-color="#EC721A"/>
</linearGradient>
<linearGradient id="paint1_linear_2484_46012" x1="45.5" y1="38.2988" x2="45.5" y2="40.2988" gradientUnits="userSpaceOnUse">
<stop stop-color="#EF3F19"/>
<stop offset="1" stop-color="#EC721A"/>
</linearGradient>
<linearGradient id="paint2_linear_2484_46012" x1="5.5" y1="38.2988" x2="5.5" y2="40.2988" gradientUnits="userSpaceOnUse">
<stop stop-color="#EF3F19"/>
<stop offset="1" stop-color="#EC721A"/>
</linearGradient>
</defs>
</svg>
