<svg width="91" height="64" viewBox="0 0 91 64" fill="none" xmlns="http://www.w3.org/2000/svg">
<path d="M7.42031 20.8992V22.4392H4.66231V30.6992H3.05231V22.4392H0.280313V20.8992H7.42031ZM10.559 30.8812C9.53238 30.8812 8.65971 30.5266 7.94105 29.8172C7.22238 29.1079 6.86305 28.2352 6.86305 27.1992C6.86305 26.1632 7.22238 25.2906 7.94105 24.5812C8.65971 23.8719 9.53238 23.5172 10.559 23.5172C11.595 23.5172 12.4677 23.8719 13.177 24.5812C13.8957 25.2906 14.255 26.1632 14.255 27.1992C14.255 28.2352 13.8957 29.1079 13.177 29.8172C12.4677 30.5266 11.595 30.8812 10.559 30.8812ZM9.00505 28.7812C9.42505 29.2012 9.94305 29.4112 10.559 29.4112C11.175 29.4112 11.693 29.2012 12.113 28.7812C12.533 28.3612 12.743 27.8339 12.743 27.1992C12.743 26.5646 12.533 26.0372 12.113 25.6172C11.693 25.1972 11.175 24.9872 10.559 24.9872C9.94305 24.9872 9.42505 25.1972 9.00505 25.6172C8.58505 26.0372 8.37505 26.5646 8.37505 27.1992C8.37505 27.8339 8.58505 28.3612 9.00505 28.7812ZM19.5842 23.5172C20.5456 23.5172 21.3669 23.8766 22.0482 24.5952C22.7296 25.3046 23.0702 26.1726 23.0702 27.1992C23.0702 28.2352 22.7296 29.1079 22.0482 29.8172C21.3669 30.5266 20.5456 30.8812 19.5842 30.8812C18.5202 30.8812 17.7036 30.4892 17.1342 29.7052V33.4992H15.6222V23.6992H17.1342V24.7072C17.7036 23.9139 18.5202 23.5172 19.5842 23.5172ZM17.7642 28.8092C18.1842 29.2292 18.7116 29.4392 19.3462 29.4392C19.9809 29.4392 20.5082 29.2292 20.9282 28.8092C21.3482 28.3799 21.5582 27.8432 21.5582 27.1992C21.5582 26.5552 21.3482 26.0232 20.9282 25.6032C20.5082 25.1739 19.9809 24.9592 19.3462 24.9592C18.7116 24.9592 18.1842 25.1739 17.7642 25.6032C17.3442 26.0232 17.1342 26.5552 17.1342 27.1992C17.1342 27.8432 17.3442 28.3799 17.7642 28.8092ZM29.8166 20.8992H31.2166V30.6992H29.6066V22.6212L27.6326 23.1812L27.2406 21.8092L29.8166 20.8992ZM32.7016 30.6992V29.4392L36.1176 25.9532C36.9482 25.1226 37.3636 24.4039 37.3636 23.7972C37.3636 23.3212 37.2189 22.9526 36.9296 22.6912C36.6496 22.4206 36.2902 22.2852 35.8516 22.2852C35.0302 22.2852 34.4236 22.6912 34.0316 23.5032L32.6736 22.7052C32.9816 22.0519 33.4156 21.5572 33.9756 21.2212C34.5356 20.8852 35.1562 20.7172 35.8376 20.7172C36.6962 20.7172 37.4336 20.9879 38.0496 21.5292C38.6656 22.0706 38.9736 22.8079 38.9736 23.7412C38.9736 24.7399 38.4182 25.8039 37.3076 26.9332L35.0956 29.1452H39.1556V30.6992H32.7016ZM44.161 24.5532C43.7317 24.9826 43.1903 25.1972 42.537 25.1972C41.8837 25.1972 41.3377 24.9826 40.899 24.5532C40.4603 24.1146 40.241 23.5826 40.241 22.9572C40.241 22.3319 40.4603 21.8046 40.899 21.3752C41.3377 20.9366 41.8837 20.7172 42.537 20.7172C43.1903 20.7172 43.7317 20.9319 44.161 21.3612C44.5997 21.7906 44.819 22.3226 44.819 22.9572C44.819 23.5826 44.5997 24.1146 44.161 24.5532ZM42.523 23.9652C42.8217 23.9652 43.0643 23.8672 43.251 23.6712C43.4377 23.4752 43.531 23.2372 43.531 22.9572C43.531 22.6679 43.4377 22.4252 43.251 22.2292C43.0643 22.0332 42.8217 21.9352 42.523 21.9352C42.2337 21.9352 41.9957 22.0332 41.809 22.2292C41.6223 22.4252 41.529 22.6679 41.529 22.9572C41.529 23.2372 41.6223 23.4752 41.809 23.6712C41.9957 23.8672 42.2337 23.9652 42.523 23.9652ZM41.067 29.2572L47.521 22.0752L48.277 22.5092L41.823 29.7052L41.067 29.2572ZM47.017 30.8672C46.3637 30.8672 45.8177 30.6526 45.379 30.2232C44.9403 29.7846 44.721 29.2526 44.721 28.6272C44.721 28.0019 44.9403 27.4746 45.379 27.0452C45.8177 26.6066 46.3637 26.3872 47.017 26.3872C47.661 26.3872 48.2023 26.6066 48.641 27.0452C49.0797 27.4746 49.299 28.0019 49.299 28.6272C49.299 29.2526 49.0797 29.7846 48.641 30.2232C48.2023 30.6526 47.661 30.8672 47.017 30.8672ZM47.003 29.6352C47.3017 29.6352 47.5443 29.5372 47.731 29.3412C47.9177 29.1452 48.011 28.9072 48.011 28.6272C48.011 28.3379 47.9177 28.0952 47.731 27.8992C47.5443 27.7032 47.3017 27.6052 47.003 27.6052C46.7137 27.6052 46.4757 27.7032 46.289 27.8992C46.1023 28.0952 46.009 28.3379 46.009 28.6272C46.009 28.9072 46.1023 29.1452 46.289 29.3412C46.4757 29.5372 46.7137 29.6352 47.003 29.6352Z" fill="url(#paint0_linear_2484_46024)"/>
<rect y="38.6992" width="91" height="2" rx="1" fill="url(#paint1_linear_2484_46024)" fill-opacity="0.23"/>
<rect y="38.6992" width="79" height="2" rx="1" fill="url(#paint2_linear_2484_46024)"/>
<defs>
<linearGradient id="paint0_linear_2484_46024" x1="25" y1="17.6992" x2="25" y2="34.6992" gradientUnits="userSpaceOnUse">
<stop stop-color="#6FDF2B"/>
<stop offset="1" stop-color="#2BDF89"/>
</linearGradient>
<linearGradient id="paint1_linear_2484_46024" x1="45.5" y1="38.6992" x2="45.5" y2="40.6992" gradientUnits="userSpaceOnUse">
<stop stop-color="#6FDF2B"/>
<stop offset="1" stop-color="#2BDF89"/>
</linearGradient>
<linearGradient id="paint2_linear_2484_46024" x1="39.5" y1="38.6992" x2="39.5" y2="40.6992" gradientUnits="userSpaceOnUse">
<stop stop-color="#6FDF2B"/>
<stop offset="1" stop-color="#2BDF89"/>
</linearGradient>
</defs>
</svg>
